<?xml version="1.0" encoding="UTF-8"?>
<svg width="700pt" height="700pt" version="1.1" viewBox="0 0 700 700" xmlns="http://www.w3.org/2000/svg" xmlns:xlink="http://www.w3.org/1999/xlink">
 <defs>
  <symbol id="i" overflow="visible">
   <path d="m29.312-1.75c-1.5117 0.78125-3.0898 1.3711-4.7344 1.7656-1.6367 0.40625-3.3398 0.60938-5.1094 0.60938-5.3125 0-9.5273-1.4844-12.641-4.4531-3.1055-2.9688-4.6562-7-4.6562-12.094s1.5508-9.125 4.6562-12.094c3.1133-2.9688 7.3281-4.4531 12.641-4.4531 1.7695 0 3.4727 0.19922 5.1094 0.59375 1.6445 0.39844 3.2227 0.99219 4.7344 1.7812v6.5938c-1.5312-1.0391-3.0391-1.8008-4.5156-2.2812-1.4805-0.48828-3.0391-0.73438-4.6719-0.73438-2.9375 0-5.2461 0.94531-6.9219 2.8281-1.6797 1.875-2.5156 4.4648-2.5156 7.7656 0 3.293 0.83594 5.8828 2.5156 7.7656 1.6758 1.875 3.9844 2.8125 6.9219 2.8125 1.6328 0 3.1914-0.23828 4.6719-0.71875 1.4766-0.48828 2.9844-1.2539 4.5156-2.2969z"/>
  </symbol>
  <symbol id="d" overflow="visible">
   <path d="m21.453-17.406c-0.67969-0.3125-1.3516-0.53906-2.0156-0.6875-0.65625-0.15625-1.3203-0.23438-1.9844-0.23438-1.9688 0-3.4844 0.63281-4.5469 1.8906-1.0547 1.2617-1.5781 3.0703-1.5781 5.4219v11.016h-7.6562v-23.922h7.6562v3.9219c0.97656-1.5625 2.1016-2.7031 3.375-3.4219 1.2812-0.71875 2.8125-1.0781 4.5938-1.0781 0.25 0 0.52344 0.011719 0.82812 0.03125 0.30078 0.023438 0.73438 0.070312 1.2969 0.14062z"/>
  </symbol>
  <symbol id="c" overflow="visible">
   <path d="m27.562-12.031v2.1875h-17.891c0.1875 1.793 0.83203 3.1367 1.9375 4.0312 1.1133 0.89844 2.6719 1.3438 4.6719 1.3438 1.6016 0 3.25-0.23438 4.9375-0.70312 1.6875-0.47656 3.4219-1.2031 5.2031-2.1719v5.8906c-1.8047 0.6875-3.6094 1.2031-5.4219 1.5469-1.8125 0.35156-3.6211 0.53125-5.4219 0.53125-4.3359 0-7.7031-1.0977-10.109-3.2969-2.3984-2.207-3.5938-5.2969-3.5938-9.2656 0-3.9062 1.1758-6.9727 3.5312-9.2031 2.3633-2.2383 5.6094-3.3594 9.7344-3.3594 3.7578 0 6.7695 1.1367 9.0312 3.4062 2.2578 2.2617 3.3906 5.2812 3.3906 9.0625zm-7.8594-2.5312c0-1.457-0.42969-2.6289-1.2812-3.5156-0.84375-0.89453-1.9492-1.3438-3.3125-1.3438-1.4922 0-2.6992 0.41797-3.625 1.25-0.91797 0.83594-1.4922 2.0391-1.7188 3.6094z"/>
  </symbol>
  <symbol id="a" overflow="visible">
   <path d="m14.391-10.766c-1.5938 0-2.793 0.27344-3.5938 0.8125-0.80469 0.54297-1.2031 1.3398-1.2031 2.3906 0 0.96875 0.32031 1.7305 0.96875 2.2812 0.64453 0.54297 1.5469 0.8125 2.7031 0.8125 1.4375 0 2.6445-0.51562 3.625-1.5469 0.98828-1.0312 1.4844-2.3203 1.4844-3.875v-0.875zm11.688-2.8906v13.656h-7.7031v-3.5469c-1.0312 1.4492-2.1875 2.5078-3.4688 3.1719s-2.8398 1-4.6719 1c-2.4805 0-4.4961-0.72266-6.0469-2.1719-1.543-1.4453-2.3125-3.3203-2.3125-5.625 0-2.8125 0.96094-4.8672 2.8906-6.1719 1.9375-1.3125 4.9688-1.9688 9.0938-1.9688h4.5156v-0.60938c0-1.207-0.48047-2.0938-1.4375-2.6562-0.94922-0.5625-2.4375-0.84375-4.4688-0.84375-1.6367 0-3.1562 0.16797-4.5625 0.5-1.4062 0.32422-2.7188 0.8125-3.9375 1.4688v-5.8281c1.6445-0.40625 3.2891-0.70703 4.9375-0.90625 1.6562-0.20703 3.3047-0.3125 4.9531-0.3125 4.3203 0 7.4375 0.85547 9.3438 2.5625 1.9141 1.6992 2.875 4.4609 2.875 8.2812z"/>
  </symbol>
  <symbol id="h" overflow="visible">
   <path d="m12.031-30.719v6.7969h7.875v5.4688h-7.875v10.141c0 1.1172 0.21875 1.8711 0.65625 2.2656 0.4375 0.38672 1.3125 0.57812 2.625 0.57812h3.9375v5.4688h-6.5625c-3.0234 0-5.1641-0.62891-6.4219-1.8906-1.2617-1.2578-1.8906-3.3984-1.8906-6.4219v-10.141h-3.7969v-5.4688h3.7969v-6.7969z"/>
  </symbol>
  <symbol id="b" overflow="visible">
   <path d="m19.953-20.422v-12.812h7.6875v33.234h-7.6875v-3.4531c-1.0547 1.4062-2.2148 2.4375-3.4844 3.0938-1.2734 0.65625-2.7422 0.98438-4.4062 0.98438-2.9492 0-5.3711-1.1719-7.2656-3.5156-1.8867-2.3438-2.8281-5.3594-2.8281-9.0469s0.94141-6.7031 2.8281-9.0469c1.8945-2.3438 4.3164-3.5156 7.2656-3.5156 1.6562 0 3.1172 0.33594 4.3906 1 1.2812 0.65625 2.4453 1.6836 3.5 3.0781zm-5.0469 15.484c1.6445 0 2.8945-0.59766 3.75-1.7969 0.86328-1.1953 1.2969-2.9297 1.2969-5.2031 0-2.2812-0.43359-4.0195-1.2969-5.2188-0.85547-1.1953-2.1055-1.7969-3.75-1.7969-1.625 0-2.8711 0.60156-3.7344 1.7969-0.85547 1.1992-1.2812 2.9375-1.2812 5.2188 0 2.2734 0.42578 4.0078 1.2812 5.2031 0.86328 1.1992 2.1094 1.7969 3.7344 1.7969z"/>
  </symbol>
  <symbol id="g" overflow="visible">
   <path d="m16.406-4.9375c1.6328 0 2.8828-0.59766 3.75-1.7969 0.86328-1.1953 1.2969-2.9297 1.2969-5.2031 0-2.2812-0.43359-4.0195-1.2969-5.2188-0.86719-1.1953-2.1172-1.7969-3.75-1.7969-1.6367 0-2.8906 0.60547-3.7656 1.8125-0.875 1.1992-1.3125 2.9336-1.3125 5.2031 0 2.2617 0.4375 3.9961 1.3125 5.2031 0.875 1.1992 2.1289 1.7969 3.7656 1.7969zm-5.0781-15.484c1.0508-1.3945 2.2188-2.4219 3.5-3.0781 1.2812-0.66406 2.7539-1 4.4219-1 2.9453 0 5.3672 1.1719 7.2656 3.5156 1.8945 2.3438 2.8438 5.3594 2.8438 9.0469s-0.94922 6.7031-2.8438 9.0469c-1.8984 2.3438-4.3203 3.5156-7.2656 3.5156-1.668 0-3.1406-0.33594-4.4219-1s-2.4492-1.6914-3.5-3.0781v3.4531h-7.6562v-33.234h7.6562z"/>
  </symbol>
  <symbol id="f" overflow="visible">
   <path d="m0.53125-23.922h7.6562l6.4219 16.234 5.4688-16.234h7.6562l-10.062 26.188c-1.0117 2.6641-2.1953 4.5234-3.5469 5.5781-1.3438 1.0625-3.1211 1.5938-5.3281 1.5938h-4.4219v-5.0156h2.3906c1.3008 0 2.2422-0.21094 2.8281-0.625 0.59375-0.40625 1.0547-1.1484 1.3906-2.2188l0.20312-0.65625z"/>
  </symbol>
  <symbol id="e" overflow="visible">
   <path d="m12.234-25.672v19.453h2.9531c3.3633 0 5.9297-0.83203 7.7031-2.5 1.7695-1.6641 2.6562-4.0859 2.6562-7.2656 0-3.1562-0.88672-5.5547-2.6562-7.2031-1.7617-1.6562-4.3281-2.4844-7.7031-2.4844zm-8.2188-6.2188h8.6719c4.8438 0 8.4453 0.34375 10.812 1.0312 2.375 0.6875 4.4102 1.8594 6.1094 3.5156 1.4883 1.4375 2.5977 3.1016 3.3281 4.9844 0.72656 1.875 1.0938 4 1.0938 6.375 0 2.4062-0.36719 4.5586-1.0938 6.4531-0.73047 1.8867-1.8398 3.5469-3.3281 4.9844-1.7109 1.6484-3.7617 2.8203-6.1562 3.5156-2.3984 0.6875-5.9844 1.0312-10.766 1.0312h-8.6719z"/>
  </symbol>
 </defs>
 <g>
  <path d="m608.25 471.36-27.246-16.355c-12.34-7.418-26.906-10.242-41.125-7.9727l-0.9375 0.14844c-0.57031-1.5586-1.043-3.1406-1.75-4.6367l-2.5039-5.25h0.003906c-1.5742-3.3164-4.1562-6.0586-7.3711-7.8281-3.2188-1.7695-6.9141-2.4844-10.559-2.0391l-7.7539 0.94531v-0.003907c-5.5977 0.66406-10.535 3.9805-13.262 8.9141-2.7266 4.9336-2.9102 10.879-0.49219 15.973 3.4961 7.4023 4.5156 15.73 2.9062 23.758-1.0508 5.1484 0.26562 10.5 3.5938 14.57s8.3047 6.4336 13.562 6.4297c0.70703-0.003906 1.4102-0.042968 2.1094-0.125l7.7266-0.95312c3.6602-0.4375 7.0898-2.0195 9.8008-4.5195 2.707-2.5 4.5586-5.7969 5.2852-9.4102l1.1641-5.7227c0.79687-4.2539 1.0898-8.5898 0.875-12.914l0.33203-0.0625c10.152-1.6016 20.547 0.41406 29.363 5.6953l27.281 16.363h0.003906c1.9922 1.2969 4.4219 1.7266 6.7383 1.1953 2.3164-0.53516 4.3164-1.9883 5.5391-4.0273 1.2227-2.0391 1.5625-4.4844 0.94141-6.7812-0.61719-2.293-2.1445-4.2383-4.2266-5.3828zm-84 2.4336-1.1719 5.7227-7.7344 0.94531v-0.003906c2.3516-11.738 0.86328-23.918-4.2422-34.746l7.7422-0.9375 2.5039 5.25c3.4922 7.4062 4.5117 15.738 2.9023 23.766z"/>
  <path d="m274.7 200.12c7.7031 2.5859 16.117 1.9883 23.379-1.6641 19.703-9.875 34.684-27.164 41.652-48.074 6.9688-20.91 5.3555-43.73-4.4844-63.453-4.8906-9.7852-14.637-16.215-25.559-16.871s-21.363 4.5664-27.391 13.699c-6.0273 9.1289-6.7266 20.785-1.832 30.57 2.5938 5.1875 3.0195 11.195 1.1836 16.699-1.832 5.5039-5.7773 10.055-10.969 12.648-7.2617 3.6328-12.789 10.004-15.355 17.707-2.5703 7.707-1.9688 16.117 1.6641 23.383 3.6328 7.2656 10.004 12.789 17.711 15.355zm3.8164-40.793h-0.003906c5.1211-2.5938 9.6016-6.2852 13.125-10.812h16.207c4.832 0 8.75-3.918 8.75-8.75 0-4.8359-3.918-8.75-8.75-8.75h-8.332c1.5625-8.3203 0.37109-16.922-3.3945-24.5-2.043-4.0703-1.832-8.9102 0.5625-12.785 2.3906-3.875 6.6172-6.2305 11.172-6.2305 4.9727 0.011719 9.5117 2.8203 11.742 7.2617 1.293 2.625 2.4062 5.3359 3.332 8.1133l-11.156 5.582c-2.0938 1.0273-3.6914 2.8438-4.4375 5.0547-0.74609 2.2109-0.58203 4.625 0.46094 6.7148 1.043 2.0859 2.875 3.668 5.0938 4.3984 2.2148 0.73047 4.6289 0.54297 6.707-0.51562l6.7812-3.3594c0.85547 16.508-4.5508 32.734-15.137 45.43l-3.4023-6.8086h-0.003907c-0.86719-2.3203-2.6797-4.1641-4.9844-5.0742-2.3047-0.91016-4.8867-0.80078-7.1055 0.30469-2.2227 1.1055-3.8672 3.0977-4.5352 5.4844-0.66406 2.3867-0.28516 4.9453 1.043 7.0391l5.582 11.148c-2.4102 1.668-4.9297 3.168-7.543 4.4961-3.1211 1.6367-6.7695 1.9453-10.121 0.86328-3.3555-1.082-6.1328-3.4688-7.707-6.6211-1.5742-3.1523-1.8164-6.8047-0.67188-10.141 1.1484-3.332 3.5859-6.0625 6.7656-7.5781z"/>
  <path d="m421.09 174.46c-7.9102 1.8516-14.758 6.7695-19.043 13.672-4.2812 6.9023-5.6484 15.223-3.7969 23.133 4.3008 18.227 14.617 34.473 29.281 46.117 14.664 11.645 32.824 18.012 51.551 18.07 6.418-0.003906 12.812-0.74609 19.059-2.2109 10.656-2.5 19.164-10.496 22.324-20.973 3.1641-10.477 0.49219-21.844-7-29.82-7.4922-7.9766-18.668-11.348-29.324-8.8477-5.6445 1.3125-11.574 0.33203-16.496-2.7266s-8.4297-7.9414-9.7539-13.582c-1.8633-7.9023-6.7852-14.742-13.684-19.023-6.8984-4.2773-15.211-5.6484-23.117-3.8086zm12.082 17.77-4.375 2.4844v0.003906c-4.1992 2.4023-5.6523 7.7578-3.25 11.957 2.4062 4.1992 7.7578 5.6562 11.957 3.25l5.25-3.0117v0.003906c3.0469 7.7383 8.4883 14.297 15.531 18.723l-4.875 5.4258c-1.5898 1.7188-2.4297 4.0078-2.3203 6.3477 0.10937 2.3438 1.1523 4.543 2.8945 6.1094 1.7461 1.5664 4.043 2.3672 6.3828 2.2227 2.3398-0.14453 4.5234-1.2227 6.0625-2.9883l10.184-11.332h0.003906c3.8633 0.30859 7.7539 0.042968 11.539-0.78906 7.0625-1.6523 14.125 2.7305 15.777 9.793 1.6523 7.0586-2.7305 14.121-9.7891 15.773-1.1289 0.26172-2.2656 0.41016-3.3945 0.61328l0.60547-2.1875h-0.003906c1.2812-4.6602-1.457-9.4805-6.1172-10.762-4.6602-1.2812-9.4805 1.457-10.762 6.1172l-2.0664 7.5352v-0.003907c-14.238-1.4883-27.602-7.5742-38.07-17.34l4.6016-2.625c2.0625-1.125 3.582-3.0312 4.2266-5.2891 0.64062-2.2578 0.34766-4.6797-0.8125-6.7188s-3.0938-3.5273-5.3633-4.1289c-2.2695-0.60156-4.6836-0.26953-6.7031 0.92969l-7.1406 4.0586c-3.6211-5.9219-6.2812-12.379-7.875-19.137-1.1484-4.8086 0.51562-9.8555 4.3008-13.039 3.7852-3.1836 9.043-3.957 13.586-2z"/>
  <path d="m227.5 26.25v101.3c0.26562 13.293-3.8594 26.301-11.734 37.016-5.8047 7.5664-13.457 13.52-22.223 17.281-21.77 9.0586-38.93 26.57-47.551 48.516-8.6172 21.949-7.957 46.457 1.832 67.91 9.7891 21.449 27.867 38.012 50.094 45.887 4.4414 1.5664 9.0391 2.668 13.711 3.2812l16.238 2.3984v-0.003907c4.1289 0.63672 8.1211-1.7578 9.5117-5.6953 1.7969-5.1172 5.875-9.1016 11.035-10.777 5.1602-1.6719 10.805-0.83984 15.262 2.25 4.457 3.0859 7.2148 8.082 7.4609 13.5 0.21094 4.1602 3.332 7.5938 7.4531 8.207l35.535 5.25c0.42188 0.058594 0.85156 0.085938 1.2773 0.085938 2.4883 0 4.8633-1.0586 6.5234-2.9141 1.6602-1.8555 2.4492-4.332 2.1758-6.8086l-0.17578-1.3398v0.003906c-0.09375-0.52734-0.15234-1.0586-0.17578-1.5938 0-9.3789 5.0039-18.043 13.125-22.734 8.1211-4.6875 18.129-4.6875 26.25 0 8.1211 4.6914 13.125 13.355 13.125 22.734-0.019531 0.46094-0.066406 0.91797-0.14844 1.375l-0.17578 1.4102v-0.003906c-0.29688 2.6914 0.66406 5.3672 2.6094 7.25 1.9453 1.8828 4.6523 2.7617 7.332 2.375l44.391-6.3438h-0.003906c3.9844-0.57031 7.0625-3.7852 7.4648-7.7852 0.49219-5.2812 3.3672-10.051 7.8125-12.941 4.4453-2.8945 9.9688-3.5977 15-1.9102 5.0273 1.6875 9.0078 5.582 10.805 10.57 1.4609 3.9531 5.5312 6.3047 9.6875 5.5938 6.5039-1.0352 12.91-2.6133 19.152-4.7188 16.289-5.6055 30.594-15.828 41.18-29.414 10.59-13.586 17.004-29.957 18.461-47.121 1.1797-18.168-3.3281-36.258-12.891-51.75-9.5625-15.496-23.715-27.629-40.484-34.719-8.7656-3.7617-16.418-9.7109-22.227-17.281-7.8711-10.719-11.988-23.738-11.715-37.039v-101.3c0-2.3203-0.92188-4.5469-2.5625-6.1875s-3.8672-2.5625-6.1875-2.5625h-227.5c-4.832 0-8.75 3.918-8.75 8.75zm17.5 8.75h210v92.547c-0.26172 17.176 5.1523 33.957 15.398 47.742 7.6445 9.9336 17.707 17.742 29.227 22.68 13.418 5.6797 24.738 15.391 32.383 27.793 7.6484 12.406 11.246 26.879 10.289 41.418-1.2031 13.742-6.375 26.832-14.883 37.688-8.5078 10.855-19.988 19.004-33.039 23.461-3.2891 1.125-6.6445 2.0508-10.047 2.7734-4.7891-7.5156-12.281-12.906-20.926-15.066-8.6484-2.1602-17.793-0.91797-25.555 3.4609-7.7617 4.3828-13.547 11.574-16.168 20.09l-28.422 4.0508 0.003907 0.003906c-2.0195-14.023-10.703-26.195-23.301-32.672-12.598-6.4766-27.551-6.457-40.125 0.058594-12.578 6.5156-21.223 18.715-23.199 32.742l-19.25-2.8359c-2.3633-8.8086-8.082-16.34-15.934-20.977-7.8477-4.6406-17.207-6.0156-26.059-3.8359-8.8555 2.1836-16.5 7.75-21.297 15.504l-9.9219-1.4609h-0.003906c-3.4492-0.44531-6.8438-1.2383-10.129-2.3711-12.676-4.668-23.762-12.84-31.973-23.566-8.2109-10.723-13.203-23.559-14.402-37.012-0.95703-14.539 2.6406-29.016 10.289-41.418 7.6484-12.402 18.969-22.117 32.391-27.793 11.535-4.9336 21.609-12.742 29.262-22.68 10.25-13.797 15.66-30.59 15.391-47.777z"/>
  <path d="m288.75 315c13.926 0 27.277-5.5312 37.125-15.375 9.8438-9.8477 15.375-23.199 15.375-37.125s-5.5312-27.277-15.375-37.125c-9.8477-9.8438-23.199-15.375-37.125-15.375s-27.277 5.5312-37.125 15.375c-9.8438 9.8477-15.375 23.199-15.375 37.125 0.015625 13.918 5.5508 27.266 15.391 37.109 9.8438 9.8398 23.191 15.375 37.109 15.391zm0-87.5c9.2812 0 18.184 3.6875 24.75 10.25 6.5625 6.5664 10.25 15.469 10.25 24.75s-3.6875 18.184-10.25 24.75c-6.5664 6.5625-15.469 10.25-24.75 10.25s-18.184-3.6875-24.75-10.25c-6.5625-6.5664-10.25-15.469-10.25-24.75s3.6875-18.184 10.25-24.75c6.5664-6.5625 15.469-10.25 24.75-10.25z"/>
  <path d="m332.5 201.25c0 6.9609 2.7656 13.641 7.6875 18.562s11.602 7.6875 18.562 7.6875 13.641-2.7656 18.562-7.6875 7.6875-11.602 7.6875-18.562-2.7656-13.641-7.6875-18.562-11.602-7.6875-18.562-7.6875-13.641 2.7656-18.562 7.6875-7.6875 11.602-7.6875 18.562zm26.25-8.75c3.5391 0 6.7305 2.1328 8.082 5.4023 1.3555 3.2695 0.60938 7.0312-1.8945 9.5352s-6.2656 3.25-9.5352 1.8945c-3.2695-1.3516-5.4023-4.543-5.4023-8.082 0-4.832 3.918-8.75 8.75-8.75z"/>
  <path d="m393.75 253.75c-6.9609 0-13.641 2.7656-18.562 7.6875s-7.6875 11.602-7.6875 18.562 2.7656 13.641 7.6875 18.562 11.602 7.6875 18.562 7.6875 13.641-2.7656 18.562-7.6875 7.6875-11.602 7.6875-18.562-2.7656-13.641-7.6875-18.562-11.602-7.6875-18.562-7.6875zm0 35c-3.5391 0-6.7305-2.1328-8.082-5.4023-1.3555-3.2695-0.60938-7.0312 1.8945-9.5352s6.2656-3.25 9.5352-1.8945c3.2695 1.3516 5.4023 4.543 5.4023 8.082 0 2.3203-0.92188 4.5469-2.5625 6.1875s-3.8672 2.5625-6.1875 2.5625z"/>
  <path d="m288.75 262.5c2.3203 0 4.5469-0.92188 6.1875-2.5625s2.5625-3.8672 2.5625-6.1875v-8.75c0-4.832-3.918-8.75-8.75-8.75s-8.75 3.918-8.75 8.75v8.75c0 2.3203 0.92188 4.5469 2.5625 6.1875s3.8672 2.5625 6.1875 2.5625z"/>
  <path d="m297.5 280c0 4.832 3.918 8.75 8.75 8.75s8.75-3.918 8.75-8.75v-8.75c0-4.832-3.918-8.75-8.75-8.75s-8.75 3.918-8.75 8.75z"/>
  <path d="m271.25 280c2.3203 0 4.5469-0.92188 6.1875-2.5625s2.5625-3.8672 2.5625-6.1875v-8.75c0-4.832-3.918-8.75-8.75-8.75s-8.75 3.918-8.75 8.75v8.75c0 2.3203 0.92188 4.5469 2.5625 6.1875s3.8672 2.5625 6.1875 2.5625z"/>
  <path d="m402.5 157.5c6.9609 0 13.641-2.7656 18.562-7.6875s7.6875-11.602 7.6875-18.562-2.7656-13.641-7.6875-18.562-11.602-7.6875-18.562-7.6875-13.641 2.7656-18.562 7.6875-7.6875 11.602-7.6875 18.562 2.7656 13.641 7.6875 18.562 11.602 7.6875 18.562 7.6875zm0-35c3.5391 0 6.7305 2.1328 8.082 5.4023 1.3555 3.2695 0.60938 7.0312-1.8945 9.5352s-6.2656 3.25-9.5352 1.8945c-3.2695-1.3516-5.4023-4.543-5.4023-8.082 0-4.832 3.918-8.75 8.75-8.75z"/>
  <path d="m245 350v8.75c0 4.832 3.918 8.75 8.75 8.75s8.75-3.918 8.75-8.75v-8.75c0-4.832-3.918-8.75-8.75-8.75s-8.75 3.918-8.75 8.75z"/>
  <path d="m341.25 376.25v-8.75c0-4.832-3.918-8.75-8.75-8.75s-8.75 3.918-8.75 8.75v8.75c0 4.832 3.918 8.75 8.75 8.75s8.75-3.918 8.75-8.75z"/>
  <path d="m358.75 358.75c2.3203 0 4.5469-0.92188 6.1875-2.5625s2.5625-3.8672 2.5625-6.1875v-8.75c0-4.832-3.918-8.75-8.75-8.75s-8.75 3.918-8.75 8.75v8.75c0 2.3203 0.92188 4.5469 2.5625 6.1875s3.8672 2.5625 6.1875 2.5625z"/>
  <path d="m446.25 358.75v8.75c0 4.832 3.918 8.75 8.75 8.75s8.75-3.918 8.75-8.75v-8.75c0-4.832-3.918-8.75-8.75-8.75s-8.75 3.918-8.75 8.75z"/>
  <path d="m227.5 393.75v8.75c0 4.832 3.918 8.75 8.75 8.75s8.75-3.918 8.75-8.75v-8.75c0-4.832-3.918-8.75-8.75-8.75s-8.75 3.918-8.75 8.75z"/>
  <path d="m367.5 385c-4.832 0-8.75 3.918-8.75 8.75v8.75c0 4.832 3.918 8.75 8.75 8.75s8.75-3.918 8.75-8.75v-8.75c0-2.3203-0.92188-4.5469-2.5625-6.1875s-3.8672-2.5625-6.1875-2.5625z"/>
  <path d="m315 411.25v8.75c0 4.832 3.918 8.75 8.75 8.75s8.75-3.918 8.75-8.75v-8.75c0-4.832-3.918-8.75-8.75-8.75s-8.75 3.918-8.75 8.75z"/>
  <path d="m472.5 385v8.75c0 4.832 3.918 8.75 8.75 8.75s8.75-3.918 8.75-8.75v-8.75c0-4.832-3.918-8.75-8.75-8.75s-8.75 3.918-8.75 8.75z"/>
  <path d="m343.3 453.52c-3.2891-4.5547-8.5664-7.2617-14.191-7.2695h-7.8047c-3.6758-0.003906-7.2617 1.1484-10.246 3.293-2.9844 2.1484-5.2148 5.1797-6.3789 8.668l-1.8281 5.5391c-0.32422 0.97266-0.45312 1.9844-0.72656 2.9648-13.949-1.4805-30.055-3.4297-48.125-5.8359 0-1.6016 0-3.2031-0.14844-4.7969l-0.65625-5.7852v0.003906c-0.40234-3.6523-1.9492-7.0859-4.418-9.8086-2.4688-2.7227-5.7305-4.5977-9.3281-5.3555l-7.6289-1.6289v0.003907c-5.5-1.1602-11.219 0.39062-15.379 4.168-4.1562 3.7773-6.25 9.3203-5.6211 14.906 0.89844 8.1367-0.85156 16.348-4.9883 23.414-2.8477 4.8516-3.1914 10.773-0.92188 15.922 2.2695 5.1445 6.8711 8.8867 12.375 10.059l7.6289 1.6289v-0.003906c1.1992 0.25391 2.4219 0.38281 3.6484 0.38672 6.2031-0.003907 11.938-3.2891 15.078-8.6367l2.957-5.0312c2.1719-3.8164 3.8789-7.8789 5.082-12.102 18.199 2.4219 34.465 4.375 48.578 5.8984h0.003906c0.21094 4.9727 1.0938 9.8945 2.625 14.629l1.8477 5.5391h-0.003906c1.1641 3.4766 3.3867 6.5039 6.3594 8.6523 2.9766 2.1445 6.5469 3.3047 10.215 3.3086h7.8047c5.6328 0.007812 10.922-2.6953 14.215-7.2578 3.2969-4.5664 4.1914-10.441 2.4102-15.781-2.5703-7.7656-2.5703-16.156 0-23.922 1.7617-5.3438 0.85547-11.203-2.4336-15.77zm-114.75 32.98-7.6289-1.6289c6.0508-10.328 8.6055-22.336 7.2891-34.238l7.6289 1.6367 0.65625 5.7852c0.89844 8.1328-0.84766 16.34-4.9805 23.406zm92.75 12.25-1.8477-5.5391c-2.5703-7.7656-2.5703-16.156 0-23.922l1.8477-5.5391h7.7969c-3.7734 11.363-3.7734 23.637 0 35z"/>
  <path d="m205.74 451.5c2.8477-4.8477 3.1914-10.773 0.92578-15.918-2.2695-5.1445-6.8711-8.8906-12.371-10.062l-7.6406-1.6289 0.003906 0.003906c-3.5938-0.77344-7.3398-0.38672-10.703 1.0938-3.3633 1.4844-6.168 3.9922-8.0234 7.1641l-2.9492 5.0234c-1.8047 3.1484-3.2891 6.4648-4.4336 9.9062l-0.38672-0.0625c-14.23-2.2812-28.812 0.54688-41.16 7.9805l-27.281 16.363c-2.082 1.1445-3.6094 3.0898-4.2266 5.3828-0.62109 2.2969-0.28125 4.7422 0.94141 6.7812 1.2227 2.0391 3.2227 3.4922 5.5391 4.0273 2.3164 0.53125 4.75 0.10156 6.7383-1.1953l27.281-16.363h0.003906c8.875-5.2617 19.312-7.2539 29.504-5.6328-0.074219 2.3516-0.003906 4.707 0.21875 7.0508l0.65625 5.793c0.41016 3.6484 1.9609 7.0781 4.4258 9.7969 2.4688 2.7188 5.7305 4.5938 9.3203 5.3594l7.6289 1.6289v-0.003907c5.5 1.1602 11.219-0.39062 15.375-4.168 4.1602-3.7773 6.2539-9.3203 5.625-14.906-0.89453-8.1367 0.85156-16.348 4.9883-23.414zm-22.348 25.375-7.6289-1.6367-0.65625-5.7852c-0.90234-8.1367 0.84766-16.348 4.9883-23.414l2.957-5.0312 7.6289 1.6289c-6.0586 10.328-8.6172 22.336-7.2891 34.238z"/>
  <path d="m490.13 453.84c1.1172-5.5078-0.48047-11.219-4.293-15.348s-9.3789-6.1758-14.957-5.5039l-7.7266 0.94531c-3.6523 0.4375-7.0742 2.0156-9.7812 4.5078-2.7031 2.4922-4.5547 5.7734-5.2891 9.3789l-1.1641 5.7227c-0.45312 2.418-0.74219 4.8672-0.875 7.3242-19.539 2.625-36.75 4.6719-51.477 6.1875-0.29687-1.0938-0.45312-2.2305-0.8125-3.3086l-1.8477-5.5391h0.003906c-1.1641-3.4844-3.3906-6.5117-6.3711-8.6602-2.9805-2.1445-6.5586-3.3008-10.23-3.3008h-7.8125c-5.6289-0.007812-10.922 2.6953-14.215 7.2578-3.2969 4.5664-4.1914 10.441-2.4102 15.781 2.5625 7.7695 2.5625 16.16 0 23.93-1.7773 5.3398-0.87891 11.211 2.4141 15.773 3.293 4.5625 8.582 7.2656 14.211 7.2578h7.8047c3.6758 0.003906 7.2617-1.1484 10.246-3.293 2.9844-2.1484 5.2148-5.1797 6.3789-8.668l1.8203-5.5391c1.4805-4.625 2.3438-9.4258 2.5625-14.281 14.719-1.5156 31.91-3.5781 51.363-6.168 0.83594 3.4336 2.0078 6.7812 3.5 9.9844l2.5039 5.25c1.4141 2.9805 3.6445 5.5 6.4336 7.2695 2.7852 1.7695 6.0156 2.7109 9.3164 2.7227 0.71094 0 1.4258-0.042969 2.1328-0.13281l7.7422-0.94531 0.003906 0.003906c5.582-0.68359 10.496-4.0078 13.207-8.9375s2.8906-10.859 0.47656-15.941c-3.4727-7.3984-4.4766-15.719-2.8594-23.73zm-113.01 39.367-1.8125 5.5391h-7.8125c3.7617-11.363 3.7617-23.637 0-35h7.8047l1.8477 5.5391c2.5547 7.7695 2.543 16.156-0.027344 23.922zm92.312-7.1562-2.4922-5.25c-3.4961-7.3984-4.5156-15.727-2.9062-23.75l1.1641-5.7148 7.7422-0.94531v0.003907c-2.3555 11.73-0.86328 23.914 4.2617 34.727z"/>
  <use x="70" y="691.25" xlink:href="#i"/>
  <use x="102.109375" y="691.25" xlink:href="#d"/>
  <use x="123.683594" y="691.25" xlink:href="#c"/>
  <use x="153.355469" y="691.25" xlink:href="#a"/>
  <use x="182.878906" y="691.25" xlink:href="#h"/>
  <use x="203.792969" y="691.25" xlink:href="#c"/>
  <use x="233.464844" y="691.25" xlink:href="#b"/>
  <use x="280.011719" y="691.25" xlink:href="#g"/>
  <use x="311.328125" y="691.25" xlink:href="#f"/>
  <use x="355.078125" y="691.25" xlink:href="#b"/>
  <use x="386.398438" y="691.25" xlink:href="#e"/>
  <use x="422.714844" y="691.25" xlink:href="#a"/>
  <use x="452.234375" y="691.25" xlink:href="#d"/>
  <use x="473.8125" y="691.25" xlink:href="#a"/>
 </g>
</svg>
