<?xml version="1.0" encoding="UTF-8" standalone="no"?>
<svg
   width="700pt"
   height="700pt"
   version="1.1"
   viewBox="0 0 700 700"
   id="svg246"
   sodipodi:docname="powerhouse.svg"
   inkscape:version="1.2.1 (9c6d41e410, 2022-07-14, custom)"
   xmlns:inkscape="http://www.inkscape.org/namespaces/inkscape"
   xmlns:sodipodi="http://sodipodi.sourceforge.net/DTD/sodipodi-0.dtd"
   xmlns:xlink="http://www.w3.org/1999/xlink"
   xmlns="http://www.w3.org/2000/svg"
   xmlns:svg="http://www.w3.org/2000/svg">
  <sodipodi:namedview
     id="namedview248"
     pagecolor="#ffffff"
     bordercolor="#000000"
     borderopacity="0.25"
     inkscape:showpageshadow="2"
     inkscape:pageopacity="0.0"
     inkscape:pagecheckerboard="true"
     inkscape:deskcolor="#d1d1d1"
     inkscape:document-units="pt"
     showgrid="false"
     inkscape:zoom="0.70710678"
     inkscape:cx="291.32799"
     inkscape:cy="534.57273"
     inkscape:window-width="1667"
     inkscape:window-height="848"
     inkscape:window-x="0"
     inkscape:window-y="0"
     inkscape:window-maximized="1"
     inkscape:current-layer="g244" />
  <defs
     id="defs188">
    <linearGradient
       inkscape:collect="always"
       id="linearGradient3058">
      <stop
         style="stop-color:#91b7ff;stop-opacity:1;"
         offset="0"
         id="stop3054" />
      <stop
         style="stop-color:#7aa2f7;stop-opacity:1;"
         offset="1"
         id="stop3056" />
    </linearGradient>
    <linearGradient
       inkscape:collect="always"
       id="linearGradient2998">
      <stop
         style="stop-color:#7aa2f7;stop-opacity:1;"
         offset="0"
         id="stop2994" />
      <stop
         style="stop-color:#5784d5;stop-opacity:1;"
         offset="1"
         id="stop2996" />
    </linearGradient>
    <linearGradient
       inkscape:collect="always"
       id="linearGradient2942">
      <stop
         style="stop-color:#df7fbe;stop-opacity:1;"
         offset="0"
         id="stop2938" />
      <stop
         style="stop-color:#e0617a;stop-opacity:1;"
         offset="1"
         id="stop2940" />
    </linearGradient>
    <linearGradient
       inkscape:collect="always"
       id="linearGradient2890">
      <stop
         style="stop-color:#3f4e74;stop-opacity:1;"
         offset="0"
         id="stop2886" />
      <stop
         style="stop-color:#222d56;stop-opacity:1;"
         offset="1"
         id="stop2888" />
    </linearGradient>
    <symbol
       id="i"
       overflow="visible">
      <path
         d="m29.312-1.75c-1.5117 0.78125-3.0898 1.3711-4.7344 1.7656-1.6367 0.40625-3.3398 0.60938-5.1094 0.60938-5.3125 0-9.5273-1.4844-12.641-4.4531-3.1055-2.9688-4.6562-7-4.6562-12.094s1.5508-9.125 4.6562-12.094c3.1133-2.9688 7.3281-4.4531 12.641-4.4531 1.7695 0 3.4727 0.19922 5.1094 0.59375 1.6445 0.39844 3.2227 0.99219 4.7344 1.7812v6.5938c-1.5312-1.0391-3.0391-1.8008-4.5156-2.2812-1.4805-0.48828-3.0391-0.73438-4.6719-0.73438-2.9375 0-5.2461 0.94531-6.9219 2.8281-1.6797 1.875-2.5156 4.4648-2.5156 7.7656 0 3.293 0.83594 5.8828 2.5156 7.7656 1.6758 1.875 3.9844 2.8125 6.9219 2.8125 1.6328 0 3.1914-0.23828 4.6719-0.71875 1.4766-0.48828 2.9844-1.2539 4.5156-2.2969z"
         id="path161" />
    </symbol>
    <symbol
       id="d"
       overflow="visible">
      <path
         d="m21.453-17.406c-0.67969-0.3125-1.3516-0.53906-2.0156-0.6875-0.65625-0.15625-1.3203-0.23438-1.9844-0.23438-1.9688 0-3.4844 0.63281-4.5469 1.8906-1.0547 1.2617-1.5781 3.0703-1.5781 5.4219v11.016h-7.6562v-23.922h7.6562v3.9219c0.97656-1.5625 2.1016-2.7031 3.375-3.4219 1.2812-0.71875 2.8125-1.0781 4.5938-1.0781 0.25 0 0.52344 0.011719 0.82812 0.03125 0.30078 0.023438 0.73438 0.070312 1.2969 0.14062z"
         id="path164" />
    </symbol>
    <symbol
       id="c"
       overflow="visible">
      <path
         d="m27.562-12.031v2.1875h-17.891c0.1875 1.793 0.83203 3.1367 1.9375 4.0312 1.1133 0.89844 2.6719 1.3438 4.6719 1.3438 1.6016 0 3.25-0.23438 4.9375-0.70312 1.6875-0.47656 3.4219-1.2031 5.2031-2.1719v5.8906c-1.8047 0.6875-3.6094 1.2031-5.4219 1.5469-1.8125 0.35156-3.6211 0.53125-5.4219 0.53125-4.3359 0-7.7031-1.0977-10.109-3.2969-2.3984-2.207-3.5938-5.2969-3.5938-9.2656 0-3.9062 1.1758-6.9727 3.5312-9.2031 2.3633-2.2383 5.6094-3.3594 9.7344-3.3594 3.7578 0 6.7695 1.1367 9.0312 3.4062 2.2578 2.2617 3.3906 5.2812 3.3906 9.0625zm-7.8594-2.5312c0-1.457-0.42969-2.6289-1.2812-3.5156-0.84375-0.89453-1.9492-1.3438-3.3125-1.3438-1.4922 0-2.6992 0.41797-3.625 1.25-0.91797 0.83594-1.4922 2.0391-1.7188 3.6094z"
         id="path167" />
    </symbol>
    <symbol
       id="a"
       overflow="visible">
      <path
         d="m14.391-10.766c-1.5938 0-2.793 0.27344-3.5938 0.8125-0.80469 0.54297-1.2031 1.3398-1.2031 2.3906 0 0.96875 0.32031 1.7305 0.96875 2.2812 0.64453 0.54297 1.5469 0.8125 2.7031 0.8125 1.4375 0 2.6445-0.51562 3.625-1.5469 0.98828-1.0312 1.4844-2.3203 1.4844-3.875v-0.875zm11.688-2.8906v13.656h-7.7031v-3.5469c-1.0312 1.4492-2.1875 2.5078-3.4688 3.1719s-2.8398 1-4.6719 1c-2.4805 0-4.4961-0.72266-6.0469-2.1719-1.543-1.4453-2.3125-3.3203-2.3125-5.625 0-2.8125 0.96094-4.8672 2.8906-6.1719 1.9375-1.3125 4.9688-1.9688 9.0938-1.9688h4.5156v-0.60938c0-1.207-0.48047-2.0938-1.4375-2.6562-0.94922-0.5625-2.4375-0.84375-4.4688-0.84375-1.6367 0-3.1562 0.16797-4.5625 0.5-1.4062 0.32422-2.7188 0.8125-3.9375 1.4688v-5.8281c1.6445-0.40625 3.2891-0.70703 4.9375-0.90625 1.6562-0.20703 3.3047-0.3125 4.9531-0.3125 4.3203 0 7.4375 0.85547 9.3438 2.5625 1.9141 1.6992 2.875 4.4609 2.875 8.2812z"
         id="path170" />
    </symbol>
    <symbol
       id="h"
       overflow="visible">
      <path
         d="m12.031-30.719v6.7969h7.875v5.4688h-7.875v10.141c0 1.1172 0.21875 1.8711 0.65625 2.2656 0.4375 0.38672 1.3125 0.57812 2.625 0.57812h3.9375v5.4688h-6.5625c-3.0234 0-5.1641-0.62891-6.4219-1.8906-1.2617-1.2578-1.8906-3.3984-1.8906-6.4219v-10.141h-3.7969v-5.4688h3.7969v-6.7969z"
         id="path173" />
    </symbol>
    <symbol
       id="b"
       overflow="visible">
      <path
         d="m19.953-20.422v-12.812h7.6875v33.234h-7.6875v-3.4531c-1.0547 1.4062-2.2148 2.4375-3.4844 3.0938-1.2734 0.65625-2.7422 0.98438-4.4062 0.98438-2.9492 0-5.3711-1.1719-7.2656-3.5156-1.8867-2.3438-2.8281-5.3594-2.8281-9.0469s0.94141-6.7031 2.8281-9.0469c1.8945-2.3438 4.3164-3.5156 7.2656-3.5156 1.6562 0 3.1172 0.33594 4.3906 1 1.2812 0.65625 2.4453 1.6836 3.5 3.0781zm-5.0469 15.484c1.6445 0 2.8945-0.59766 3.75-1.7969 0.86328-1.1953 1.2969-2.9297 1.2969-5.2031 0-2.2812-0.43359-4.0195-1.2969-5.2188-0.85547-1.1953-2.1055-1.7969-3.75-1.7969-1.625 0-2.8711 0.60156-3.7344 1.7969-0.85547 1.1992-1.2812 2.9375-1.2812 5.2188 0 2.2734 0.42578 4.0078 1.2812 5.2031 0.86328 1.1992 2.1094 1.7969 3.7344 1.7969z"
         id="path176" />
    </symbol>
    <symbol
       id="g"
       overflow="visible">
      <path
         d="m16.406-4.9375c1.6328 0 2.8828-0.59766 3.75-1.7969 0.86328-1.1953 1.2969-2.9297 1.2969-5.2031 0-2.2812-0.43359-4.0195-1.2969-5.2188-0.86719-1.1953-2.1172-1.7969-3.75-1.7969-1.6367 0-2.8906 0.60547-3.7656 1.8125-0.875 1.1992-1.3125 2.9336-1.3125 5.2031 0 2.2617 0.4375 3.9961 1.3125 5.2031 0.875 1.1992 2.1289 1.7969 3.7656 1.7969zm-5.0781-15.484c1.0508-1.3945 2.2188-2.4219 3.5-3.0781 1.2812-0.66406 2.7539-1 4.4219-1 2.9453 0 5.3672 1.1719 7.2656 3.5156 1.8945 2.3438 2.8438 5.3594 2.8438 9.0469s-0.94922 6.7031-2.8438 9.0469c-1.8984 2.3438-4.3203 3.5156-7.2656 3.5156-1.668 0-3.1406-0.33594-4.4219-1s-2.4492-1.6914-3.5-3.0781v3.4531h-7.6562v-33.234h7.6562z"
         id="path179" />
    </symbol>
    <symbol
       id="f"
       overflow="visible">
      <path
         d="m0.53125-23.922h7.6562l6.4219 16.234 5.4688-16.234h7.6562l-10.062 26.188c-1.0117 2.6641-2.1953 4.5234-3.5469 5.5781-1.3438 1.0625-3.1211 1.5938-5.3281 1.5938h-4.4219v-5.0156h2.3906c1.3008 0 2.2422-0.21094 2.8281-0.625 0.59375-0.40625 1.0547-1.1484 1.3906-2.2188l0.20312-0.65625z"
         id="path182" />
    </symbol>
    <symbol
       id="e"
       overflow="visible">
      <path
         d="m12.234-25.672v19.453h2.9531c3.3633 0 5.9297-0.83203 7.7031-2.5 1.7695-1.6641 2.6562-4.0859 2.6562-7.2656 0-3.1562-0.88672-5.5547-2.6562-7.2031-1.7617-1.6562-4.3281-2.4844-7.7031-2.4844zm-8.2188-6.2188h8.6719c4.8438 0 8.4453 0.34375 10.812 1.0312 2.375 0.6875 4.4102 1.8594 6.1094 3.5156 1.4883 1.4375 2.5977 3.1016 3.3281 4.9844 0.72656 1.875 1.0938 4 1.0938 6.375 0 2.4062-0.36719 4.5586-1.0938 6.4531-0.73047 1.8867-1.8398 3.5469-3.3281 4.9844-1.7109 1.6484-3.7617 2.8203-6.1562 3.5156-2.3984 0.6875-5.9844 1.0312-10.766 1.0312h-8.6719z"
         id="path185" />
    </symbol>
    <linearGradient
       inkscape:collect="always"
       xlink:href="#linearGradient2890"
       id="linearGradient2892"
       x1="83.399375"
       y1="345.50511"
       x2="597.8835"
       y2="345.50511"
       gradientUnits="userSpaceOnUse" />
    <linearGradient
       inkscape:collect="always"
       xlink:href="#linearGradient2942"
       id="linearGradient2944"
       x1="118.42065"
       y1="338.29522"
       x2="560.84485"
       y2="338.29522"
       gradientUnits="userSpaceOnUse" />
    <linearGradient
       inkscape:collect="always"
       xlink:href="#linearGradient2998"
       id="linearGradient3000"
       x1="83.399375"
       y1="345.50511"
       x2="597.8835"
       y2="345.50511"
       gradientUnits="userSpaceOnUse" />
    <linearGradient
       inkscape:collect="always"
       xlink:href="#linearGradient3058"
       id="linearGradient3060"
       x1="119.27178"
       y1="338.32578"
       x2="561.69598"
       y2="338.32578"
       gradientUnits="userSpaceOnUse" />
  </defs>
  <g
     id="g244">
    <path
       d="m 209.57345,597.72441 2.082,0.5 v -0.004 c 12.551,3 25.41,4.5195 38.316,4.5234 30.039,-0.0195 59.488,-8.3242 85.109,-24 97.457,-59.473 179.32,-141.33 238.79,-238.79 22.609,-36.934 29.613,-81.34 19.477,-123.45 l -0.5,-2.0664 0.004,0.004 c -7.5352,-31.637 -24.297,-60.328 -48.156,-82.43 -23.859,-22.098 -53.742,-36.617003 -85.863,-41.715003 -32.121,-5.098 -65.031,-0.54297 -94.559,13.090003 -29.527,13.629 -54.344,35.719 -71.305,63.473 -32.707,53.383 -77.59,98.266 -130.98,130.97 -27.75,16.961 -49.844,41.777 -63.472996,71.305 -13.629,29.531 -18.184,62.441 -13.086,94.562 5.0938,32.121 19.612996,62.004 41.714996,85.863 22.102,23.859 50.789,40.621 82.426,48.16 z"
       id="path2211"
       style="fill:url(#linearGradient2892);fill-opacity:1"
       sodipodi:nodetypes="ccccccccccscccccscc" />
    <path
       d="m 181.76458,548.74497 c 5.3047,3.1641 11.746,3.7891 17.559,1.7109 5.8164,-2.082 10.398,-6.6484 12.496,-12.457 2.0977,-5.8086 1.4922,-12.254 -1.6523,-17.566 l -4.6445,-7.875 h -0.004 c -0.36719,-0.64062 -0.81641,-1.2305 -1.3359,-1.75 -3.3789,-3.3828 -5.0703,-8.0977 -4.6133,-12.855 0.45703,-4.7578 3.0156,-9.0664 6.9727,-11.742 3.3086,-2.0312 7.2188,-2.8633 11.066,-2.3477 3.8477,0.51562 7.4023,2.3438 10.059,5.1758 l 56.605,56.605 -0.004,-0.004 c 4.9453,4.9688 11.664,7.7656 18.676,7.7773 4.5391,0.004 9,-1.207 12.922,-3.5 l 1.8633,-1.1094 c 28.199,-17.191 55.105,-36.418 80.5,-57.531 5.5898,-4.6719 8.9609,-11.473 9.293,-18.75 0.33594,-7.4102 -2.457,-14.617 -7.6992,-19.863 l -81.008,-81.008 c -2.8281,-2.6602 -4.6562,-6.2109 -5.1719,-10.059 -0.51563,-3.8477 0.3125,-7.7539 2.3438,-11.062 2.6797,-3.9609 6.9844,-6.5195 11.742,-6.9766 4.7578,-0.45703 9.4727,1.2344 12.855,4.6133 l 83.52,83.52 c 5.0859,5.0352 11.98,7.8203 19.137,7.7227 7.043,-0.0859 13.742,-3.0586 18.531,-8.2227 25.645,-27.555 48.965,-57.18 69.73,-88.578 3.2891,-5.0625 4.7383,-11.105 4.1016,-17.109 -0.63672,-6.0039 -3.3242,-11.609 -7.6016,-15.867 l -69.23,-69.23 c -2.832,-2.6602 -4.6562,-6.2109 -5.1719,-10.059 -0.51562,-3.8477 0.3125,-7.7539 2.3438,-11.062 2.6797,-3.9609 6.9844,-6.5195 11.742,-6.9766 4.7578,-0.45703 9.4727,1.2344 12.855,4.6133 l 36.27,36.277 c 5.3555,5.3438 12.75,8.125 20.301,7.6328 7.5508,-0.49609 14.523,-4.2188 19.137,-10.219 4.6094,-6 6.4141,-13.695 4.9492,-21.117 -0.31641,-1.6172 -0.67188,-3.2305 -1.0586,-4.8633 l -0.50781,-2.1016 c -7.3828,-31.098 -26.039,-58.352 -52.355,-76.492 -26.316,-18.137 -58.426,-25.871 -90.113,-21.703 -31.691,4.1641 -60.707,19.934 -81.441,44.258 -4.3438,5.0469 -6.6328,11.539 -6.418,18.191 0.21484,6.6523 2.9219,12.984 7.582,17.738 l 63.918,63.875 c 2.8789,2.6758 4.7422,6.2656 5.2656,10.16 0.52734,3.8945 -0.3125,7.8516 -2.3789,11.199 -2.6953,3.9102 -6.9922,6.4258 -11.723,6.8594 -4.7305,0.4375 -9.4102,-1.25 -12.777,-4.6055 l -55.457,-55.457 c -5.1562,-5.1797 -12.246,-7.9648 -19.547,-7.6836 -7.3047,0.28125 -14.16,3.6016 -18.902,9.1641 -21.938,25.934 -46.855,49.188 -74.242,69.281 -6.1406,4.5273 -10,11.512 -10.566,19.121 -0.56641,7.6094 2.2148,15.086 7.6172,20.473 l 52.734,52.734 v 0.004 c 2.8828,2.6758 4.7422,6.2656 5.2695,10.16 0.52734,3.8945 -0.3125,7.8516 -2.3789,11.199 -2.6992,3.9102 -6.9922,6.4258 -11.723,6.8594 -4.7305,0.4375 -9.4141,-1.25 -12.777,-4.6055 l -58.965,-58.965 h -0.004 c -5.6602,-5.6875 -13.609,-8.4805 -21.586,-7.5859 -7.7617,0.8125 -14.734,5.1211 -18.934,11.699 -18.848,29.34 -25.008,65.062 -17.082,99.02 7.9258,33.961 29.266,63.262 59.152,81.23 z"
       id="path192-3"
       style="fill:url(#linearGradient3060);fill-opacity:1"
       sodipodi:nodetypes="cccccccscsccccccccccscscccccsccscsccccccccccsccccccccccccccscccccccccc" />
    <path
       d="m 209.57345,597.72441 2.082,0.5 v -0.004 c 12.551,3 25.41,4.5195 38.316,4.5234 30.039,-0.0195 59.488,-8.3242 85.109,-24 97.457,-59.473 179.32,-141.33 238.79,-238.79 22.609,-36.934 29.613,-81.34 19.477,-123.45 l -0.5,-2.0664 0.004,0.004 c -7.5352,-31.637 -24.297,-60.328 -48.156,-82.43 -23.859,-22.098 -53.742,-36.617003 -85.863,-41.715003 -32.121,-5.098 -65.031,-0.54297 -94.559,13.090003 -29.527,13.629 -54.344,35.719 -71.305,63.473 -32.707,53.383 -77.59,98.266 -130.98,130.97 -27.75,16.961 -49.844,41.777 -63.472996,71.305 -13.629,29.531 -18.184,62.441 -13.086,94.562 5.0938,32.121 19.612996,62.004 41.714996,85.863 22.102,23.859 50.789,40.621 82.426,48.16 z m -38.5,-284.95 c 55.766,-34.152 102.65,-81.023 136.82,-136.78 20.316,-33.246 53.027,-57.047 90.914,-66.152 37.887,-9.1016 77.84,-2.7656 111.05,17.621 33.207,20.387 56.941,53.145 65.973,91.047 l 0.48828,2.0547 v 0.004 c 9.0469,37.602 2.7891,77.258 -17.395,110.25 -58.008,95.086 -137.87,174.96 -232.94,232.98 -32.988,20.188 -72.648,26.445 -110.25,17.395 l -2.082,-0.48828 c -37.906,-9.0312 -70.664,-32.766 -91.047,-65.973 -20.387,-33.207 -26.727002,-73.16 -17.621,-111.05 9.1016,-37.887 32.902,-70.598 66.148,-90.914 z"
       id="path190"
       style="fill:url(#linearGradient3000);fill-opacity:1" />
    <path
       d="m 180.91345,548.71441 c 5.3047,3.1641 11.746,3.7891 17.559,1.7109 5.8164,-2.082 10.398,-6.6484 12.496,-12.457 2.0977,-5.8086 1.4922,-12.254 -1.6523,-17.566 l -4.6445,-7.875 h -0.004 c -0.36719,-0.64062 -0.81641,-1.2305 -1.3359,-1.75 -3.3789,-3.3828 -5.0703,-8.0977 -4.6133,-12.855 0.45703,-4.7578 3.0156,-9.0664 6.9727,-11.742 3.3086,-2.0312 7.2188,-2.8633 11.066,-2.3477 3.8477,0.51562 7.4023,2.3438 10.059,5.1758 l 56.605,56.605 -0.004,-0.004 c 4.9453,4.9688 11.664,7.7656 18.676,7.7773 4.5391,0.004 9,-1.207 12.922,-3.5 l 1.8633,-1.1094 c 28.199,-17.191 55.105,-36.418 80.5,-57.531 5.5898,-4.6719 8.9609,-11.473 9.293,-18.75 0.33594,-7.4102 -2.457,-14.617 -7.6992,-19.863 l -81.008,-81.008 c -2.8281,-2.6602 -4.6562,-6.2109 -5.1719,-10.059 -0.51563,-3.8477 0.3125,-7.7539 2.3438,-11.062 2.6797,-3.9609 6.9844,-6.5195 11.742,-6.9766 4.7578,-0.45703 9.4727,1.2344 12.855,4.6133 l 83.52,83.52 c 5.0859,5.0352 11.98,7.8203 19.137,7.7227 7.043,-0.0859 13.742,-3.0586 18.531,-8.2227 25.645,-27.555 48.965,-57.18 69.73,-88.578 3.2891,-5.0625 4.7383,-11.105 4.1016,-17.109 -0.63672,-6.0039 -3.3242,-11.609 -7.6016,-15.867 l -69.23,-69.23 c -2.832,-2.6602 -4.6562,-6.2109 -5.1719,-10.059 -0.51562,-3.8477 0.3125,-7.7539 2.3438,-11.062 2.6797,-3.9609 6.9844,-6.5195 11.742,-6.9766 4.7578,-0.45703 9.4727,1.2344 12.855,4.6133 l 36.27,36.277 c 5.3555,5.3438 12.75,8.125 20.301,7.6328 7.5508,-0.49609 14.523,-4.2188 19.137,-10.219 4.6094,-6 6.4141,-13.695 4.9492,-21.117 -0.31641,-1.6172 -0.67188,-3.2305 -1.0586,-4.8633 l -0.50781,-2.1016 c -7.3828,-31.098 -26.039,-58.352 -52.355,-76.492 -26.316,-18.137 -58.426,-25.871 -90.113,-21.703 -31.691,4.1641 -60.707,19.934 -81.441,44.258 -4.3438,5.0469 -6.6328,11.539 -6.418,18.191 0.21484,6.6523 2.9219,12.984 7.582,17.738 l 63.918,63.875 c 2.8789,2.6758 4.7422,6.2656 5.2656,10.16 0.52734,3.8945 -0.3125,7.8516 -2.3789,11.199 -2.6953,3.9102 -6.9922,6.4258 -11.723,6.8594 -4.7305,0.4375 -9.4102,-1.25 -12.777,-4.6055 l -55.457,-55.457 c -5.1562,-5.1797 -12.246,-7.9648 -19.547,-7.6836 -7.3047,0.28125 -14.16,3.6016 -18.902,9.1641 -21.938,25.934 -46.855,49.188 -74.242,69.281 -6.1406,4.5273 -10,11.512 -10.566,19.121 -0.56641,7.6094 2.2148,15.086 7.6172,20.473 l 52.734,52.734 v 0.004 c 2.8828,2.6758 4.7422,6.2656 5.2695,10.16 0.52734,3.8945 -0.3125,7.8516 -2.3789,11.199 -2.6992,3.9102 -6.9922,6.4258 -11.723,6.8594 -4.7305,0.4375 -9.4141,-1.25 -12.777,-4.6055 l -58.965,-58.965 h -0.004 c -5.6602,-5.6875 -13.609,-8.4805 -21.586,-7.5859 -7.7617,0.8125 -14.734,5.1211 -18.934,11.699 -18.848,29.34 -25.008,65.062 -17.082,99.02 7.9258,33.961 29.266,63.262 59.152,81.23 z m -27.316,-170.82 c 1.3594,-2.1172 3.6172,-3.4883 6.125,-3.7188 2.6953,-0.30469 5.3867,0.64062 7.3047,2.5625 l 58.965,58.965 v 0.004 c 7.0195,7.0117 16.785,10.555 26.664,9.6758 9.8828,-0.87891 18.871,-6.0859 24.543,-14.227 4.4102,-6.7266 6.3398,-14.777 5.4609,-22.773 -0.87891,-7.9922 -4.5156,-15.434 -10.281,-21.039 l -52.734,-52.734 h -0.004 c -1.8203,-1.7969 -2.75,-4.3047 -2.5391,-6.8516 0.17969,-2.5039 1.4609,-4.8008 3.5,-6.2656 28.461,-20.918 54.363,-45.113 77.168,-72.082 1.5273,-1.8164 3.7539,-2.8984 6.125,-2.9844 2.457,-0.10547 4.8477,0.82812 6.5781,2.5742 l 55.457,55.457 h 0.004 c 7.0156,7.0117 16.781,10.555 26.664,9.6758 9.8828,-0.87891 18.867,-6.0859 24.539,-14.227 4.4102,-6.7266 6.3398,-14.777 5.4609,-22.773 -0.87891,-7.9922 -4.5156,-15.434 -10.281,-21.039 l -63.875,-63.875 c -3.2812,-3.3477 -3.3984,-8.6719 -0.26172,-12.16 17.922,-21.043 43.012,-34.688 70.414,-38.293 27.402,-3.6094 55.168,3.0742 77.926,18.758 22.758,15.6838 38.887,39.254 45.27,66.145 l 0.5,2.0898 c 0.33203,1.3906 0.64062,2.7812 0.875,4.1719 v 0.004 c 0.78516,3.8164 -1.0352,7.6914 -4.4727,9.5273 -3.4336,1.8359 -7.668,1.1914 -10.402,-1.582 l -36.277,-36.27 c -7,-7.0586 -16.793,-10.609 -26.688,-9.6758 -9.9531,0.90234 -18.988,6.1914 -24.648,14.426 -4.418,6.6641 -6.3555,14.668 -5.4727,22.613 0.87891,7.9492 4.5234,15.332 10.293,20.867 l 69.273,69.203 c 2.9492,2.9062 3.4609,7.4805 1.2266,10.965 -20.227,30.59 -42.949,59.453 -67.938,86.293 -1.6367,1.6797 -3.8828,2.6328 -6.2305,2.6445 -2.3477,0.008 -4.6016,-0.92578 -6.2539,-2.5938 l -83.52,-83.52 c -7.0469,-7.043 -16.863,-10.586 -26.781,-9.668 -9.9219,0.91797 -18.922,6.2031 -24.555,14.422 -4.418,6.6641 -6.3555,14.664 -5.4727,22.613 0.87891,7.9453 4.5234,15.328 10.293,20.863 l 81.008,81.008 c 1.7773,1.7617 2.7305,4.1914 2.625,6.6953 -0.0664,2.375 -1.1602,4.6094 -2.9922,6.125 -24.73,20.57 -50.93,39.301 -78.391,56.051 l -1.582,0.9375 h -0.004 c -3.4141,1.9023 -7.6836,1.2695 -10.402,-1.5391 l -56.605,-56.605 c -6.6055,-6.6953 -15.602,-10.492 -25.004,-10.551 -6.5977,-0.0234 -13.043,1.9727 -18.473,5.7227 -8.0312,5.5195 -13.266,14.262 -14.336,23.949 -1.0703,9.6875 2.1289,19.359 8.7617,26.5 l 4.1211,7 c 0.84375,1.2422 0.62109,2.918 -0.51562,3.8945 -0.96484,1.1211 -2.6133,1.3359 -3.832,0.5 -25.844,-15.535 -44.289,-40.879 -51.133,-70.242 -6.8438,-29.367 -1.5,-60.254 14.812,-85.613 z"
       id="path192"
       style="fill:url(#linearGradient2944);fill-opacity:1" />
    <g
       id="g2478"
       style="fill:#744a65;fill-opacity:1">
      <g
         id="g2581"
         style="fill:#744a65;fill-opacity:1">
        <g
           id="g2567"
           style="fill:#744a65;fill-opacity:1">
          <path
             d="m 249.64345,315.77441 h -8.75 c -4.832,0 -8.75,3.918 -8.75,8.75 0,4.832 3.918,8.75 8.75,8.75 h 8.75 c 4.832,0 8.75,-3.918 8.75,-8.75 0,-4.832 -3.918,-8.75 -8.75,-8.75 z"
             id="path194"
             style="fill:#744a65;fill-opacity:1" />
          <path
             d="m 302.14345,298.27441 h 8.75 c 4.832,0 8.75,-3.918 8.75,-8.75 0,-4.832 -3.918,-8.75 -8.75,-8.75 h -8.75 c -4.832,0 -8.75,3.918 -8.75,8.75 0,4.832 3.918,8.75 8.75,8.75 z"
             id="path196"
             style="fill:#744a65;fill-opacity:1" />
          <path
             d="m 407.14345,350.77441 h 8.75 c 4.832,0 8.75,-3.918 8.75,-8.75 0,-4.832 -3.918,-8.75 -8.75,-8.75 h -8.75 c -4.832,0 -8.75,3.918 -8.75,8.75 0,4.832 3.918,8.75 8.75,8.75 z"
             id="path198"
             style="fill:#744a65;fill-opacity:1" />
          <path
             d="m 389.64345,193.27441 h -8.75 c -4.832,0 -8.75,3.918 -8.75,8.75 0,4.832 3.918,8.75 8.75,8.75 h 8.75 c 4.832,0 8.75,-3.918 8.75,-8.75 0,-4.832 -3.918,-8.75 -8.75,-8.75 z"
             id="path200"
             style="fill:#744a65;fill-opacity:1" />
          <path
             d="m 275.89345,473.27441 h 8.75 c 4.832,0 8.75,-3.918 8.75,-8.75 0,-4.832 -3.918,-8.75 -8.75,-8.75 h -8.75 c -4.832,0 -8.75,3.918 -8.75,8.75 0,4.832 3.918,8.75 8.75,8.75 z"
             id="path202"
             style="fill:#744a65;fill-opacity:1" />
          <path
             d="m 337.14345,482.02441 h 8.75 c 4.832,0 8.75,-3.918 8.75,-8.75 0,-4.832 -3.918,-8.75 -8.75,-8.75 h -8.75 c -4.832,0 -8.75,3.918 -8.75,8.75 0,4.832 3.918,8.75 8.75,8.75 z"
             id="path204"
             style="fill:#744a65;fill-opacity:1" />
          <path
             d="m 179.64345,429.52441 c 0,-2.3203 -0.92188,-4.5469 -2.5625,-6.1875 -1.64062,-1.6406 -3.8672,-2.5625 -6.1875,-2.5625 h -8.75 c -4.832,0 -8.75,3.918 -8.75,8.75 0,4.832 3.918,8.75 8.75,8.75 h 8.75 c 2.3203,0 4.5469,-0.92188 6.1875,-2.5625 1.6406,-1.64062 2.5625,-3.8672 2.5625,-6.1875 z"
             id="path206"
             style="fill:#744a65;fill-opacity:1" />
          <path
             d="m 485.89345,342.02441 h 8.75 c 4.832,0 8.75,-3.918 8.75,-8.75 0,-4.832 -3.918,-8.75 -8.75,-8.75 h -8.75 c -4.832,0 -8.75,3.918 -8.75,8.75 0,4.832 3.918,8.75 8.75,8.75 z"
             id="path208"
             style="fill:#744a65;fill-opacity:1" />
          <path
             d="m 442.14345,394.52441 h 8.75 c 4.832,0 8.75,-3.918 8.75,-8.75 0,-4.832 -3.918,-8.75 -8.75,-8.75 h -8.75 c -4.832,0 -8.75,3.918 -8.75,8.75 0,4.832 3.918,8.75 8.75,8.75 z"
             id="path210"
             style="fill:#744a65;fill-opacity:1" />
          <path
             d="m 494.64345,193.27441 h 8.75 c 4.832,0 8.75,-3.918 8.75,-8.75 0,-4.832 -3.918,-8.75 -8.75,-8.75 h -8.75 c -4.832,0 -8.75,3.918 -8.75,8.75 0,4.832 3.918,8.75 8.75,8.75 z"
             id="path212"
             style="fill:#744a65;fill-opacity:1" />
          <path
             d="m 433.39345,175.77441 c 4.832,0 8.75,-3.918 8.75,-8.75 0,-4.832 -3.918,-8.75 -8.75,-8.75 h -8.75 c -4.832,0 -8.75,3.918 -8.75,8.75 0,4.832 3.918,8.75 8.75,8.75 z"
             id="path214"
             style="fill:#744a65;fill-opacity:1" />
        </g>
      </g>
    </g>
  </g>
</svg>
