<?xml version="1.0" encoding="UTF-8" standalone="no"?>
<svg
   viewBox="0 0 100 100"
   width="100px"
   height="100px"
   version="1.1"
   id="svg147"
   sodipodi:docname="ytm.svg"
   inkscape:version="1.2.1 (9c6d41e410, 2022-07-14, custom)"
   xmlns:inkscape="http://www.inkscape.org/namespaces/inkscape"
   xmlns:sodipodi="http://sodipodi.sourceforge.net/DTD/sodipodi-0.dtd"
   xmlns="http://www.w3.org/2000/svg"
   xmlns:svg="http://www.w3.org/2000/svg">
  <defs
     id="defs151" />
  <sodipodi:namedview
     id="namedview149"
     pagecolor="#ffffff"
     bordercolor="#000000"
     borderopacity="0.25"
     inkscape:showpageshadow="2"
     inkscape:pageopacity="0.0"
     inkscape:pagecheckerboard="0"
     inkscape:deskcolor="#d1d1d1"
     showgrid="false"
     inkscape:zoom="3.945"
     inkscape:cx="59.062104"
     inkscape:cy="48.669202"
     inkscape:window-width="1667"
     inkscape:window-height="848"
     inkscape:window-x="0"
     inkscape:window-y="0"
     inkscape:window-maximized="1"
     inkscape:current-layer="svg147" />
  <path
     fill="#472b29"
     d="m 32.18399,60.999159 c -0.126152,0 -0.667261,0 -0.793415,0 -0.218982,0 -0.396708,0.177725 -0.396708,0.396708 0,0.218982 0.177726,0.396708 0.396708,0.396708 0.126154,0 0.667263,0 0.793415,0 0.218984,0 0.396708,-0.177726 0.396708,-0.396708 0,-0.218983 -0.177724,-0.396708 -0.396708,-0.396708 z"
     id="path111"
     style="stroke-width:0.793415" />
  <path
     fill="#472b29"
     d="m 32.18399,60.999159 c -0.126152,0 -0.667261,0 -0.793415,0 -0.218982,0 -0.396708,0.177725 -0.396708,0.396708 0,0.218982 0.177726,0.396708 0.396708,0.396708 0.126154,0 0.667263,0 0.793415,0 0.218984,0 0.396708,-0.177726 0.396708,-0.396708 0,-0.218983 -0.177724,-0.396708 -0.396708,-0.396708 z"
     id="path113"
     style="stroke-width:0.793415" />
  <path
     fill="#c7ede6"
     d="m 74.80231,48.074419 c 0.900528,-1.709811 1.416247,-3.653679 1.416247,-5.720527 0,-5.253204 -3.299815,-9.724895 -7.934949,-11.487072 0,-0.0056 7.93e-4,-0.0111 7.93e-4,-0.01746 0,-9.202035 -7.459694,-16.661729 -16.661727,-16.661729 -7.762779,0 -14.266407,5.316679 -16.116652,12.501851 -1.171081,-0.384807 -2.419125,-0.600616 -3.718739,-0.600616 -6.102952,0 -11.126067,4.596257 -11.813958,10.514344 -4.128934,0.873549 -7.228015,4.535957 -7.228015,8.924339 0,5.038982 4.085296,9.124279 9.124278,9.124279 0.140434,0 0.279282,-0.0095 0.417337,-0.01745 -0.0031,0.138847 -0.02063,0.274521 -0.02063,0.414162 0,8.983052 7.281968,16.26502 16.26502,16.26502 5.107216,0 9.659835,-2.358031 12.642284,-6.041067 1.72806,1.765351 4.130522,2.867405 6.796398,2.867405 3.689383,0 6.882088,-2.102552 8.462571,-5.171483 0.834673,0.265794 1.722505,0.410989 2.645248,0.410989 4.819999,0 8.727572,-3.907572 8.727572,-8.727572 0,-2.626999 -1.166321,-4.977096 -3.00308,-6.577415 z"
     id="path115"
     style="stroke-width:0.793415" />
  <path
     fill="#fdfcef"
     d="m 67.094278,51.081464 v 0.396707 h 2.380247 v -0.396707 c 0,0 3.365669,0 4.363785,0 1.971638,0 3.570371,-1.598732 3.570371,-3.57037 0,-1.851038 -1.413867,-3.355355 -3.217301,-3.534666 0.01746,-0.143609 0.04363,-0.284044 0.04363,-0.432412 0,-1.971638 -1.598732,-3.57037 -3.570369,-3.57037 -1.140932,0 -2.144603,0.544283 -2.798378,1.377369 -0.111077,-2.091443 -1.826443,-3.757617 -3.945656,-3.757617 -2.190619,0 -3.967076,1.776457 -3.967076,3.967079 0,0.353863 0.06109,0.690271 0.148367,1.017158 -0.509373,-0.616483 -1.270258,-1.017158 -2.131907,-1.017158 -1.413073,0 -2.565907,1.05921 -2.741252,2.423885 -0.143608,-0.01746 -0.284042,-0.04363 -0.432411,-0.04363 -1.971638,0 -3.57037,1.598732 -3.57037,3.570371 0,1.971637 1.598732,3.570369 3.57037,3.570369 1.971637,0 7.537448,0 7.537448,0 z"
     id="path117"
     style="stroke-width:0.793415" />
  <path
     fill="#472b29"
     d="m 63.920615,37.196691 c -2.406429,0 -4.363786,1.957355 -4.363786,4.363786 0,0.01269 0,0.0246 0,0.03728 -0.477635,-0.281662 -1.023506,-0.433998 -1.586831,-0.433998 -1.452744,0 -2.70634,1.000498 -3.060997,2.384214 -0.03728,-0.0025 -0.07459,-0.004 -0.112665,-0.004 -2.187447,0 -3.967079,1.77963 -3.967079,3.967077 0,2.187448 1.779632,3.967078 3.967079,3.967078 h 12.297942 c 0.218983,0 0.396707,-0.177725 0.396707,-0.396708 0,-0.218982 -0.177724,-0.396708 -0.396707,-0.396708 H 54.796336 c -1.750274,0 -3.173662,-1.423388 -3.173662,-3.173662 0,-1.750275 1.423388,-3.173662 3.173662,-3.173662 0.09283,0 0.182485,0.01349 0.272142,0.02538 l 0.111871,0.01507 c 0.01666,0.0025 0.03253,0.0031 0.04919,0.0031 0.19518,0 0.366559,-0.146782 0.392741,-0.346723 0.151543,-1.184569 1.160768,-2.077162 2.347718,-2.077162 0.702172,0 1.367054,0.31816 1.825648,0.872757 0.07776,0.09362 0.191214,0.144402 0.306259,0.144402 0.06188,0 0.123773,-0.01428 0.180898,-0.04443 0.165824,-0.0849 0.249133,-0.274522 0.201528,-0.454627 -0.09124,-0.345137 -0.134087,-0.635526 -0.134087,-0.914809 0,-1.968463 1.601906,-3.57037 3.57037,-3.57037 1.889123,0 3.448978,1.485275 3.549742,3.382331 0.0087,0.16503 0.119013,0.307052 0.276902,0.357037 0.03966,0.0127 0.08013,0.01904 0.120599,0.01904 0.119013,0 0.234851,-0.05474 0.311019,-0.152336 0.611723,-0.779134 1.51701,-1.225827 2.485771,-1.225827 1.750275,0 3.173662,1.423387 3.173662,3.173662 0,0.09283 -0.01349,0.182485 -0.02538,0.272141 l -0.01507,0.111873 c -0.01269,0.106317 0.01746,0.212635 0.0841,0.295943 0.06665,0.08331 0.164238,0.136468 0.269762,0.146782 1.631262,0.162651 2.860263,1.513044 2.860263,3.140339 0,1.750275 -1.423388,3.173662 -3.173662,3.173662 h -4.363784 c -0.218982,0 -0.396707,0.177726 -0.396707,0.396708 0,0.218983 0.177725,0.396708 0.396707,0.396708 h 4.363787 c 2.187446,0 3.967078,-1.779631 3.967078,-3.967078 0,-1.901817 -1.340079,-3.501343 -3.176044,-3.869488 0.0016,-0.03253 0.0025,-0.06506 0.0025,-0.09759 0,-2.187447 -1.779631,-3.967077 -3.967077,-3.967077 -0.933058,0 -1.819302,0.33006 -2.525442,0.923535 -0.474463,-1.907371 -2.191414,-3.303783 -4.218592,-3.303783 z"
     id="path119"
     style="stroke-width:0.793415" />
  <path
     fill="#472b29"
     d="m 62.730492,42.7506 c -1.113162,0 -2.070021,0.792622 -2.31122,1.857386 -0.291183,-0.176138 -0.623625,-0.270555 -0.96162,-0.270555 -0.953685,0 -1.743927,0.711693 -1.866906,1.640784 -0.161064,-0.0365 -0.314193,-0.05396 -0.463355,-0.05396 -1.213133,0 -2.230292,0.952098 -2.315187,2.167611 -0.0079,0.109491 0.07459,0.204702 0.183279,0.212636 0.0047,0 0.0095,0 0.01428,0 0.103144,0 0.190419,-0.08013 0.19756,-0.184073 0.07062,-1.008431 0.913221,-1.799466 1.919272,-1.799466 0.181693,0 0.372906,0.03332 0.585542,0.100763 0.01745,0.0056 0.0357,0.0079 0.05316,0.0079 0.04363,0 0.08727,-0.01587 0.123773,-0.04284 0.05078,-0.0365 0.08093,-0.101557 0.08093,-0.16503 0,-0.820391 0.667264,-1.487654 1.487655,-1.487654 0.354656,0 0.702172,0.133293 0.976695,0.375286 0.03728,0.03253 0.0841,0.04999 0.130913,0.04999 0.02538,0 0.04999,-0.0047 0.07379,-0.01507 0.06982,-0.02778 0.117425,-0.09283 0.122979,-0.168204 0.08251,-1.025886 0.946546,-1.828822 1.968464,-1.828822 0.165031,0 0.337201,0.02698 0.54111,0.0849 0.01825,0.0056 0.03728,0.0079 0.05554,0.0079 0.08648,0 0.164236,-0.05791 0.189625,-0.144402 0.03015,-0.105525 -0.03095,-0.215017 -0.136467,-0.245165 -0.239612,-0.06824 -0.446693,-0.09997 -0.649808,-0.09997 z m 11.014989,1.190123 c -1.05207,0 -1.989887,0.711694 -2.280277,1.731233 -0.03015,0.105525 0.03094,0.215016 0.136467,0.245165 0.01904,0.0047 0.03728,0.0072 0.05474,0.0072 0.08648,0 0.165824,-0.05713 0.19042,-0.144402 0.241992,-0.848953 1.022713,-1.442429 1.898644,-1.442429 0.09283,0 0.182485,0.0111 0.271348,0.02301 0.0095,0.0016 0.01825,0.0025 0.02778,0.0025 0.096,0 0.181693,-0.073 0.195181,-0.172171 0.01507,-0.108699 -0.06109,-0.208669 -0.169791,-0.22295 -0.106318,-0.01428 -0.214222,-0.02698 -0.324506,-0.02698 z"
     id="path121"
     style="stroke-width:0.793415" />
  <circle
     cx="46.367245"
     cy="43.105309"
     r="18.248558"
     fill="#ea5167"
     id="circle123"
     style="stroke-width:0.793415" />
  <path
     fill="#472b29"
     d="m 46.86218,61.55455 c -10.368355,0 -18.80395,-8.435595 -18.80395,-18.80395 0,-10.368355 8.435595,-18.80395 18.80395,-18.80395 10.368355,0 18.80395,8.435595 18.80395,18.80395 0,10.368355 -8.435595,18.80395 -18.80395,18.80395 z m 0,-36.497118 c -9.755838,0 -17.693169,7.936537 -17.693169,17.693168 0,9.756631 7.937331,17.693168 17.693169,17.693168 9.755838,0 17.693168,-7.93733 17.693168,-17.693168 0,-9.755838 -7.93733,-17.693168 -17.693168,-17.693168 z"
     id="path125"
     style="stroke-width:0.793415" />
  <path
     fill="#ffffff"
     d="M 17.90251,43.544016 H 9.9683562 c -0.218982,0 -0.396707,-0.177726 -0.396707,-0.396707 0,-0.218983 0.177725,-0.396709 0.396707,-0.396709 H 17.90251 c 0.218983,0 0.396708,0.177726 0.396708,0.396709 0,0.218981 -0.176932,0.396707 -0.396708,0.396707 z m 2.380246,0 h -0.793415 c -0.218983,0 -0.396708,-0.177726 -0.396708,-0.396707 0,-0.218983 0.177725,-0.396709 0.396708,-0.396709 h 0.793415 c 0.218983,0 0.396709,0.177726 0.396709,0.396709 0,0.218981 -0.176932,0.396707 -0.396709,0.396707 z m 3.959938,1.586831 h -7.133599 c -0.218982,0 -0.396708,-0.177725 -0.396708,-0.396708 0,-0.218982 0.177726,-0.396708 0.396708,-0.396708 h 7.133599 c 0.218983,0 0.396708,0.177726 0.396708,0.396708 0,0.218983 -0.177725,0.396708 -0.396708,0.396708 z m -8.72043,0 h -0.793416 c -0.218983,0 -0.396707,-0.177725 -0.396707,-0.396708 0,-0.218982 0.177724,-0.396708 0.396707,-0.396708 h 0.793416 c 0.218983,0 0.396708,0.177726 0.396708,0.396708 0,0.218983 -0.176931,0.396708 -0.396708,0.396708 z m -2.380247,0 h -1.586831 c -0.218982,0 -0.396706,-0.177725 -0.396706,-0.396708 0,-0.218982 0.177724,-0.396708 0.396706,-0.396708 h 1.586831 c 0.218983,0 0.396709,0.177726 0.396709,0.396708 0,0.218983 -0.176932,0.396708 -0.396709,0.396708 z m 4.760493,1.586831 h -1.58683 c -0.218983,0 -0.396708,-0.177725 -0.396708,-0.396708 0,-0.218982 0.177725,-0.396708 0.396708,-0.396708 h 1.58683 c 0.218983,0 0.396708,0.177726 0.396708,0.396708 0,0.218983 -0.177725,0.396708 -0.396708,0.396708 z m 2.380246,-7.14074 c -0.140433,0 -0.65298,0 -0.793415,0 -0.218983,0 -0.396708,0.177725 -0.396708,0.396708 0,0.218983 0.177725,0.396708 0.396708,0.396708 0.140435,0 0.652982,0 0.793415,0 0.218983,0 0.396709,-0.177725 0.396709,-0.396708 0,-0.218983 -0.177726,-0.396708 -0.396709,-0.396708 z m 0,1.586831 c -0.140433,0 -3.826641,0 -3.967076,0 -0.218983,0 -0.396708,0.177726 -0.396708,0.396708 0,0.218982 0.177725,0.396708 0.396708,0.396708 0.140435,0 3.826643,0 3.967076,0 0.218983,0 0.396709,-0.177726 0.396709,-0.396708 0,-0.218982 -0.177726,-0.396708 -0.396709,-0.396708 z m 3.967079,1.586831 c -0.140435,0 -2.239813,0 -2.380247,0 -0.218983,0 -0.396708,0.177726 -0.396708,0.396709 0,0.218981 0.177725,0.396707 0.396708,0.396707 0.140434,0 2.239812,0 2.380247,0 0.218983,0 0.396707,-0.177726 0.396707,-0.396707 0,-0.218983 -0.177724,-0.396709 -0.396707,-0.396709 z"
     id="path127"
     style="stroke-width:0.793415" />
  <path
     fill="#ffffff"
     d="m 63.127199,22.121794 h -7.934156 c -0.218982,0 -0.396707,-0.177725 -0.396707,-0.396707 0,-0.218983 0.177725,-0.396708 0.396707,-0.396708 h 7.934156 c 0.218983,0 0.396708,0.177725 0.396708,0.396708 0,0.218982 -0.177725,0.396707 -0.396708,0.396707 z m 3.173663,0 h -1.586831 c -0.218983,0 -0.396708,-0.177725 -0.396708,-0.396707 0,-0.218983 0.177725,-0.396708 0.396708,-0.396708 h 1.586831 c 0.218983,0 0.396708,0.177725 0.396708,0.396708 0,0.218982 -0.177725,0.396707 -0.396708,0.396707 z m 3.967079,1.586831 h -7.934157 c -0.218983,0 -0.396708,-0.177724 -0.396708,-0.396707 0,-0.218983 0.177725,-0.396708 0.396708,-0.396708 h 7.934157 c 0.218982,0 0.396707,0.177725 0.396707,0.396708 0,0.218983 -0.176932,0.396707 -0.396707,0.396707 z m -9.520988,0 h -0.793416 c -0.218982,0 -0.396708,-0.177724 -0.396708,-0.396707 0,-0.218983 0.177726,-0.396708 0.396708,-0.396708 h 0.793416 c 0.218982,0 0.396708,0.177725 0.396708,0.396708 0,0.218983 -0.177726,0.396707 -0.396708,0.396707 z m -2.40405,0 h -1.563028 c -0.218983,0 -0.396707,-0.177724 -0.396707,-0.396707 0,-0.218983 0.177724,-0.396708 0.396707,-0.396708 h 1.563028 c 0.218984,0 0.396709,0.177725 0.396709,0.396708 0,0.218983 -0.177725,0.396707 -0.396709,0.396707 z m 7.164544,-3.173662 h -3.967079 c -0.218983,0 -0.396707,-0.177725 -0.396707,-0.396708 0,-0.218982 0.177724,-0.396708 0.396707,-0.396708 h 3.967079 c 0.218982,0 0.396707,0.177726 0.396707,0.396708 0,0.218983 -0.176932,0.396708 -0.396707,0.396708 z m -2.380248,4.760494 h -1.586831 c -0.218983,0 -0.396707,-0.177725 -0.396707,-0.396708 0,-0.218983 0.177724,-0.396708 0.396707,-0.396708 h 1.586831 c 0.218983,0 0.396708,0.177725 0.396708,0.396708 0,0.218983 -0.177725,0.396708 -0.396708,0.396708 z"
     id="path129"
     style="stroke-width:0.793415" />
  <path
     fill="#472b29"
     d="m 61.637958,38.773208 c -0.16979,0 -0.326887,-0.109492 -0.379252,-0.280076 -0.06665,-0.21819 -0.138847,-0.434792 -0.215015,-0.647428 -0.297531,-0.8315 -0.67361,-1.641576 -1.11713,-2.408809 -0.110284,-0.189626 -0.04523,-0.432411 0.144401,-0.541903 0.19042,-0.111078 0.432412,-0.04602 0.541903,0.145195 0.467322,0.80849 0.863237,1.662206 1.176636,2.53655 0.08093,0.224537 0.156303,0.45304 0.22771,0.682337 0.06427,0.210255 -0.05316,0.431618 -0.26262,0.495886 -0.03888,0.01269 -0.07855,0.01825 -0.116633,0.01825 z"
     id="path131"
     style="stroke-width:0.793415" />
  <path
     fill="#472b29"
     d="m 46.86218,58.646681 c -8.764863,0 -15.896081,-7.109796 -15.896081,-15.849269 0,-8.73868 7.130425,-15.848476 15.896081,-15.848476 4.549445,0 8.889428,1.949421 11.906787,5.34762 0.227711,0.256273 0.447487,0.521274 0.659329,0.793416 0.134088,0.172965 0.103144,0.422097 -0.06903,0.556184 -0.172964,0.135674 -0.422097,0.103937 -0.556978,-0.06982 -0.200733,-0.25786 -0.409402,-0.509373 -0.626004,-0.752951 -2.867405,-3.229201 -6.990785,-5.081034 -11.313314,-5.081034 -8.32769,0 -15.102666,6.753554 -15.102666,15.055062 0,8.301507 6.774182,15.055854 15.101873,15.055854 8.32769,0 15.102666,-6.754347 15.102666,-15.055854 0,-0.757712 -0.05713,-1.517012 -0.168998,-2.258061 -0.03253,-0.216602 0.116632,-0.418923 0.333235,-0.451454 0.218189,-0.03094 0.418923,0.116633 0.451453,0.332442 0.118219,0.779927 0.177725,1.57969 0.177725,2.377073 0,8.739472 -7.13122,15.849269 -15.896081,15.849269 z"
     id="path133"
     style="stroke-width:0.793415" />
  <path
     fill="#fdfcef"
     d="m 35.357653,61.395867 c 0,0 1.243283,0 2.776955,0 1.533672,0 2.776955,-1.243282 2.776955,-2.776955 0,-1.413072 -1.05921,-2.565906 -2.423884,-2.74125 0.02221,-0.142022 0.04363,-0.284044 0.04363,-0.432412 0,-1.533672 -1.243283,-2.776954 -2.776956,-2.776954 -0.818805,0 -1.54716,0.361004 -2.054946,0.924329 -0.304671,-1.434496 -1.576517,-2.511161 -3.102254,-2.511161 -1.752656,0 -3.173663,1.421008 -3.173663,3.173663 0,0.151541 0.02381,0.296736 0.04443,0.442726 -0.339576,-0.272935 -0.764847,-0.442726 -1.234549,-0.442726 -0.974314,0 -1.781218,0.703759 -1.947836,1.630468 -0.142021,-0.02221 -0.284042,-0.04363 -0.432411,-0.04363 -1.533672,0 -2.776954,1.243283 -2.776954,2.776955 0,1.533673 1.243282,2.776956 2.776954,2.776956 1.533673,0 5.950618,0 5.950618,0 v 0.396707 h 5.553908 z"
     id="path135"
     style="stroke-width:0.793415" />
  <path
     fill="#472b29"
     d="m 36.746131,57.825496 c -0.109492,0 -0.198354,-0.08887 -0.198354,-0.198354 0,-0.970346 0.789449,-1.759795 1.759796,-1.759795 0.02697,0.0072 0.584747,-7.93e-4 0.987008,0.107904 0.105524,0.02856 0.168205,0.137261 0.139642,0.242785 -0.02856,0.106319 -0.137261,0.168998 -0.242786,0.139642 -0.352276,-0.09521 -0.872757,-0.09521 -0.883071,-0.09362 -0.752157,0 -1.363882,0.611722 -1.363882,1.363087 0,0.109491 -0.08886,0.198354 -0.198353,0.198353 z m -5.355556,3.173663 c -0.218982,0 -0.396708,0.177725 -0.396708,0.396708 0,0.218982 0.177726,0.396708 0.396708,0.396708 0.218983,0 0.396708,-0.177726 0.396708,-0.396708 0,-0.218983 -0.177725,-0.396708 -0.396708,-0.396708 z"
     id="path137"
     style="stroke-width:0.793415" />
  <path
     fill="#472b29"
     d="m 38.134608,61.792575 h -2.776955 c -0.218983,0 -0.396707,-0.177726 -0.396707,-0.396708 0,-0.218983 0.177724,-0.396708 0.396707,-0.396708 h 2.776955 c 1.312309,0 2.380247,-1.067938 2.380247,-2.380247 0,-1.18695 -0.892592,-2.196174 -2.077162,-2.347716 -0.106319,-0.01428 -0.202321,-0.06982 -0.266589,-0.155509 -0.06427,-0.08569 -0.09124,-0.193595 -0.07459,-0.299119 0.01825,-0.122186 0.03809,-0.244372 0.03809,-0.371318 0,-1.31231 -1.067937,-2.380247 -2.380247,-2.380247 -0.674403,0 -1.299615,0.281662 -1.760589,0.793416 -0.09918,0.110285 -0.254687,0.157096 -0.396708,0.117425 -0.144401,-0.03888 -0.254686,-0.154716 -0.285629,-0.300705 -0.270555,-1.272637 -1.41228,-2.196968 -2.714275,-2.196968 -1.531292,0 -2.776955,1.245664 -2.776955,2.776956 0,0.113458 0.01666,0.222155 0.03253,0.331647 0.02301,0.161064 -0.04999,0.347516 -0.192007,0.428444 -0.142021,0.08093 -0.314193,0.09362 -0.44114,-0.0079 -0.289596,-0.232471 -0.629971,-0.35545 -0.986215,-0.35545 -0.766439,0 -1.4218,0.54825 -1.557475,1.304376 -0.03809,0.211841 -0.234851,0.353863 -0.451453,0.321332 -0.122186,-0.01904 -0.244372,-0.03888 -0.371319,-0.03888 -1.312309,0 -2.380247,1.067938 -2.380247,2.380247 0,1.312309 1.067938,2.380247 2.380247,2.380247 h 5.950618 c 0.218981,0 0.396708,0.177725 0.396708,0.396708 0,0.218982 -0.177727,0.396708 -0.396708,0.396708 h -5.950618 c -1.750274,0 -3.173662,-1.423388 -3.173662,-3.173663 0,-1.750275 1.423388,-3.173662 3.173662,-3.173662 0.04681,0 0.09204,0.0016 0.138054,0.0047 0.328475,-0.940991 1.21948,-1.591591 2.242193,-1.591591 0.276902,0 0.546663,0.04841 0.802143,0.142814 0.130914,-1.851038 1.678075,-3.316477 3.561643,-3.316477 1.452744,0 2.749978,0.894179 3.295055,2.200935 0.539523,-0.395121 1.19171,-0.614103 1.862146,-0.614103 1.750275,0 3.173663,1.423388 3.173663,3.173662 0,0.03809 -7.93e-4,0.07537 -0.0031,0.112665 1.382923,0.35545 2.38342,1.608253 2.38342,3.060998 0,1.750275 -1.423388,3.173661 -3.173662,3.173661 z"
     id="path139"
     style="stroke-width:0.793415" />
  <path
     fill="#472b29"
     d="m 33.770822,60.999159 c -0.126153,0 -0.667262,0 -0.793416,0 -0.218982,0 -0.396708,0.177725 -0.396708,0.396708 0,0.218982 0.177726,0.396708 0.396708,0.396708 0.126154,0 0.667263,0 0.793416,0 0.218983,0 0.396708,-0.177726 0.396708,-0.396708 0,-0.218983 -0.177725,-0.396708 -0.396708,-0.396708 z"
     id="path141"
     style="stroke-width:0.793415" />
  <polygon
     fill="#ffffff"
     points="48,43.5 48,56.5 59,49.717 "
     id="polygon143"
     transform="matrix(0.7934156,0,0,0.7934156,5.6045715,3.0798198)" />
  <path
     fill="#ffffff"
     d="m 46.86218,33.332756 c 5.179417,0 9.417842,4.215418 9.417842,9.417844 0,5.202426 -4.215416,9.417844 -9.417842,9.417844 -5.202426,0 -9.417844,-4.215418 -9.417844,-9.417844 0,-5.202426 4.238426,-9.417844 9.417844,-9.417844 m 0,-0.896559 c -5.695137,0 -10.314403,4.619266 -10.314403,10.314403 0,5.695137 4.619266,10.314403 10.314403,10.314403 5.695137,0 10.314403,-4.619266 10.314403,-10.314403 0,-5.695137 -4.619266,-10.314403 -10.314403,-10.314403 z"
     id="path145"
     style="stroke-width:0.793415" />
</svg>
