<?xml version="1.0" encoding="UTF-8" standalone="no"?>
<!-- Created with Inkscape (http://www.inkscape.org/) -->

<svg
   width="512"
   height="513"
   viewBox="0 0 135.46665 135.73123"
   version="1.1"
   id="svg5"
   inkscape:version="1.2.1 (9c6d41e410, 2022-07-14, custom)"
   sodipodi:docname="active.svg"
   xmlns:inkscape="http://www.inkscape.org/namespaces/inkscape"
   xmlns:sodipodi="http://sodipodi.sourceforge.net/DTD/sodipodi-0.dtd"
   xmlns="http://www.w3.org/2000/svg"
   xmlns:svg="http://www.w3.org/2000/svg">
  <sodipodi:namedview
     id="namedview7"
     pagecolor="#24283b"
     bordercolor="#1a1b26"
     borderopacity="0.24705882"
     inkscape:showpageshadow="true"
     inkscape:pageopacity="0"
     inkscape:pagecheckerboard="false"
     inkscape:deskcolor="#1f2335"
     inkscape:document-units="px"
     showgrid="false"
     shape-rendering="auto"
     borderlayer="true"
     inkscape:zoom="1.3808026"
     inkscape:cx="240.80199"
     inkscape:cy="271.58119"
     inkscape:window-width="1667"
     inkscape:window-height="1800"
     inkscape:window-x="0"
     inkscape:window-y="0"
     inkscape:window-maximized="1"
     inkscape:current-layer="g2709" />
  <defs
     id="defs2" />
  <g
     inkscape:label="Layer 1"
     inkscape:groupmode="layer"
     id="layer1">
    <g
       id="g1723"
       transform="translate(0.28686337,-11.692595)">
      <g
         id="g2392"
         transform="matrix(1.1117551,0,0,1.1117551,-2.5466535,-5.3805547)">
        <g
           id="g2709"
           transform="matrix(1.0330258,0.32947757,-0.32947757,1.0330258,21.45316,-25.30331)">
          <g
             id="g2816"
             transform="translate(0.65043762,-1.2280692)">
            <path
               id="path1868"
               style="fill:#7aa2f7;stroke-width:0.196139"
               d="m 65.557947,55.339694 c -0.577814,0 -1.112845,0.309201 -1.404653,0.814187 l -0.501836,0.86807 0.0064,0.01088 -10.433304,18.059415 h -0.01224 l -0.440637,0.762774 c -0.295428,0.511588 -0.295389,1.142232 -4.89e-4,1.653091 l 11.382631,19.703112 c 0.291075,0.504986 0.826839,0.814186 1.404652,0.814186 h 28.332956 l 0.02987,0.05141 h 0.887639 c 0.577816,0 1.113575,-0.309201 1.404653,-0.814187 l 0.500856,-0.867082 -0.0069,-0.01186 10.433305,-18.059415 h 0.0137 l 0.44161,-0.764752 c 0.29491,-0.510858 0.29495,-1.141501 -4.9e-4,-1.65309 L 96.214038,56.205293 C 95.922231,55.700306 95.387202,55.391107 94.809386,55.391107 H 66.473983 l -0.02987,-0.05141 z m 0.17544,2.463259 h 28.920712 l 6.975801,11.958441 -6.440434,4.822444 0.831474,1.111043 6.31279,-4.726842 0.70332,1.206127 -6.184636,4.631242 0.831474,1.110526 6.056992,-4.535123 0.70383,1.206644 -7.289989,5.458581 -5.290632,-2.008146 c 0.157212,-1.825906 -0.328334,-3.703663 -1.487248,-5.251358 -0.233712,-0.312116 -0.492507,-0.608224 -0.769979,-0.879016 l -3.715018,-3.641638 c -1.672025,-1.638213 -3.972201,-2.548165 -6.311759,-2.495971 -1.830201,0.04222 -3.573342,0.644164 -5.039485,1.742012 l -1.810741,1.35599 c -0.909563,0.68108 -1.672016,1.538951 -2.246891,2.513024 l -4.92373,-2.343526 -10.647411,7.972639 -0.191203,-0.327111 z m 13.879255,9.354983 c 1.967904,-0.0443 3.90295,0.720666 5.309236,2.098579 l 3.715535,3.642155 c 0.226528,0.221922 0.438049,0.464459 0.628902,0.719336 1.785884,2.384996 1.63877,5.727331 -0.34985,7.946284 l -2.803446,3.12849 c -0.279526,0.311845 -0.591161,0.596996 -0.927075,0.848527 -1.588058,1.189138 -3.597617,1.571648 -5.511807,1.047998 l -0.234611,-0.06459 c -0.60714,-0.16597 -1.197854,-0.382676 -1.766817,-0.644922 0.202186,-0.09685 0.39816,-0.210603 0.581359,-0.347782 1.531069,-1.146464 1.844095,-3.324968 0.697632,-4.856034 -1.146462,-1.531068 -3.324965,-1.84358 -4.856034,-0.697115 -0.606877,0.454427 -1.022449,1.078448 -1.232482,1.764233 -0.34178,-0.516345 -0.655967,-1.050499 -0.909505,-1.612821 L 71.313408,78.71279 c -0.833783,-1.847214 -0.849752,-3.971706 -0.04444,-5.830652 0.497846,-1.149303 1.291038,-2.153517 2.292883,-2.903698 l 1.811259,-1.355989 c 1.233359,-0.923538 2.699116,-1.430015 4.239534,-1.46451 z m -13.893207,3.492809 4.163569,1.981275 c -0.834128,2.142806 -0.784913,4.547425 0.164848,6.651789 l 0.639754,1.417484 c 0.387379,0.859386 0.870756,1.677596 1.437122,2.43396 1.716913,2.292888 4.184382,3.972449 6.948412,4.728393 l 0.235127,0.06356 c 2.329784,0.638458 4.774949,0.173603 6.708634,-1.274341 0.408799,-0.306107 0.789386,-0.654292 1.12913,-1.034045 l 2.803446,-3.129008 c 0.806274,-0.900109 1.358877,-1.952014 1.665014,-3.061828 l 5.761405,2.185913 7.772654,-5.819799 0.51779,0.887284 -11.012241,18.878432 H 65.733387 l -6.451801,-11.058755 0.657324,0.877982 1.110526,-0.831473 -0.831474,-1.110527 -1.083654,0.81132 -0.703833,-1.206128 8.730215,-6.537067 -0.831474,-1.111044 -8.602574,6.441467 -0.703833,-1.206128 1.810742,-1.355989 -0.831474,-1.110527 -1.683101,1.260388 -0.703833,-1.206644 z m 10.351821,10.026777 c 0.66763,-0.03218 1.339537,0.25637 1.769401,0.83044 0.687783,0.918513 0.499934,2.225735 -0.418579,2.913517 -0.46532,0.348432 -1.048548,0.474582 -1.617472,0.37207 -0.570723,-0.405656 -1.10345,-0.863174 -1.593184,-1.365807 -0.291418,-0.848536 -0.01164,-1.79371 0.715718,-2.338359 0.344444,-0.257918 0.743541,-0.392552 1.144116,-0.411861 z"
               sodipodi:nodetypes="sccccccccsccsccccccccsccscccccccccccccscccccccccccccsccscccssscccccccccscsccscccccccccccccccccccccccsssccss" />
            <g
               id="g2686">
              <path
                 d="m 54.398066,90.023294 c -0.300978,1.764321 -0.500797,3.556086 -0.595574,5.347039 L 25.973631,85.571256 c 2.610424,-3.621252 4.690913,-7.594964 6.192049,-11.835888 l 3.243114,-9.210271 c 1.801098,-5.139317 6.818236,-8.801761 12.203653,-8.918902 2.924438,-0.06264 5.813613,0.948152 8.084504,2.774213 1.032163,0.642156 1.947785,2.690181 3.310505,1.59192 1.105644,-1.065002 -0.304043,-2.172914 -1.101045,-2.891614 3.78812,-8.63251 -8.778696,-12.991392 -11.162551,-3.859719 -6.065875,0.473895 -11.595068,4.68194 -13.632442,10.496738 l -3.24187,9.206746 c -1.602362,4.523958 -3.898477,8.72936 -6.825723,12.497021 -0.24004,0.309092 -0.316878,0.714768 -0.20675,1.09054 0.110622,0.375523 0.394385,0.674728 0.763947,0.80442 l 9.908544,3.488986 -0.787864,2.236315 c -1.068047,3.035271 0.531457,6.373422 3.566092,7.442389 3.035134,1.06873 6.373662,-0.530956 7.441889,-3.565849 l 0.787385,-2.237316 10.039031,3.534935 c 0.306919,0.108482 0.641311,0.08809 0.930514,-0.05049 0.413044,-0.194569 0.685588,-0.622016 0.691541,-1.077511 0.03737,-2.222633 0.24615,-4.461064 0.62092,-6.654963 0.260701,-1.566625 -2.125825,-1.979974 -2.40088,-0.409372 z m -4.953892,-37.13986 c 1.815322,-4.422792 8.262394,-1.82062 6.432071,2.632352 -1.978686,-1.243971 -4.230812,-2.028426 -6.557947,-2.274862 z m -8.010985,43.227122 c -1.562165,4.187624 -7.822472,1.981681 -6.414997,-2.259574 l 0.787322,-2.233586 6.413833,2.258436 z"
                 id="path443"
                 style="fill:#7aa2f7;stroke-width:0.139145" />
              <g
                 id="g1599">
                <g
                   id="g1329"
                   transform="matrix(0.54811836,0,0,0.54811836,-8.6340354,95.285043)">
                  <g
                     id="g1351"
                     transform="matrix(1.0654867,-0.75551053,0.75551053,1.0654867,13.924657,125.10501)">
                    <g
                       id="g1525"
                       style="fill:#7aa2f7"
                       transform="matrix(1.0068092,-0.02612391,0.02612391,1.0068092,-0.01358452,4.6030739)">
                      <path
                         d="m 163.80856,-40.069319 c 0,0.531313 -0.43081,0.962125 -0.96212,0.962125 -0.53132,0 -0.96213,-0.430812 -0.96213,-0.962125 0,-0.531313 0.43081,-0.962125 0.96213,-0.962125 0.53131,0 0.96212,0.430812 0.96212,0.962125"
                         id="path943"
                         style="fill:#7aa2f7;stroke-width:0.109957" />
                      <path
                         d="m 167.65706,-40.069319 c 0,-2.652716 -2.15791,-4.810625 -4.81062,-4.810625 -2.65272,0 -4.81063,2.157909 -4.81063,4.810625 0,2.652717 2.15791,4.810626 4.81063,4.810626 2.65271,0 4.81062,-2.157909 4.81062,-4.810626 z m -4.81062,2.886376 c -1.59141,0 -2.88638,-1.294966 -2.88638,-2.886376 0,-1.591409 1.29497,-2.886375 2.88638,-2.886375 1.59141,0 2.88637,1.294966 2.88637,2.886375 0,1.59141 -1.29496,2.886376 -2.88637,2.886376 z"
                         id="path945"
                         style="fill:#7aa2f7;stroke-width:0.109957" />
                      <path
                         d="m 169.58131,-28.523818 c 0,0.531313 -0.43081,0.962125 -0.96212,0.962125 -0.53132,0 -0.96213,-0.430812 -0.96213,-0.962125 0,-0.531313 0.43081,-0.962125 0.96213,-0.962125 0.53131,0 0.96212,0.430812 0.96212,0.962125"
                         id="path947"
                         style="fill:#7aa2f7;stroke-width:0.109957" />
                      <path
                         d="m 168.61919,-33.334443 c -2.65272,0 -4.81063,2.157909 -4.81063,4.810625 0,2.652717 2.15791,4.810626 4.81063,4.810626 2.65271,0 4.81062,-2.157909 4.81062,-4.810626 0,-2.652716 -2.15791,-4.810625 -4.81062,-4.810625 z m 0,7.697001 c -1.59141,0 -2.88638,-1.294966 -2.88638,-2.886376 0,-1.59141 1.29497,-2.886375 2.88638,-2.886375 1.59141,0 2.88637,1.294965 2.88637,2.886375 0,1.59141 -1.29496,2.886376 -2.88637,2.886376 z"
                         id="path949"
                         style="fill:#7aa2f7;stroke-width:0.109957" />
                      <path
                         d="m 154.18731,-30.448068 c 0,0.531313 -0.43081,0.962125 -0.96212,0.962125 -0.53132,0 -0.96213,-0.430812 -0.96213,-0.962125 0,-0.531313 0.43081,-0.962125 0.96213,-0.962125 0.53131,0 0.96212,0.430812 0.96212,0.962125"
                         id="path951"
                         style="fill:#7aa2f7;stroke-width:0.109957" />
                      <path
                         d="m 138.79331,-50.652695 h 9.62125 v 1.924251 h -9.62125 z"
                         id="path955"
                         style="fill:#7aa2f7;stroke-width:0.109957" />
                      <path
                         d="m 136.86906,-42.955694 h 1.92425 v 1.92425 h -1.92425 z"
                         id="path961"
                         style="fill:#7aa2f7;stroke-width:0.109957" />
                      <path
                         d="m 140.71756,-42.955694 h 1.92425 v 1.92425 h -1.92425 z"
                         id="path963"
                         style="fill:#7aa2f7;stroke-width:0.109957" />
                      <path
                         d="m 161.90801,-51.068291 c 1.59141,0 2.88637,-1.294966 2.88637,-2.886376 0,-1.591409 -1.29496,-2.886375 -2.88637,-2.886375 -1.59141,0 -2.88638,1.294966 -2.88638,2.886375 0,1.59141 1.29497,2.886376 2.88638,2.886376 z m 0,-3.848501 c 0.53088,0 0.96212,0.432099 0.96212,0.962125 0,0.530027 -0.43124,0.962126 -0.96212,0.962126 -0.53088,0 -0.96213,-0.432099 -0.96213,-0.962126 0,-0.530026 0.43125,-0.962125 0.96213,-0.962125 z"
                         id="path971"
                         style="fill:#7aa2f7;stroke-width:0.109957" />
                      <path
                         d="m 173.17627,-48.318756 c 1.59141,0 2.88637,-1.294966 2.88637,-2.886376 0,-1.59141 -1.29496,-2.886375 -2.88637,-2.886375 -1.59141,0 -2.88638,1.294965 -2.88638,2.886375 0,1.59141 1.29497,2.886376 2.88638,2.886376 z m 0,-3.848501 c 0.53088,0 0.96212,0.432099 0.96212,0.962125 0,0.530027 -0.43124,0.962125 -0.96212,0.962125 -0.53088,0 -0.96213,-0.432098 -0.96213,-0.962125 0,-0.530026 0.43125,-0.962125 0.96213,-0.962125 z"
                         id="path973"
                         style="fill:#7aa2f7;stroke-width:0.109957" />
                      <path
                         d="m 190.85046,-33.633367 c 0.31667,-1.121478 0.17772,-2.300079 -0.39207,-3.316984 l -4.60387,-8.228181 c -0.56854,-1.016572 -1.49878,-1.750997 -2.6211,-2.067907 -2.31607,-0.65399 -4.73186,0.697292 -5.38573,3.012935 -0.31667,1.121478 -0.17772,2.300079 0.39207,3.316984 l 4.60387,8.228181 c 0.56854,1.016572 1.49878,1.750996 2.6211,2.067907 2.31607,0.65399 4.73186,-0.697292 5.38573,-3.012935 z m -4.86282,1.161096 c -0.5196,-0.146719 -0.95845,-0.460783 -1.27685,-0.883628 l 4.20194,-2.351451 c 0.19446,0.493629 0.2327,1.031531 0.086,1.551095 -0.36523,1.293424 -1.71639,2.049556 -3.01098,1.684001 z m -1.03319,-10.375354 1.05396,1.88337 -4.25812,2.382898 -1.05395,-1.883381 z m 1.99341,3.562111 1.05395,1.883381 -4.25811,2.382887 -1.05397,-1.883371 z m -4.23735,-6.109086 c 0.5196,0.146719 0.95845,0.460783 1.27685,0.883628 l -4.20194,2.351451 c -0.19446,-0.493629 -0.2327,-1.031531 -0.086,-1.551086 0.36523,-1.293434 1.71639,-2.049556 3.01098,-1.684 z"
                         id="path975"
                         style="fill:#7aa2f7;stroke-width:0.109957" />
                      <path
                         d="m 143.85915,-34.298683 c -0.27837,-1.131627 -0.98259,-2.087465 -1.97995,-2.689963 -2.05957,-1.244162 -4.74688,-0.58026 -5.99122,1.47959 -0.60295,0.998114 -0.78091,2.170741 -0.50174,3.301832 l 2.25991,9.153766 c 0.27904,1.13053 0.98328,2.086342 1.98063,2.688834 2.05958,1.244168 4.74688,0.580259 5.99122,-1.479589 0.60295,-0.998114 0.78091,-2.170741 0.50174,-3.301832 z m -4.72725,9.235891 -0.51715,-2.095343 4.73736,-1.169246 0.51716,2.095349 z m 3.24209,-7.227615 0.51715,2.095346 -4.73736,1.169246 -0.51716,-2.09535 z m -1.48978,-3.051197 c 0.46102,0.278497 0.80134,0.697856 0.99658,1.191143 l -4.67486,1.153816 c -0.0556,-0.526851 0.0501,-1.05565 0.32902,-1.517379 0.69557,-1.151431 2.1988,-1.52245 3.34919,-0.827506 z m -0.26244,13.330069 c -0.46102,-0.278498 -0.80133,-0.697851 -0.99658,-1.191142 l 4.67487,-1.153816 c 0.0556,0.526849 -0.0501,1.055648 -0.32903,1.517377 -0.69556,1.15143 -2.19879,1.522449 -3.34919,0.827505 z"
                         id="path981"
                         style="fill:#7aa2f7;stroke-width:0.109957" />
                      <path
                         d="m 159.62283,-15.619408 c -2.12228,0 -3.8485,1.726215 -3.8485,3.848501 0,2.1222822 1.72622,3.8485004 3.8485,3.8485004 2.12229,0 3.8485,-1.7262182 3.8485,-3.8485004 0,-2.122286 -1.72621,-3.848501 -3.8485,-3.848501 z m 0,5.7727512 c -1.06134,0 -1.92425,-0.8629132 -1.92425,-1.9242502 0,-1.061341 0.86291,-1.92425 1.92425,-1.92425 1.06134,0 1.92425,0.862909 1.92425,1.92425 0,1.061337 -0.86291,1.9242502 -1.92425,1.9242502 z"
                         id="path983"
                         style="fill:#7aa2f7;stroke-width:0.109957" />
                      <path
                         d="m 170.27257,-17.779139 c -1.59141,0 -2.88638,1.294964 -2.88638,2.886374 0,1.591409 1.29497,2.886376 2.88638,2.886376 1.59141,0 2.88638,-1.294967 2.88638,-2.886376 0,-1.59141 -1.29497,-2.886374 -2.88638,-2.886374 z m 0,3.8485 c -0.53088,0 -0.96213,-0.432098 -0.96213,-0.962126 0,-0.530025 0.43125,-0.962124 0.96213,-0.962124 0.53088,0 0.96212,0.432099 0.96212,0.962124 0,0.530028 -0.43124,0.962126 -0.96212,0.962126 z"
                         id="path985"
                         style="fill:#7aa2f7;stroke-width:0.109957" />
                    </g>
                  </g>
                </g>
              </g>
            </g>
          </g>
        </g>
      </g>
    </g>
  </g>
</svg>
