<?xml version="1.0" encoding="UTF-8" standalone="no"?>
<svg
   width="700pt"
   height="700pt"
   version="1.1"
   viewBox="0 0 700 700"
   id="svg266"
   sodipodi:docname="br-10.svg"
   inkscape:version="1.2.1 (9c6d41e410, 2022-07-14, custom)"
   xmlns:inkscape="http://www.inkscape.org/namespaces/inkscape"
   xmlns:sodipodi="http://sodipodi.sourceforge.net/DTD/sodipodi-0.dtd"
   xmlns:xlink="http://www.w3.org/1999/xlink"
   xmlns="http://www.w3.org/2000/svg"
   xmlns:svg="http://www.w3.org/2000/svg">
  <sodipodi:namedview
     id="namedview268"
     pagecolor="#222330"
     bordercolor="#000000"
     borderopacity="0.24705882"
     inkscape:showpageshadow="2"
     inkscape:pageopacity="0"
     inkscape:pagecheckerboard="false"
     inkscape:deskcolor="#222330"
     inkscape:document-units="pt"
     showgrid="false"
     inkscape:zoom="2.6"
     inkscape:cx="560.96154"
     inkscape:cy="466.15385"
     inkscape:window-width="1667"
     inkscape:window-height="1726"
     inkscape:window-x="0"
     inkscape:window-y="0"
     inkscape:window-maximized="1"
     inkscape:current-layer="g1584" />
  <defs
     id="defs192">
    <linearGradient
       inkscape:collect="always"
       id="linearGradient1613">
      <stop
         style="stop-color:#e0617a;stop-opacity:1;"
         offset="0.12901385"
         id="stop1609" />
      <stop
         style="stop-color:#ff9e64;stop-opacity:0.91430944;"
         offset="0.86586386"
         id="stop1743" />
      <stop
         style="stop-color:#fac77e;stop-opacity:0.9137255;"
         offset="0.97447485"
         id="stop1947" />
    </linearGradient>
    <rect
       x="538.79432"
       y="424.27885"
       width="45.621995"
       height="35.753456"
       id="rect412" />
    <inkscape:path-effect
       effect="fillet_chamfer"
       id="path-effect3460"
       is_visible="true"
       lpeversion="1"
       nodesatellites_param="F,1,0,1,0,0.28,0,5 @ F,1,0,1,0,0.28,0,5 @ F,1,0,1,0,0.28,0,5 @ F,1,0,1,0,0.28,0,5 @ F,1,0,1,0,0.28,0,5 @ F,1,0,1,0,0.28,0,5 @ F,1,0,1,0,0.28,0,5 @ F,1,0,1,0,0.28,0,5 @ F,1,0,1,0,0.28,0,5 @ F,1,0,1,0,0.28,0,5"
       unit="px"
       method="bezier"
       mode="F"
       radius="28"
       chamfer_steps="5"
       flexible="true"
       use_knot_distance="true"
       apply_no_radius="true"
       apply_with_radius="true"
       only_selected="false"
       hide_knots="false" />
    <inkscape:path-effect
       effect="fillet_chamfer"
       id="path-effect3357"
       is_visible="true"
       lpeversion="1"
       nodesatellites_param="F,0,0,1,0,0,0,1 @ F,0,0,1,0,0,0,1 @ F,0,0,1,0,0,0,1 @ F,0,0,1,0,0,0,1"
       unit="px"
       method="auto"
       mode="F"
       radius="8"
       chamfer_steps="1"
       flexible="false"
       use_knot_distance="true"
       apply_no_radius="true"
       apply_with_radius="true"
       only_selected="false"
       hide_knots="false" />
    <inkscape:path-effect
       effect="powerstroke"
       id="path-effect1943"
       is_visible="true"
       lpeversion="1"
       offset_points="9.5,4.3584511"
       not_jump="false"
       sort_points="true"
       interpolator_type="CentripetalCatmullRom"
       interpolator_beta="0.77304965"
       start_linecap_type="zerowidth"
       linejoin_type="round"
       miter_limit="4"
       scale_width="1"
       end_linecap_type="zerowidth" />
    <inkscape:path-effect
       effect="fillet_chamfer"
       id="path-effect504"
       is_visible="true"
       lpeversion="1"
       nodesatellites_param="F,0,0,1,0,0,0,26 @ F,0,0,1,0,0,0,26 @ F,0,0,1,0,0,0,26 @ F,0,0,1,0,0,0,26 @ F,0,0,1,0,0,0,26 @ F,0,0,1,0,0,0,26 @ F,0,0,1,0,0,0,26 @ F,0,0,1,0,0,0,26 @ F,0,0,1,0,0,0,26 @ F,0,0,1,0,0,0,26 @ F,0,0,1,0,0,0,26 @ F,0,0,1,0,0,0,26 @ F,0,0,1,0,0,0,26 @ F,0,0,1,0,0,0,26 @ F,0,0,1,0,0,0,26 @ F,0,0,1,0,0,0,26 @ F,0,0,1,0,0,0,26 @ F,0,0,1,0,0,0,26 @ F,0,0,1,0,0,0,26 | F,0,0,1,0,0,0,26 @ F,0,0,1,0,0,0,26 @ F,0,0,1,0,0,0,26 @ F,0,0,1,0,0,0,26"
       unit="px"
       method="arc"
       mode="F"
       radius="10"
       chamfer_steps="27"
       flexible="false"
       use_knot_distance="true"
       apply_no_radius="true"
       apply_with_radius="true"
       only_selected="false"
       hide_knots="false" />
    <inkscape:path-effect
       effect="fillet_chamfer"
       id="path-effect1951"
       is_visible="true"
       lpeversion="1"
       nodesatellites_param="F,0,0,1,0,7.5,0,1 @ F,0,0,1,0,7.5,0,1 @ F,0,0,1,0,7.5,0,1 @ F,0,0,1,0,7.5,0,1"
       unit="px"
       method="auto"
       mode="F"
       radius="10"
       chamfer_steps="1"
       flexible="false"
       use_knot_distance="true"
       apply_no_radius="true"
       apply_with_radius="true"
       only_selected="false"
       hide_knots="false" />
    <inkscape:path-effect
       effect="fillet_chamfer"
       id="path-effect1949"
       is_visible="true"
       lpeversion="1"
       nodesatellites_param="F,0,0,1,0,7.5,0,1 @ F,0,0,1,0,7.5,0,1 @ F,0,0,1,0,7.5,0,1 @ F,0,0,1,0,7.5,0,1"
       unit="px"
       method="auto"
       mode="F"
       radius="10"
       chamfer_steps="1"
       flexible="false"
       use_knot_distance="true"
       apply_no_radius="true"
       apply_with_radius="true"
       only_selected="false"
       hide_knots="false" />
    <symbol
       id="k"
       overflow="visible">
      <path
         d="m29.312-1.75c-1.5117 0.78125-3.0898 1.3711-4.7344 1.7656-1.6367 0.40625-3.3398 0.60938-5.1094 0.60938-5.3125 0-9.5273-1.4844-12.641-4.4531-3.1055-2.9688-4.6562-7-4.6562-12.094s1.5508-9.125 4.6562-12.094c3.1133-2.9688 7.3281-4.4531 12.641-4.4531 1.7695 0 3.4727 0.19922 5.1094 0.59375 1.6445 0.39844 3.2227 0.99219 4.7344 1.7812v6.5938c-1.5312-1.0391-3.0391-1.8008-4.5156-2.2812-1.4805-0.48828-3.0391-0.73438-4.6719-0.73438-2.9375 0-5.2461 0.94531-6.9219 2.8281-1.6797 1.875-2.5156 4.4648-2.5156 7.7656 0 3.293 0.83594 5.8828 2.5156 7.7656 1.6758 1.875 3.9844 2.8125 6.9219 2.8125 1.6328 0 3.1914-0.23828 4.6719-0.71875 1.4766-0.48828 2.9844-1.2539 4.5156-2.2969z"
         id="path159" />
    </symbol>
    <symbol
       id="b"
       overflow="visible">
      <path
         d="m21.453-17.406c-0.67969-0.3125-1.3516-0.53906-2.0156-0.6875-0.65625-0.15625-1.3203-0.23438-1.9844-0.23438-1.9688 0-3.4844 0.63281-4.5469 1.8906-1.0547 1.2617-1.5781 3.0703-1.5781 5.4219v11.016h-7.6562v-23.922h7.6562v3.9219c0.97656-1.5625 2.1016-2.7031 3.375-3.4219 1.2812-0.71875 2.8125-1.0781 4.5938-1.0781 0.25 0 0.52344 0.011719 0.82812 0.03125 0.30078 0.023438 0.73438 0.070312 1.2969 0.14062z"
         id="path162" />
    </symbol>
    <symbol
       id="a"
       overflow="visible">
      <path
         d="m27.562-12.031v2.1875h-17.891c0.1875 1.793 0.83203 3.1367 1.9375 4.0312 1.1133 0.89844 2.6719 1.3438 4.6719 1.3438 1.6016 0 3.25-0.23438 4.9375-0.70312 1.6875-0.47656 3.4219-1.2031 5.2031-2.1719v5.8906c-1.8047 0.6875-3.6094 1.2031-5.4219 1.5469-1.8125 0.35156-3.6211 0.53125-5.4219 0.53125-4.3359 0-7.7031-1.0977-10.109-3.2969-2.3984-2.207-3.5938-5.2969-3.5938-9.2656 0-3.9062 1.1758-6.9727 3.5312-9.2031 2.3633-2.2383 5.6094-3.3594 9.7344-3.3594 3.7578 0 6.7695 1.1367 9.0312 3.4062 2.2578 2.2617 3.3906 5.2812 3.3906 9.0625zm-7.8594-2.5312c0-1.457-0.42969-2.6289-1.2812-3.5156-0.84375-0.89453-1.9492-1.3438-3.3125-1.3438-1.4922 0-2.6992 0.41797-3.625 1.25-0.91797 0.83594-1.4922 2.0391-1.7188 3.6094z"
         id="path165" />
    </symbol>
    <symbol
       id="h"
       overflow="visible">
      <path
         d="m14.391-10.766c-1.5938 0-2.793 0.27344-3.5938 0.8125-0.80469 0.54297-1.2031 1.3398-1.2031 2.3906 0 0.96875 0.32031 1.7305 0.96875 2.2812 0.64453 0.54297 1.5469 0.8125 2.7031 0.8125 1.4375 0 2.6445-0.51562 3.625-1.5469 0.98828-1.0312 1.4844-2.3203 1.4844-3.875v-0.875zm11.688-2.8906v13.656h-7.7031v-3.5469c-1.0312 1.4492-2.1875 2.5078-3.4688 3.1719s-2.8398 1-4.6719 1c-2.4805 0-4.4961-0.72266-6.0469-2.1719-1.543-1.4453-2.3125-3.3203-2.3125-5.625 0-2.8125 0.96094-4.8672 2.8906-6.1719 1.9375-1.3125 4.9688-1.9688 9.0938-1.9688h4.5156v-0.60938c0-1.207-0.48047-2.0938-1.4375-2.6562-0.94922-0.5625-2.4375-0.84375-4.4688-0.84375-1.6367 0-3.1562 0.16797-4.5625 0.5-1.4062 0.32422-2.7188 0.8125-3.9375 1.4688v-5.8281c1.6445-0.40625 3.2891-0.70703 4.9375-0.90625 1.6562-0.20703 3.3047-0.3125 4.9531-0.3125 4.3203 0 7.4375 0.85547 9.3438 2.5625 1.9141 1.6992 2.875 4.4609 2.875 8.2812z"
         id="path168" />
    </symbol>
    <symbol
       id="g"
       overflow="visible">
      <path
         d="m12.031-30.719v6.7969h7.875v5.4688h-7.875v10.141c0 1.1172 0.21875 1.8711 0.65625 2.2656 0.4375 0.38672 1.3125 0.57812 2.625 0.57812h3.9375v5.4688h-6.5625c-3.0234 0-5.1641-0.62891-6.4219-1.8906-1.2617-1.2578-1.8906-3.3984-1.8906-6.4219v-10.141h-3.7969v-5.4688h3.7969v-6.7969z"
         id="path171" />
    </symbol>
    <symbol
       id="f"
       overflow="visible">
      <path
         d="m19.953-20.422v-12.812h7.6875v33.234h-7.6875v-3.4531c-1.0547 1.4062-2.2148 2.4375-3.4844 3.0938-1.2734 0.65625-2.7422 0.98438-4.4062 0.98438-2.9492 0-5.3711-1.1719-7.2656-3.5156-1.8867-2.3438-2.8281-5.3594-2.8281-9.0469s0.94141-6.7031 2.8281-9.0469c1.8945-2.3438 4.3164-3.5156 7.2656-3.5156 1.6562 0 3.1172 0.33594 4.3906 1 1.2812 0.65625 2.4453 1.6836 3.5 3.0781zm-5.0469 15.484c1.6445 0 2.8945-0.59766 3.75-1.7969 0.86328-1.1953 1.2969-2.9297 1.2969-5.2031 0-2.2812-0.43359-4.0195-1.2969-5.2188-0.85547-1.1953-2.1055-1.7969-3.75-1.7969-1.625 0-2.8711 0.60156-3.7344 1.7969-0.85547 1.1992-1.2812 2.9375-1.2812 5.2188 0 2.2734 0.42578 4.0078 1.2812 5.2031 0.86328 1.1992 2.1094 1.7969 3.7344 1.7969z"
         id="path174" />
    </symbol>
    <symbol
       id="e"
       overflow="visible">
      <path
         d="m16.406-4.9375c1.6328 0 2.8828-0.59766 3.75-1.7969 0.86328-1.1953 1.2969-2.9297 1.2969-5.2031 0-2.2812-0.43359-4.0195-1.2969-5.2188-0.86719-1.1953-2.1172-1.7969-3.75-1.7969-1.6367 0-2.8906 0.60547-3.7656 1.8125-0.875 1.1992-1.3125 2.9336-1.3125 5.2031 0 2.2617 0.4375 3.9961 1.3125 5.2031 0.875 1.1992 2.1289 1.7969 3.7656 1.7969zm-5.0781-15.484c1.0508-1.3945 2.2188-2.4219 3.5-3.0781 1.2812-0.66406 2.7539-1 4.4219-1 2.9453 0 5.3672 1.1719 7.2656 3.5156 1.8945 2.3438 2.8438 5.3594 2.8438 9.0469s-0.94922 6.7031-2.8438 9.0469c-1.8984 2.3438-4.3203 3.5156-7.2656 3.5156-1.668 0-3.1406-0.33594-4.4219-1s-2.4492-1.6914-3.5-3.0781v3.4531h-7.6562v-33.234h7.6562z"
         id="path177" />
    </symbol>
    <symbol
       id="d"
       overflow="visible">
      <path
         d="m0.53125-23.922h7.6562l6.4219 16.234 5.4688-16.234h7.6562l-10.062 26.188c-1.0117 2.6641-2.1953 4.5234-3.5469 5.5781-1.3438 1.0625-3.1211 1.5938-5.3281 1.5938h-4.4219v-5.0156h2.3906c1.3008 0 2.2422-0.21094 2.8281-0.625 0.59375-0.40625 1.0547-1.1484 1.3906-2.2188l0.20312-0.65625z"
         id="path180" />
    </symbol>
    <symbol
       id="c"
       overflow="visible">
      <path
         d="m4.0156-31.891h9.1875l11.594 21.875v-21.875h7.7969v31.891h-9.1875l-11.594-21.875v21.875h-7.7969z"
         id="path183" />
    </symbol>
    <symbol
       id="j"
       overflow="visible">
      <path
         d="m27.734-14.562v14.562h-7.7031v-11.109c0-2.0938-0.046875-3.5312-0.14062-4.3125-0.085937-0.78125-0.24219-1.3594-0.46875-1.7344-0.30469-0.5-0.71094-0.88281-1.2188-1.1562-0.51172-0.28125-1.0938-0.42188-1.75-0.42188-1.5938 0-2.8516 0.61719-3.7656 1.8438-0.90625 1.2305-1.3594 2.9375-1.3594 5.125v11.766h-7.6562v-33.234h7.6562v12.812c1.1445-1.3945 2.3633-2.4219 3.6562-3.0781 1.3008-0.66406 2.7383-1 4.3125-1 2.7578 0 4.8516 0.85156 6.2812 2.5469 1.4375 1.6875 2.1562 4.1523 2.1562 7.3906z"
         id="path186" />
    </symbol>
    <symbol
       id="i"
       overflow="visible">
      <path
         d="m15.062-19.031c-1.6992 0-2.9961 0.60938-3.8906 1.8281-0.88672 1.2188-1.3281 2.9766-1.3281 5.2656 0 2.293 0.44141 4.0469 1.3281 5.2656 0.89453 1.2188 2.1914 1.8281 3.8906 1.8281 1.6641 0 2.9375-0.60938 3.8125-1.8281 0.88281-1.2188 1.3281-2.9727 1.3281-5.2656 0-2.2891-0.44531-4.0469-1.3281-5.2656-0.875-1.2188-2.1484-1.8281-3.8125-1.8281zm0-5.4688c4.1133 0 7.3281 1.1094 9.6406 3.3281s3.4688 5.2969 3.4688 9.2344c0 3.9297-1.1562 7.0078-3.4688 9.2344-2.3125 2.2188-5.5273 3.3281-9.6406 3.3281-4.1367 0-7.3711-1.1094-9.7031-3.3281-2.3242-2.2266-3.4844-5.3047-3.4844-9.2344 0-3.9375 1.1602-7.0156 3.4844-9.2344 2.332-2.2188 5.5664-3.3281 9.7031-3.3281z"
         id="path189" />
    </symbol>
    <inkscape:path-effect
       effect="fill_between_many"
       method="bsplinespiro"
       linkedpaths="#path821,0,1"
       id="path-effect1945"
       join="true"
       close="true"
       autoreverse="true" />
    <radialGradient
       inkscape:collect="always"
       xlink:href="#linearGradient1613"
       id="radialGradient1741"
       cx="345.26755"
       cy="313.23938"
       fx="345.26755"
       fy="313.23938"
       r="269.26031"
       gradientTransform="matrix(1,0,0,1.0433744,0,-13.586562)"
       gradientUnits="userSpaceOnUse" />
    <radialGradient
       inkscape:collect="always"
       xlink:href="#linearGradient1613"
       id="radialGradient2014"
       gradientUnits="userSpaceOnUse"
       gradientTransform="matrix(1,0,0,1.0433744,0,-13.586562)"
       cx="345.26755"
       cy="313.23938"
       fx="345.26755"
       fy="313.23938"
       r="269.26031" />
    <radialGradient
       inkscape:collect="always"
       xlink:href="#linearGradient1613"
       id="radialGradient2016"
       gradientUnits="userSpaceOnUse"
       gradientTransform="matrix(1,0,0,1.0433744,0,-13.586562)"
       cx="345.26755"
       cy="313.23938"
       fx="345.26755"
       fy="313.23938"
       r="269.26031" />
    <radialGradient
       inkscape:collect="always"
       xlink:href="#linearGradient1613"
       id="radialGradient2018"
       gradientUnits="userSpaceOnUse"
       gradientTransform="matrix(1,0,0,1.0433744,0,-13.586562)"
       cx="345.26755"
       cy="313.23938"
       fx="345.26755"
       fy="313.23938"
       r="269.26031" />
    <radialGradient
       inkscape:collect="always"
       xlink:href="#linearGradient1613"
       id="radialGradient2020"
       gradientUnits="userSpaceOnUse"
       gradientTransform="matrix(1,0,0,1.0433744,0,-13.586562)"
       cx="345.26755"
       cy="313.23938"
       fx="345.26755"
       fy="313.23938"
       r="269.26031" />
  </defs>
  <g
     id="g3201"
     style="fill:#c0caf5;fill-opacity:1"
     transform="translate(13.585637,40.696661)">
    <g
       id="g1584"
       style="stroke:none;stroke-opacity:1;fill-opacity:1;fill:url(#radialGradient1741)">
      <g
         id="g2468"
         transform="matrix(1.5245966,0,0,1.468116,-176.73753,-70.72511)"
         style="fill:url(#radialGradient1741);fill-opacity:1;stroke:none;stroke-opacity:1">
        <path
           d="m 332.02306,157.88498 c -2.63688,0 -4.91692,-2.20349 -5.15873,-4.91402 l -6.94788,-77.881867 c -0.2418,-2.710444 1.7559,-4.914008 4.39288,-4.914008 2.63698,0 4.91692,2.203475 5.15873,4.914008 l 6.94788,77.881867 c 0.2418,2.71044 -1.7559,4.91402 -4.39288,4.91402 z"
           id="path801"
           style="fill:url(#radialGradient1741);fill-opacity:1;stroke-width:0.885831;stroke:none;stroke-opacity:1"
           sodipodi:nodetypes="sssssss" />
        <path
           d="m 404.44442,189.85376 c -1.10124,0 -2.20564,-0.43363 -3.04542,-1.29777 -1.68267,-1.73134 -1.67448,-4.52721 0,-6.26712 l 72.53185,-75.36584 c 1.67958,-1.73135 4.40821,-1.73135 6.09087,0 1.68267,1.73136 1.68267,4.53577 0,6.26712 l -72.53188,75.36584 c -0.83977,0.86411 -1.941,1.29777 -3.04542,1.29777 z"
           id="path803"
           style="fill:url(#radialGradient1741);fill-opacity:1;stroke-width:8.80308;stroke-dasharray:none;paint-order:stroke fill markers;stroke:none;stroke-opacity:1"
           sodipodi:nodetypes="scscsccs" />
        <path
           d="m 514.69086,255.68002 -79.25028,0 c -2.37915,0 -4.30902,-1.98563 -4.30902,-4.4337 0,-2.44805 1.92978,-4.43369 4.30902,-4.43369 l 79.25028,0 c 2.37913,0 4.309,1.98564 4.309,4.43369 0,2.44807 -1.92979,4.4337 -4.309,4.4337 z"
           id="path805"
           style="fill:url(#radialGradient1741);fill-opacity:1;stroke-width:8.8078;stroke-dasharray:none;paint-order:stroke fill markers;stroke:none;stroke-opacity:1"
           sodipodi:nodetypes="sssssss" />
        <path
           d="m 235.55988,258.20131 -61.5558,19.38838 c -2.12307,0.66757 -4.36184,-0.56284 -4.9988,-2.74741 -0.63694,-2.18456 0.5685,-4.49796 2.69163,-5.16554 l 61.55581,-19.38838 c 2.12304,-0.66757 4.36183,0.56285 4.99878,2.7474 0.63695,2.18457 -0.56849,4.49797 -2.69162,5.16555 z"
           id="path807"
           style="fill:url(#radialGradient1741);fill-opacity:1;stroke-width:0.745196;stroke:none;stroke-opacity:1"
           sodipodi:nodetypes="ccsccsc" />
        <path
           d="m 259.82847,189.28057 c -1.12494,0.0177 -2.25959,-0.40748 -3.13034,-1.27671 l -61.92975,-57.66824 c -1.74469,-1.74154 -1.78654,-4.60632 -0.0935,-6.40201 1.69304,-1.79568 4.47728,-1.83953 6.22197,-0.098 l 61.92973,57.66824 c 1.74471,1.74156 1.78654,4.60634 0.0935,6.40201 -0.84811,0.89627 -1.96667,1.35698 -3.09161,1.37471 z"
           id="path809"
           style="fill:url(#radialGradient1741);fill-opacity:1;stroke-width:8.99362;stroke-dasharray:none;paint-order:stroke fill markers;stroke:none;stroke-opacity:1"
           sodipodi:nodetypes="sccscccs" />
        <path
           d="m 369.382,166.22181 c -0.50012,0 -1.00897,-0.0958 -1.50325,-0.29618 -2.08768,-0.85566 -3.10829,-3.291 -2.27959,-5.43912 l 23.45642,-57.69485 c 0.82868,-2.14812 3.19264,-3.198259 5.28614,-2.34558 2.08772,0.85567 3.10831,3.28802 2.27961,5.43913 l -23.45641,57.69484 c -0.63096,1.64248 -2.16327,2.64174 -3.78285,2.64174 z"
           id="path811"
           style="fill:url(#radialGradient1741);fill-opacity:1;stroke-width:8.32083;stroke-dasharray:none;paint-order:stroke fill markers;stroke:none;stroke-opacity:1"
           sodipodi:nodetypes="sccccccss" />
        <path
           d="m 426.51023,222.96544 c -1.76455,0 -3.44444,-1.06188 -4.18671,-2.83396 -0.99622,-2.37837 0.0682,-5.13866 2.3799,-6.16371 l 59.75069,-24.65185 c 2.30821,-1.02173 4.99415,0.0704 5.99035,2.44876 0.99622,2.37837 -0.0682,5.13867 -2.37989,6.16371 l -59.75067,24.65186 c -0.58927,0.26128 -1.20134,0.38523 -1.80367,0.38523 z"
           id="path813"
           style="fill:url(#radialGradient1741);fill-opacity:1;stroke-width:9.31664;stroke-dasharray:none;paint-order:stroke fill markers;stroke:none;stroke-opacity:1"
           sodipodi:nodetypes="ssccsccss" />
        <path
           d="m 231.6441,308.26452 c -1.25765,0.37504 -2.65024,-0.079 -3.50515,-1.27485 -1.14741,-1.60492 -0.89636,-3.93958 0.56271,-5.21386 l 28.2445,-24.67692 c 1.45893,-1.27424 3.57237,-1.00782 4.7198,0.59724 1.14741,1.60493 0.89637,3.9396 -0.56271,5.21387 l -28.24449,24.6769 c -0.37195,0.32484 -0.78537,0.54961 -1.21466,0.67763 z"
           id="path815"
           style="fill:url(#radialGradient1741);fill-opacity:1;stroke-width:7.11664;stroke-dasharray:none;paint-order:stroke fill markers;stroke:none;stroke-opacity:1" />
        <path
           d="m 236.39428,225.80489 c -0.52261,0 -1.05436,-0.10004 -1.57084,-0.30951 l -66.36099,-20.7367 c -2.18159,-0.89414 -3.25111,-3.43587 -2.38212,-5.68372 0.86899,-2.24473 3.34228,-3.34209 5.52388,-2.45106 l 66.36098,20.73671 c 2.18161,0.89414 3.25114,3.43587 2.38212,5.68372 -0.66236,1.71321 -2.26365,2.76055 -3.95296,2.76055 z"
           id="path817"
           style="fill:url(#radialGradient1741);fill-opacity:1;stroke-width:8.69503;stroke-dasharray:none;paint-order:stroke fill markers;stroke:none;stroke-opacity:1"
           sodipodi:nodetypes="scccccsss" />
        <path
           d="m 296.28958,165.23813 c -1.50997,0.282 -3.09783,-0.40069 -3.9839,-1.86929 l -25.53949,-44.7833 c -1.18918,-1.97107 -0.66912,-4.61358 1.1639,-5.90114 1.83284,-1.28751 4.28355,-0.73511 5.47275,1.23603 l 25.53952,44.7833 c 1.18918,1.97107 0.66913,4.61357 -1.1639,5.90112 -0.46726,0.32821 -0.97345,0.53702 -1.48888,0.63328 z"
           id="path819"
           style="fill:url(#radialGradient1741);fill-opacity:1;stroke-width:8.27602;stroke-dasharray:none;paint-order:stroke fill markers;stroke:none;stroke-opacity:1"
           sodipodi:nodetypes="scccccss" />
        <path
           d="m 480.13352,316.94763 c 0,-1.54861 -2.89287,0.95831 -4.22268,0.0866 l -43.29627,-33.3716 c -1.78476,-1.17009 -2.3045,-3.6243 -1.15844,-5.48168 1.14593,-1.85726 3.52183,-2.41615 5.30663,-1.246 l 43.2963,33.37156 c 1.78476,1.17011 2.3045,3.6243 1.15842,5.48167 -0.29214,0.47347 -1.08396,1.68813 -1.08396,1.15951 z"
           id="path819-6"
           style="fill:url(#radialGradient1741);fill-opacity:1;stroke-width:7.87353;stroke-dasharray:none;paint-order:stroke fill markers;stroke:none;stroke-opacity:1"
           sodipodi:nodetypes="sccsccsss" />
      </g>
      <path
         id="path2691"
         style="fill:url(#radialGradient1741);fill-opacity:1;stroke-width:0.797823;stroke:none;stroke-opacity:1"
         d="m 325.93066,173.18262 c -24.78416,0.58565 -48.95924,8.01556 -70.29492,21.92724 -31.143,20.1482 -52.27571,51.20128 -59.5122,87.4336 0,0.0436 -0.0908,0.40171 -0.0908,0.44531 -4.42552,22.56322 10.58691,44.58788 33.55225,49.19092 l 16.08399,3.21679 -8.04053,40.29932 c -2.00972,10.14113 -7.86164,18.85543 -16.44141,24.57422 -8.57659,5.71879 -18.89934,7.72887 -28.99658,5.71875 -10.14112,-2.00973 -18.85542,-7.8631 -24.57422,-16.44287 -5.71879,-8.5766 -7.72886,-18.89934 -5.71875,-28.99658 l 7.2832,-36.32227 c 2.81409,-14.07439 8.7e-4,-28.36947 -7.95263,-40.29932 -7.95348,-11.92983 -20.06087,-20.06084 -34.13526,-22.875 -4.82418,-0.93807 -9.51828,2.19079 -10.5,7.01514 -0.98134,4.8242 2.19225,9.51828 7.01661,10.5 9.33692,1.87966 17.42345,7.28251 22.74023,15.23584 5.31677,7.95269 7.19354,17.46806 5.31738,26.85205 l -7.2832,36.32227 c -2.94874,14.78843 0.0424,29.84696 8.39795,42.3999 8.35481,12.55375 21.13325,21.13383 35.9209,24.08203 3.75247,0.75728 7.50478,1.11621 11.21338,1.11621 11.03627,0 21.84646,-3.26379 31.23046,-9.51855 12.55374,-8.35479 21.13384,-21.13326 24.08204,-35.9209 l 8.04052,-40.29932 21.49073,4.28906 c -7.64164,13.71619 -8.57906,30.29147 -1.96582,45.34717 3.17262,7.23945 3.7518,14.9244 1.74169,22.29492 -1.29646,4.7804 1.47417,9.69572 6.25489,10.99219 0.80412,0.22114 1.56461,0.31201 2.36865,0.31201 3.93336,0 7.55142,-2.59022 8.62353,-6.56689 3.08223,-11.34743 2.18764,-23.14371 -2.63671,-34.1792 -5.13886,-11.70566 -3.26218,-24.7498 4.55713,-34.40186 l 28.36962,5.67481 c -7.64163,13.71616 -8.58051,30.29292 -1.96728,45.34863 5.71895,13.04599 2.77241,27.83343 -7.54981,37.6626 -15.81628,15.05571 -20.32995,37.75022 -11.57226,57.76758 0.17764,0.44878 0.35848,0.85074 0.53613,1.29638 1.34002,3.57465 4.73395,5.71875 8.3086,5.71875 1.07203,0 2.14321,-0.22491 3.21533,-0.62695 4.59993,-1.78553 6.87902,-6.96924 5.09326,-11.57226 -0.22438,-0.71367 -0.53618,-1.33972 -0.8042,-2.00977 -5.71895,-13.04601 -2.77095,-27.83343 7.55127,-37.6626 15.81628,-15.09959 20.32849,-37.75022 11.5708,-57.76758 -5.22981,-11.88595 -3.39621,-24.66283 4.55713,-34.40185 l 28.36963,5.6748 c -7.64163,13.71616 -8.57906,30.29292 -1.96582,45.34864 5.71895,13.046 2.77097,27.83342 -7.55127,37.66259 -15.81629,15.09959 -20.32996,37.74876 -11.57227,57.76612 5.71897,13.046 2.77097,27.83489 -7.55127,37.66406 -3.53093,3.39395 -3.66502,9.06842 -0.26806,12.64307 1.78887,1.83251 4.11042,2.77148 6.479,2.77148 2.23143,0 4.42193,-0.80481 6.16406,-2.45654 15.81629,-15.0996 20.32996,-37.75022 11.57227,-57.76758 -5.71896,-13.04601 -2.77097,-27.83343 7.55127,-37.6626 l -0.007,0.004 c 15.76945,-15.0996 20.32797,-37.75341 11.56787,-57.76758 -5.13885,-11.70566 -3.26217,-24.75125 4.55713,-34.40332 l 14.43164,2.90478 c 2.81736,0.57966 5.63213,0.84815 8.44629,0.84815 8.3556,0 16.53088,-2.50218 23.63965,-7.23926 9.51402,-6.43523 15.94991,-16.17547 18.1377,-27.479 1.38367,-7.19318 2.18674,-14.56551 2.41113,-21.93604 0.13404,-4.91458 -3.75127,-9.06954 -8.66602,-9.20361 -5.00187,-0.26807 -9.06954,3.75273 -9.20361,8.66748 -0.18078,6.43603 -0.89452,12.86729 -2.10058,19.12207 -1.29646,6.56688 -5.04827,12.28602 -10.58936,15.99463 -5.4978,3.70859 -12.10821,5.00544 -18.5874,3.70898 L 349.70654,337.9043 h -0.0439 l -47.31592,-9.47168 -69.29443,-13.84864 c -13.31357,-2.68069 -22.06784,-15.32435 -19.47803,-28.50439 6.3012,-31.54191 24.66343,-58.57463 51.69287,-76.04297 27.03182,-17.46776 59.20148,-23.14207 90.60937,-15.94922 45.74715,10.45946 80.99768,47.04651 89.75538,93.20215 0.93745,4.82427 5.63031,8.03901 10.45459,7.10156 4.82426,-0.93745 8.0411,-5.63023 7.10302,-10.45459 -10.09244,-53.12621 -50.61883,-95.21249 -103.29345,-107.27636 -11.30814,-2.59642 -22.69981,-3.74375 -33.96534,-3.47754 z m -161.67773,9.07031 c -13.53826,0 -24.57422,11.03595 -24.57422,24.57422 0.003,13.53823 11.03915,24.57422 24.57422,24.57422 13.53825,0 24.57422,-11.03599 24.57422,-24.57422 0,-13.53827 -11.03597,-24.57422 -24.57422,-24.57422 z m -0.36035,10.0415 c 8.03583,1.8e-4 14.55012,6.51447 14.55029,14.5503 -1.8e-4,8.03583 -6.51446,14.55011 -14.55029,14.55029 -8.03583,-1.8e-4 -14.55011,-6.51446 -14.55029,-14.55029 1.7e-4,-8.03583 6.51446,-14.55012 14.55029,-14.5503 z m 311.60156,10.81202 c -6.16445,0 -11.16943,5.00497 -11.16943,11.16943 0,6.16445 5.00498,11.16943 11.16943,11.16943 6.16445,0 11.16943,-5.00498 11.16943,-11.16943 0,-6.16446 -5.00498,-11.16943 -11.16943,-11.16943 z m -151.84277,19.40039 c -5.18719,0.0276 -9.83434,3.69847 -10.88965,8.97509 -1.20552,6.0337 2.72788,11.9292 8.7583,13.13526 6.0337,1.20551 11.93065,-2.7233 13.13672,-8.75684 1.20552,-6.03368 -2.72788,-11.93065 -8.7583,-13.13672 -0.75421,-0.15068 -1.50605,-0.22074 -2.24707,-0.21679 z m -57.97852,5.72021 c -2.27859,-0.12855 -4.60129,0.62006 -6.43066,2.2749 -17.24654,15.36688 -28.77331,35.51863 -33.32959,58.25977 -0.98132,4.82419 2.19078,9.51828 7.01513,10.5 0.5797,0.13404 1.16203,0.17724 1.7417,0.17724 4.15467,0 7.91063,-2.94772 8.7583,-7.19238 3.75217,-18.89803 13.35628,-35.65272 27.69873,-48.43066 3.66188,-3.26309 3.97632,-8.93555 0.71338,-12.60059 -1.65308,-1.85432 -3.8884,-2.85973 -6.16699,-2.98828 z m 123.70166,7.41504 c -5.18718,0.0276 -9.83287,3.69849 -10.88818,8.9751 -1.20552,6.03368 2.7246,11.93122 8.7583,13.13672 6.0337,1.20552 11.92918,-2.72788 13.13525,-8.7583 1.2055,-6.03371 -2.72641,-11.92919 -8.75683,-13.13526 -0.75421,-0.15069 -1.50751,-0.22221 -2.24854,-0.21826 z m -61.56299,21.74854 c -2.71202,0.32447 -4.47037,3.56985 -2.67334,5.99414 5.54088,7.54779 13.85329,13.13198 23.72315,15.14209 9.96321,1.96647 19.74909,6.2e-4 27.78955,-4.82373 2.94819,-1.78577 2.05383,-6.29822 -1.29639,-6.96827 l -46.33008,-9.29297 c -0.41878,-0.0838 -0.82545,-0.0976 -1.21289,-0.0513 z m 151.01661,108.80126 c -4.91451,0 -8.93409,4.02082 -8.93409,8.93555 v 13.40332 h -13.40478 c -4.91451,0 -8.93408,4.02079 -8.93408,8.93555 0,4.9145 4.01933,8.93408 8.93408,8.93408 h 13.40478 v 13.40479 c 0,4.9145 4.01958,8.93408 8.93409,8.93408 4.9145,0 8.93554,-4.01934 8.93554,-8.93408 v -13.40479 h 13.40332 c 4.91453,0 8.93555,-4.01934 8.93555,-8.93408 0,-4.95815 -3.97404,-8.93555 -8.93555,-8.93555 h -13.40332 v -13.40332 c 0,-4.91451 -4.02104,-8.93555 -8.93554,-8.93555 z m -346.69776,54.06153 c -4.9145,0 -8.93408,4.01933 -8.93408,8.93408 v 13.40479 H 109.7915 c -4.91451,0 -8.93554,4.01956 -8.93554,8.93408 0,4.9145 4.02079,8.93554 8.93554,8.93554 h 13.40479 v 13.40332 c 0,4.91451 4.01958,8.93555 8.93408,8.93555 4.91451,0 8.93555,-4.0208 8.93555,-8.93555 v -13.40332 h 13.40332 c 4.9145,0 8.93555,-4.02081 8.93555,-8.93554 0,-4.91452 -4.02081,-8.93408 -8.93555,-8.93408 H 141.06592 V 429.1875 c 0,-4.91451 -4.02104,-8.93408 -8.93555,-8.93408 z m 145.84277,6.33691 c -2.2786,0.15622 -4.50183,1.18378 -6.1333,3.03809 -13.13631,15.0557 -16.30824,35.87694 -8.2207,54.28271 5.71895,13.04599 2.77096,27.83343 -7.55127,37.6626 -15.81626,15.0996 -20.32996,37.75022 -11.57226,57.76758 1.47405,3.3503 4.73469,5.35986 8.17529,5.35986 1.20607,0 2.41179,-0.26785 3.57422,-0.76025 4.51273,-1.96345 6.56901,-7.23687 4.60254,-11.74951 -5.71894,-13.04599 -2.77095,-27.83343 7.55127,-37.6626 15.81628,-15.0996 20.32995,-37.75022 11.57226,-57.76758 -5.27272,-12.01761 -3.21679,-25.59866 5.31592,-35.38477 l 0.001,10e-4 c 3.25983,-3.75216 2.9041,-9.38148 -0.84814,-12.59766 -1.85414,-1.63146 -4.18869,-2.34615 -6.46729,-2.18994 z m 156.1377,13.76514 c -6.16445,0 -11.16943,5.00497 -11.16943,11.16943 0,6.16446 5.00498,11.16944 11.16943,11.16944 6.16445,0 11.16943,-5.00498 11.16943,-11.16944 0,-6.16446 -5.00498,-11.16943 -11.16943,-11.16943 z m 55.89111,66.70459 c -6.16445,0 -11.16943,5.00498 -11.16943,11.16943 0,6.16447 5.00498,11.1709 11.16943,11.1709 6.16447,0 11.16944,-5.00643 11.16944,-11.1709 0,-6.16445 -5.00188,-11.16943 -11.16944,-11.16943 z m -168.70898,2.30859 c -2.32883,0 -4.66327,0.8371 -6.33838,2.51221 -1.65173,1.65173 -2.58984,3.93025 -2.58984,6.29883 0,2.41214 0.89136,4.64721 2.58984,6.3457 1.69538,1.69537 3.93025,2.58984 6.29883,2.58984 1.20607,0 2.36741,-0.22531 3.43945,-0.67089 1.07203,-0.44558 2.05711,-1.07127 2.90479,-1.91895 1.69537,-1.69849 2.58984,-3.93357 2.58984,-6.3457 0,-0.5797 -0.043,-1.16204 -0.1333,-1.7417 -0.13402,-0.53606 -0.31175,-1.11943 -0.53613,-1.65235 -0.22438,-0.53597 -0.49255,-1.07203 -0.8042,-1.56445 -0.35525,-0.49241 -0.71419,-0.93829 -1.11621,-1.34033 -1.6535,-1.67511 -3.97587,-2.51221 -6.30469,-2.51221 z m 101.64404,12.79834 c -4.9145,0 -8.93408,4.01933 -8.93408,8.93408 v 13.40479 h -13.40479 c -4.9145,0 -8.93554,4.01956 -8.93554,8.93408 0,4.91451 4.02079,8.93555 8.93554,8.93555 h 13.40479 v 13.40478 c 0,4.91451 4.01958,8.93409 8.93408,8.93409 4.91451,0 8.93555,-4.01934 8.93555,-8.93409 v -13.40478 h 13.40332 c 4.9145,0 8.93555,-4.02081 8.93555,-8.93555 0,-4.91452 -4.02082,-8.93408 -8.93555,-8.93408 h -13.40332 v -13.40479 c 0,-4.9145 -4.02104,-8.93408 -8.93555,-8.93408 z m -116.75097,9.37207 c -2.29027,0.15661 -4.52527,1.18516 -6.15674,3.04102 -13.08925,15.05571 -16.26137,35.83301 -8.17383,54.23877 1.47405,3.3503 4.73321,5.35986 8.17383,5.35986 1.20607,0 2.41179,-0.26783 3.57422,-0.76025 4.51273,-1.96344 6.57047,-7.23687 4.604,-11.74951 -5.22647,-12.02079 -3.21679,-25.55473 5.31592,-35.34082 3.26269,-3.70802 2.86115,-9.33608 -0.84668,-12.59913 -1.85454,-1.63146 -4.20046,-2.34654 -6.49072,-2.18994 z M 177.53786,505.24684 c -13.53826,0 -24.57422,11.03595 -24.57422,24.57422 0.003,13.53823 11.03915,24.57423 24.57422,24.57423 13.53825,0 24.57422,-11.036 24.57422,-24.57423 0,-13.53827 -11.03597,-24.57422 -24.57422,-24.57422 z m -0.36035,10.0415 c 8.03584,1.8e-4 14.55012,6.51447 14.55029,14.5503 -1.7e-4,8.03583 -6.51446,14.55012 -14.55029,14.55029 -8.03583,-1.7e-4 -14.55011,-6.51446 -14.55029,-14.55029 1.8e-4,-8.03583 6.51446,-14.55012 14.55029,-14.5503 z"
         sodipodi:nodetypes="scccccccccccsccccccccscccccccsccccccccsccccccccccccscccccccsccccccccccccccccsccsscssscscccssssssscccsssccscccssssccsssccccssssssscssscssscsssscssscssscssscssscsccscccccccsssssssssssssscsscsccccssscssscssscssscssssssccccssssscsssccccc" />
      <path
         id="path2982"
         style="fill:url(#radialGradient1741);fill-opacity:1;stroke:none;stroke-width:3.24646;paint-order:stroke fill markers;stroke-opacity:1"
         d="m 219.87322,444.89298 a 11.698021,11.698021 0 0 0 -11.69773,11.69772 11.698021,11.698021 0 0 0 11.69773,11.69773 11.698021,11.698021 0 0 0 11.69773,-11.69773 11.698021,11.698021 0 0 0 -11.69773,-11.69772 z m -0.0875,5.59919 a 6.0999188,6.0999188 0 0 1 6.10043,6.10044 6.0999188,6.0999188 0 0 1 -6.10043,6.09948 6.0999188,6.0999188 0 0 1 -6.09948,-6.09948 6.0999188,6.0999188 0 0 1 6.09948,-6.10044 z" />
      <path
         id="path2982-7"
         style="fill:url(#radialGradient1741);fill-opacity:1;stroke:none;stroke-width:3.24646;paint-order:stroke fill markers;stroke-opacity:1"
         d="m 502.67648,452.42987 a 11.698021,11.698021 0 0 0 -11.69773,11.69772 11.698021,11.698021 0 0 0 11.69773,11.69773 11.698021,11.698021 0 0 0 11.69773,-11.69773 11.698021,11.698021 0 0 0 -11.69773,-11.69772 z m -0.0875,5.59919 a 6.0999188,6.0999188 0 0 1 6.10043,6.10044 6.0999188,6.0999188 0 0 1 -6.10043,6.09948 6.0999188,6.0999188 0 0 1 -6.09948,-6.09948 6.0999188,6.0999188 0 0 1 6.09948,-6.10044 z" />
      <g
         id="g1583"
         transform="matrix(1.3970381,-0.00445914,0.00445914,1.3970381,-155.04026,-117.40811)"
         style="fill:url(#radialGradient2020);fill-opacity:1;stroke:none;stroke-opacity:1">
        <g
           id="g1644"
           transform="matrix(-0.11866674,-0.56509336,0.56509336,-0.11866674,276.01631,546.09274)"
           style="fill:url(#radialGradient2016);fill-opacity:1;stroke:none;stroke-opacity:1">
          <path
             id="rect3457"
             style="fill:url(#radialGradient2014);fill-opacity:1;stroke:none;stroke-width:1.12262;stroke-opacity:1;paint-order:stroke fill markers"
             d="m 331.2501,298.124 80.08484,17.62954 c 1.8574,0.40889 3.44931,1.33677 3.44931,2.99725 0,1.66047 -1.59191,3.40616 -3.44931,2.99728 L 331.2501,304.11851 c -1.8574,-0.40889 -3.4493,-1.3368 -3.4493,-2.99725 0,-1.6605 1.5919,-3.40615 3.4493,-2.99726 z"
             sodipodi:nodetypes="sssssss" />
          <path
             id="path2982-7-3"
             style="fill:#c0caf5;fill-opacity:1;stroke:none;stroke-width:1.74337;stroke-opacity:1;paint-order:stroke fill markers"
             d="m 402.31613,310.49702 c -3.46928,9e-5 -6.28166,2.81247 -6.28175,6.28175 9e-5,3.46927 2.81248,6.28165 6.28175,6.28174 3.46927,-9e-5 6.28166,-2.81247 6.28175,-6.28174 -9e-5,-3.46928 -2.81247,-6.28166 -6.28175,-6.28175 z m -0.047,3.72288 c 1.80933,-1.5e-4 2.36764,0.75056 2.36749,2.55989 -1.3e-4,1.80913 -0.55836,2.56939 -2.36749,2.56924 -1.80893,-1.4e-4 -2.12908,-0.76031 -2.12921,-2.56924 -1.5e-4,-1.80913 0.32008,-2.55975 2.12921,-2.55989 z"
             sodipodi:nodetypes="cccccsssss" />
        </g>
        <text
           xml:space="preserve"
           style="font-style:normal;font-variant:normal;font-weight:normal;font-stretch:normal;font-size:22.9055px;line-height:0;font-family:'Albert Sans';-inkscape-font-specification:'Albert Sans';fill:url(#radialGradient2018);fill-opacity:1;stroke:none;stroke-width:0.56158;stroke-dasharray:none;stroke-opacity:1;paint-order:stroke fill markers"
           x="378.95786"
           y="309.80246"
           id="text1700"
           transform="rotate(0.18287919)"><tspan
             sodipodi:role="line"
             id="tspan1698"
             style="font-style:normal;font-variant:normal;font-weight:normal;font-stretch:normal;font-size:22.9055px;font-family:'Albert Sans';-inkscape-font-specification:'Albert Sans';fill:url(#radialGradient2018);fill-opacity:1;stroke:none;stroke-width:0.56158;stroke-dasharray:none;stroke-opacity:1"
             x="378.95786"
             y="309.80246">10</tspan></text>
      </g>
      <path
         id="path2982-7-5"
         style="fill:url(#radialGradient1741);fill-opacity:1;stroke:none;stroke-width:3.24646;paint-order:stroke fill markers;stroke-opacity:1"
         d="m 440.61698,133.94864 a 11.698021,11.698021 0 0 0 -11.69773,11.69772 11.698021,11.698021 0 0 0 11.69773,11.69773 11.698021,11.698021 0 0 0 11.69773,-11.69773 11.698021,11.698021 0 0 0 -11.69773,-11.69772 z m -0.0875,5.59919 a 6.0999188,6.0999188 0 0 1 6.10043,6.10044 6.0999188,6.0999188 0 0 1 -6.10043,6.09948 6.0999188,6.0999188 0 0 1 -6.09948,-6.09948 6.0999188,6.0999188 0 0 1 6.09948,-6.10044 z" />
      <circle
         style="fill:url(#radialGradient1741);fill-opacity:1;stroke:none;stroke-width:5;paint-order:stroke fill markers;stroke-opacity:1"
         id="path3096"
         cx="286.9599"
         cy="119.99515"
         r="7.8704939" />
      <path
         sodipodi:type="star"
         style="fill:url(#radialGradient1741);fill-opacity:1;stroke:none;stroke-width:5;paint-order:stroke fill markers;stroke-opacity:1"
         id="path3162"
         inkscape:flatsided="false"
         sodipodi:sides="5"
         sodipodi:cx="403.12418"
         sodipodi:cy="492.12656"
         sodipodi:r1="8.8568954"
         sodipodi:r2="4.4284482"
         sodipodi:arg1="0.78539816"
         sodipodi:arg2="1.4137167"
         inkscape:rounded="0"
         inkscape:randomized="0"
         d="m 409.38695,498.38933 -5.57001,-1.88885 -4.71371,3.51763 0.0752,-5.88108 -4.80208,-3.396 5.61647,-1.74586 1.74586,-5.61647 3.396,4.80208 5.88108,-0.0752 -3.51763,4.71371 z"
         inkscape:transform-center-x="0.42815037"
         inkscape:transform-center-y="-0.42815037"
         transform="translate(3.5759036,2.2054593)" />
    </g>
    <text
       xml:space="preserve"
       transform="matrix(0.75,0,0,0.75,-13.585637,-40.696661)"
       id="text410"
       style="white-space:pre;shape-inside:url(#rect412);display:inline;fill:#7aa2f7;stroke:#14287e;stroke-width:6.66667;paint-order:stroke fill markers" />
  </g>
</svg>
