<?xml version="1.0" encoding="UTF-8" standalone="no"?>
<svg
   width="700pt"
   height="700pt"
   version="1.1"
   viewBox="0 0 700 700"
   id="svg266"
   sodipodi:docname="br.svg"
   inkscape:version="1.2.1 (9c6d41e410, 2022-07-14, custom)"
   xmlns:inkscape="http://www.inkscape.org/namespaces/inkscape"
   xmlns:sodipodi="http://sodipodi.sourceforge.net/DTD/sodipodi-0.dtd"
   xmlns="http://www.w3.org/2000/svg"
   xmlns:svg="http://www.w3.org/2000/svg">
  <sodipodi:namedview
     id="namedview268"
     pagecolor="#ffffff"
     bordercolor="#000000"
     borderopacity="0.24705882"
     inkscape:showpageshadow="2"
     inkscape:pageopacity="0.0"
     inkscape:pagecheckerboard="true"
     inkscape:deskcolor="#d1d1d1"
     inkscape:document-units="pt"
     showgrid="false"
     inkscape:zoom="0.91923882"
     inkscape:cx="418.82479"
     inkscape:cy="335.05983"
     inkscape:window-width="1667"
     inkscape:window-height="1980"
     inkscape:window-x="0"
     inkscape:window-y="0"
     inkscape:window-maximized="1"
     inkscape:current-layer="g1707" />
  <defs
     id="defs192">
    <inkscape:path-effect
       effect="powerstroke"
       id="path-effect1943"
       is_visible="true"
       lpeversion="1"
       offset_points="9.5,7.657299"
       not_jump="false"
       sort_points="true"
       interpolator_type="CentripetalCatmullRom"
       interpolator_beta="0.77304965"
       start_linecap_type="zerowidth"
       linejoin_type="round"
       miter_limit="4"
       scale_width="1"
       end_linecap_type="zerowidth" />
    <inkscape:path-effect
       effect="fillet_chamfer"
       id="path-effect504"
       is_visible="true"
       lpeversion="1"
       nodesatellites_param="F,0,0,1,0,0,0,26 @ F,0,0,1,0,0,0,26 @ F,0,0,1,0,0,0,26 @ F,0,0,1,0,0,0,26 @ F,0,0,1,0,0,0,26 @ F,0,0,1,0,0,0,26 @ F,0,0,1,0,0,0,26 @ F,0,0,1,0,0,0,26 @ F,0,0,1,0,0,0,26 @ F,0,0,1,0,0,0,26 @ F,0,0,1,0,0,0,26 @ F,0,0,1,0,0,0,26 @ F,0,0,1,0,0,0,26 @ F,0,0,1,0,0,0,26 @ F,0,0,1,0,0,0,26 @ F,0,0,1,0,0,0,26 @ F,0,0,1,0,0,0,26 @ F,0,0,1,0,0,0,26 @ F,0,0,1,0,0,0,26 | F,0,0,1,0,0,0,26 @ F,0,0,1,0,0,0,26 @ F,0,0,1,0,0,0,26 @ F,0,0,1,0,0,0,26"
       unit="px"
       method="arc"
       mode="F"
       radius="10"
       chamfer_steps="27"
       flexible="false"
       use_knot_distance="true"
       apply_no_radius="true"
       apply_with_radius="true"
       only_selected="false"
       hide_knots="false" />
    <inkscape:path-effect
       effect="fillet_chamfer"
       id="path-effect1951"
       is_visible="true"
       lpeversion="1"
       nodesatellites_param="F,0,0,1,0,7.5,0,1 @ F,0,0,1,0,7.5,0,1 @ F,0,0,1,0,7.5,0,1 @ F,0,0,1,0,7.5,0,1"
       unit="px"
       method="auto"
       mode="F"
       radius="10"
       chamfer_steps="1"
       flexible="false"
       use_knot_distance="true"
       apply_no_radius="true"
       apply_with_radius="true"
       only_selected="false"
       hide_knots="false" />
    <inkscape:path-effect
       effect="fillet_chamfer"
       id="path-effect1949"
       is_visible="true"
       lpeversion="1"
       nodesatellites_param="F,0,0,1,0,7.5,0,1 @ F,0,0,1,0,7.5,0,1 @ F,0,0,1,0,7.5,0,1 @ F,0,0,1,0,7.5,0,1"
       unit="px"
       method="auto"
       mode="F"
       radius="10"
       chamfer_steps="1"
       flexible="false"
       use_knot_distance="true"
       apply_no_radius="true"
       apply_with_radius="true"
       only_selected="false"
       hide_knots="false" />
    <symbol
       id="k"
       overflow="visible">
      <path
         d="m29.312-1.75c-1.5117 0.78125-3.0898 1.3711-4.7344 1.7656-1.6367 0.40625-3.3398 0.60938-5.1094 0.60938-5.3125 0-9.5273-1.4844-12.641-4.4531-3.1055-2.9688-4.6562-7-4.6562-12.094s1.5508-9.125 4.6562-12.094c3.1133-2.9688 7.3281-4.4531 12.641-4.4531 1.7695 0 3.4727 0.19922 5.1094 0.59375 1.6445 0.39844 3.2227 0.99219 4.7344 1.7812v6.5938c-1.5312-1.0391-3.0391-1.8008-4.5156-2.2812-1.4805-0.48828-3.0391-0.73438-4.6719-0.73438-2.9375 0-5.2461 0.94531-6.9219 2.8281-1.6797 1.875-2.5156 4.4648-2.5156 7.7656 0 3.293 0.83594 5.8828 2.5156 7.7656 1.6758 1.875 3.9844 2.8125 6.9219 2.8125 1.6328 0 3.1914-0.23828 4.6719-0.71875 1.4766-0.48828 2.9844-1.2539 4.5156-2.2969z"
         id="path159" />
    </symbol>
    <symbol
       id="b"
       overflow="visible">
      <path
         d="m21.453-17.406c-0.67969-0.3125-1.3516-0.53906-2.0156-0.6875-0.65625-0.15625-1.3203-0.23438-1.9844-0.23438-1.9688 0-3.4844 0.63281-4.5469 1.8906-1.0547 1.2617-1.5781 3.0703-1.5781 5.4219v11.016h-7.6562v-23.922h7.6562v3.9219c0.97656-1.5625 2.1016-2.7031 3.375-3.4219 1.2812-0.71875 2.8125-1.0781 4.5938-1.0781 0.25 0 0.52344 0.011719 0.82812 0.03125 0.30078 0.023438 0.73438 0.070312 1.2969 0.14062z"
         id="path162" />
    </symbol>
    <symbol
       id="a"
       overflow="visible">
      <path
         d="m27.562-12.031v2.1875h-17.891c0.1875 1.793 0.83203 3.1367 1.9375 4.0312 1.1133 0.89844 2.6719 1.3438 4.6719 1.3438 1.6016 0 3.25-0.23438 4.9375-0.70312 1.6875-0.47656 3.4219-1.2031 5.2031-2.1719v5.8906c-1.8047 0.6875-3.6094 1.2031-5.4219 1.5469-1.8125 0.35156-3.6211 0.53125-5.4219 0.53125-4.3359 0-7.7031-1.0977-10.109-3.2969-2.3984-2.207-3.5938-5.2969-3.5938-9.2656 0-3.9062 1.1758-6.9727 3.5312-9.2031 2.3633-2.2383 5.6094-3.3594 9.7344-3.3594 3.7578 0 6.7695 1.1367 9.0312 3.4062 2.2578 2.2617 3.3906 5.2812 3.3906 9.0625zm-7.8594-2.5312c0-1.457-0.42969-2.6289-1.2812-3.5156-0.84375-0.89453-1.9492-1.3438-3.3125-1.3438-1.4922 0-2.6992 0.41797-3.625 1.25-0.91797 0.83594-1.4922 2.0391-1.7188 3.6094z"
         id="path165" />
    </symbol>
    <symbol
       id="h"
       overflow="visible">
      <path
         d="m14.391-10.766c-1.5938 0-2.793 0.27344-3.5938 0.8125-0.80469 0.54297-1.2031 1.3398-1.2031 2.3906 0 0.96875 0.32031 1.7305 0.96875 2.2812 0.64453 0.54297 1.5469 0.8125 2.7031 0.8125 1.4375 0 2.6445-0.51562 3.625-1.5469 0.98828-1.0312 1.4844-2.3203 1.4844-3.875v-0.875zm11.688-2.8906v13.656h-7.7031v-3.5469c-1.0312 1.4492-2.1875 2.5078-3.4688 3.1719s-2.8398 1-4.6719 1c-2.4805 0-4.4961-0.72266-6.0469-2.1719-1.543-1.4453-2.3125-3.3203-2.3125-5.625 0-2.8125 0.96094-4.8672 2.8906-6.1719 1.9375-1.3125 4.9688-1.9688 9.0938-1.9688h4.5156v-0.60938c0-1.207-0.48047-2.0938-1.4375-2.6562-0.94922-0.5625-2.4375-0.84375-4.4688-0.84375-1.6367 0-3.1562 0.16797-4.5625 0.5-1.4062 0.32422-2.7188 0.8125-3.9375 1.4688v-5.8281c1.6445-0.40625 3.2891-0.70703 4.9375-0.90625 1.6562-0.20703 3.3047-0.3125 4.9531-0.3125 4.3203 0 7.4375 0.85547 9.3438 2.5625 1.9141 1.6992 2.875 4.4609 2.875 8.2812z"
         id="path168" />
    </symbol>
    <symbol
       id="g"
       overflow="visible">
      <path
         d="m12.031-30.719v6.7969h7.875v5.4688h-7.875v10.141c0 1.1172 0.21875 1.8711 0.65625 2.2656 0.4375 0.38672 1.3125 0.57812 2.625 0.57812h3.9375v5.4688h-6.5625c-3.0234 0-5.1641-0.62891-6.4219-1.8906-1.2617-1.2578-1.8906-3.3984-1.8906-6.4219v-10.141h-3.7969v-5.4688h3.7969v-6.7969z"
         id="path171" />
    </symbol>
    <symbol
       id="f"
       overflow="visible">
      <path
         d="m19.953-20.422v-12.812h7.6875v33.234h-7.6875v-3.4531c-1.0547 1.4062-2.2148 2.4375-3.4844 3.0938-1.2734 0.65625-2.7422 0.98438-4.4062 0.98438-2.9492 0-5.3711-1.1719-7.2656-3.5156-1.8867-2.3438-2.8281-5.3594-2.8281-9.0469s0.94141-6.7031 2.8281-9.0469c1.8945-2.3438 4.3164-3.5156 7.2656-3.5156 1.6562 0 3.1172 0.33594 4.3906 1 1.2812 0.65625 2.4453 1.6836 3.5 3.0781zm-5.0469 15.484c1.6445 0 2.8945-0.59766 3.75-1.7969 0.86328-1.1953 1.2969-2.9297 1.2969-5.2031 0-2.2812-0.43359-4.0195-1.2969-5.2188-0.85547-1.1953-2.1055-1.7969-3.75-1.7969-1.625 0-2.8711 0.60156-3.7344 1.7969-0.85547 1.1992-1.2812 2.9375-1.2812 5.2188 0 2.2734 0.42578 4.0078 1.2812 5.2031 0.86328 1.1992 2.1094 1.7969 3.7344 1.7969z"
         id="path174" />
    </symbol>
    <symbol
       id="e"
       overflow="visible">
      <path
         d="m16.406-4.9375c1.6328 0 2.8828-0.59766 3.75-1.7969 0.86328-1.1953 1.2969-2.9297 1.2969-5.2031 0-2.2812-0.43359-4.0195-1.2969-5.2188-0.86719-1.1953-2.1172-1.7969-3.75-1.7969-1.6367 0-2.8906 0.60547-3.7656 1.8125-0.875 1.1992-1.3125 2.9336-1.3125 5.2031 0 2.2617 0.4375 3.9961 1.3125 5.2031 0.875 1.1992 2.1289 1.7969 3.7656 1.7969zm-5.0781-15.484c1.0508-1.3945 2.2188-2.4219 3.5-3.0781 1.2812-0.66406 2.7539-1 4.4219-1 2.9453 0 5.3672 1.1719 7.2656 3.5156 1.8945 2.3438 2.8438 5.3594 2.8438 9.0469s-0.94922 6.7031-2.8438 9.0469c-1.8984 2.3438-4.3203 3.5156-7.2656 3.5156-1.668 0-3.1406-0.33594-4.4219-1s-2.4492-1.6914-3.5-3.0781v3.4531h-7.6562v-33.234h7.6562z"
         id="path177" />
    </symbol>
    <symbol
       id="d"
       overflow="visible">
      <path
         d="m0.53125-23.922h7.6562l6.4219 16.234 5.4688-16.234h7.6562l-10.062 26.188c-1.0117 2.6641-2.1953 4.5234-3.5469 5.5781-1.3438 1.0625-3.1211 1.5938-5.3281 1.5938h-4.4219v-5.0156h2.3906c1.3008 0 2.2422-0.21094 2.8281-0.625 0.59375-0.40625 1.0547-1.1484 1.3906-2.2188l0.20312-0.65625z"
         id="path180" />
    </symbol>
    <symbol
       id="c"
       overflow="visible">
      <path
         d="m4.0156-31.891h9.1875l11.594 21.875v-21.875h7.7969v31.891h-9.1875l-11.594-21.875v21.875h-7.7969z"
         id="path183" />
    </symbol>
    <symbol
       id="j"
       overflow="visible">
      <path
         d="m27.734-14.562v14.562h-7.7031v-11.109c0-2.0938-0.046875-3.5312-0.14062-4.3125-0.085937-0.78125-0.24219-1.3594-0.46875-1.7344-0.30469-0.5-0.71094-0.88281-1.2188-1.1562-0.51172-0.28125-1.0938-0.42188-1.75-0.42188-1.5938 0-2.8516 0.61719-3.7656 1.8438-0.90625 1.2305-1.3594 2.9375-1.3594 5.125v11.766h-7.6562v-33.234h7.6562v12.812c1.1445-1.3945 2.3633-2.4219 3.6562-3.0781 1.3008-0.66406 2.7383-1 4.3125-1 2.7578 0 4.8516 0.85156 6.2812 2.5469 1.4375 1.6875 2.1562 4.1523 2.1562 7.3906z"
         id="path186" />
    </symbol>
    <symbol
       id="i"
       overflow="visible">
      <path
         d="m15.062-19.031c-1.6992 0-2.9961 0.60938-3.8906 1.8281-0.88672 1.2188-1.3281 2.9766-1.3281 5.2656 0 2.293 0.44141 4.0469 1.3281 5.2656 0.89453 1.2188 2.1914 1.8281 3.8906 1.8281 1.6641 0 2.9375-0.60938 3.8125-1.8281 0.88281-1.2188 1.3281-2.9727 1.3281-5.2656 0-2.2891-0.44531-4.0469-1.3281-5.2656-0.875-1.2188-2.1484-1.8281-3.8125-1.8281zm0-5.4688c4.1133 0 7.3281 1.1094 9.6406 3.3281s3.4688 5.2969 3.4688 9.2344c0 3.9297-1.1562 7.0078-3.4688 9.2344-2.3125 2.2188-5.5273 3.3281-9.6406 3.3281-4.1367 0-7.3711-1.1094-9.7031-3.3281-2.3242-2.2266-3.4844-5.3047-3.4844-9.2344 0-3.9375 1.1602-7.0156 3.4844-9.2344 2.332-2.2188 5.5664-3.3281 9.7031-3.3281z"
         id="path189" />
    </symbol>
    <inkscape:path-effect
       effect="fill_between_many"
       method="bsplinespiro"
       linkedpaths="#path821,0,1"
       id="path-effect1945" />
  </defs>
  <g
     id="g1266"
     transform="translate(-2.64038,5.4602075)">
    <g
       id="g1707"
       style="fill:#c0caf5;fill-opacity:1">
      <path
         d="m 221.39038,607.03979 h 262.5 c 9.2812,0 18.184,-3.6875 24.75,-10.25 6.5625,-6.5664 10.25,-15.469 10.25,-24.75 v -455 c 0,-9.2812 -3.6875,-18.183995 -10.25,-24.749995 -6.5664,-6.5625 -15.469,-10.25 -24.75,-10.25 h -262.5 c -9.2812,0 -18.184,3.6875 -24.75,10.25 -6.5625,6.5664 -10.25,15.468995 -10.25,24.749995 v 455 c 0,9.2812 3.6875,18.184 10.25,24.75 6.5664,6.5625 15.469,10.25 24.75,10.25 z m -17.5,-490 c 0,-4.6406 1.8438,-9.0938 5.125,-12.375 3.2812,-3.2812 7.7344,-5.124995 12.375,-5.124995 h 262.5 c 4.6406,0 9.0938,1.843795 12.375,5.124995 3.2812,3.2812 5.125,7.7344 5.125,12.375 v 455 c 0,4.6406 -1.8438,9.0938 -5.125,12.375 -3.2812,3.2812 -7.7344,5.125 -12.375,5.125 h -262.5 c -4.6406,0 -9.0938,-1.8438 -12.375,-5.125 -3.2812,-3.2812 -5.125,-7.7344 -5.125,-12.375 z"
         id="path212"
         style="fill:#c0caf5;fill-opacity:1" />
      <path
         d="m 326.39038,117.03979 h 17.5 v 17.5 h -17.5 z"
         id="path214"
         style="fill:#c0caf5;fill-opacity:1" />
      <path
         d="m 361.39038,117.03979 h 17.5 v 17.5 h -17.5 z"
         id="path216"
         style="fill:#c0caf5;fill-opacity:1" />
      <path
         d="m 343.89038,554.53979 h 17.5 v 17.5 h -17.5 z"
         id="path218"
         style="fill:#c0caf5;fill-opacity:1" />
      <path
         d="m 413.89038,493.28979 h 17.5 v 43.75 h 17.5 v -43.75 h 17.5 c 2.3203,0 4.5469,-0.92188 6.1875,-2.5625 1.6406,-1.64062 2.5625,-3.8672 2.5625,-6.1875 v -52.5 c 0,-2.3203 -0.92188,-4.5469 -2.5625,-6.1875 -1.64062,-1.6406 -3.8672,-2.5625 -6.1875,-2.5625 h -17.5 v -271.25 h -17.5 v 271.25 h -17.5 c -4.832,0 -8.75,3.918 -8.75,8.75 v 52.5 c 0,2.3203 0.92188,4.5469 2.5625,6.1875 1.64062,1.6406 3.8672,2.5625 6.1875,2.5625 z m 8.75,-52.5 h 35 v 35 h -35 z"
         id="path220"
         style="fill:#c0caf5;fill-opacity:1"
         inkscape:original-d="m 413.89038,493.28979 h 17.5 v 43.75 h 17.5 v -43.75 h 17.5 c 2.3203,0 4.5469,-0.92188 6.1875,-2.5625 1.6406,-1.64062 2.5625,-3.8672 2.5625,-6.1875 v -52.5 c 0,-2.3203 -0.92188,-4.5469 -2.5625,-6.1875 -1.64062,-1.6406 -3.8672,-2.5625 -6.1875,-2.5625 h -17.5 v -271.25 h -17.5 v 271.25 h -17.5 c -4.832,0 -8.75,3.918 -8.75,8.75 v 52.5 c 0,2.3203 0.92188,4.5469 2.5625,6.1875 1.64062,1.6406 3.8672,2.5625 6.1875,2.5625 z m 8.75,-52.5 h 35 v 35 h -35 z"
         inkscape:path-effect="#path-effect504" />
      <path
         d="m 256.39038,379.53979 h 17.5 v 17.5 h -17.5 z"
         id="path222"
         style="fill:#c0caf5;fill-opacity:1" />
      <path
         d="m 291.39038,379.53979 h 87.5 v 17.5 h -87.5 z"
         id="path224"
         style="fill:#c0caf5;fill-opacity:1" />
      <path
         d="m 238.89038,484.53979 h 105 v 17.5 h -105 z"
         id="path230"
         style="fill:#c0caf5;fill-opacity:1" />
      <g
         id="g1143"
         transform="matrix(0.48901053,0,0,0.48901053,151.68506,94.853606)">
        <path
           d="m 333.26804,241.27392 c -3.0195,0 -5.4688,-2.4492 -5.4688,-5.4688 v -116.85 c 0,-3.0195 2.4492,-5.4688 5.4688,-5.4688 3.0196,0 5.4688,2.4492 5.4688,5.4688 v 116.85 c 0,3.0195 -2.4492,5.4688 -5.4688,5.4688 z"
           id="path801" />
        <path
           d="m 416.89804,275.93392 c -1.3984,0 -2.8008,-0.53516 -3.8672,-1.6016 -2.1367,-2.1367 -2.1367,-5.5977 0,-7.7344 l 82.664,-82.664 c 2.1328,-2.1367 5.5977,-2.1367 7.7344,0 2.1367,2.1367 2.1367,5.5977 0,7.7344 l -82.664,82.664 c -1.0664,1.0664 -2.4648,1.6016 -3.8672,1.6016 z"
           id="path803"
           style="stroke-width:11.02021259;stroke-dasharray:none;paint-order:stroke fill markers" />
        <path
           d="m 568.41804,359.57392 h -116.85 c -3.0195,0 -5.4688,-2.4492 -5.4688,-5.4688 0,-3.0196 2.4492,-5.4688 5.4688,-5.4688 h 116.85 c 3.0195,0 5.4688,2.4492 5.4688,5.4688 0,3.0196 -2.4492,5.4688 -5.4688,5.4688 z"
           id="path805"
           style="stroke-width:11.02021259;stroke-dasharray:none;paint-order:stroke fill markers" />
        <path
           d="M 214.96804,359.57392 H 98.118041 c -3.0195,0 -5.4688,-2.4492 -5.4688,-5.4688 0,-3.0196 2.4492,-5.4688 5.4688,-5.4688 H 214.96804 c 3.0195,0 5.4688,2.4492 5.4688,5.4688 0,3.0196 -2.4492,5.4688 -5.4688,5.4688 z"
           id="path807" />
        <path
           d="m 249.63804,275.93392 c -1.3984,0 -2.8008,-0.53516 -3.8672,-1.6016 l -82.664,-82.664 c -2.1367,-2.1367 -2.1367,-5.5977 0,-7.7344 2.1367,-2.1367 5.5977,-2.1367 7.7344,0 l 82.664,82.664 c 2.1367,2.1367 2.1367,5.5977 0,7.7344 -1.0703,1.0664 -2.4688,1.6016 -3.8672,1.6016 z"
           id="path809"
           style="stroke-width:11.02021259;stroke-dasharray:none;paint-order:stroke fill markers" />
        <path
           d="m 377.01804,249.63392 c -0.67188,0 -1.3555,-0.125 -2.0195,-0.38672 -2.8047,-1.1172 -4.1758,-4.2969 -3.0625,-7.1016 l 21.578,-54.301 c 1.1133,-2.8047 4.2891,-4.1758 7.1016,-3.0625 2.8047,1.1172 4.1758,4.293 3.0625,7.1016 l -21.578,54.301 c -0.84766,2.1445 -2.9062,3.4492 -5.082,3.4492 z"
           id="path811"
           style="stroke-width:11.02021259;stroke-dasharray:none;paint-order:stroke fill markers" />
        <path
           d="m 441.87804,312.78392 c -2.1172,0 -4.1328,-1.2383 -5.0234,-3.3047 -1.1953,-2.7734 0.082,-5.9922 2.8555,-7.1875 l 53.695,-23.152 c 2.7695,-1.1914 5.9922,0.082 7.1875,2.8555 1.1953,2.7734 -0.082,5.9922 -2.8555,7.1875 l -53.695,23.152 c -0.70703,0.30469 -1.4414,0.44922 -2.1641,0.44922 z"
           id="path813"
           style="stroke-width:11.02021259;stroke-dasharray:none;paint-order:stroke fill markers" />
        <path
           d="m 170.96804,429.63392 c -2.1172,0 -4.1328,-1.2383 -5.0234,-3.3047 -1.1953,-2.7734 0.082,-5.9922 2.8555,-7.1875 l 53.695,-23.152 c 2.7734,-1.1953 5.9922,0.082 7.1875,2.8555 1.1953,2.7734 -0.082,5.9922 -2.8555,7.1875 l -53.695,23.152 c -0.70703,0.30469 -1.4414,0.44922 -2.1641,0.44922 z"
           id="path815"
           style="stroke-width:11.02021259;stroke-dasharray:none;paint-order:stroke fill markers" />
        <path
           d="m 223.32804,315.94392 c -0.67188,0 -1.3555,-0.125 -2.0195,-0.38672 l -54.301,-21.578 c -2.8047,-1.1172 -4.1797,-4.293 -3.0625,-7.1016 1.1172,-2.8047 4.2969,-4.1758 7.1016,-3.0625 l 54.301,21.578 c 2.8047,1.1172 4.1797,4.293 3.0625,7.1016 -0.85156,2.1406 -2.9102,3.4492 -5.082,3.4492 z"
           id="path817"
           style="stroke-width:11.02021259;stroke-dasharray:none;paint-order:stroke fill markers" />
        <path
           d="m 286.47804,250.97392 c -2.1172,0 -4.1328,-1.2383 -5.0234,-3.3047 l -23.152,-53.695 c -1.1953,-2.7734 0.082,-5.9922 2.8555,-7.1875 2.7734,-1.1953 5.9922,0.082 7.1875,2.8555 l 23.152,53.695 c 1.1953,2.7734 -0.082,5.9922 -2.8555,7.1875 -0.70703,0.30469 -1.4414,0.44922 -2.1641,0.44922 z"
           id="path819"
           style="stroke-width:11.02021259;stroke-dasharray:none;paint-order:stroke fill markers" />
        <path
           d="m 298.13804,420.51392 c -2.2812,0 -4.4062,-1.4375 -5.1797,-3.7148 -0.96875,-2.8594 0.5625,-5.9648 3.4258,-6.9336 4.4805,-1.5156 9.0352,-2.9883 13.535,-4.375 30.938,-9.5312 62.477,-16.02 91.434,-18.82 4.8789,-10.137 7.4492,-21.336 7.4492,-32.57 0,-41.574 -33.887,-75.398 -75.539,-75.398 -41.574,0 -75.398,33.824 -75.398,75.398 0,10.918 2.2969,21.461 6.832,31.344 1.2578,2.7461 0.0547,5.9922 -2.6914,7.25 -2.7422,1.2578 -5.9922,0.0547 -7.25,-2.6914 -5.1914,-11.32 -7.8242,-23.402 -7.8242,-35.902 0,-47.605 38.73,-86.336 86.336,-86.336 47.684,0 86.477,38.73 86.477,86.336 0,13.988 -3.4727,27.922 -10.039,40.301 -0.86719,1.6367 -2.5039,2.7188 -4.3516,2.8828 -29.023,2.5625 -60.91,9.0117 -92.207,18.656 -4.4062,1.3555 -8.8633,2.8008 -13.246,4.2812 -0.58984,0.19922 -1.1797,0.29297 -1.7617,0.29297 z"
           id="path1947"
           style="fill:#c0caf5"
           inkscape:original-d="M 0,0"
           inkscape:path-effect="#path-effect1945"
           class="UnoptimicedTransforms" />
        <path
           d="m 298.13804,420.51392 c -2.2812,0 -4.4062,-1.4375 -5.1797,-3.7148 -0.96875,-2.8594 0.5625,-5.9648 3.4258,-6.9336 4.4805,-1.5156 9.0352,-2.9883 13.535,-4.375 30.938,-9.5312 62.477,-16.02 91.434,-18.82 4.8789,-10.137 7.4492,-21.336 7.4492,-32.57 0,-41.574 -33.887,-75.398 -75.539,-75.398 -41.574,0 -75.398,33.824 -75.398,75.398 0,10.918 2.2969,21.461 6.832,31.344 1.2578,2.7461 0.0547,5.9922 -2.6914,7.25 -2.7422,1.2578 -5.9922,0.0547 -7.25,-2.6914 -5.1914,-11.32 -7.8242,-23.402 -7.8242,-35.902 0,-47.605 38.73,-86.336 86.336,-86.336 47.684,0 86.477,38.73 86.477,86.336 0,13.988 -3.4727,27.922 -10.039,40.301 -0.86719,1.6367 -2.5039,2.7188 -4.3516,2.8828 -29.023,2.5625 -60.91,9.0117 -92.207,18.656 -4.4062,1.3555 -8.8633,2.8008 -13.246,4.2812 -0.58984,0.19922 -1.1797,0.29297 -1.7617,0.29297 z"
           id="path821"
           style="fill-rule:nonzero;stroke:none;stroke-width:15.3146;stroke-dasharray:none;paint-order:stroke fill markers"
           inkscape:linked-fill="path1947"
           inkscape:original-d="m 298.13804,420.51392 c -2.2812,0 -4.4062,-1.4375 -5.1797,-3.7148 -0.96875,-2.8594 0.5625,-5.9648 3.4258,-6.9336 4.4805,-1.5156 9.0352,-2.9883 13.535,-4.375 30.938,-9.5312 62.477,-16.02 91.434,-18.82 4.8789,-10.137 7.4492,-21.336 7.4492,-32.57 0,-41.574 -33.887,-75.398 -75.539,-75.398 -41.574,0 -75.398,33.824 -75.398,75.398 0,10.918 2.2969,21.461 6.832,31.344 1.2578,2.7461 0.0547,5.9922 -2.6914,7.25 -2.7422,1.2578 -5.9922,0.0547 -7.25,-2.6914 -5.1914,-11.32 -7.8242,-23.402 -7.8242,-35.902 0,-47.605 38.73,-86.336 86.336,-86.336 47.684,0 86.477,38.73 86.477,86.336 0,13.988 -3.4727,27.922 -10.039,40.301 -0.86719,1.6367 -2.5039,2.7188 -4.3516,2.8828 -29.023,2.5625 -60.91,9.0117 -92.207,18.656 -4.4062,1.3555 -8.8633,2.8008 -13.246,4.2812 -0.58984,0.19922 -1.1797,0.29297 -1.7617,0.29297 z"
           inkscape:path-effect="#path-effect1943"
           class="UnoptimicedTransforms" />
        <path
           d="m 162.63804,499.61392 c -1.2773,0 -2.5586,-0.44531 -3.5938,-1.3477 -2.2773,-1.9844 -2.5117,-5.4414 -0.52344,-7.7148 24.609,-28.203 70.246,-55.984 125.21,-76.223 8.6172,-3.1719 17.43,-6.1484 26.184,-8.8477 32.023,-9.8672 64.688,-16.473 94.469,-19.098 19.586,-1.7305 38.047,-1.7539 54.141,-0.0703 3.0039,0.3125 5.1836,3.0039 4.8711,6.0078 -0.3125,3.0039 -3.0039,5.1836 -6.0078,4.8711 -15.395,-1.6094 -33.156,-1.582 -52.043,0.0859 -29.023,2.5625 -60.91,9.0117 -92.207,18.656 -8.5664,2.6406 -17.188,5.5508 -25.625,8.6562 -53.297,19.625 -97.309,46.289 -120.75,73.152 -1.0859,1.2344 -2.6016,1.8711 -4.1289,1.8711 z"
           id="path823"
           style="stroke-width:11.02021259;stroke-dasharray:none;paint-order:stroke fill markers"
           class="UnoptimicedTransforms" />
        <path
           d="m 162.63804,560.82392 c -1.0586,0 -2.125,-0.30469 -3.0664,-0.94531 -2.5,-1.6953 -3.1484,-5.0977 -1.4531,-7.5977 19.219,-28.316 54.879,-56.223 97.836,-76.559 6.7305,-3.1875 13.621,-6.1797 20.473,-8.8945 25.066,-9.9297 50.652,-16.578 73.992,-19.227 15.422,-1.75 29.957,-1.7695 42.641,-0.0625 2.9922,0.40234 5.0938,3.1562 4.6914,6.1484 -0.4024,2.9922 -3.1445,5.0898 -6.1484,4.6914 -11.785,-1.5859 -25.426,-1.5547 -39.945,0.0898 -22.398,2.543 -47.016,8.9531 -71.199,18.527 -6.6328,2.6289 -13.301,5.5273 -19.82,8.6094 -41.242,19.527 -75.309,46.066 -93.465,72.816 -1.0625,1.5625 -2.7852,2.4023 -4.5352,2.4023 z"
           id="path825" />
      </g>
    </g>
  </g>
</svg>
