<?xml version="1.0" encoding="UTF-8"?>
<svg width="700pt" height="700pt" version="1.1" viewBox="0 0 700 700" xmlns="http://www.w3.org/2000/svg" xmlns:xlink="http://www.w3.org/1999/xlink">
 <defs>
  <symbol id="h" overflow="visible">
   <path d="m14.656-0.875c-0.76172 0.39844-1.5547 0.69531-2.375 0.89062-0.8125 0.19531-1.6641 0.29688-2.5469 0.29688-2.6562 0-4.7617-0.73828-6.3125-2.2188-1.5547-1.4883-2.3281-3.5039-2.3281-6.0469 0-2.5508 0.77344-4.5664 2.3281-6.0469 1.5508-1.4883 3.6562-2.2344 6.3125-2.2344 0.88281 0 1.7344 0.10156 2.5469 0.29688 0.82031 0.19922 1.6133 0.49609 2.375 0.89062v3.2969c-0.76172-0.51953-1.5117-0.89844-2.25-1.1406-0.74219-0.23828-1.5234-0.35938-2.3438-0.35938-1.4688 0-2.625 0.46875-3.4688 1.4062-0.83594 0.9375-1.25 2.2344-1.25 3.8906 0 1.6484 0.41406 2.9375 1.25 3.875 0.84375 0.9375 2 1.4062 3.4688 1.4062 0.82031 0 1.6016-0.11719 2.3438-0.35938 0.73828-0.23828 1.4883-0.61719 2.25-1.1406z"/>
  </symbol>
  <symbol id="c" overflow="visible">
   <path d="m10.719-8.7031c-0.33594-0.15625-0.66797-0.26953-1-0.34375-0.32422-0.082031-0.65625-0.125-1-0.125-0.98047 0-1.7344 0.32031-2.2656 0.95312-0.53125 0.625-0.79688 1.5273-0.79688 2.7031v5.5156h-3.8125v-11.969h3.8125v1.9688c0.48828-0.78125 1.0508-1.3477 1.6875-1.7031 0.64453-0.36328 1.4102-0.54688 2.2969-0.54688 0.13281 0 0.27344 0.007812 0.42188 0.015625 0.14453 0.011719 0.36328 0.03125 0.65625 0.0625z"/>
  </symbol>
  <symbol id="a" overflow="visible">
   <path d="m13.781-6.0156v1.0938h-8.9375c0.09375 0.89844 0.41406 1.5703 0.96875 2.0156 0.55078 0.44922 1.3281 0.67188 2.3281 0.67188 0.80078 0 1.625-0.11719 2.4688-0.35938 0.84375-0.23828 1.7109-0.59766 2.6094-1.0781v2.9531c-0.90625 0.33594-1.8125 0.58984-2.7188 0.76562s-1.8125 0.26562-2.7188 0.26562c-2.1562 0-3.8398-0.54688-5.0469-1.6406-1.1992-1.1016-1.7969-2.6484-1.7969-4.6406 0-1.9453 0.58594-3.4766 1.7656-4.5938 1.1758-1.125 2.8008-1.6875 4.875-1.6875 1.875 0 3.375 0.57031 4.5 1.7031 1.1328 1.125 1.7031 2.6367 1.7031 4.5312zm-3.9375-1.2656c0-0.72656-0.21484-1.3125-0.64062-1.75-0.41797-0.44531-0.96875-0.67188-1.6562-0.67188-0.74219 0-1.3438 0.21094-1.8125 0.625-0.46094 0.41797-0.74609 1.0156-0.85938 1.7969z"/>
  </symbol>
  <symbol id="m" overflow="visible">
   <path d="m7.2031-5.3906c-0.80469 0-1.4062 0.13672-1.8125 0.40625-0.39844 0.27344-0.59375 0.67188-0.59375 1.2031 0 0.48047 0.16016 0.85938 0.48438 1.1406 0.32031 0.27344 0.77344 0.40625 1.3594 0.40625 0.71875 0 1.3203-0.25391 1.8125-0.76562 0.48828-0.51953 0.73438-1.1719 0.73438-1.9531v-0.4375zm5.8438-1.4375v6.8281h-3.8594v-1.7656c-0.51172 0.71875-1.0898 1.2461-1.7344 1.5781-0.63672 0.33203-1.418 0.5-2.3438 0.5-1.2422 0-2.2461-0.35938-3.0156-1.0781-0.77344-0.72656-1.1562-1.6719-1.1562-2.8281 0-1.3945 0.47656-2.4219 1.4375-3.0781 0.96875-0.65625 2.4883-0.98438 4.5625-0.98438h2.25v-0.29688c0-0.60156-0.24219-1.0469-0.71875-1.3281-0.48047-0.28125-1.2266-0.42188-2.2344-0.42188-0.8125 0-1.5742 0.085937-2.2812 0.25-0.71094 0.15625-1.3672 0.40234-1.9688 0.73438v-2.9219c0.82031-0.19531 1.6445-0.34766 2.4688-0.45312 0.82031-0.10156 1.6484-0.15625 2.4844-0.15625 2.1562 0 3.7109 0.42969 4.6719 1.2812 0.95703 0.84375 1.4375 2.2266 1.4375 4.1406z"/>
  </symbol>
  <symbol id="b" overflow="visible">
   <path d="m6.0156-15.359v3.3906h3.9375v2.7344h-3.9375v5.0781c0 0.55469 0.10938 0.92969 0.32812 1.125 0.21875 0.19922 0.65625 0.29688 1.3125 0.29688h1.9688v2.7344h-3.2812c-1.5117 0-2.5859-0.3125-3.2188-0.9375-0.625-0.63281-0.9375-1.707-0.9375-3.2188v-5.0781h-1.9062v-2.7344h1.9062v-3.3906z"/>
  </symbol>
  <symbol id="l" overflow="visible">
   <path d="m9.9688-10.219v-6.4062h3.8594v16.625h-3.8594v-1.7344c-0.52344 0.71094-1.1016 1.2305-1.7344 1.5625-0.63672 0.32031-1.3711 0.48438-2.2031 0.48438-1.4688 0-2.6797-0.58203-3.625-1.75-0.94922-1.1758-1.4219-2.6875-1.4219-4.5312s0.47266-3.3477 1.4219-4.5156c0.94531-1.1758 2.1562-1.7656 3.625-1.7656 0.83203 0 1.5664 0.16797 2.2031 0.5 0.63281 0.32422 1.2109 0.83594 1.7344 1.5312zm-2.5156 7.75c0.82031 0 1.4453-0.29688 1.875-0.89062 0.42578-0.60156 0.64062-1.4727 0.64062-2.6094 0-1.1445-0.21484-2.0156-0.64062-2.6094-0.42969-0.59375-1.0547-0.89062-1.875-0.89062-0.8125 0-1.4336 0.29688-1.8594 0.89062-0.42969 0.59375-0.64062 1.4648-0.64062 2.6094 0 1.1367 0.21094 2.0078 0.64062 2.6094 0.42578 0.59375 1.0469 0.89062 1.8594 0.89062z"/>
  </symbol>
  <symbol id="k" overflow="visible">
   <path d="m8.2031-2.4688c0.82031 0 1.4453-0.29688 1.875-0.89062 0.42578-0.60156 0.64062-1.4727 0.64062-2.6094 0-1.1445-0.21484-2.0156-0.64062-2.6094-0.42969-0.59375-1.0547-0.89062-1.875-0.89062-0.82422 0-1.4531 0.30469-1.8906 0.90625-0.4375 0.59375-0.65625 1.4609-0.65625 2.5938 0 1.1367 0.21875 2.0078 0.65625 2.6094 0.4375 0.59375 1.0664 0.89062 1.8906 0.89062zm-2.5469-7.75c0.53125-0.69531 1.1133-1.207 1.75-1.5312 0.64453-0.33203 1.3828-0.5 2.2188-0.5 1.4688 0 2.6758 0.58984 3.625 1.7656 0.94531 1.168 1.4219 2.6719 1.4219 4.5156s-0.47656 3.3555-1.4219 4.5312c-0.94922 1.168-2.1562 1.75-3.625 1.75-0.83594 0-1.5742-0.16797-2.2188-0.5-0.63672-0.33203-1.2188-0.84766-1.75-1.5469v1.7344h-3.8125v-16.625h3.8125z"/>
  </symbol>
  <symbol id="j" overflow="visible">
   <path d="m0.26562-11.969h3.8281l3.2188 8.125 2.7344-8.125h3.8125l-5.0312 13.094c-0.5 1.332-1.0898 2.2656-1.7656 2.7969-0.66797 0.53125-1.5547 0.79688-2.6562 0.79688h-2.2188v-2.5h1.2031c0.64453 0 1.1133-0.10547 1.4062-0.3125 0.30078-0.21094 0.53125-0.57812 0.6875-1.1094l0.10938-0.34375z"/>
  </symbol>
  <symbol id="i" overflow="visible">
   <path d="m0.65625-15.953h3.9375l2.75 11.594 2.7344-11.594h3.9688l2.7344 11.594 2.75-11.594h3.9062l-3.75 15.953h-4.75l-2.8906-12.125-2.8594 12.125h-4.75z"/>
  </symbol>
  <symbol id="g" overflow="visible">
   <path d="m2.0156-15.953h11.094v3.1094h-6.9844v2.9688h6.5625v3.1094h-6.5625v3.6562h7.2188v3.1094h-11.328z"/>
  </symbol>
  <symbol id="z" overflow="visible">
   <path d="m8.3906-9.7656c0.65625 0 1.1484-0.14062 1.4844-0.42188 0.33203-0.28906 0.5-0.71094 0.5-1.2656 0-0.55078-0.16797-0.97266-0.5-1.2656-0.33594-0.28906-0.82812-0.4375-1.4844-0.4375h-2.2656v3.3906zm0.14062 6.9688c0.82031 0 1.4414-0.17188 1.8594-0.51562 0.41406-0.35156 0.625-0.88281 0.625-1.5938 0-0.6875-0.21094-1.2031-0.625-1.5469-0.40625-0.34375-1.0273-0.51562-1.8594-0.51562h-2.4062v4.1719zm3.8281-5.7344c0.88281 0.25 1.5664 0.72656 2.0469 1.4219 0.48828 0.6875 0.73438 1.5312 0.73438 2.5312 0 1.543-0.52344 2.6953-1.5625 3.4531-1.043 0.75-2.625 1.125-4.75 1.125h-6.8125v-15.953h6.1719c2.207 0 3.8047 0.33984 4.7969 1.0156 1 0.66797 1.5 1.7344 1.5 3.2031 0 0.78125-0.18359 1.4492-0.54688 2-0.36719 0.54297-0.89062 0.94531-1.5781 1.2031z"/>
  </symbol>
  <symbol id="y" overflow="visible">
   <path d="m0.10938-15.953h14.688v3.1094h-5.2812v12.844h-4.1094v-12.844h-5.2969z"/>
  </symbol>
  <symbol id="x" overflow="visible">
   <path d="m2.0156-15.953h4.1094v6.0781h6.0625v-6.0781h4.1094v15.953h-4.1094v-6.7656h-6.0625v6.7656h-4.1094z"/>
  </symbol>
  <symbol id="w" overflow="visible">
   <path d="m9.2969-13.25c-1.2617 0-2.2344 0.46484-2.9219 1.3906-0.6875 0.91797-1.0312 2.2188-1.0312 3.9062 0 1.668 0.34375 2.9648 1.0312 3.8906 0.6875 0.92969 1.6602 1.3906 2.9219 1.3906 1.2578 0 2.2344-0.46094 2.9219-1.3906 0.6875-0.92578 1.0312-2.2227 1.0312-3.8906 0-1.6875-0.34375-2.9883-1.0312-3.9062-0.6875-0.92578-1.6641-1.3906-2.9219-1.3906zm0-2.9844c2.5625 0 4.5664 0.73438 6.0156 2.2031 1.457 1.4688 2.1875 3.4961 2.1875 6.0781 0 2.5742-0.73047 4.5938-2.1875 6.0625-1.4492 1.4688-3.4531 2.2031-6.0156 2.2031s-4.5742-0.73438-6.0312-2.2031c-1.4492-1.4688-2.1719-3.4883-2.1719-6.0625 0-2.582 0.72266-4.6094 2.1719-6.0781 1.457-1.4688 3.4688-2.2031 6.0312-2.2031z"/>
  </symbol>
  <symbol id="e" overflow="visible">
   <path d="m2.0156-15.953h6.8125c2.0312 0 3.5859 0.45312 4.6719 1.3594 1.0938 0.89844 1.6406 2.1797 1.6406 3.8438 0 1.6797-0.54688 2.9688-1.6406 3.875-1.0859 0.89844-2.6406 1.3438-4.6719 1.3438h-2.7031v5.5312h-4.1094zm4.1094 2.9844v4.4531h2.2656c0.80078 0 1.4141-0.19141 1.8438-0.57812 0.4375-0.38281 0.65625-0.9375 0.65625-1.6562 0-0.70703-0.21875-1.2539-0.65625-1.6406-0.42969-0.38281-1.043-0.57812-1.8438-0.57812z"/>
  </symbol>
  <symbol id="v" overflow="visible">
   <path d="m13.109-15.438v3.375c-0.875-0.39453-1.7305-0.69141-2.5625-0.89062-0.83594-0.19531-1.6211-0.29688-2.3594-0.29688-0.99219 0-1.7188 0.13672-2.1875 0.40625-0.46875 0.27344-0.70312 0.6875-0.70312 1.25 0 0.42969 0.15625 0.76172 0.46875 1 0.32031 0.24219 0.89844 0.44922 1.7344 0.625l1.75 0.34375c1.7695 0.35547 3.0312 0.89844 3.7812 1.625 0.75 0.73047 1.125 1.7617 1.125 3.0938 0 1.7617-0.52734 3.0742-1.5781 3.9375-1.043 0.85547-2.6328 1.2812-4.7656 1.2812-1.0117 0-2.0273-0.10156-3.0469-0.29688-1.0234-0.1875-2.043-0.46875-3.0625-0.84375v-3.4688c1.0195 0.53125 2.0039 0.9375 2.9531 1.2188 0.95703 0.27344 1.875 0.40625 2.75 0.40625 0.90625 0 1.5938-0.14453 2.0625-0.4375 0.47656-0.30078 0.71875-0.73438 0.71875-1.2969 0-0.48828-0.16406-0.86719-0.48438-1.1406-0.32422-0.26953-0.96875-0.51562-1.9375-0.73438l-1.5938-0.35938c-1.5938-0.33203-2.7617-0.875-3.5-1.625-0.74219-0.75-1.1094-1.7578-1.1094-3.0312 0-1.582 0.50781-2.8008 1.5312-3.6562 1.0312-0.85156 2.5078-1.2812 4.4375-1.2812 0.875 0 1.7734 0.070313 2.7031 0.20312 0.92578 0.125 1.8828 0.32422 2.875 0.59375z"/>
  </symbol>
  <symbol id="f" overflow="visible">
   <path d="m2.0156-15.953h4.1094v12.844h7.2188v3.1094h-11.328z"/>
  </symbol>
  <symbol id="u" overflow="visible">
   <path d="m9.7031-16.625v2.5156h-2.1094c-0.54297 0-0.92188 0.10156-1.1406 0.29688-0.21094 0.19922-0.3125 0.53906-0.3125 1.0156v0.82812h3.2656v2.7344h-3.2656v9.2344h-3.8281v-9.2344h-1.8906v-2.7344h1.8906v-0.82812c0-1.3008 0.36328-2.2656 1.0938-2.8906 0.72656-0.625 1.8516-0.9375 3.375-0.9375z"/>
  </symbol>
  <symbol id="d" overflow="visible">
   <path d="m7.5312-9.5156c-0.84375 0-1.4922 0.30859-1.9375 0.92188-0.44922 0.60547-0.67188 1.4805-0.67188 2.625 0 1.1484 0.22266 2.0273 0.67188 2.6406 0.44531 0.60547 1.0938 0.90625 1.9375 0.90625 0.83203 0 1.4688-0.30078 1.9062-0.90625 0.44531-0.61328 0.67188-1.4922 0.67188-2.6406 0-1.1445-0.22656-2.0195-0.67188-2.625-0.4375-0.61328-1.0742-0.92188-1.9062-0.92188zm0-2.7344c2.0508 0 3.6562 0.55859 4.8125 1.6719 1.1641 1.1055 1.75 2.6406 1.75 4.6094s-0.58594 3.5117-1.75 4.625c-1.1562 1.1055-2.7617 1.6562-4.8125 1.6562-2.0625 0-3.6797-0.55078-4.8438-1.6562-1.168-1.1133-1.75-2.6562-1.75-4.625s0.58203-3.5039 1.75-4.6094c1.1641-1.1133 2.7812-1.6719 4.8438-1.6719z"/>
  </symbol>
  <symbol id="t" overflow="visible">
   <path d="m12.922-9.9688c0.48828-0.75 1.0625-1.3164 1.7188-1.7031 0.66406-0.38281 1.3984-0.57812 2.2031-0.57812 1.375 0 2.4219 0.42969 3.1406 1.2812 0.71875 0.84375 1.0781 2.0742 1.0781 3.6875v7.2812h-3.8438v-6.2344c0.007812-0.09375 0.015625-0.1875 0.015625-0.28125v-0.4375c0-0.84375-0.125-1.457-0.375-1.8438-0.25-0.38281-0.65234-0.57812-1.2031-0.57812-0.73047 0-1.293 0.30469-1.6875 0.90625-0.38672 0.59375-0.58984 1.4609-0.60938 2.5938v5.875h-3.8438v-6.2344c0-1.3203-0.11719-2.1758-0.34375-2.5625-0.23047-0.38281-0.63672-0.57812-1.2188-0.57812-0.73047 0-1.2969 0.30469-1.7031 0.90625-0.39844 0.60547-0.59375 1.4648-0.59375 2.5781v5.8906h-3.8438v-11.969h3.8438v1.75c0.46875-0.66406 1.0039-1.1719 1.6094-1.5156 0.61328-0.34375 1.2891-0.51562 2.0312-0.51562 0.82031 0 1.5508 0.19922 2.1875 0.59375 0.63281 0.39844 1.1133 0.96094 1.4375 1.6875z"/>
  </symbol>
  <symbol id="s" overflow="visible">
   <path d="m13.859-7.2812v7.2812h-3.8438v-5.5469c0-1.0508-0.027344-1.7695-0.078125-2.1562-0.042969-0.39453-0.12109-0.6875-0.23438-0.875-0.14844-0.25-0.35156-0.44141-0.60938-0.57812-0.25-0.14453-0.54297-0.21875-0.875-0.21875-0.79297 0-1.418 0.3125-1.875 0.9375-0.46094 0.61719-0.6875 1.4648-0.6875 2.5469v5.8906h-3.8125v-16.625h3.8125v6.4062c0.58203-0.69531 1.1953-1.207 1.8438-1.5312 0.64453-0.33203 1.3594-0.5 2.1406-0.5 1.3828 0 2.4297 0.42969 3.1406 1.2812 0.71875 0.84375 1.0781 2.0742 1.0781 3.6875z"/>
  </symbol>
  <symbol id="r" overflow="visible">
   <path d="m2.0156-15.953h4.5781l5.8125 10.938v-10.938h3.8906v15.953h-4.5938l-5.7969-10.938v10.938h-3.8906z"/>
  </symbol>
  <symbol id="q" overflow="visible">
   <path d="m1.7031-4.6562v-7.3125h3.8438v1.2031c0 0.64844-0.007813 1.4609-0.015625 2.4375v1.9688c0 0.96094 0.023438 1.6523 0.078125 2.0781 0.050781 0.41797 0.13281 0.72656 0.25 0.92188 0.15625 0.25 0.35938 0.44531 0.60938 0.57812 0.25781 0.13672 0.55078 0.20312 0.875 0.20312 0.80078 0 1.4258-0.30469 1.875-0.92188 0.45703-0.61328 0.6875-1.4688 0.6875-2.5625v-5.9062h3.8281v11.969h-3.8281v-1.7344c-0.57422 0.69922-1.1836 1.2148-1.8281 1.5469-0.64844 0.33203-1.3555 0.5-2.125 0.5-1.3867 0-2.4453-0.42188-3.1719-1.2656-0.71875-0.85156-1.0781-2.0859-1.0781-3.7031z"/>
  </symbol>
  <symbol id="p" overflow="visible">
   <path d="m13.859-7.2812v7.2812h-3.8438v-5.5781c0-1.0312-0.027344-1.7383-0.078125-2.125-0.042969-0.39453-0.12109-0.6875-0.23438-0.875-0.14844-0.25-0.35156-0.44141-0.60938-0.57812-0.25-0.14453-0.54297-0.21875-0.875-0.21875-0.79297 0-1.418 0.3125-1.875 0.9375-0.46094 0.61719-0.6875 1.4648-0.6875 2.5469v5.8906h-3.8125v-11.969h3.8125v1.75c0.58203-0.69531 1.1953-1.207 1.8438-1.5312 0.64453-0.33203 1.3594-0.5 2.1406-0.5 1.3828 0 2.4297 0.42969 3.1406 1.2812 0.71875 0.84375 1.0781 2.0742 1.0781 3.6875z"/>
  </symbol>
  <symbol id="o" overflow="visible">
   <path d="m1.8438-11.969h3.8125v11.75c0 1.6016-0.38672 2.8281-1.1562 3.6719-0.76172 0.84375-1.8711 1.2656-3.3281 1.2656h-1.8906v-2.5h0.65625c0.72656 0 1.2266-0.16797 1.5-0.5 0.26953-0.32422 0.40625-0.96875 0.40625-1.9375zm0-4.6562h3.8125v3.125h-3.8125z"/>
  </symbol>
  <symbol id="n" overflow="visible">
   <path d="m11.5-11.594v3.125c-0.52344-0.35156-1.043-0.61328-1.5625-0.78125-0.52344-0.17578-1.0625-0.26562-1.625-0.26562-1.0742 0-1.9062 0.3125-2.5 0.9375s-0.89062 1.4961-0.89062 2.6094c0 1.1172 0.29688 1.9844 0.89062 2.6094s1.4258 0.9375 2.5 0.9375c0.59375 0 1.1562-0.085937 1.6875-0.26562 0.53906-0.17578 1.0391-0.44141 1.5-0.79688v3.125c-0.59375 0.23047-1.1992 0.39453-1.8125 0.5-0.61719 0.11328-1.2344 0.17188-1.8594 0.17188-2.1562 0-3.8438-0.55078-5.0625-1.6562-1.2188-1.1133-1.8281-2.6562-1.8281-4.625s0.60938-3.5039 1.8281-4.6094c1.2188-1.1133 2.9062-1.6719 5.0625-1.6719 0.625 0 1.2383 0.058594 1.8438 0.17188 0.61328 0.10547 1.2227 0.26562 1.8281 0.48438z"/>
  </symbol>
 </defs>
 <g>
  <path d="m614.59 143.08c-32.598 38.332-60.387 52.406-85.242 57.977 9.1836-19.848 24.426-36.273 43.535-46.91 13.875-6.543 24.867-17.941 30.902-32.047 8.1836-1.3867 15.234-6.5586 19.008-13.953 3.7734-7.3945 3.832-16.141 0.15234-23.582-3.6797-7.4414-10.66-12.707-18.828-14.199-8.168-1.4922-16.559 0.96094-22.629 6.625-6.0742 5.6602-9.1133 13.859-8.1992 22.109 0.91797 8.25 5.6797 15.586 12.844 19.777-4.9062 8.6445-12.375 15.551-21.379 19.77-36.383 19.066-51.676 54.324-55.73 65.445-5.9258 0.51562-11.703 0.77344-17.348 1.0195-8.0156 0.35156-15.82 0.73047-23.402 1.832 16.562-25.73 31.062-52.73 43.371-80.75 10.418-2.582 44.742-15.387 64.871-73.742 0.33203 0.011719 0.65625 0.050781 0.98828 0.050781 8.2969 0.027344 16.125-3.8555 21.121-10.484 4.9961-6.625 6.5742-15.219 4.2656-23.188-2.3125-7.9688-8.2422-14.383-16.008-17.312-7.7617-2.9258-16.453-2.0234-23.449 2.4375-6.9961 4.4609-11.484 11.957-12.105 20.234-0.62109 8.2734 2.6914 16.359 8.9453 21.816-11.414 33.734-27.484 49.656-39.141 57.082h-0.003906c6.5703-17.27 12.156-34.898 16.73-52.801 1.1953-4.6836-1.6328-9.4492-6.3164-10.641-4.6836-1.1953-9.4492 1.6328-10.645 6.3164-6.7695 26.332-15.766 52.039-26.895 76.848-9.0859-16.934-9.6328-37.168-1.4727-54.566 2.7344-5.5039 4.8359-11.305 6.2617-17.289 7.8086-2.7734 13.852-9.0742 16.293-16.992 2.4453-7.9219 1.0078-16.531-3.8828-23.223-4.8867-6.6953-12.648-10.687-20.938-10.77-8.2891-0.082031-16.129 3.7539-21.148 10.352-5.0195 6.5938-6.6289 15.172-4.3438 23.141 2.2852 7.9648 8.1992 14.383 15.953 17.312-1.0547 3.3594-2.3672 6.6328-3.9258 9.7891-18.219 37.34 0.87109 70.777 8.2188 81.465-8.9766 18.059-18.891 35.637-29.699 52.66-0.90234-5.3438-2.6836-10.5-5.2656-15.262-6.6914-11.809-12.434-24.129-17.176-36.844 4.6445-1.7695 8.6797-4.832 11.633-8.8281 12.766-17.059 6.6719-48.828 5.9375-52.398-0.97266-4.7344-5.6016-7.7812-10.336-6.8047-4.7305 0.97266-7.7773 5.6016-6.8047 10.332 2.1484 10.527 3.2852 30.258-2.8164 38.395v0.003906c-0.88672 1.2148-2.0781 2.1719-3.457 2.7734-1.4453-4.5078-2.8086-9.0508-3.9883-13.629v0.003907c-5.2539-20.07-7.6992-40.777-7.2617-61.52 7.8203-2.8203 13.844-9.1836 16.23-17.152 2.3906-7.9648 0.86328-16.59-4.1172-23.25-4.9805-6.6641-12.824-10.57-21.141-10.531-8.3164 0.035156-16.121 4.0117-21.043 10.719-4.918 6.7031-6.3711 15.344-3.9102 23.289 2.457 7.9414 8.5352 14.25 16.383 17.004-0.22656 12.703 0.57031 25.406 2.3828 37.98-30.363-12.68-32.977-31.715-33.098-32.828h0.003906c-0.40625-4.793-4.6016-8.3594-9.3984-7.9883-4.793 0.37109-8.3906 4.5391-8.0508 9.3359 0.10156 1.4297 3.0547 35.25 54.211 51.473l0.023437 0.003906c0.58594 2.5938 1.1602 5.1797 1.8516 7.8398 1.9844 7.707 4.3438 15.398 7.0195 22.871 4.0312 11.207 7.707 20.141 11.059 27.527l-0.003906 0.003906c-8.7656-5.75-15.637-13.953-19.762-23.59-6.7109-12.953-14.32-27.637-45.336-40.191-27.133-10.988-34.289-34.027-35.281-52.48v0.003907c7.8398-2.793 13.891-9.1328 16.309-17.094 2.4219-7.9609 0.92188-16.598-4.0352-23.281-4.9609-6.6797-12.793-10.613-21.113-10.602-8.3203 0.0078126-16.141 3.9648-21.082 10.656-4.9414 6.6953-6.418 15.336-3.9766 23.289 2.4414 7.957 8.5078 14.281 16.352 17.051 1.3398 25.504 12.254 54.902 46.262 68.676h0.003907c3.8516 1.543 7.6172 3.3008 11.273 5.2656-8.2344 5.1484-20.641 11.145-31.301 10.652-0.003906-8.3086-3.9375-16.125-10.609-21.082-6.668-4.957-15.289-6.4688-23.246-4.0781-7.957 2.3945-14.316 8.4062-17.148 16.219-2.832 7.8086-1.8086 16.5 2.7695 23.438 4.5742 6.9375 12.16 11.301 20.457 11.773 8.2969 0.46875 16.324-3.0078 21.656-9.3828 2.3867 0.43359 4.8086 0.65234 7.2305 0.66016 19.027 0 37.844-11.973 45.062-17.129v0.003906c4.1367 4.7109 7.5781 9.9922 10.215 15.684 6.7109 12.953 14.32 27.633 45.332 40.191 0.80859 0.3125 1.6602 0.50781 2.5273 0.57031 2.5781 9.375 2.9102 19.227 0.97266 28.754-6.793 9.7617-13.082 18.367-18.434 25.676-1.9453 2.6523-3.7578 5.1328-5.457 7.4727v-0.003906c-5.2266-1.668-10.848-1.6172-16.043 0.14844-5.1953 1.7617-9.6875 5.1484-12.82 9.6523-4.8516 6.9648-9.8516 13.699-14.91 20.34-12.887-0.56641-25.359 4.625-34.043 14.164l-19.098 21.234c-7.5234 8.2734-11.34 19.262-10.562 30.418 0.13672 1.7578 0.37891 3.5039 0.73828 5.2305-5.9883 5.8438-12 11.512-18.039 17.004-0.72656-0.125-1.4414-0.28516-2.1797-0.37109-11.027-1.3047-22.098 2.0234-30.578 9.1875l-21.895 18.227h-0.003906c-8.7539 7.4023-14.258 17.941-15.332 29.359-9.2109 6.5859-18.258 12.789-27.023 18.535h0.003906c-10.203-2.5586-21-0.99609-30.062 4.3438l-23.535 13.801c-9.0352 5.3242-15.68 13.91-18.574 23.992-26.664 13.715-43.633 20.379-44.18 20.59-4.5273 1.6914-6.8242 6.7305-5.1328 11.258 1.6953 4.5273 6.7344 6.8242 11.258 5.1328 0.50781-0.19141 14.574-5.7227 37.184-17 0.85938 4.3008 2.4023 8.4375 4.5625 12.258 0.8125 1.4102 1.707 2.7695 2.6797 4.0781-23.207 11.418-37.656 16.941-38.184 17.137-2.1836 0.80469-3.957 2.4453-4.9297 4.5586-0.97266 2.1172-1.0625 4.5312-0.25 6.7148 0.81641 2.1797 2.4648 3.9492 4.5859 4.9102 2.1211 0.96094 4.5352 1.0391 6.7148 0.21484 0.59375-0.22266 18.441-7.0469 46.543-21.262 5.6523 2.832 11.883 4.3125 18.203 4.3242 7.1602-0.007812 14.188-1.9297 20.352-5.5664l23.535-13.801c11.75-6.9453 19.305-19.242 20.195-32.859 7.6016-5.0234 15.367-10.352 23.297-15.977 6.6602 2.5156 13.875 3.1992 20.895 1.9883 7.0195-1.2109 13.586-4.2812 19.016-8.8867l21.891-18.227h0.003907l0.003906 0.003906c10.816-9.207 16.57-23.035 15.473-37.199 7.9609-7.2812 15.887-14.859 23.781-22.73 0.59766 0.023438 1.1992 0.074219 1.7969 0.074219h0.003906c12.305 0.0625 24.059-5.1055 32.328-14.219l19.098-21.23v-0.003906c7.5273-8.2695 11.344-19.258 10.562-30.414-0.16016-2.1211-0.48828-4.2266-0.97266-6.3008 5.8086-7.6875 11.547-15.508 17.105-23.605 2.8867-4.1836 4.4688-9.125 4.5391-14.207 0.074219-5.082-1.3672-10.066-4.1328-14.328 1.7617-2.4336 3.6641-5.0391 5.707-7.8203 5.7656-7.8711 12.598-17.234 19.973-27.883 11.113-5.4297 24.133-6.0664 39.062-6.7188l0.003906-0.003906c18.469-0.066406 36.832-2.8438 54.492-8.25 1.0547 0.003906 2.1016-0.18359 3.0898-0.55469 11.18-4.2969 20.059-4.375 26.426-0.22656 0.88672 0.58594 1.7188 1.2422 2.4961 1.9648-6.4961 5.043-10.254 12.84-10.145 21.062 0.10547 8.2227 4.0625 15.918 10.688 20.789s15.148 6.3555 23.031 4.0078c7.8789-2.3516 14.203-8.2578 17.078-15.965 2.875-7.7031 1.9727-16.309-2.4414-23.246-4.4102-6.9414-11.824-11.406-20.02-12.07-2.9062-4.4141-6.6641-8.207-11.055-11.152-1.2773-0.82812-2.6055-1.5742-3.9766-2.2344 17.117-11.957 32.531-26.188 45.812-42.301 3.1328-3.6797 2.6875-9.2031-0.99219-12.336-3.6836-3.1289-9.2031-2.6836-12.336 0.99609zm-15.211-55.578c3.5391 0 6.7305 2.1328 8.0859 5.4023 1.3516 3.2695 0.60547 7.0312-1.8984 9.5352-2.5039 2.5-6.2656 3.25-9.5352 1.8945-3.2695-1.3516-5.4023-4.543-5.4023-8.082 0.007812-4.832 3.9219-8.7461 8.75-8.75zm-21.875-70c3.5391 0 6.7305 2.1328 8.0859 5.4023 1.3516 3.2695 0.60547 7.0312-1.8984 9.5352s-6.2656 3.25-9.5352 1.8945c-3.2695-1.3516-5.4023-4.543-5.4023-8.082 0.007812-4.8281 3.9219-8.7422 8.75-8.75zm-96.25 8.75c0-3.5391 2.1328-6.7305 5.4023-8.0859 3.2695-1.3516 7.0312-0.60547 9.5352 1.8984s3.25 6.2656 1.8984 9.5352c-1.3555 3.2695-4.5469 5.4023-8.0859 5.4023-4.8281-0.007812-8.7422-3.9219-8.75-8.75zm-74.375 8.75c-3.5391 0-6.7305-2.1328-8.082-5.4023-1.3555-3.2695-0.60547-7.0312 1.8945-9.5352 2.5039-2.5039 6.2656-3.25 9.5352-1.8984 3.2695 1.3555 5.4023 4.5469 5.4023 8.0859-0.003906 4.8281-3.918 8.7422-8.75 8.75zm-91.875 0c-3.5391 0-6.7305-2.1328-8.082-5.4023-1.3555-3.2695-0.60547-7.0312 1.8945-9.5352 2.5039-2.5039 6.2656-3.25 9.5352-1.8984 3.2695 1.3555 5.4023 4.5469 5.4023 8.0859-0.003906 4.8281-3.918 8.7422-8.75 8.75zm-8.75 109.38c-3.5391 0-6.7305-2.1328-8.082-5.4023-1.3555-3.2695-0.60547-7.0352 1.8945-9.5352 2.5039-2.5039 6.2656-3.25 9.5352-1.8984 3.2695 1.3555 5.4023 4.5469 5.4023 8.0859-0.003906 4.8281-3.918 8.7422-8.75 8.75zm-112.29 363.67-23.531 13.801c-5.2617 3.1133-11.559 3.9648-17.461 2.3711-6.0273-1.6133-11.145-5.5938-14.195-11.031-3.1094-5.4531-3.957-11.91-2.3633-17.98 1.5938-6.0742 5.5-11.277 10.887-14.504l23.531-13.801h0.003906c5.2617-3.1094 11.559-3.9648 17.461-2.3711 6.0234 1.6172 11.141 5.5938 14.191 11.031 3.1094 5.4531 3.9609 11.91 2.3672 17.98-1.5938 6.0742-5.5039 11.281-10.891 14.504zm25.898-36.66h0.003906c-2.3086-5.625-5.8672-10.652-10.406-14.699 3.9258-2.6406 7.8945-5.3633 11.902-8.1602 1.9727 5.7461 5.1641 10.996 9.3555 15.395-3.6523 2.5547-7.2695 5.043-10.852 7.4648zm77.051-35.652-21.887 18.227c-4.8047 4.0703-11.074 5.9727-17.328 5.2617-6.4648-0.80469-12.305-4.2539-16.133-9.5195-4.0742-5.5-5.9258-12.332-5.1758-19.133 0.74609-6.8047 4.0352-13.074 9.207-17.555l21.891-18.227h0.003906c4.793-4.0859 11.07-5.9922 17.328-5.2578 6.4609 0.80469 12.301 4.25 16.133 9.5156 4.0742 5.5 5.9219 12.336 5.1719 19.137-0.74609 6.8047-4.0391 13.07-9.2109 17.551zm21.082-42.43c-0.90234-1.6406-1.9141-3.2188-3.0234-4.7266-2.4102-3.2266-5.2656-6.0938-8.4844-8.5195 2.7344-2.5234 5.4648-5.0898 8.1914-7.6914 3.5547 4.7227 8.0703 8.6367 13.25 11.484-3.3047 3.2031-6.6172 6.3555-9.9336 9.4531zm69.59-51.125-19.098 21.23v-0.003906c-4.5586 4.9648-10.852 7.9844-17.578 8.4258-6.7227 0.44141-13.359-1.7227-18.527-6.0469-5.0117-4.1641-8.1094-10.191-8.5703-16.695-0.4375-6.4297 1.7734-12.758 6.1211-17.516l19.098-21.23c4.5586-4.9609 10.852-7.9766 17.574-8.418 6.7227-0.44531 13.359 1.7227 18.527 6.043 5.0156 4.1602 8.1094 10.191 8.5703 16.691 0.4375 6.4297-1.7734 12.758-6.1172 17.52zm25.285-58.523c-3.7422 5.4453-7.5664 10.758-11.426 16.012-3.5977-4.3281-8.0469-7.8672-13.07-10.395 3.6992-4.9688 7.3672-9.9883 10.949-15.133 1.3242-1.8945 3.3789-3.1484 5.668-3.4531 2.2891-0.30859 4.6016 0.35938 6.3789 1.8359 3.3125 2.7617 3.9648 7.5938 1.5 11.133zm182.14-56.152h-0.003906c3.5391 0 6.7305 2.1289 8.0859 5.3984 1.3516 3.2695 0.60547 7.0352-1.8984 9.5352-2.5039 2.5039-6.2656 3.2539-9.5352 1.8984-3.2695-1.3555-5.4023-4.543-5.4023-8.082 0.007812-4.832 3.9219-8.7461 8.75-8.75z"/>
  <use x="70" y="625.625" xlink:href="#h"/>
  <use x="86.054688" y="625.625" xlink:href="#c"/>
  <use x="96.839844" y="625.625" xlink:href="#a"/>
  <use x="111.679687" y="625.625" xlink:href="#m"/>
  <use x="126.4375" y="625.625" xlink:href="#b"/>
  <use x="136.894531" y="625.625" xlink:href="#a"/>
  <use x="151.730469" y="625.625" xlink:href="#l"/>
  <use x="175.007812" y="625.625" xlink:href="#k"/>
  <use x="190.664062" y="625.625" xlink:href="#j"/>
  <use x="212.539062" y="625.625" xlink:href="#i"/>
  <use x="236.667969" y="625.625" xlink:href="#g"/>
  <use x="251.613281" y="625.625" xlink:href="#z"/>
  <use x="268.285156" y="625.625" xlink:href="#y"/>
  <use x="283.207031" y="625.625" xlink:href="#g"/>
  <use x="298.148438" y="625.625" xlink:href="#h"/>
  <use x="314.203125" y="625.625" xlink:href="#x"/>
  <use x="332.511719" y="625.625" xlink:href="#w"/>
  <use x="351.105469" y="625.625" xlink:href="#e"/>
  <use x="367.140625" y="625.625" xlink:href="#v"/>
  <use x="390.507812" y="625.625" xlink:href="#f"/>
  <use x="404.449219" y="625.625" xlink:href="#f"/>
  <use x="418.386719" y="625.625" xlink:href="#e"/>
  <use x="70" y="647.5" xlink:href="#u"/>
  <use x="79.515625" y="647.5" xlink:href="#c"/>
  <use x="90.304688" y="647.5" xlink:href="#d"/>
  <use x="105.332031" y="647.5" xlink:href="#t"/>
  <use x="135.742188" y="647.5" xlink:href="#b"/>
  <use x="146.199219" y="647.5" xlink:href="#s"/>
  <use x="161.773438" y="647.5" xlink:href="#a"/>
  <use x="184.222656" y="647.5" xlink:href="#r"/>
  <use x="202.53125" y="647.5" xlink:href="#d"/>
  <use x="217.558594" y="647.5" xlink:href="#q"/>
  <use x="233.132812" y="647.5" xlink:href="#p"/>
  <use x="256.320312" y="647.5" xlink:href="#e"/>
  <use x="272.355469" y="647.5" xlink:href="#c"/>
  <use x="283.140625" y="647.5" xlink:href="#d"/>
  <use x="298.171875" y="647.5" xlink:href="#o"/>
  <use x="305.667969" y="647.5" xlink:href="#a"/>
  <use x="320.503906" y="647.5" xlink:href="#n"/>
  <use x="333.472656" y="647.5" xlink:href="#b"/>
 </g>
</svg>
