<?xml version="1.0" encoding="UTF-8"?>
<svg width="700pt" height="700pt" version="1.1" viewBox="0 0 700 700" xmlns="http://www.w3.org/2000/svg" xmlns:xlink="http://www.w3.org/1999/xlink">
 <defs>
  <symbol id="u" overflow="visible">
   <path d="m19.141-1.1406c-0.98047 0.51172-2.0078 0.89844-3.0781 1.1562-1.0742 0.25781-2.1875 0.39062-3.3438 0.39062-3.4805 0-6.2344-0.96875-8.2656-2.9062-2.0234-1.9453-3.0312-4.5781-3.0312-7.8906 0-3.332 1.0078-5.9688 3.0312-7.9062 2.0312-1.9375 4.7852-2.9062 8.2656-2.9062 1.1562 0 2.2695 0.13281 3.3438 0.39062 1.0703 0.26172 2.0977 0.64844 3.0781 1.1562v4.3125c-0.99219-0.6875-1.9688-1.1875-2.9375-1.5s-1.9922-0.46875-3.0625-0.46875c-1.918 0-3.4219 0.61719-4.5156 1.8438-1.0938 1.2188-1.6406 2.9141-1.6406 5.0781 0 2.1484 0.54688 3.8359 1.6406 5.0625 1.0938 1.2305 2.5977 1.8438 4.5156 1.8438 1.0703 0 2.0938-0.15625 3.0625-0.46875 0.96875-0.32031 1.9453-0.82031 2.9375-1.5z"/>
  </symbol>
  <symbol id="c" overflow="visible">
   <path d="m14.016-11.375c-0.4375-0.19531-0.875-0.34375-1.3125-0.4375-0.42969-0.10156-0.85938-0.15625-1.2969-0.15625-1.293 0-2.2891 0.41406-2.9844 1.2344-0.6875 0.82422-1.0312 2-1.0312 3.5312v7.2031h-4.9844v-15.625h4.9844v2.5625c0.64453-1.0195 1.3828-1.7656 2.2188-2.2344 0.83203-0.46875 1.8281-0.70312 2.9844-0.70312 0.17578 0 0.35938 0.007812 0.54688 0.015625 0.19531 0.011719 0.48438 0.042969 0.85938 0.09375z"/>
  </symbol>
  <symbol id="b" overflow="visible">
   <path d="m18-7.8594v1.4219h-11.672c0.11328 1.1797 0.53125 2.0586 1.25 2.6406 0.72656 0.58594 1.75 0.875 3.0625 0.875 1.0391 0 2.1133-0.14844 3.2188-0.45312 1.1016-0.3125 2.2383-0.78516 3.4062-1.4219v3.8438c-1.1875 0.44922-2.375 0.78906-3.5625 1.0156-1.1797 0.22656-2.3555 0.34375-3.5312 0.34375-2.8242 0-5.0234-0.71875-6.5938-2.1562-1.5625-1.4375-2.3438-3.4531-2.3438-6.0469 0-2.5508 0.76562-4.5547 2.2969-6.0156 1.5391-1.457 3.6602-2.1875 6.3594-2.1875 2.457 0 4.4219 0.74219 5.8906 2.2188 1.4766 1.4805 2.2188 3.4531 2.2188 5.9219zm-5.1406-1.6562c0-0.94531-0.27734-1.7109-0.82812-2.2969-0.55469-0.58203-1.2773-0.875-2.1719-0.875-0.96094 0-1.7461 0.27734-2.3594 0.82812-0.60547 0.54297-0.98047 1.3242-1.125 2.3438z"/>
  </symbol>
  <symbol id="j" overflow="visible">
   <path d="m9.4062-7.0312c-1.043 0-1.8281 0.17969-2.3594 0.53125-0.52344 0.35547-0.78125 0.875-0.78125 1.5625 0 0.63672 0.20703 1.1328 0.625 1.4844 0.42578 0.35547 1.0195 0.53125 1.7812 0.53125 0.9375 0 1.7227-0.33203 2.3594-1 0.64453-0.67578 0.96875-1.5195 0.96875-2.5312v-0.57812zm7.625-1.8906v8.9219h-5.0312v-2.3125c-0.66797 0.94922-1.4219 1.6406-2.2656 2.0781-0.83594 0.42578-1.8516 0.64062-3.0469 0.64062-1.625 0-2.9453-0.46875-3.9531-1.4062-1-0.94531-1.5-2.1758-1.5-3.6875 0-1.832 0.62891-3.1758 1.8906-4.0312 1.2578-0.85156 3.2383-1.2812 5.9375-1.2812h2.9375v-0.39062c0-0.78906-0.3125-1.3672-0.9375-1.7344-0.625-0.375-1.5938-0.5625-2.9062-0.5625-1.0742 0-2.0742 0.10938-3 0.32812-0.91797 0.21094-1.7734 0.52734-2.5625 0.95312v-3.7969c1.0703-0.25781 2.1445-0.45703 3.2188-0.59375 1.082-0.13281 2.1641-0.20312 3.25-0.20312 2.8125 0 4.8438 0.55859 6.0938 1.6719 1.25 1.1055 1.875 2.9062 1.875 5.4062z"/>
  </symbol>
  <symbol id="d" overflow="visible">
   <path d="m7.8594-20.062v4.4375h5.1406v3.5625h-5.1406v6.6406c0 0.71875 0.14062 1.2109 0.42188 1.4688 0.28906 0.25 0.86328 0.375 1.7188 0.375h2.5781v3.5781h-4.2969c-1.9688 0-3.3672-0.41016-4.1875-1.2344-0.82422-0.82031-1.2344-2.2188-1.2344-4.1875v-6.6406h-2.4844v-3.5625h2.4844v-4.4375z"/>
  </symbol>
  <symbol id="i" overflow="visible">
   <path d="m13.031-13.344v-8.375h5.0312v21.719h-5.0312v-2.2656c-0.6875 0.92969-1.4492 1.6055-2.2812 2.0312-0.82422 0.42578-1.7773 0.64062-2.8594 0.64062-1.9297 0-3.5117-0.76562-4.75-2.2969-1.2422-1.5312-1.8594-3.5-1.8594-5.9062 0-2.4141 0.61719-4.3828 1.8594-5.9062 1.2383-1.5312 2.8203-2.2969 4.75-2.2969 1.0703 0 2.0234 0.21875 2.8594 0.65625 0.83203 0.42969 1.5938 1.0938 2.2812 2zm-3.2969 10.125c1.0703 0 1.8906-0.39062 2.4531-1.1719s0.84375-1.9141 0.84375-3.4062c0-1.4883-0.28125-2.625-0.84375-3.4062s-1.3828-1.1719-2.4531-1.1719c-1.0547 0-1.8672 0.39062-2.4375 1.1719-0.5625 0.78125-0.84375 1.918-0.84375 3.4062 0 1.4922 0.28125 2.625 0.84375 3.4062 0.57031 0.78125 1.3828 1.1719 2.4375 1.1719z"/>
  </symbol>
  <symbol id="g" overflow="visible">
   <path d="m10.719-3.2188c1.0703 0 1.8906-0.39062 2.4531-1.1719s0.84375-1.9141 0.84375-3.4062c0-1.4883-0.28125-2.625-0.84375-3.4062s-1.3828-1.1719-2.4531-1.1719c-1.0742 0-1.8984 0.39844-2.4688 1.1875-0.57422 0.78125-0.85938 1.9141-0.85938 3.3906 0 1.4805 0.28516 2.6172 0.85938 3.4062 0.57031 0.78125 1.3945 1.1719 2.4688 1.1719zm-3.3281-10.125c0.6875-0.90625 1.4453-1.5703 2.2812-2 0.84375-0.4375 1.8125-0.65625 2.9062-0.65625 1.9258 0 3.5039 0.76562 4.7344 2.2969 1.2383 1.5234 1.8594 3.4922 1.8594 5.9062 0 2.4062-0.62109 4.375-1.8594 5.9062-1.2305 1.5312-2.8086 2.2969-4.7344 2.2969-1.0938 0-2.0625-0.21484-2.9062-0.64062-0.83594-0.4375-1.5938-1.1133-2.2812-2.0312v2.2656h-4.9844v-21.719h4.9844z"/>
  </symbol>
  <symbol id="f" overflow="visible">
   <path d="m0.34375-15.625h5l4.2031 10.594 3.5625-10.594h5l-6.5625 17.109c-0.66797 1.7383-1.4453 2.9531-2.3281 3.6406-0.875 0.69531-2.0312 1.0469-3.4688 1.0469h-2.8906v-3.2812h1.5625c0.84375 0 1.457-0.13672 1.8438-0.40625 0.38281-0.27344 0.6875-0.75781 0.90625-1.4531l0.14062-0.4375z"/>
  </symbol>
  <symbol id="e" overflow="visible">
   <path d="m2.625-20.828h8.9219c2.6445 0 4.6758 0.58984 6.0938 1.7656 1.4141 1.1797 2.125 2.8555 2.125 5.0312 0 2.1797-0.71094 3.8555-2.125 5.0312-1.418 1.1797-3.4492 1.7656-6.0938 1.7656h-3.5469v7.2344h-5.375zm5.375 3.8906v5.8125h2.9688c1.0391 0 1.8438-0.25 2.4062-0.75 0.57031-0.50781 0.85938-1.2266 0.85938-2.1562 0-0.9375-0.28906-1.6562-0.85938-2.1562-0.5625-0.5-1.3672-0.75-2.4062-0.75z"/>
  </symbol>
  <symbol id="a" overflow="visible">
   <path d="m9.8438-12.438c-1.1172 0-1.9648 0.40234-2.5469 1.2031-0.57422 0.79297-0.85938 1.9375-0.85938 3.4375s0.28516 2.6484 0.85938 3.4375c0.58203 0.79297 1.4297 1.1875 2.5469 1.1875 1.082 0 1.9102-0.39453 2.4844-1.1875 0.58203-0.78906 0.875-1.9375 0.875-3.4375s-0.29297-2.6445-0.875-3.4375c-0.57422-0.80078-1.4023-1.2031-2.4844-1.2031zm0-3.5625c2.6875 0 4.7852 0.72656 6.2969 2.1719 1.5078 1.4492 2.2656 3.4609 2.2656 6.0312 0 2.5625-0.75781 4.5742-2.2656 6.0312-1.5117 1.4492-3.6094 2.1719-6.2969 2.1719-2.6992 0-4.8086-0.72266-6.3281-2.1719-1.5234-1.457-2.2812-3.4688-2.2812-6.0312 0-2.5703 0.75781-4.582 2.2812-6.0312 1.5195-1.4453 3.6289-2.1719 6.3281-2.1719z"/>
  </symbol>
  <symbol id="t" overflow="visible">
   <path d="m17.125-20.172v4.4062c-1.1484-0.50781-2.2656-0.89453-3.3594-1.1562-1.0859-0.25781-2.1094-0.39062-3.0781-0.39062-1.2812 0-2.2305 0.17969-2.8438 0.53125-0.61719 0.35547-0.92188 0.90234-0.92188 1.6406 0 0.5625 0.20312 1 0.60938 1.3125 0.41406 0.30469 1.1719 0.57031 2.2656 0.79688l2.2812 0.45312c2.3203 0.46875 3.9688 1.1797 4.9375 2.125 0.97656 0.94922 1.4688 2.2969 1.4688 4.0469 0 2.3047-0.68359 4.0156-2.0469 5.1406-1.3555 1.1172-3.4336 1.6719-6.2344 1.6719-1.3242 0-2.6523-0.125-3.9844-0.375-1.3242-0.25-2.6523-0.625-3.9844-1.125v-4.5312c1.332 0.71094 2.6172 1.2461 3.8594 1.6094 1.2383 0.35547 2.4375 0.53125 3.5938 0.53125 1.1641 0 2.0625-0.19141 2.6875-0.57812 0.625-0.39453 0.9375-0.95703 0.9375-1.6875 0-0.64453-0.21484-1.1445-0.64062-1.5-0.41797-0.35156-1.2617-0.67188-2.5312-0.95312l-2.0781-0.46875c-2.0859-0.4375-3.6094-1.1445-4.5781-2.125-0.96094-0.97656-1.4375-2.2969-1.4375-3.9531 0-2.0703 0.66406-3.6641 2-4.7812 1.3438-1.1133 3.2734-1.6719 5.7969-1.6719 1.1328 0 2.3047 0.089844 3.5156 0.26562 1.2188 0.16797 2.4727 0.42188 3.7656 0.76562z"/>
  </symbol>
  <symbol id="h" overflow="visible">
   <path d="m16.891-13.031c0.625-0.96875 1.3672-1.7031 2.2344-2.2031 0.875-0.50781 1.832-0.76562 2.875-0.76562 1.8008 0 3.1719 0.55469 4.1094 1.6562 0.9375 1.1055 1.4062 2.7148 1.4062 4.8281v9.5156h-5.0156v-8.1562c0.007812-0.11328 0.015625-0.23438 0.015625-0.35938v-0.5625c0-1.1133-0.16406-1.9141-0.48438-2.4062-0.32422-0.5-0.85156-0.75-1.5781-0.75-0.94922 0-1.6836 0.39062-2.2031 1.1719-0.51172 0.78125-0.77734 1.9141-0.79688 3.3906v7.6719h-5.0156v-8.1562c0-1.7266-0.15234-2.8359-0.45312-3.3281-0.29297-0.5-0.82422-0.75-1.5938-0.75-0.96094 0-1.6992 0.39844-2.2188 1.1875-0.52344 0.78125-0.78125 1.9023-0.78125 3.3594v7.6875h-5.0156v-15.625h5.0156v2.2812c0.61328-0.88281 1.3164-1.5469 2.1094-1.9844 0.80078-0.44531 1.6797-0.67188 2.6406-0.67188 1.082 0 2.0352 0.26172 2.8594 0.78125 0.83203 0.52344 1.4609 1.25 1.8906 2.1875z"/>
  </symbol>
  <symbol id="s" overflow="visible">
   <path d="m2.4062-21.719h4.9844v21.719h-4.9844z"/>
  </symbol>
  <symbol id="r" overflow="visible">
   <path d="m14.609-15.141v3.7969c-1.0742-0.44531-2.1094-0.78125-3.1094-1-0.99219-0.22656-1.9297-0.34375-2.8125-0.34375-0.94922 0-1.6523 0.12109-2.1094 0.35938-0.46094 0.24219-0.6875 0.60547-0.6875 1.0938 0 0.39844 0.17188 0.70312 0.51562 0.92188 0.35156 0.21875 0.97656 0.375 1.875 0.46875l0.89062 0.125c2.5508 0.33594 4.2695 0.875 5.1562 1.625 0.88281 0.74219 1.3281 1.9023 1.3281 3.4844 0 1.668-0.61719 2.9219-1.8438 3.7656-1.2305 0.83594-3.0625 1.25-5.5 1.25-1.0312 0-2.1016-0.085938-3.2031-0.25-1.1055-0.15625-2.2344-0.39844-3.3906-0.73438v-3.7969c0.98828 0.49219 2.0039 0.85547 3.0469 1.0938 1.0508 0.24219 2.1172 0.35938 3.2031 0.35938 0.97656 0 1.7109-0.12891 2.2031-0.39062 0.48828-0.26953 0.73438-0.67188 0.73438-1.2031 0-0.44531-0.17188-0.78125-0.51562-1-0.33594-0.21875-1.0078-0.39062-2.0156-0.51562l-0.875-0.10938c-2.2305-0.28125-3.793-0.79688-4.6875-1.5469-0.88672-0.75-1.3281-1.8945-1.3281-3.4375 0-1.6562 0.56641-2.8789 1.7031-3.6719 1.1328-0.80078 2.875-1.2031 5.2188-1.2031 0.91406 0 1.8789 0.070312 2.8906 0.20312 1.0195 0.13672 2.125 0.35547 3.3125 0.65625z"/>
  </symbol>
  <symbol id="q" overflow="visible">
   <path d="m12.688-21.719v3.2812h-2.7656c-0.71094 0-1.2031 0.13281-1.4844 0.39062-0.27344 0.25-0.40625 0.69531-0.40625 1.3281v1.0938h4.2656v3.5625h-4.2656v12.062h-5v-12.062h-2.4844v-3.5625h2.4844v-1.0938c0-1.6953 0.47266-2.9531 1.4219-3.7656 0.94531-0.82031 2.4141-1.2344 4.4062-1.2344z"/>
  </symbol>
  <symbol id="p" overflow="visible">
   <path d="m18.109-9.5156v9.5156h-5.0156v-7.25c0-1.375-0.03125-2.3164-0.09375-2.8281-0.0625-0.50781-0.16797-0.88281-0.3125-1.125-0.19922-0.32031-0.46484-0.57031-0.79688-0.75-0.33594-0.1875-0.71484-0.28125-1.1406-0.28125-1.043 0-1.8672 0.40234-2.4688 1.2031-0.59375 0.80469-0.89062 1.918-0.89062 3.3438v7.6875h-4.9844v-21.719h4.9844v8.375c0.75781-0.90625 1.5625-1.5703 2.4062-2 0.84375-0.4375 1.7734-0.65625 2.7969-0.65625 1.8125 0 3.1797 0.55469 4.1094 1.6562 0.9375 1.1055 1.4062 2.7148 1.4062 4.8281z"/>
  </symbol>
  <symbol id="o" overflow="visible">
   <path d="m2.625-20.828h6l7.5781 14.281v-14.281h5.0938v20.828h-6l-7.5781-14.297v14.297h-5.0938z"/>
  </symbol>
  <symbol id="n" overflow="visible">
   <path d="m2.2344-6.0781v-9.5469h5.0156v1.5625c0 0.84375-0.007812 1.9062-0.015625 3.1875v2.5625c0 1.25 0.03125 2.1562 0.09375 2.7188 0.0625 0.55469 0.17188 0.95312 0.32812 1.2031 0.20703 0.32422 0.47266 0.57422 0.79688 0.75 0.33203 0.17969 0.71094 0.26562 1.1406 0.26562 1.0391 0 1.8594-0.39844 2.4531-1.2031 0.60156-0.80078 0.90625-1.9102 0.90625-3.3281v-7.7188h4.9844v15.625h-4.9844v-2.2656c-0.76172 0.91797-1.5625 1.5938-2.4062 2.0312-0.83594 0.42578-1.7617 0.64062-2.7812 0.64062-1.8047 0-3.1797-0.55078-4.125-1.6562-0.9375-1.1133-1.4062-2.7227-1.4062-4.8281z"/>
  </symbol>
  <symbol id="m" overflow="visible">
   <path d="m18.109-9.5156v9.5156h-5.0156v-7.2812c0-1.3516-0.03125-2.2852-0.09375-2.7969-0.0625-0.50781-0.16797-0.88281-0.3125-1.125-0.19922-0.32031-0.46484-0.57031-0.79688-0.75-0.33594-0.1875-0.71484-0.28125-1.1406-0.28125-1.043 0-1.8672 0.40234-2.4688 1.2031-0.59375 0.80469-0.89062 1.918-0.89062 3.3438v7.6875h-4.9844v-15.625h4.9844v2.2812c0.75781-0.90625 1.5625-1.5703 2.4062-2 0.84375-0.4375 1.7734-0.65625 2.7969-0.65625 1.8125 0 3.1797 0.55469 4.1094 1.6562 0.9375 1.1055 1.4062 2.7148 1.4062 4.8281z"/>
  </symbol>
  <symbol id="l" overflow="visible">
   <path d="m2.4062-15.625h4.9844v15.344c0 2.0938-0.50781 3.6914-1.5156 4.7969-1 1.1016-2.4531 1.6562-4.3594 1.6562h-2.4688v-3.2812h0.875c0.94531 0 1.5977-0.21484 1.9531-0.64062 0.35156-0.42969 0.53125-1.2734 0.53125-2.5312zm0-6.0938h4.9844v4.0781h-4.9844z"/>
  </symbol>
  <symbol id="k" overflow="visible">
   <path d="m15.031-15.141v4.0781c-0.67969-0.46875-1.3594-0.8125-2.0469-1.0312-0.6875-0.22656-1.3984-0.34375-2.125-0.34375-1.3984 0-2.4844 0.41406-3.2656 1.2344-0.77344 0.8125-1.1562 1.9492-1.1562 3.4062 0 1.4609 0.38281 2.5938 1.1562 3.4062 0.78125 0.8125 1.8672 1.2188 3.2656 1.2188 0.78125 0 1.5195-0.11328 2.2188-0.34375 0.70703-0.22656 1.3594-0.57031 1.9531-1.0312v4.0938c-0.78125 0.28125-1.5781 0.49219-2.3906 0.64062-0.80469 0.14453-1.6055 0.21875-2.4062 0.21875-2.8242 0-5.0312-0.72266-6.625-2.1719-1.5859-1.4453-2.375-3.457-2.375-6.0312 0-2.582 0.78906-4.5938 2.375-6.0312 1.5938-1.4453 3.8008-2.1719 6.625-2.1719 0.8125 0 1.6133 0.074219 2.4062 0.21875 0.80078 0.13672 1.5977 0.35156 2.3906 0.64062z"/>
  </symbol>
 </defs>
 <g>
  <path d="m76.688 157.8 28.055-0.60938 17.125 21.984-19.211 17.871 1.8008 28.688 11.406-0.71484-1.4609-23.293 16.898-15.723 39.156 8.418 0.070313 0.058593c12.527 10.348 20.449 24.758 22.625 40.77l-32.973 21.305-36.48-4.5352-23.379 24.41 8.2539 7.9062 19.41-20.27 27.652 3.4375-0.94531 26.223 21.559 19.016 7.5625-8.5703-17.504-15.438 0.83203-23.07 33.637-21.734 0.089844-0.007812c16.055-1.5312 32.094 3.1758 44.828 12.832l-8.2539 38.379-29 22.59 0.73438 33.793 11.43-0.25-0.60938-28.051 21.984-17.125 17.875 19.211 28.688-1.8008-0.71484-11.406-23.293 1.4609-15.727-16.898 8.4219-39.16 0.054687-0.066407c8.6758-10.5 20.207-17.746 33.133-21.121 0.89844 11.18 9.1133 20.547 18.703 22.871-1.543 6.6953 0.15625 13.105 3.418 18.344 7.4141 11.91 16.332 10.094 16.32 12.629-0.0625 12.086 9.9453 23.945 21.918 25.246 0.0625 13.078 12.176 24.254 24.508 24.449 0.66016 12.223 12.828 23.359 26.352 22.656 1.4883 13.555 16.68 24.199 29.977 21.055 3.3672 10.406 14.289 18.402 26.027 17.422l19.918 32.461-18.699 35.398-32.621 8.5078 2.8867 11.059 22.5-5.8672-12.656 23.961 11.102 39.875 11.012-3.0625-9.8789-35.492 35.062-66.383 19.969 13.094 3.5078 29.359 11.352-1.3555-4.1445-34.645-28.637-18.777-19.965-32.539c0.83984-0.76562 1.625-1.5859 2.2891-2.5195l39.855 15.023 66-52.91 36.762 2.9648 0.92188-11.391-41.289-3.332-21.129 16.938 1.5195-23.207-11.406-0.74609-2.2031 33.645-25.176 20.184-1.7852-29.18-22.941-13.316-5.7383 9.8828 17.645 10.242 1.5469 25.273-29.668-11.18c-1.0898-13.812-16.523-24.836-30.023-21.641-3.4141-10.551-14.066-17.609-24.262-17.609-0.40234 0-0.76172 0.10156-1.1562 0.125-1.3828-12.094-13.227-21.633-25.148-21.633-0.11719 0-0.22266 0.035156-0.33984 0.035156-0.39453-11.949-10.621-22.559-23.043-23.574 0.003906-0.1875 0.058594-0.35547 0.058594-0.54688 0.0625-11.883-9.582-23.461-21.18-25.164 0.91016-11.918-7.6523-23.844-18.805-26.527 3.2969-14.535-8.7773-30.125-22.676-30.125-0.10937 0-0.20703 0.039062-0.31641 0.042969 0.87891-12.332 5.3047-24.074 12.895-34.055l38.379 8.25 22.59 29.004 33.797-0.73438-0.25-11.43-28.055 0.60938-17.125-21.984 19.211-17.871-1.7969-28.688-11.406 0.71484 1.457 23.293-16.898 15.723-39.152-8.4141-0.070313-0.058594c-12.527-10.352-20.449-24.758-22.625-40.766l32.973-21.305 36.48 4.5352 23.375-24.414-8.2539-7.9023-19.41 20.27-27.652-3.4375 0.94531-26.223-21.559-19.016-7.5625 8.5703 17.504 15.438-0.83594 23.051-33.633 21.734-0.09375 0.007812c-16.098 1.5195-32.102-3.1797-44.828-12.832l8.25-38.379 29-22.59-0.73047-33.793-11.43 0.24609 0.60937 28.055-21.984 17.125-17.871-19.211-28.688 1.8008 0.71484 11.406 23.293-1.4609 15.723 16.898-8.418 39.156-0.058594 0.070312c-10.352 12.527-24.762 20.449-40.77 22.625l-21.305-32.973 4.5352-36.48-24.414-23.375-7.9023 8.2539 20.27 19.41-3.4375 27.652-26.223-0.94531-19.016 21.559 8.5703 7.5625 15.438-17.504 23.07 0.83203 21.734 33.637 0.007813 0.089844c1.5391 16.176-3.0508 31.969-12.828 44.828l-38.383-8.2539-22.59-29-33.793 0.73047zm379.61 217.06c3.9766 2.7617 7.7305 8.6914 5.0547 12.535-2.6992 3.8828-9.5898 2.3477-13.512-0.37109-4.3438-3.0234-7.0938-7.2422-4.6445-12.938 3.0586-3.375 9.3242-1.8555 13.102 0.77344zm-29.02-17.039c4.3477 3.0234 7.0977 7.25 4.6484 12.926-3.043 3.3672-9.3008 1.8789-13.109-0.76953-3.9648-2.7578-7.7305-8.6875-5.0508-12.535 2.6484-3.8047 9.4531-2.4453 13.512 0.37891zm-26.305-21.512c4.9453 3.4414 7.3086 9.3008 5.0547 12.539-2.6445 3.8008-9.4375 2.4531-13.512-0.375-4.9453-3.4414-7.3086-9.3008-5.0547-12.539 2.6406-3.8008 9.4375-2.4531 13.512 0.375zm-21.039-9.4766c-3.0898 3.2812-9.5391 1.1914-13.309-2.3594-4.4219-4.168-6.3438-9.1641-1.7031-14.141 3.7383-1.7461 8.793 0.46875 11.859 3.3594 3.5156 3.3086 6.3672 9.7227 3.1523 13.141zm-24.812-37.211c2.6016 3.4062 4.207 8.6953 2.125 12.16-5.2695 3.8281-10 1.9453-13.902-3.1719-3.543-4.6445-4.6523-9.5156-0.16406-13.891 4.0312-1.9727 9.2109 1.3164 11.941 4.9023zm-20.316-25.977c2.2031 3.5391 3.3594 8.7539 1.0625 12.125-0.13672 0.097657-0.28906 0.16797-0.42188 0.26953-4.9805 3.7969-10.199 0.28125-13.219-4.5664-2.5508-4.0977-3.668-11.039 0.31641-13.512 3.8555-2.4062 9.5859 1.3789 12.262 5.6836zm-18.254-29.547c3.1836 5.1133 3.0352 11.43-0.30859 13.512-2.8867 1.793-8.5195 0.33594-12.266-5.6836-5.4336-8.7305 3.1328-14.781 2.8008-14.211 0.066406-0.003906 0.12109-0.023438 0.1875-0.023438 2.7891 0.003906 6.832 1.9844 9.5859 6.4062zm-120.84-92.559c16.785-2.6055 31.988-10.668 43.566-23.105 13.586 9.8984 30.27 15.016 47.133 14.469 2.6055 16.785 10.668 31.988 23.102 43.566-9.5898 13.113-14.566 28.742-14.457 44.93-0.74219 0.80078-1.4219 1.6641-1.9961 2.5977-15.996 2.918-30.473 10.773-41.586 22.715-12.887-9.3906-28.531-14.516-44.531-14.516-0.86719 0-1.7344 0.015626-2.6016 0.042969-2.6094-16.789-10.668-31.992-23.102-43.566 10.031-13.707 15.078-30.16 14.473-47.133z"/>
  <path d="m231.04 199.92c11.145 9.2031 28.883 13.309 38.039 2.2344 9.0742-10.988 2.0273-27.52-9.3711-36.938-11.145-9.2031-28.883-13.309-38.035-2.2344-9.0898 11-2.0195 27.531 9.3672 36.938zm-0.55859-29.656c4.4492-5.3945 15.707-1.3906 21.949 3.7656 5.8984 4.875 12.414 15.301 7.8359 20.844-4.4492 5.3945-15.707 1.3906-21.949-3.7656-5.8594-4.8398-12.414-15.301-7.8359-20.844z"/>
  <path d="m297.82 507.76c18.969 0 34.398 15.434 34.398 34.398h11.43c0-18.969 15.434-34.398 34.398-34.398v-11.43c-18.969 0-34.398-15.434-34.398-34.398h-11.43c0 18.969-15.434 34.398-34.398 34.398zm40.113-23.684c4.1797 7.543 10.426 13.789 17.969 17.969-7.543 4.1797-13.789 10.426-17.969 17.969-4.1797-7.543-10.426-13.789-17.969-17.969 7.543-4.1797 13.789-10.426 17.969-17.969z"/>
  <path d="m543.33 241.15c18.969 0 34.398 15.434 34.398 34.398h11.43c0-18.969 15.434-34.398 34.398-34.398v-11.43c-18.969 0-34.398-15.434-34.398-34.398h-11.43c0 18.969-15.434 34.398-34.398 34.398zm40.113-23.684c4.1797 7.543 10.426 13.789 17.969 17.969-7.543 4.1797-13.789 10.426-17.969 17.969-4.1797-7.543-10.426-13.789-17.969-17.969 7.543-4.1797 13.789-10.426 17.969-17.969z"/>
  <path d="m521.9 80.031v-11.43c-18.969 0-34.398-15.43-34.398-34.398h-11.43c0 18.855-15.254 34.219-34.07 34.398h-0.32812v11.43c18.969 0 34.398 15.43 34.398 34.398h11.43c0-18.855 15.254-34.219 34.07-34.398h0.32812zm-40.117 12.258c-4.1836-7.543-10.426-13.789-17.973-17.973 7.543-4.1797 13.793-10.426 17.973-17.969 4.1836 7.543 10.426 13.789 17.973 17.973-7.543 4.1797-13.789 10.426-17.973 17.969z"/>
  <path d="m190.08 408.02v-11.43c-18.969 0-34.398-15.43-34.398-34.398h-11.43c0 18.855-15.254 34.219-34.07 34.398h-0.32813v11.43c18.969 0 34.398 15.43 34.398 34.398h11.43c0-18.855 15.254-34.219 34.07-34.398h0.32812zm-40.117 12.254c-4.1836-7.543-10.426-13.789-17.973-17.973 7.543-4.1797 13.793-10.426 17.973-17.969 4.1836 7.543 10.426 13.789 17.973 17.973-7.543 4.1797-13.793 10.426-17.973 17.969z"/>
  <path d="m255.19 413.96h11.43v11.43h-11.43z"/>
  <path d="m278.05 413.96h11.43v11.43h-11.43z"/>
  <path d="m323.76 413.96h11.43v11.43h-11.43z"/>
  <path d="m300.9 413.96h11.43v11.43h-11.43z"/>
  <path d="m551.18 115.39h11.43v11.43h-11.43z"/>
  <path d="m528.32 115.39h11.43v11.43h-11.43z"/>
  <path d="m574.04 115.39h11.43v11.43h-11.43z"/>
  <path d="m596.89 115.39h11.43v11.43h-11.43z"/>
  <path d="m443.36 237.43h11.43v11.43h-11.43z"/>
  <path d="m466.22 237.43h11.43v11.43h-11.43z"/>
  <path d="m489.07 237.43h11.43v11.43h-11.43z"/>
  <path d="m420.5 237.43h11.43v11.43h-11.43z"/>
  <path d="m191.06 500.45h11.43v11.43h-11.43z"/>
  <path d="m122.49 500.45h11.43v11.43h-11.43z"/>
  <path d="m145.35 500.45h11.43v11.43h-11.43z"/>
  <path d="m168.2 500.45h11.43v11.43h-11.43z"/>
  <use x="70" y="645.714844" xlink:href="#u"/>
  <use x="90.96875" y="645.714844" xlink:href="#c"/>
  <use x="105.058594" y="645.714844" xlink:href="#b"/>
  <use x="124.4375" y="645.714844" xlink:href="#j"/>
  <use x="143.714844" y="645.714844" xlink:href="#d"/>
  <use x="157.375" y="645.714844" xlink:href="#b"/>
  <use x="176.753906" y="645.714844" xlink:href="#i"/>
  <use x="207.152344" y="645.714844" xlink:href="#g"/>
  <use x="227.601562" y="645.714844" xlink:href="#f"/>
  <use x="256.175781" y="645.714844" xlink:href="#e"/>
  <use x="277.113281" y="645.714844" xlink:href="#c"/>
  <use x="291.207031" y="645.714844" xlink:href="#a"/>
  <use x="310.835938" y="645.714844" xlink:href="#t"/>
  <use x="331.410156" y="645.714844" xlink:href="#f"/>
  <use x="350.035156" y="645.714844" xlink:href="#h"/>
  <use x="379.808594" y="645.714844" xlink:href="#g"/>
  <use x="400.257812" y="645.714844" xlink:href="#a"/>
  <use x="419.886719" y="645.714844" xlink:href="#s"/>
  <use x="429.683594" y="645.714844" xlink:href="#r"/>
  <use x="70" y="674.285156" xlink:href="#q"/>
  <use x="82.429688" y="674.285156" xlink:href="#c"/>
  <use x="96.519531" y="674.285156" xlink:href="#a"/>
  <use x="116.148438" y="674.285156" xlink:href="#h"/>
  <use x="155.867188" y="674.285156" xlink:href="#d"/>
  <use x="169.527344" y="674.285156" xlink:href="#p"/>
  <use x="189.867188" y="674.285156" xlink:href="#b"/>
  <use x="219.191406" y="674.285156" xlink:href="#o"/>
  <use x="243.101562" y="674.285156" xlink:href="#a"/>
  <use x="262.730469" y="674.285156" xlink:href="#n"/>
  <use x="283.070312" y="674.285156" xlink:href="#m"/>
  <use x="313.359375" y="674.285156" xlink:href="#e"/>
  <use x="334.300781" y="674.285156" xlink:href="#c"/>
  <use x="348.390625" y="674.285156" xlink:href="#a"/>
  <use x="368.019531" y="674.285156" xlink:href="#l"/>
  <use x="377.8125" y="674.285156" xlink:href="#b"/>
  <use x="397.191406" y="674.285156" xlink:href="#k"/>
  <use x="414.125" y="674.285156" xlink:href="#d"/>
 </g>
</svg>
