<?xml version="1.0" encoding="UTF-8" standalone="no"?>
<!-- Created with Inkscape (http://www.inkscape.org/) -->

<svg
   width="512"
   height="513"
   viewBox="0 0 135.46665 135.73123"
   version="1.1"
   id="svg5"
   inkscape:version="1.2.1 (9c6d41e410, 2022-07-14, custom)"
   sodipodi:docname="signal.svg"
   xmlns:inkscape="http://www.inkscape.org/namespaces/inkscape"
   xmlns:sodipodi="http://sodipodi.sourceforge.net/DTD/sodipodi-0.dtd"
   xmlns="http://www.w3.org/2000/svg"
   xmlns:svg="http://www.w3.org/2000/svg">
  <sodipodi:namedview
     id="namedview7"
     pagecolor="#24283b"
     bordercolor="#1a1b26"
     borderopacity="0.24705882"
     inkscape:showpageshadow="true"
     inkscape:pageopacity="0"
     inkscape:pagecheckerboard="false"
     inkscape:deskcolor="#1f2335"
     inkscape:document-units="px"
     showgrid="false"
     shape-rendering="auto"
     borderlayer="true"
     inkscape:zoom="0.9192388"
     inkscape:cx="170.24956"
     inkscape:cy="230.08167"
     inkscape:window-width="1667"
     inkscape:window-height="885"
     inkscape:window-x="0"
     inkscape:window-y="0"
     inkscape:window-maximized="1"
     inkscape:current-layer="layer1" />
  <defs
     id="defs2" />
  <g
     inkscape:label="Layer 1"
     inkscape:groupmode="layer"
     id="layer1">
    <path
       d="m 118.4405,49.634498 c -6.41844,5.718693 -11.45008,7.443696 -15.78449,7.798372 2.02222,-3.143353 4.98797,-5.563591 8.47063,-6.912172 2.50082,-0.779317 4.629,-2.449003 5.98305,-4.694634 1.41652,-0.041 2.73098,-0.749758 3.54399,-1.912472 0.81291,-1.162742 1.02967,-2.642394 0.58343,-3.989523 -0.44617,-1.34719 -1.50193,-2.404136 -2.84774,-2.850225 -1.34582,-0.446129 -2.82265,-0.229467 -3.98296,0.585872 -1.16094,0.814574 -1.86869,2.130908 -1.90925,3.549519 -0.0399,1.418703 0.59175,2.773691 1.70402,3.653018 -1.034,1.347579 -2.46021,2.340171 -4.08249,2.841308 -6.60278,2.366758 -10.0225,7.974776 -10.970985,9.761874 -1.014166,-0.05304 -1.997111,-0.146199 -2.957433,-0.238239 -1.363638,-0.130306 -2.692231,-0.250992 -4.000303,-0.244034 3.408936,-3.964598 6.499237,-8.193078 9.243201,-12.646169 1.82262,-0.190472 7.92921,-1.545817 12.71288,-10.950309 0.0559,0.0099 0.10969,0.02422 0.16589,0.03207 1.40227,0.201082 2.81772,-0.27095 3.81926,-1.27503 1.00144,-1.003483 1.47151,-2.421322 1.26961,-3.825386 -0.20254,-1.404125 -1.05348,-2.630671 -2.29731,-3.310559 -1.2432,-0.679255 -2.73413,-0.732282 -4.02256,-0.142614 -1.28845,0.589658 -2.22459,1.752684 -2.52535,3.139517 -0.30067,1.386219 0.0683,2.833802 0.9966,3.905944 -2.72776,5.44184 -5.82153,7.757305 -7.9682,8.738673 l -6.7e-4,-9.4e-5 c 1.51938,-2.768716 2.88074,-5.621365 4.07755,-8.544539 0.31282,-0.764786 -0.0526,-1.638701 -0.81636,-1.951434 -0.76366,-0.313328 -1.63636,0.0527 -1.94931,0.81744 -1.76737,4.298459 -3.89655,8.438339 -6.365057,12.375655 -1.135814,-3.08261 -0.749773,-6.521775 1.041461,-9.274508 0.592516,-0.86721 1.085056,-1.799737 1.467646,-2.779238 1.38595,-0.28468 2.55682,-1.208458 3.15682,-2.491367 0.60082,-1.283495 0.56136,-2.775315 -0.10728,-4.024296 -0.66794,-1.249446 -1.88588,-2.109171 -3.28566,-2.319569 -1.399631,-0.210284 -2.815978,0.253656 -3.820679,1.25203 -1.004676,0.997646 -1.479665,2.412071 -1.281753,3.815576 0.198019,1.4028 1.04622,2.629654 2.288023,3.309256 -0.2578,0.543865 -0.557131,1.067065 -0.895317,1.564608 -3.963689,5.891268 -1.526565,12.005262 -0.536946,13.989073 -1.944912,2.845323 -4.037033,5.586988 -6.267119,8.213509 -0.0262,-0.926231 -0.205436,-1.841518 -0.529401,-2.709017 -0.852152,-2.15809 -1.531784,-4.380235 -2.032887,-6.645569 0.827164,-0.18966 1.581905,-0.612621 2.175775,-1.219342 2.562012,-2.586243 2.28291,-8.110004 2.243164,-8.731906 -0.0525,-0.824707 -0.763135,-1.450248 -1.586758,-1.397027 -0.822865,0.05268 -1.447519,0.764321 -1.394939,1.588353 0.114304,1.833412 -0.160106,5.201376 -1.384253,6.434703 l -9.3e-5,6.73e-4 c -0.17863,0.184718 -0.40274,0.318557 -0.650126,0.387742 -0.137782,-0.79753 -0.260843,-1.599087 -0.352051,-2.402249 l -9.1e-5,6.72e-4 c -0.413736,-3.522873 -0.337489,-7.087088 0.227056,-10.589131 1.389012,-0.292348 2.558033,-1.227175 3.149925,-2.519953 0.592589,-1.292054 0.53832,-2.788728 -0.146302,-4.034421 -0.684536,-1.246383 -1.918391,-2.093534 -3.32562,-2.283906 -1.40703,-0.191007 -2.820733,0.297498 -3.811607,1.31667 -0.990098,1.018554 -1.440113,2.447327 -1.211945,3.850904 0.227639,1.402905 1.106181,2.615086 2.368017,3.267288 -0.33875,2.145624 -0.50441,4.315491 -0.495322,6.487566 -4.83412,-2.866201 -4.825936,-6.151296 -4.820076,-6.342626 l 6.76e-4,9.4e-5 c 0.04467,-0.821216 -0.580382,-1.524475 -1.400232,-1.57524 -0.81921,-0.05069 -1.526095,0.569873 -1.582075,1.390177 -0.01666,0.244491 -0.317143,6.041206 7.949065,9.999805 l 0.0035,0.0013 c 0.03773,0.453085 0.07366,0.904555 0.127677,1.371361 0.153261,1.35202 0.370316,2.710212 0.646011,4.038982 0.416576,1.993152 0.826704,3.593023 1.218918,4.923052 l -7.62e-4,5.79e-4 C 84.328474,48.02976 83.360602,46.47801 82.891035,44.748486 82.06264,42.396225 81.123311,39.729576 76.175797,36.869243 71.847819,34.366035 71.182693,30.295378 71.451373,27.147252 l -9.2e-5,6.57e-4 c 1.391668,-0.287247 2.564779,-1.217462 3.161916,-2.508257 0.597785,-1.290657 0.54841,-2.788699 -0.131709,-4.037731 -0.680846,-1.248561 -1.912134,-2.100077 -3.319203,-2.295264 -1.407047,-0.195712 -2.823006,0.289083 -3.816714,1.305071 -0.993874,1.016675 -1.447895,2.444837 -1.223177,3.849332 0.224613,1.405179 1.100815,2.619689 2.361661,3.274512 -0.37662,4.350307 0.773574,9.586747 6.198143,12.724523 l 6.73e-4,9.6e-5 c 0.614801,0.352431 1.209908,0.73932 1.78159,1.158607 -1.514095,0.676752 -3.75371,1.398322 -5.544524,1.06237 0.195827,-1.406983 -0.284422,-2.823689 -1.29527,-3.821061 -1.01025,-0.997284 -2.432189,-1.457455 -3.834159,-1.241082 -1.402059,0.217009 -2.61946,1.08436 -3.283088,2.340225 -0.663529,1.255153 -0.696036,2.751101 -0.08601,4.034335 0.609369,1.283058 1.788834,2.201586 3.180587,2.478011 1.391815,0.275889 2.831317,-0.122696 3.883665,-1.075853 0.393309,0.129928 0.797646,0.224349 1.206976,0.283033 3.217224,0.450627 6.682098,-1.131097 8.024512,-1.833208 l -9.5e-5,6.69e-4 c 0.588052,0.895667 1.045044,1.871457 1.356306,2.897693 0.828393,2.352261 1.767811,5.018233 6.714551,7.879149 0.129339,0.07208 0.268721,0.125284 0.413848,0.156434 0.214202,1.64852 0.03736,3.324618 -0.515562,4.891936 -1.379473,1.492057 -2.646375,2.800235 -3.724188,3.911116 -0.391656,0.403036 -0.756794,0.780124 -1.099442,1.136102 l 9.2e-5,-6.75e-4 c -0.844303,-0.40622 -1.796024,-0.530717 -2.716178,-0.354814 -0.920131,0.175238 -1.759787,0.642346 -2.395969,1.330794 -0.985071,1.064433 -1.989761,2.086321 -3.002132,3.091039 -2.165634,-0.401129 -4.397265,0.182551 -6.091222,1.592108 l -3.731425,3.143198 c -1.467774,1.222752 -2.372996,2.99305 -2.505283,4.900514 -0.01844,0.300887 -0.01879,0.602286 0.0012,0.903167 -1.150751,0.847703 -2.301306,1.665118 -3.452311,2.452047 -0.119906,-0.03826 -0.236961,-0.08246 -0.359776,-0.114483 -1.833669,-0.482104 -3.784344,-0.18074 -5.387634,0.831514 l -4.133234,2.56781 -6.69e-4,-9.4e-5 c -1.65524,1.046109 -2.835148,2.700271 -3.286784,4.608233 -1.713199,0.897029 -3.389661,1.733139 -5.007593,2.498502 l 6.67e-4,9.9e-5 c -1.664732,-0.674868 -3.527312,-0.666004 -5.185883,0.02361 l -4.305855,1.77951 c -1.653661,0.687564 -2.980277,1.984029 -3.708036,3.622638 -4.832909,1.690877 -7.859755,2.417405 -7.957232,2.440173 -0.805484,0.179259 -1.313058,0.978073 -1.13416,1.784803 0.179261,0.80679 0.977333,1.315 1.782227,1.13569 0.09046,-0.0206 2.599607,-0.62393 6.689397,-1.99794 0.04359,0.74863 0.206663,1.48561 0.481556,2.18371 0.10399,0.25808 0.223114,0.50942 0.356674,0.75401 -4.194052,1.38376 -6.767802,1.97677 -6.861712,1.99745 -0.388188,0.0849 -0.726912,0.32039 -0.941363,0.65515 -0.214528,0.33549 -0.286809,0.74211 -0.20109,1.1311 0.08666,0.38841 0.323378,0.72708 0.659293,0.94004 0.335915,0.21299 0.74228,0.28333 1.130309,0.19543 0.105661,-0.0236 3.284729,-0.75675 8.372666,-2.49799 0.888768,0.61341 1.907256,1.01171 2.975643,1.16331 1.210891,0.16816 2.444636,0.009 3.572909,-0.46052 l 4.305854,-1.77952 c 2.151037,-0.89776 3.719303,-2.80104 4.191825,-5.085717 1.404132,-0.670566 2.843196,-1.388962 4.317095,-2.153645 1.066652,0.583714 2.270424,0.870354 3.486033,0.831609 1.215551,-0.03881 2.398481,-0.403165 3.425537,-1.054424 l 4.132552,-2.567893 6.76e-4,9e-5 6e-4,5.7e-4 c 2.046644,-1.302878 3.3466,-3.508103 3.496095,-5.932467 1.518283,-1.04437 3.0377,-2.139804 4.558622,-3.285636 0.10052,0.01802 0.201013,0.04098 0.30207,0.05515 l 6.71e-4,9.6e-5 c 2.079149,0.301961 4.188817,-0.294705 5.802501,-1.642157 l 3.731313,-3.142557 1e-4,-6.72e-4 c 1.468338,-1.221994 2.37357,-2.992275 2.505184,-4.899839 0.02309,-0.362952 0.01738,-0.727251 -0.01547,-1.089942 1.163967,-1.164151 2.319212,-2.352488 3.450493,-3.591914 0.587053,-0.640037 0.971428,-1.43929 1.103495,-2.29816 0.132765,-0.85877 0.0069,-1.736853 -0.359938,-2.524037 0.355431,-0.370359 0.738729,-0.76648 1.149935,-1.189036 1.161032,-1.196258 2.53774,-2.619851 4.036606,-4.248379 2.007477,-0.656219 4.22405,-0.455659 6.763786,-0.212555 l 7.59e-4,-5.79e-4 c 3.124439,0.426192 6.295086,0.390776 9.409006,-0.106386 0.17829,0.02562 0.3597,0.0187 0.53558,-0.02075 1.99201,-0.462815 3.49518,-0.265742 4.47364,0.58749 0.13609,0.120232 0.26128,0.251039 0.37557,0.391849 -1.21766,0.700081 -2.03749,1.931334 -2.21349,3.326146 -0.17666,1.394845 0.31043,2.791599 1.31555,3.773323 1.00508,0.98172 2.41102,1.434937 3.79944,1.22409 1.38783,-0.211575 2.59685,-1.061904 3.26524,-2.298883 0.6683,-1.236265 0.71924,-2.714869 0.13695,-3.994038 -0.58152,-1.279832 -1.72953,-2.211412 -3.09966,-2.517959 -0.38701,-0.816264 -0.93274,-1.547515 -1.60553,-2.15018 -0.19635,-0.170491 -0.40331,-0.328267 -0.61953,-0.472537 3.17724,-1.61923 6.12006,-3.663897 8.74679,-6.077754 0.61674,-0.548907 0.67209,-1.49471 0.12399,-2.112345 -0.54885,-0.617052 -1.49267,-0.672382 -2.10941,-0.123505 z m -1.25759,-9.771246 c 0.59841,0.0838 1.08761,0.52056 1.23947,1.106274 0.15106,0.585669 -0.0639,1.204928 -0.5465,1.569628 -0.48252,0.36403 -1.13628,0.40194 -1.65708,0.09497 -0.52087,-0.306292 -0.80602,-0.897211 -0.72231,-1.496464 0.11568,-0.818008 0.86999,-1.388085 1.68642,-1.274404 z m -2.04328,-12.371141 c 0.59842,0.08381 1.0876,0.520547 1.23947,1.106277 0.15106,0.585671 -0.0639,1.204926 -0.54651,1.569628 -0.48258,0.364697 -1.13629,0.401938 -1.65707,0.09499 -0.52085,-0.306292 -0.80604,-0.897223 -0.72232,-1.49647 0.11562,-0.817339 0.86988,-1.387428 1.68643,-1.274404 z m -16.481601,-0.79792 c 0.08371,-0.599277 0.519795,-1.089162 1.10468,-1.241235 0.584841,-0.151288 1.203211,0.064 1.567391,0.547284 0.36416,0.48329 0.40137,1.137923 0.0955,1.659554 -0.30647,0.521554 -0.8966,0.807085 -1.495002,0.72326 -0.816191,-0.115691 -1.385445,-0.871139 -1.272573,-1.688863 z M 85.875231,26.41435 c -0.598418,-0.08381 -1.087597,-0.520557 -1.2388,-1.106181 -0.151876,-0.585723 0.06393,-1.204929 0.54585,-1.56972 0.482596,-0.364673 1.136289,-0.40194 1.657175,-0.09561 0.520813,0.306894 0.805931,0.897866 0.722231,1.497122 -0.114848,0.817452 -0.869235,1.387526 -1.686449,1.274404 z M 70.340333,24.238408 c -0.598415,-0.08381 -1.087599,-0.520556 -1.2388,-1.106178 -0.151874,-0.585728 0.06388,-1.204932 0.545841,-1.569722 0.482592,-0.364681 1.136293,-0.401938 1.657176,-0.09562 0.52081,0.306897 0.805933,0.897867 0.722234,1.497126 -0.114866,0.817443 -0.869245,1.387517 -1.686451,1.274398 z m -4.066332,18.314026 c -0.598416,-0.08381 -1.087599,-0.520556 -1.238799,-1.106181 -0.151874,-0.585729 0.06399,-1.205609 0.54584,-1.56972 0.482591,-0.364678 1.136297,-0.401939 1.65718,-0.09562 0.520811,0.306893 0.805933,0.897861 0.722232,1.497124 -0.114847,0.817451 -0.869243,1.387515 -1.686454,1.274403 z m -27.587537,58.920576 -4.305188,1.77964 c -0.963333,0.40256 -2.048232,0.39765 -3.00851,-0.0122 -0.981014,-0.4159 -1.752194,-1.21113 -2.139397,-2.20398 -0.396793,-0.99702 -0.387384,-2.110444 0.02563,-3.100523 0.413146,-0.99081 1.196668,-1.779271 2.183865,-2.198111 l 4.30519,-1.779632 6.75e-4,9e-5 c 0.963221,-0.401884 2.04823,-0.397582 3.008512,0.0121 0.980224,0.416509 1.7515,1.211063 2.138598,2.204004 0.396785,0.997001 0.388095,2.110517 -0.02497,3.100617 -0.413146,0.990795 -1.197434,1.779845 -2.184552,2.198025 z m 5.246026,-5.59425 6.69e-4,8.1e-5 c -0.257305,-1.007146 -0.740157,-1.942635 -1.411901,-2.735408 0.726262,-0.354185 1.461707,-0.721196 2.205471,-1.099881 0.197652,1.019701 0.613139,1.98426 1.217806,2.828404 -0.677976,0.346102 -1.348443,0.68175 -2.011475,1.006995 z m 13.871502,-4.212072 -4.131878,2.568014 c -0.908675,0.575409 -2.01373,0.749076 -3.054385,0.480563 -1.07412,-0.28924 -1.980009,-1.011737 -2.502747,-1.994023 -0.55882,-1.027804 -0.710311,-2.228523 -0.422671,-3.362357 0.286994,-1.134581 0.991499,-2.118248 1.971958,-2.754521 l 4.132559,-2.567906 6.72e-4,9.6e-5 c 0.907067,-0.578353 2.013515,-0.752472 3.05429,-0.479912 1.073403,0.289357 1.979435,1.010985 2.502847,1.993359 0.558817,1.027803 0.70957,2.229102 0.421916,3.362943 -0.286997,1.134594 -0.992063,2.11748 -1.972525,2.753753 z m 4.568158,-6.685347 c -0.113785,-0.299164 -0.247532,-0.590364 -0.39944,-0.871955 -0.331217,-0.60344 -0.746233,-1.156561 -1.233121,-1.643542 0.522023,-0.362539 1.044401,-0.732422 1.566963,-1.108376 0.489363,0.883878 1.160332,1.653578 1.968801,2.258397 -0.634536,0.464104 -1.269187,0.919454 -1.903206,1.365419 z m 12.975888,-7.008817 -3.731317,3.142552 6.8e-5,-4.82e-4 c -0.88822,0.732723 -2.023767,1.094983 -3.17149,1.010418 -1.147161,-0.08448 -2.218099,-0.608108 -2.989671,-1.462708 -0.748943,-0.823794 -1.130185,-1.9177 -1.054296,-3.029931 0.0781,-1.099096 0.601567,-2.118309 1.449247,-2.821002 l 3.731314,-3.142558 c 0.888131,-0.732053 2.023581,-1.093658 3.170632,-1.009191 1.147252,0.08382 2.21809,0.608106 2.989762,1.462044 0.749679,0.82324 1.130181,1.917699 1.054393,3.029255 -0.07809,1.099097 -0.601566,2.118309 -1.448683,2.821773 z m 5.659432,-9.310821 c -0.761536,0.833422 -1.533811,1.642441 -2.310675,2.440684 -0.505965,-0.818078 -1.17457,-1.522725 -1.964135,-2.069721 0.743006,-0.753751 1.481925,-1.516829 2.209231,-2.303147 0.268711,-0.289436 0.645793,-0.453092 1.040054,-0.450462 0.394359,0.0019 0.769576,0.169839 1.035176,0.46195 0.49481,0.546066 0.4908,1.379754 -0.0097,1.920669 z m 32.12556,-5.19444 -4.9e-4,-6.8e-5 c 0.59842,0.08382 1.0877,0.519883 1.23954,1.105608 0.1511,0.58567 -0.064,1.205614 -0.5465,1.569632 -0.48265,0.364621 -1.13637,0.402577 -1.65717,0.0956 -0.52082,-0.306898 -0.80603,-0.897214 -0.72233,-1.496469 0.11568,-0.818005 0.86998,-1.388087 1.68645,-1.274393 z"
       id="path844"
       style="fill:#7aa2f7;stroke-width:0.170856"
       sodipodi:nodetypes="ccccccccccccccccccccscccccccccccccccccccccccccccccccccccccccccccccccccccccccccccccccccccccccccccccccccccccccccccccccccccccccccsccccccccccccccsscccccccccccccccccsccccccccccsccccsssccccssccscccsccccsssccccssscsccsscccccccccccccccccccccccccccccccccccccccccccccccccccccccccccccccccccsc" />
  </g>
</svg>
