<?xml version="1.0" encoding="UTF-8" standalone="no"?>
<!-- Created with Inkscape (http://www.inkscape.org/) -->

<svg
   width="512"
   height="513"
   viewBox="0 0 135.46665 135.73123"
   version="1.1"
   id="svg5"
   inkscape:version="1.2.1 (9c6d41e410, 2022-07-14, custom)"
   sodipodi:docname="signal.svg"
   xmlns:inkscape="http://www.inkscape.org/namespaces/inkscape"
   xmlns:sodipodi="http://sodipodi.sourceforge.net/DTD/sodipodi-0.dtd"
   xmlns="http://www.w3.org/2000/svg"
   xmlns:svg="http://www.w3.org/2000/svg">
  <sodipodi:namedview
     id="namedview7"
     pagecolor="#24283b"
     bordercolor="#1a1b26"
     borderopacity="0.24705882"
     inkscape:showpageshadow="true"
     inkscape:pageopacity="0"
     inkscape:pagecheckerboard="false"
     inkscape:deskcolor="#1f2335"
     inkscape:document-units="px"
     showgrid="false"
     shape-rendering="auto"
     borderlayer="true"
     inkscape:zoom="1.3"
     inkscape:cx="280"
     inkscape:cy="384.61538"
     inkscape:window-width="1667"
     inkscape:window-height="1800"
     inkscape:window-x="0"
     inkscape:window-y="0"
     inkscape:window-maximized="1"
     inkscape:current-layer="layer1" />
  <defs
     id="defs2" />
  <g
     inkscape:label="Layer 1"
     inkscape:groupmode="layer"
     id="layer1">
    <path
       d="m 110.13467,41.521599 c -4.61619,6.903284 -8.90467,9.73835 -12.873632,11.123694 1.12862,-3.428317 3.315562,-6.410532 6.246312,-8.51728 2.15042,-1.336175 3.736,-3.413533 4.4575,-5.840706 1.31529,-0.382751 2.37293,-1.364532 2.85121,-2.648461 0.47818,-1.283928 0.32168,-2.718955 -0.42289,-3.86896 -0.74458,-1.150066 -1.98893,-1.880757 -3.35635,-1.970237 -1.36741,-0.08952 -2.69645,0.472009 -3.58401,1.515869 -0.88833,1.043297 -1.23083,2.44514 -0.92431,3.780296 0.30717,1.33508 1.22713,2.447335 2.48124,2.998346 -0.64014,1.51037 -1.73341,2.784479 -3.12944,3.647135 -5.602592,3.816675 -7.440152,9.887355 -7.893572,11.787538 -0.96169,0.197071 -1.903915,0.34906 -2.824693,0.496593 -1.307408,0.209864 -2.579683,0.420193 -3.801767,0.744776 2.226553,-4.532749 4.090938,-9.234543 5.576758,-14.061948 1.658902,-0.621149 7.042852,-3.372278 9.234594,-13.32136 0.0548,-0.0043 0.10851,-0.004 0.16301,-0.01038 1.36073,-0.153134 2.57034,-0.938311 3.26351,-2.119882 0.69324,-1.180991 0.78874,-2.619873 0.25892,-3.882481 -0.53045,-1.262502 -1.62438,-2.201439 -2.95314,-2.534143 -1.32803,-0.332261 -2.73576,-0.01925 -3.797972,0.844937 -1.06224,0.864185 -1.65563,2.178343 -1.60025,3.547082 0.0553,1.368148 0.75191,2.630805 1.88082,3.406661 -1.23056,5.747169 -3.56272,8.662635 -5.33275,10.10145 l -6.5e-4,7.5e-5 c 0.74916,-2.95605 1.33011,-5.95209 1.73998,-8.974 0.10696,-0.79054 -0.44713,-1.51811 -1.23761,-1.624547 -0.79054,-0.107017 -1.518105,0.447139 -1.625198,1.237683 -0.609725,4.445471 -1.596413,8.830769 -2.949762,13.109345 -1.811154,-2.603631 -2.285088,-5.910435 -1.27772,-8.917661 0.343758,-0.954246 0.578108,-1.945198 0.698211,-2.953303 1.227487,-0.60297 2.098587,-1.750701 2.3484,-3.095119 0.250438,-1.345166 -0.148726,-2.729254 -1.077589,-3.733473 -0.928284,-1.004832 -2.276493,-1.511836 -3.637141,-1.368012 -1.360498,0.143899 -2.572918,0.921734 -3.27044,2.098747 -0.697681,1.176326 -0.798611,2.613212 -0.272651,3.876264 0.525893,1.262367 1.617341,2.202258 2.944137,2.535186 -0.109114,0.570777 -0.262116,1.132347 -0.457695,1.679398 -2.277718,6.467578 1.48696,11.586742 2.894528,13.199406 -1.12867,3.131097 -2.420227,6.20115 -3.868816,9.197184 -0.249421,-0.858932 -0.639361,-1.670423 -1.153096,-2.402077 -1.321268,-1.808907 -2.496687,-3.719606 -3.515572,-5.714068 0.727803,-0.378327 1.3312,-0.956995 1.739473,-1.668216 1.768906,-3.039119 0.166495,-8.131645 -0.0217,-8.70297 -0.249371,-0.757691 -1.06611,-1.169277 -1.823732,-0.919275 -0.757043,0.249308 -1.16864,1.066036 -0.919354,1.823075 0.552135,1.68501 1.113224,4.89815 0.267447,6.348021 l 7.7e-5,6.52e-4 c -0.122265,0.216004 -0.299434,0.395536 -0.514076,0.520328 -0.322561,-0.711563 -0.632328,-1.430468 -0.912685,-2.158616 l 7.9e-5,6.51e-4 c -1.242499,-3.190527 -2.036638,-6.53882 -2.358851,-9.947772 1.22851,-0.610884 2.095196,-1.768486 2.33503,-3.120153 0.240659,-1.351161 -0.173541,-2.736182 -1.116527,-3.733449 -0.943071,-0.997935 -2.303117,-1.489321 -3.665884,-1.324972 -1.362735,0.163704 -2.566713,0.963845 -3.246252,2.156925 -0.678963,1.192314 -0.753038,2.636529 -0.198751,3.892291 0.553625,1.255264 1.669895,2.174069 3.008781,2.476527 0.204089,2.086854 0.575998,4.154264 1.111929,6.181245 -5.218566,-1.502139 -6.008607,-4.573123 -6.049582,-4.753293 l 6.55e-4,-7.6e-5 c -0.157622,-0.778055 -0.913157,-1.283059 -1.6925,-1.131122 -0.778724,0.151855 -1.289366,0.903487 -1.142551,1.683442 0.04379,0.232457 1.170237,5.72092 9.864969,7.409016 l 0.0036,4.28e-4 c 0.145313,0.414108 0.28857,0.827137 0.452447,1.250103 0.471684,1.225813 1.004553,2.441878 1.585134,3.616195 0.873713,1.760741 1.645896,3.155638 2.335796,4.302798 l -5.73e-4,7.28e-4 c -1.546203,-0.776197 -2.828499,-1.99051 -3.687774,-3.492078 -1.34619,-1.996083 -2.872508,-4.258895 -8.195735,-5.727979 -4.6569,-1.286105 -6.267608,-4.927246 -6.780682,-7.933615 l 7.4e-5,6.37e-4 c 1.232232,-0.606763 2.103865,-1.761053 2.349085,-3.112143 0.245862,-1.351119 -0.164091,-2.738609 -1.103677,-3.740089 -0.940149,-1.000867 -2.298854,-1.496956 -3.662641,-1.337145 -1.363895,0.159313 -2.570883,0.956537 -3.253847,2.147334 -0.682952,1.191475 -0.760923,2.636095 -0.209643,3.893552 0.551347,1.258125 1.665995,2.179675 3.004591,2.484821 0.704003,4.155715 3.051602,8.767996 8.888509,10.380267 l 6.52e-4,-7.4e-5 c 0.66076,0.179745 1.311462,0.396472 1.948114,0.64916 -1.252189,1.000418 -3.172259,2.219128 -4.929242,2.340751 -0.15844,-1.362049 -0.95175,-2.568779 -2.139639,-3.254732 -1.187305,-0.686017 -2.62935,-0.770143 -3.88843,-0.227091 -1.259008,0.543672 -2.187342,1.650003 -2.50325,2.984631 -0.315989,1.333934 0.01685,2.739381 0.899157,3.789862 0.881654,1.050473 2.208148,1.621768 3.577335,1.541577 1.369109,-0.08071 2.619059,-0.803118 3.372141,-1.949475 0.399512,0.02574 0.800719,0.01563 1.197918,-0.02909 3.119316,-0.361349 5.976818,-2.681579 7.062232,-3.663938 l 7.4e-5,6.49e-4 c 0.767644,0.693751 1.432128,1.494223 1.972524,2.377261 1.34619,1.996084 2.872427,4.258241 8.195072,5.728059 0.138507,0.03589 0.281826,0.0517 0.425164,0.04551 0.600696,1.48799 0.842245,3.096832 0.705535,4.695502 -0.928267,1.729354 -1.795869,3.259552 -2.534476,4.559446 -0.268548,0.471764 -0.51859,0.912836 -0.752716,1.328719 l -7.7e-5,-6.53e-4 c -0.888535,-0.174188 -1.80915,-0.05909 -2.627294,0.329021 -0.818282,0.387459 -1.490402,1.028019 -1.918416,1.825879 -0.663119,1.233953 -1.354925,2.43293 -2.058085,3.617733 -2.123474,0.151877 -4.069558,1.239829 -5.312076,2.96858 l -2.727722,3.843826 c -1.076273,1.499237 -1.493288,3.373202 -1.153874,5.187358 0.0558,0.28558 0.128668,0.567236 0.220368,0.843479 -0.870748,1.071767 -1.748668,2.115191 -2.634412,3.130246 -0.12147,-0.0066 -0.241713,-0.01941 -0.364391,-0.01946 -1.832565,-0.0045 -3.584351,0.75139 -4.838521,2.086928 l -3.243346,3.403974 -6.48e-4,7.5e-5 c -1.29455,1.3798 -1.99675,3.212068 -1.955985,5.104341 -1.384974,1.254622 -2.750368,2.4434 -4.078186,3.551853 l 6.47e-4,-7.1e-5 c -1.721321,-0.225664 -3.461715,0.235541 -4.84595,1.283085 l -3.596262,2.70951 c -1.380135,1.04446 -2.306444,2.57823 -2.589414,4.28602 -4.11087,2.75486 -6.766236,4.16964 -6.851902,4.21461 -0.710047,0.36334 -0.990942,1.23302 -0.627685,1.94316 0.363623,0.71016 1.233661,0.99085 1.943149,0.62762 0.07963,-0.0412 2.280571,-1.21504 5.773157,-3.49317 0.222555,0.68877 0.554084,1.33763 0.980776,1.92296 0.159957,0.21581 0.332429,0.42163 0.516777,0.61767 -3.58776,2.3126 -5.851649,3.49246 -5.934482,3.53463 -0.342568,0.17366 -0.60227,0.47607 -0.721613,0.84096 -0.119243,0.36558 -0.08812,0.76304 0.08653,1.1056 0.175378,0.34177 0.479087,0.60061 0.845065,0.71788 0.365981,0.11728 0.763241,0.0842 1.104919,-0.0923 0.09314,-0.0477 2.889287,-1.50572 7.226528,-4.36964 0.980436,0.35692 2.030007,0.48136 3.066355,0.3632 1.173692,-0.13735 2.289352,-0.58578 3.230828,-1.29907 l 3.596254,-2.70952 c 1.79442,-1.36177 2.799465,-3.52119 2.686761,-5.77048 1.150814,-0.9679 2.322698,-1.98897 3.515929,-3.06175 1.139653,0.28593 2.335447,0.26099 3.463312,-0.0708 1.127792,-0.33184 2.146013,-0.95988 2.948741,-1.81805 l 3.242686,-3.403892 6.55e-4,-7.9e-5 7.03e-4,3.97e-4 c 1.598377,-1.714864 2.279081,-4.091131 1.830248,-6.392372 1.166842,-1.344873 2.322344,-2.737722 3.467019,-4.17802 0.09842,-0.0076 0.198008,-0.0106 0.295994,-0.02194 l 6.51e-4,-7.3e-5 c 2.018482,-0.223491 3.847307,-1.293915 5.029807,-2.94513 l 2.727766,-3.843177 -7.1e-5,-6.51e-4 c 1.076985,-1.498665 1.494015,-3.372619 1.153948,-5.186703 -0.06653,-0.34469 -0.160325,-0.683639 -0.279123,-1.014485 0.806274,-1.370613 1.598513,-2.7617 2.355928,-4.194686 0.393805,-0.740688 0.559332,-1.580834 0.474335,-2.415321 -0.08432,-0.834561 -0.415304,-1.624273 -0.949636,-2.270472 0.242595,-0.432425 0.505005,-0.895696 0.787103,-1.390449 0.795731,-1.399894 1.738038,-3.064614 2.744868,-4.950493 1.718759,-1.10121 3.841188,-1.45285 6.276282,-1.843326 l 5.75e-4,-7.28e-4 c 3.026577,-0.361615 5.984277,-1.165705 8.776819,-2.38739 0.17301,-0.01942 0.34106,-0.07001 0.49601,-0.14962 1.75126,-0.916768 3.20542,-1.098189 4.32802,-0.53902 0.1565,0.07923 0.30538,0.170994 0.4465,0.27475 -0.9692,0.950129 -1.43722,2.299746 -1.26319,3.645601 0.17345,1.346042 0.9683,2.53247 2.14702,3.205201 1.1787,0.672733 2.60409,0.754253 3.85184,0.219649 1.24702,-0.535136 2.17164,-1.623525 2.49658,-2.941663 0.32504,-1.317452 0.0137,-2.711175 -0.84171,-3.764606 -0.85482,-1.054231 -2.15506,-1.64537 -3.51133,-1.598571 -0.56027,-0.668462 -1.24838,-1.218906 -2.02416,-1.618323 -0.22511,-0.111526 -0.45704,-0.208598 -0.69436,-0.290796 2.57928,-2.285321 4.836,-4.911101 6.7073,-7.804912 0.4437,-0.662767 0.26581,-1.559811 -0.39693,-2.003539 -0.66333,-0.44299 -1.55974,-0.265177 -2.00346,0.397566 z m -3.54922,-8.822662 c 0.58021,-0.06722 1.14392,0.221842 1.42822,0.732098 0.28354,0.510406 0.23278,1.14121 -0.13016,1.599268 -0.36301,0.457413 -0.96546,0.65181 -1.52723,0.491672 -0.56168,-0.159482 -0.97194,-0.642191 -1.03915,-1.222376 -0.0904,-0.792328 0.47687,-1.508331 1.2683,-1.600663 z m -4.91561,-11.060469 c 0.58022,-0.06722 1.14392,0.221832 1.42822,0.732102 0.28355,0.510408 0.2328,1.141202 -0.13017,1.599263 -0.36293,0.45806 -0.96546,0.651811 -1.52722,0.491676 -0.56167,-0.159486 -0.97196,-0.642196 -1.03915,-1.222379 -0.0903,-0.791688 0.47693,-1.507692 1.2683,-1.600663 z m -15.613189,3.262403 c -0.06722,-0.580206 0.221831,-1.143914 0.732099,-1.428211 0.5104,-0.283548 1.141202,-0.2328 1.599265,0.13014 0.458051,0.362944 0.651812,0.965469 0.492314,1.527164 -0.16006,0.561767 -0.642823,0.972016 -1.223019,1.03922 -0.791674,0.09039 -1.507692,-0.476934 -1.600659,-1.268313 z m -12.026973,2.846968 c -0.580208,0.06721 -1.143911,-0.221841 -1.427574,-0.732173 -0.284315,-0.510262 -0.23278,-1.14121 0.129507,-1.599195 0.362947,-0.458038 0.965463,-0.651812 1.527161,-0.49231 0.561771,0.16006 0.972016,0.642823 1.039222,1.223013 0.09105,0.791606 -0.476293,1.507623 -1.268311,1.600665 z m -15.062126,1.744827 c -0.580205,0.06721 -1.143912,-0.221841 -1.427572,-0.732172 -0.284315,-0.510265 -0.232804,-1.141208 0.129497,-1.599195 0.362938,-0.458043 0.965465,-0.65181 1.527161,-0.49231 0.561768,0.160062 0.972017,0.642825 1.039225,1.223016 0.09103,0.791601 -0.476304,1.507617 -1.268314,1.600661 z m 0.642782,18.098096 c -0.580203,0.06721 -1.143911,-0.221842 -1.427571,-0.732174 -0.284315,-0.510266 -0.232881,-1.141863 0.129495,-1.599192 0.36294,-0.458043 0.96547,-0.651813 1.527165,-0.492315 0.561769,0.16006 0.972015,0.642822 1.039224,1.223015 0.09105,0.791605 -0.476304,1.507617 -1.268315,1.600666 z m -11.502413,61.753118 -3.595609,2.70945 c -0.803496,0.61034 -1.819672,0.86957 -2.817552,0.72033 -1.018779,-0.14998 -1.933364,-0.70538 -2.536698,-1.53875 -0.613321,-0.83495 -0.874882,-1.87741 -0.728905,-2.90279 0.145928,-1.02611 0.687499,-1.95323 1.509374,-2.58458 l 3.595612,-2.70944 6.53e-4,-8e-5 c 0.803562,-0.60967 1.819689,-0.86951 2.817554,-0.72033 1.018193,0.15075 1.932699,0.70549 2.53596,1.53898 0.613309,0.83493 0.875568,1.87731 0.729545,2.90272 -0.145936,1.02607 -0.688079,1.95394 -1.510044,2.58464 z m 3.549537,-6.50192 6.45e-4,-9e-5 c -0.485279,-0.87833 -1.164173,-1.63486 -1.98513,-2.21214 0.593454,-0.50749 1.192384,-1.02919 1.796266,-1.563836 0.432521,0.904567 1.055447,1.704636 1.826124,2.346216 -0.550245,0.48819 -1.095997,0.96481 -1.637326,1.42988 z m 11.954772,-7.308141 -3.242028,3.403829 c -0.710393,0.75853 -1.702067,1.189472 -2.740855,1.191692 -1.075132,-0.009 -2.098082,-0.463699 -2.825654,-1.254258 -0.772381,-0.824299 -1.20567,-1.909197 -1.211889,-3.038395 -0.007,-1.129737 0.413244,-2.220006 1.176014,-3.052847 l 3.242693,-3.403895 6.53e-4,-7.3e-5 c 0.708173,-0.760881 1.701037,-1.1926 2.740924,-1.191057 1.074491,0.0093 2.09736,0.463141 2.825584,1.253613 0.77238,0.824306 1.20512,1.909921 1.211326,3.039127 0.007,1.129746 -0.413958,2.219424 -1.176732,3.052264 z m 2.650411,-7.356413 C 66.083543,87.92559 65.887706,87.68607 65.677211,87.459942 65.22081,86.97674 64.698229,86.560923 64.124469,86.224376 c 0.400348,-0.465632 0.799246,-0.938209 1.196841,-1.416503 0.672452,0.706735 1.487081,1.262642 2.390313,1.631078 -0.480948,0.587875 -0.964131,1.167599 -1.449001,1.738402 z M 76.7004,78.474293 73.972631,82.317466 73.972578,82.317 c -0.653057,0.900511 -1.627459,1.515072 -2.721752,1.715164 -1.093747,0.200028 -2.222816,-0.02873 -3.152182,-0.639489 -0.900713,-0.587482 -1.523012,-1.51672 -1.722088,-2.574241 -0.193828,-1.045784 0.04843,-2.125244 0.670847,-2.987844 l 2.727768,-3.843176 c 0.653135,-0.899866 1.627606,-1.513791 2.721245,-1.713811 1.09367,-0.200672 2.222808,0.02873 3.152105,0.638847 0.901268,0.586785 1.523009,1.516721 1.722017,2.573586 0.193827,1.045785 -0.04843,2.125243 -0.670134,2.988427 z m 3.033834,-10.074539 c -0.510084,0.96378 -1.036143,1.907375 -1.56911,2.842019 -0.672006,-0.641227 -1.468627,-1.136935 -2.340131,-1.455951 0.512094,-0.884844 1.018101,-1.77741 1.5076,-2.68886 0.181113,-0.33574 0.494154,-0.580323 0.863648,-0.673741 0.369419,-0.09406 0.761218,-0.02847 1.080634,0.179838 0.595519,0.389822 0.794205,1.169642 0.457339,1.796673 z m 28.793916,-12.664724 -4.8e-4,5.8e-5 c 0.58022,-0.06721 1.14384,0.221189 1.42814,0.731454 0.28356,0.510404 0.23289,1.141865 -0.13017,1.599271 -0.363,0.458001 -0.96539,0.65243 -1.52716,0.492307 -0.56178,-0.16006 -0.97193,-0.642194 -1.03915,-1.222377 -0.0904,-0.792326 0.47686,-1.50833 1.26831,-1.600657 z"
       id="path844"
       style="fill:#7aa2f7;stroke-width:0.165038" />
  </g>
</svg>
