<?xml version="1.0" encoding="UTF-8" standalone="no"?>
<!-- Created with Inkscape (http://www.inkscape.org/) -->

<svg
   width="512"
   height="513"
   viewBox="0 0 135.46665 135.73123"
   version="1.1"
   id="svg5"
   inkscape:version="1.2.1 (9c6d41e410, 2022-07-14, custom)"
   sodipodi:docname="brctl.svg"
   xmlns:inkscape="http://www.inkscape.org/namespaces/inkscape"
   xmlns:sodipodi="http://sodipodi.sourceforge.net/DTD/sodipodi-0.dtd"
   xmlns:xlink="http://www.w3.org/1999/xlink"
   xmlns="http://www.w3.org/2000/svg"
   xmlns:svg="http://www.w3.org/2000/svg">
  <sodipodi:namedview
     id="namedview7"
     pagecolor="#24283b"
     bordercolor="#1a1b26"
     borderopacity="0.24705882"
     inkscape:showpageshadow="true"
     inkscape:pageopacity="0"
     inkscape:pagecheckerboard="false"
     inkscape:deskcolor="#1f2335"
     inkscape:document-units="px"
     showgrid="false"
     shape-rendering="auto"
     borderlayer="true"
     inkscape:zoom="1.3"
     inkscape:cx="360.76923"
     inkscape:cy="279.61538"
     inkscape:window-width="1667"
     inkscape:window-height="885"
     inkscape:window-x="0"
     inkscape:window-y="0"
     inkscape:window-maximized="1"
     inkscape:current-layer="g3135"
     showguides="true" />
  <defs
     id="defs2">
    <linearGradient
       inkscape:collect="always"
       id="10-J">
      <stop
         style="stop-color:#5784d5;stop-opacity:1;"
         offset="0"
         id="stop3147" />
      <stop
         style="stop-color:#7aa2f7;stop-opacity:1;"
         offset="0.59122026"
         id="stop3157" />
      <stop
         style="stop-color:#a0e4ff;stop-opacity:1;"
         offset="0.9180153"
         id="stop3155" />
      <stop
         style="stop-color:#bdeaff;stop-opacity:1;"
         offset="1"
         id="stop3149" />
    </linearGradient>
    <inkscape:path-effect
       effect="fillet_chamfer"
       id="path-effect3060"
       is_visible="true"
       lpeversion="1"
       nodesatellites_param="F,1,0,1,0,0.27,0,1 @ F,1,0,1,0,0.27,0,1 @ F,1,0,1,0,0.27,0,1 @ F,1,0,1,0,0.27,0,1 @ F,1,0,1,0,0.27,0,1 @ F,1,0,1,0,0.27,0,1 @ F,1,0,1,0,0.27,0,1 @ F,1,0,1,0,0.27,0,1 @ F,1,0,1,0,0.27,0,1 @ F,1,0,1,0,0.27,0,1"
       unit="px"
       method="arc"
       mode="F"
       radius="27"
       chamfer_steps="1"
       flexible="true"
       use_knot_distance="true"
       apply_no_radius="true"
       apply_with_radius="true"
       only_selected="false"
       hide_knots="false" />
    <radialGradient
       inkscape:collect="always"
       xlink:href="#10-j"
       id="radialGradient1220"
       cx="349.4595"
       cy="378.58478"
       fx="349.4595"
       fy="378.58478"
       r="148.19897"
       gradientTransform="matrix(0.25152104,-1.0898176,1.0514963,0.24267675,-127.11382,663.87146)"
       gradientUnits="userSpaceOnUse" />
    <radialGradient
       inkscape:collect="always"
       xlink:href="#10-J"
       id="radialGradient2121"
       cx="285.46323"
       cy="303.11896"
       fx="285.46323"
       fy="303.11896"
       r="145.1488"
       gradientTransform="matrix(1.642908,-1.8465789,1.7021894,1.5144445,-682.32606,448.41579)"
       gradientUnits="userSpaceOnUse" />
    <radialGradient
       inkscape:collect="always"
       xlink:href="#10-J"
       id="radialGradient3153"
       cx="327.45947"
       cy="368.38977"
       fx="327.45947"
       fy="368.38977"
       r="147.56943"
       gradientTransform="matrix(0,-1.2538018,1.0401761,0,-26.621525,788.09828)"
       gradientUnits="userSpaceOnUse" />
    <radialGradient
       inkscape:collect="always"
       xlink:href="#10-J"
       id="radialGradient4909"
       gradientUnits="userSpaceOnUse"
       gradientTransform="matrix(0,-1.2538018,1.0401761,0,-26.621525,788.09828)"
       cx="327.45947"
       cy="368.38977"
       fx="327.45947"
       fy="368.38977"
       r="147.56943" />
    <radialGradient
       inkscape:collect="always"
       xlink:href="#10-J"
       id="radialGradient8281"
       gradientUnits="userSpaceOnUse"
       gradientTransform="matrix(0,-1.2538018,1.0401761,0,-27.448949,787.30182)"
       cx="327.45947"
       cy="368.38977"
       fx="327.45947"
       fy="368.38977"
       r="147.56943" />
    <radialGradient
       inkscape:collect="always"
       xlink:href="#10-J"
       id="radialGradient18374"
       cx="367.56183"
       cy="330.53119"
       fx="367.56183"
       fy="330.53119"
       r="32.125042"
       gradientTransform="matrix(2.827559,-1.9664795,1.9065107,2.7413321,-1301.6932,144.18089)"
       gradientUnits="userSpaceOnUse" />
  </defs>
  <g
     inkscape:label="Layer 1"
     inkscape:groupmode="layer"
     id="layer1">
    <g
       id="g989"
       transform="matrix(0.35277772,0,0,0.35277772,-55.725136,-48.948962)">
      <g
         id="g751"
         transform="translate(-8.3106461,-6.5051286)">
        <g
           id="g1114"
           transform="translate(2.12722,-4.304215)">
          <g
             id="g1262"
             transform="translate(5.349265)">
            <g
               id="g1571"
               transform="translate(8.8184793,-3.7064596)">
              <g
                 id="g444"
                 style="fill:url(#radialGradient1220);fill-opacity:1">
                <g
                   id="g6508"
                   transform="matrix(0.15638,-0.03184567,0.03184567,0.15638,172.6012,249.20042)"
                   style="fill:url(#radialGradient2121);fill-opacity:1.0">
                  <g
                     id="g6559"
                     transform="translate(4.1432259,0.74286056)"
                     style="fill:url(#radialGradient2121);fill-opacity:1.0">
                    <path
                       d="m 148.18386,199.24377 c -3.1016,43.734 13.324,86.027 45.062,116.04 24.012,22.707 37.234,52.32 37.234,83.391 v 7.0352 c 0,26.137 23.40128,48.94496 40.09,56.676 16.68872,7.73104 30.29883,4.89684 44.77,-0.008 14.47117,-4.90484 40.09,-30.543 40.09,-56.676 v -5.0195 c 0,-32.555 12.98,-63.133 35.621,-83.898 29.902,-27.422 47.059,-66.41 47.059,-106.96 0,-83.137 -70.184,-150.119997 -154.51,-144.859997 -72.086,4.5352 -130.3,62.261997 -135.42,134.279997 z m 107.98,232.65 c -3.5781,-4.7109 -6.2148,-10.152 -7.6367,-16.082 l 90.352,-23.066 c -0.15234,2.6367 -0.24609,5.2812 -0.24609,7.9414 v 5.0195 c 0,1.7734 -0.14062,3.5117 -0.34766,5.2305 z m 83.762,-49.816 -92.637,23.648 v -0.0234 -7.0352 c 0,-6.8203 -0.55859,-13.578 -1.6406,-20.227 h 94.82 c -0.20312,1.2031 -0.38281,2.4219 -0.54297,3.6367 z m -44.699,67.031 h -4.5352 c -9.8711,0 -18.949,-3.3477 -26.254,-8.9219 l 70.965,-18.117 c -6.4766,15.84 -22.035,27.039 -40.176,27.039 z m -2.2695,-367.639997 c 70.773,0 128.35,57.577997 128.35,128.349997 0,35.852 -15.164,70.332 -41.613,94.586 -17.383,15.949 -29.793,36.855 -36.164,60.039 l -101.01,-0.004 c -6.4414,-22.824 -19.281,-43.922 -37.734,-61.363 -28.066,-26.539 -42.59,-63.945 -39.844,-102.64 4.5195,-63.668 55.984,-114.699997 119.71,-118.699997 2.7891,-0.17188 5.5547,-0.26172 8.3047,-0.26172 z"
                       id="path6244"
                       style="fill:url(#radialGradient2121);fill-opacity:1.0"
                       sodipodi:nodetypes="cssszzsscsccccccsscccccscccccscccccscccccccc" />
                    <path
                       d="m 232.13386,230.55377 -0.96875,35.211 c -0.16406,5.8359 1.9805,11.344 6.0352,15.512 5.75,5.918 14.758,8.0547 22.562,5.2695 l 33.199,-11.797 33.195,11.801 c 2.3359,0.82812 4.7539,1.2539 7.2031,1.2539 5.7305,0 11.328,-2.3789 15.359,-6.5234 4.0547,-4.168 6.1992,-9.6758 6.0352,-15.512 l -0.96875,-35.211 21.48,-27.922 c 4.3125,-5.6055 5.582,-12.957 3.3984,-19.684 -2.1836,-6.7266 -7.5391,-11.938 -14.324,-13.945 l -33.785,-9.9609 -19.914,-29.059 c -4,-5.8281 -10.605,-9.3125 -17.68,-9.3125 -7.075,0 -13.68,3.4844 -17.68,9.3125 l -19.914,29.059 -33.797,9.957 c -6.7812,2.0039 -12.137,7.2188 -14.32,13.945 -2.1836,6.7188 -0.91406,14.078 3.3984,19.684 z m -11.562,-43.285 c 0.76562,-2.3672 2.5742,-4.1289 4.9688,-4.832 l 38.566,-11.367 22.73,-33.164 c 2.8125,-4.1094 9.4453,-4.1094 12.254,0 l 22.73,33.164 38.566,11.367 c 2.3906,0.70703 4.1992,2.4648 4.9688,4.832 0.76562,2.3633 0.33984,4.8477 -1.1758,6.8281 l -24.516,31.863 1.1016,40.191 c 0.0547,2.0273 -0.68359,3.9297 -2.0781,5.3633 -2.0117,2.0703 -5.0898,2.8242 -7.8359,1.8438 l -37.891,-13.473 -37.883,13.473 c -2.7656,0.98047 -5.8281,0.23047 -7.8398,-1.8438 -1.3984,-1.4336 -2.1328,-3.3359 -2.0781,-5.3633 l 1.1016,-40.191 -24.516,-31.871 c -1.5195,-1.9688 -1.9453,-4.457 -1.1758,-6.8203 z"
                       id="path6260"
                       style="fill:url(#radialGradient2121);fill-opacity:1.0" />
                    <path
                       d="m 337.36386,113.94377 c 3.1133,1.3711 6.1875,2.9805 9.1406,4.7812 0.91406,0.55469 1.9141,0.81641 2.9062,0.81641 1.8867,0 3.7344,-0.95703 4.7891,-2.6875 1.6055,-2.6445 0.76562,-6.0859 -1.8711,-7.6953 -3.3711,-2.0508 -6.8828,-3.8789 -10.438,-5.4609 -2.8398,-1.25 -6.1367,0.0273 -7.3867,2.8633 -1.25,2.8359 0.0312,6.1289 2.8594,7.3828 z"
                       id="path6262"
                       style="fill:url(#radialGradient2121);fill-opacity:1.0" />
                    <path
                       d="m 378.34386,150.09377 c 1.0547,1.7539 2.9062,2.7148 4.8047,2.7148 0.98047,0 1.9766,-0.25781 2.8789,-0.80078 2.6562,-1.5898 3.5117,-5.0273 1.9219,-7.6836 -5.0781,-8.4688 -15.031,-19.02 -22.121,-25.246 -2.3242,-2.0312 -5.8633,-1.8047 -7.9023,0.51953 -2.0391,2.3242 -1.8086,5.8633 0.51562,7.9023 6.6602,5.8555 15.637,15.492 19.902,22.594 z"
                       id="path6264"
                       style="fill:url(#radialGradient2121);fill-opacity:1.0" />
                  </g>
                </g>
                <g
                   id="g3135"
                   style="fill-opacity:1;fill:url(#radialGradient3153)">
                  <path
                     d="m 355.54274,257.31904 c -2.21892,0 -4.04051,-1.79994 -4.01883,-4.0188 l 0.26141,-26.75926 c 0.0217,-2.21883 1.79984,-4.01884 4.01883,-4.01884 2.219,0 4.04053,1.79994 4.01885,4.01884 l -0.26141,26.75926 c -0.0217,2.21877 -1.79985,4.0188 -4.01885,4.0188 z"
                     id="path3631"
                     style="fill:url(#radialGradient3153);fill-opacity:1;stroke-width:0.734865"
                     sodipodi:nodetypes="sssssss" />
                  <path
                     d="m 480.25586,336.55156 c -0.29303,2.19947 -2.3004,3.60123 -4.5144,3.45278 l -31.13079,-2.08722 c -2.1995,-0.29304 -3.7459,-2.31489 -3.45281,-4.51445 0.29315,-2.19955 2.31489,-3.7459 4.51445,-3.45282 l 31.1308,2.08724 c 2.19944,0.29304 3.74585,2.3149 3.45275,4.51447 z"
                     id="path3631-1-2"
                     style="fill:url(#radialGradient3153);fill-opacity:1;stroke-width:0.734865"
                     sodipodi:nodetypes="sscsccs" />
                  <path
                     d="m 416.99958,282.7895 c -1.02762,0 -2.05821,-0.39326 -2.84187,-1.17694 -1.57019,-1.57021 -1.57019,-4.11358 0,-5.68375 l 29.22848,-26.68037 c 1.56733,-1.57017 4.11357,-1.57017 5.68376,0 1.57019,1.57017 1.57019,4.11358 0,5.68375 l -29.22848,26.68037 c -0.78367,0.78364 -1.81131,1.17694 -2.84189,1.17694 z"
                     id="path3633"
                     style="fill:url(#radialGradient3153);fill-opacity:1;stroke-width:0.734865"
                     sodipodi:nodetypes="ssccsccs" />
                  <path
                     d="m 296.77739,276.79781 c -1.02763,0 -2.05821,-0.39326 -2.84187,-1.17695 L 277.20236,257.8781 c -1.57019,-1.57017 -1.57019,-4.11358 0,-5.68375 1.57019,-1.57017 4.11356,-1.57017 5.68375,0 l 16.73316,17.74277 c 1.57018,1.57016 1.57018,4.11353 0,5.68374 -0.78653,0.78365 -1.81424,1.17695 -2.84188,1.17695 z"
                     id="path3639"
                     style="fill:url(#radialGradient3153);fill-opacity:1;stroke-width:0.734865"
                     sodipodi:nodetypes="sccscccs" />
                  <path
                     d="m 387.69314,263.46252 c -0.49374,0 -0.99612,-0.0919 -1.48407,-0.28416 -2.06108,-0.821 -3.06865,-3.15766 -2.25052,-5.21875 l 15.85694,-39.90397 c 0.81812,-2.06104 3.15191,-3.06863 5.21872,-2.25052 2.06108,0.821 3.06865,3.15478 2.25052,5.21875 l -15.85694,39.90396 c -0.62291,1.57589 -2.13566,2.53469 -3.73458,2.53469 z"
                     id="path3641"
                     style="fill:url(#radialGradient3153);fill-opacity:1;stroke-width:0.734865" />
                  <path
                     d="m 435.35654,309.8693 c -1.55585,0 -3.03705,-0.90997 -3.69153,-2.42851 -0.87839,-2.03806 0.0603,-4.40347 2.09841,-5.28185 l 23.98764,-10.39252 c 2.0352,-0.8755 4.40346,0.0603 5.28185,2.0984 0.87837,2.0381 -0.0603,4.40347 -2.09841,5.28185 l -23.98764,10.39255 c -0.51957,0.22391 -1.05924,0.33012 -1.59032,0.33012 z"
                     id="path3643"
                     style="fill:url(#radialGradient3153);fill-opacity:1;stroke-width:0.734865"
                     sodipodi:nodetypes="ssccsccss" />
                  <path
                     d="m 431.97587,373.84218 c -0.48235,-1.47919 -0.0765,-3.16953 1.16438,-4.26255 1.66531,-1.46694 4.20519,-1.30786 5.67216,0.35752 l 18.39664,14.12812 c 1.46333,1.6635 1.30788,4.20519 -0.35749,5.67217 -1.66535,1.46696 -4.20519,1.30787 -5.67214,-0.3575 l -18.39668,-14.12813 c -0.37397,-0.42455 -0.64228,-0.90469 -0.80691,-1.40961 z"
                     id="path3643-5"
                     style="fill:url(#radialGradient3153);fill-opacity:1;stroke-width:0.734865"
                     sodipodi:nodetypes="ssccsccss" />
                  <path
                     d="m 321.15837,264.44724 c -1.55586,0 -3.03706,-0.90997 -3.69153,-2.42851 L 300.45322,222.5601 c -0.87838,-2.03805 0.0603,-4.40347 2.09841,-5.28185 2.03809,-0.87838 4.40347,0.0603 5.28186,2.0984 l 17.01361,39.45863 c 0.87838,2.03809 -0.0603,4.40346 -2.0984,5.28189 -0.51958,0.22386 -1.05925,0.33011 -1.59033,0.33011 z"
                     id="path3649"
                     style="fill:url(#radialGradient3153);fill-opacity:1;stroke-width:0.734865" />
                  <path
                     d="m 454.06622,349.69249 c -4.6507,0 -8.44165,3.70506 -8.44165,8.25023 0,4.54518 3.79095,8.25022 8.44165,8.25022 4.65072,0 8.44165,-3.70504 8.44165,-8.25022 0,-4.54517 -3.79093,-8.25023 -8.44165,-8.25023 z m 0.016,4.30043 c 2.26478,10e-6 4.10073,1.83596 4.10074,4.10072 -10e-6,2.26478 -1.83596,4.10073 -4.10074,4.10075 -2.26476,-2e-5 -4.10071,-1.83597 -4.10073,-4.10075 2e-5,-2.26476 1.83597,-4.10071 4.10073,-4.10072 z"
                     style="fill:url(#radialGradient3153);fill-opacity:1;stroke-width:0.768034"
                     id="path4755"
                     sodipodi:nodetypes="ssssssssss" />
                  <path
                     d="m 297.2243,412.48388 h -2.95381 c -1.08311,0 -1.96961,0.8662 -1.96961,1.92473 0,1.05853 0.88644,1.92414 1.96961,1.92414 h 2.95381 3.93861 2.95381 c 1.08311,0 1.96902,-0.86555 1.96902,-1.92414 0,-1.05853 -0.88585,-1.92473 -1.96902,-1.92473 h -2.95381 z"
                     style="fill:url(#radialGradient3153);fill-opacity:1;stroke-width:0.492739"
                     id="path5116-61"
                     sodipodi:nodetypes="asssaasssaa" />
                  <path
                     d="m 276.6714,367.77871 c -0.99683,0 -2.99048,0 -2.99048,0 -1.09656,0 -1.99407,0.87695 -1.99407,1.94863 0,1.07168 0.89745,1.94804 1.99407,1.94804 0,0 1.99365,0 2.99048,0 1.32917,0 2.65835,0 3.98753,0 0.99682,0 2.99049,0 2.99049,0 1.09655,0 1.99345,-0.87631 1.99345,-1.94804 0,-1.07168 -0.89684,-1.94863 -1.99345,-1.94863 0,0 -1.99367,0 -2.99049,0 -1.32918,0 -2.65836,0 -3.98753,0 z"
                     style="fill:url(#radialGradient3153);fill-opacity:1;stroke-width:0.498858"
                     id="path5116-6"
                     sodipodi:nodetypes="asssaasssaa" />
                  <path
                     d="m 410.71362,388.00905 h -3.06286 c -1.1231,0 -2.04234,0.89818 -2.04234,1.9958 0,1.09761 0.91917,1.99519 2.04234,1.99519 h 3.06286 c -0.53869,6.29435 4.08406,7.43847 4.08406,0 h 3.06287 c 1.12311,0 2.04172,-0.89752 2.04172,-1.99519 0,-1.09762 -0.91856,-1.9958 -2.04172,-1.9958 h -3.06287 c 0.53825,-6.29327 -4.08406,-7.43792 -4.08406,0 z"
                     style="fill:url(#radialGradient3153);fill-opacity:1;stroke-width:0.510931"
                     id="path5116-0-8"
                     sodipodi:nodetypes="csssccssscc" />
                  <path
                     id="path626"
                     style="fill:url(#radialGradient4909);fill-opacity:1;stroke-width:0.431277"
                     d="m 354.07194,266.87611 c -0.38552,0.003 -0.77076,0.009 -1.15576,0.0176 -13.55212,0.31297 -26.77106,4.28291 -38.4375,11.71728 -17.02917,10.76715 -28.58456,27.36166 -32.54151,46.72413 0,0.0233 -0.0498,0.21547 -0.0498,0.23877 -2.41991,12.05771 5.78961,23.82824 18.34716,26.28808 l 8.79493,1.71826 -4.39746,21.53614 c -1.09892,5.4194 -4.29829,10.07622 -8.98975,13.13232 -4.68975,3.05611 -10.33426,4.12987 -15.85547,3.05567 -5.54521,-1.07398 -10.30997,-4.20111 -13.43701,-8.78614 -3.12708,-4.58331 -4.22658,-10.10063 -3.12744,-15.49658 l 3.98291,-19.41064 c 1.53875,-7.52133 -1.1e-4,-15.16085 -4.34912,-21.53614 -4.34903,-6.37527 -10.96909,-10.72023 -18.66504,-12.22412 -2.6379,-0.50131 -5.20392,1.17041 -5.74073,3.74854 -0.5366,2.57802 1.19699,5.08718 3.83496,5.61181 5.10548,1.0045 9.52784,3.89138 12.43506,8.1416 2.90726,4.24991 3.9336,9.33484 2.90772,14.34961 l -3.98291,19.41065 c -1.6124,7.9029 0.0234,15.95141 4.59228,22.65967 4.56845,6.70869 11.55614,11.29314 19.64209,12.86865 2.05188,0.40469 4.10396,0.59619 6.13184,0.59619 6.03469,0 11.94593,-1.74341 17.07715,-5.08593 6.86444,-4.46479 11.55539,-11.2943 13.16748,-19.19678 l 4.396,-21.53614 11.75244,2.29248 c -4.1785,7.32991 -4.69134,16.18865 -1.0752,24.23438 1.7348,3.86874 2.05129,7.97479 0.95215,11.91358 -0.70891,2.55461 0.80629,5.18119 3.42041,5.87402 0.43971,0.11825 0.85527,0.16699 1.29492,0.16699 2.15078,0 4.12911,-1.38466 4.71534,-3.50976 1.68537,-6.06407 1.19658,-12.3678 -1.44141,-18.26514 -2.80995,-6.25548 -1.78394,-13.22576 2.4917,-18.38379 l 15.51269,3.03222 c -4.17846,7.32991 -4.69134,16.18864 -1.07519,24.23438 3.12716,6.97175 1.51487,14.87428 -4.1294,20.12695 -8.64842,8.04576 -11.1154,20.17289 -6.32666,30.87012 0.0971,0.23983 0.19587,0.45474 0.29297,0.69287 0.73273,1.91029 2.58786,3.05567 4.54248,3.05567 0.58621,0 1.17305,-0.11915 1.75928,-0.33399 2.51528,-0.95417 3.76113,-3.72471 2.78467,-6.18457 -0.12269,-0.38138 -0.29437,-0.71567 -0.44092,-1.07373 -3.12715,-6.97174 -1.51486,-14.87426 4.1294,-20.12695 8.64842,-8.06917 11.11689,-20.17287 6.32812,-30.87012 -2.8597,-6.35182 -1.85723,-13.18074 2.4917,-18.38525 l 15.5127,3.03222 c -4.1785,7.32989 -4.69135,16.18864 -1.0752,24.23438 3.12716,6.97173 1.51485,14.87427 -4.12939,20.12695 -8.64842,8.06919 -11.11688,20.17288 -6.32813,30.87012 3.12716,6.97175 1.51633,14.87426 -4.12793,20.12696 -1.93076,1.81369 -2.00543,4.84703 -0.14795,6.75732 0.97818,0.9793 2.24831,1.48096 3.54346,1.48096 1.22016,0 2.41802,-0.42982 3.3706,-1.3125 8.64844,-8.06919 11.11689,-20.17289 6.32813,-30.87012 -3.12674,-6.9708 -1.51738,-14.87279 4.125,-20.12549 l 0.003,-10e-4 c 8.62096,-8.06919 11.1119,-20.17407 6.32227,-30.86865 -2.80995,-6.25546 -1.78394,-13.22724 2.4917,-18.38525 l 7.89111,1.55127 c 1.54054,0.30977 3.07986,0.4541 4.61865,0.4541 4.5689,0 9.03869,-1.33717 12.92578,-3.86866 5.20234,-3.43897 8.72216,-8.64446 9.91846,-14.68505 0.7566,-3.84401 1.19573,-7.78435 1.31836,-11.72315 0.0733,-2.62634 -2.05136,-4.84588 -4.73877,-4.91748 -2.73505,-0.14326 -4.95844,2.00541 -5.03174,4.63184 -0.0989,3.43938 -0.49041,6.87621 -1.1499,10.21875 -0.70891,3.50932 -2.75918,6.56549 -5.78906,8.54736 -3.00625,1.98187 -6.6217,2.67476 -10.16455,1.98193 l -36.40144,-7.11523 h -0.0234 l -25.87207,-5.0625 -37.89112,-7.40039 c -7.27992,-1.43256 -12.067,-8.18953 -10.65088,-15.23292 3.44553,-16.85593 13.48727,-31.3012 28.26709,-40.63623 14.78116,-9.33473 32.37142,-12.36777 49.54542,-8.52392 25.01478,5.58949 44.28936,25.14215 49.07812,49.80762 0.51259,2.57807 3.07934,4.29637 5.71729,3.79541 2.63795,-0.50097 4.39624,-3.01028 3.8833,-5.58838 -5.5186,-28.39053 -27.67868,-50.87974 -56.48145,-57.32667 -5.79689,-1.30079 -11.63424,-1.92118 -17.41699,-1.87646 z m -34.33887,29.42576 c -1.16975,-0.009 -2.34347,0.39408 -3.28125,1.22315 -9.43049,8.21201 -15.73419,18.98098 -18.22559,31.13379 -0.53659,2.57803 1.19698,5.08572 3.83497,5.61035 0.31696,0.0716 0.63664,0.0952 0.95361,0.0952 2.27179,0 4.32505,-1.57541 4.78857,-3.84375 2.0517,-10.09906 7.30395,-19.05236 15.14649,-25.88086 2.00233,-1.74379 2.17382,-4.77531 0.38965,-6.73388 -0.90392,-0.99095 -2.12614,-1.52799 -3.37207,-1.59668 -0.0779,-0.004 -0.1564,-0.007 -0.23438,-0.007 z m 7.19385,106.00196 c -0.078,0.002 -0.1565,0.005 -0.23438,0.0103 -1.24594,0.0835 -2.46092,0.63212 -3.35302,1.62305 -7.18302,8.04573 -8.9179,19.17378 -4.49561,29.00977 3.12717,6.97175 1.51485,14.87428 -4.12939,20.12695 -8.64843,8.06919 -11.11542,20.17289 -6.32666,30.87012 0.806,1.79039 2.58789,2.86524 4.46923,2.86524 0.65949,0 1.31994,-0.14409 1.95557,-0.40723 2.46747,-1.04926 3.59188,-3.86677 2.5166,-6.27832 -3.12714,-6.97177 -1.51487,-14.87427 4.1294,-20.12696 8.64842,-8.06918 11.1154,-20.17435 6.32666,-30.87158 -2.88316,-6.42217 -1.758,-13.68 2.90771,-18.90967 1.78249,-2.00514 1.58738,-5.01224 -0.46435,-6.73096 -0.9505,-0.81734 -2.13119,-1.20428 -3.30176,-1.18066 z m -42.1128,25.27295 c -3.37074,0 -6.10693,2.67496 -6.10693,5.96924 0,3.29428 2.73619,5.96924 6.10693,5.96924 3.37077,0 6.1084,-2.67496 6.1084,-5.96924 0,-3.29428 -2.73763,-5.96924 -6.1084,-5.96924 z m 65.56641,18.97412 c -1.27341,0 -2.54986,0.44662 -3.46582,1.3418 -0.90318,0.88268 -1.4165,2.10044 -1.4165,3.36621 0,1.28904 0.48776,2.48344 1.4165,3.39111 0.92704,0.906 2.1487,1.38428 3.44385,1.38428 0.65949,0 1.29467,-0.12077 1.88086,-0.35889 0.58621,-0.23813 1.12585,-0.57238 1.58936,-1.02539 0.92703,-0.90766 1.41503,-2.10207 1.41503,-3.39111 0,-0.30979 -0.0237,-0.6204 -0.0732,-0.93018 -0.0733,-0.28646 -0.17035,-0.59851 -0.29297,-0.8833 -0.1227,-0.28642 -0.26903,-0.57328 -0.43945,-0.83642 -0.19424,-0.26315 -0.38954,-0.50147 -0.60937,-0.71631 -0.90414,-0.89518 -2.17483,-1.3418 -3.44825,-1.3418 z m -8.02588,11.83741 c -0.0784,0.002 -0.1561,0.005 -0.23437,0.0102 -1.25233,0.0837 -2.47412,0.63275 -3.36621,1.62451 -7.15726,8.04572 -8.893,19.14888 -4.47071,28.98487 0.80602,1.79038 2.58935,2.86523 4.47071,2.86523 0.65948,0 1.31847,-0.14262 1.9541,-0.40576 2.46746,-1.04925 3.59188,-3.86823 2.5166,-6.27979 -2.85786,-6.42387 -1.75803,-13.65656 2.90772,-18.88623 1.78392,-1.98144 1.56421,-4.98861 -0.46289,-6.73242 -0.9507,-0.81736 -2.1384,-1.20443 -3.31495,-1.18066 z m 66.45803,-42.62437 c -2.61154,0 -4.74028,2.08051 -4.74028,4.63279 3.5e-4,2.55228 2.12936,4.6328 4.74028,4.6328 2.61154,0 4.74028,-2.08052 4.74028,-4.6328 0,-2.55228 -2.12874,-4.63279 -4.74028,-4.63279 z m -0.0114,1.79421 c 1.57088,-1e-4 2.84436,1.27338 2.84427,2.84427 -1.9e-4,1.57068 -1.27359,2.84384 -2.84427,2.84375 -1.57068,9e-5 -2.84408,-1.27307 -2.84427,-2.84375 -9e-5,-1.57089 1.27339,-2.84437 2.84427,-2.84427 z"
                     sodipodi:nodetypes="sscccccccccccsccccccccscccccccsccccccccsccccccccccccscccccccsccccccccccccccccsccsscccscccscscscccsccccccsssssssssssscsccccssscssccccssssssscsssccccc" />
                  <path
                     d="m 346.28557,297.04061 c -3.78507,0.0189 -7.17416,2.63701 -7.94421,6.39994 -0.87968,4.30281 1.98979,8.5072 6.39015,9.36731 4.40272,0.85967 8.7042,-1.94281 9.58429,-6.24553 0.87964,-4.30285 -1.98986,-8.5072 -6.39019,-9.36728 -0.55031,-0.10743 -1.09934,-0.15736 -1.64004,-0.15434 z m 47.95847,9.3673 c -3.78503,0.0189 -7.17416,2.63701 -7.9442,6.39995 -0.87964,4.30277 1.98744,8.50955 6.39015,9.36921 4.40275,0.8597 8.70424,-1.94505 9.58429,-6.2455 0.87967,-4.30286 -1.98983,-8.50917 -6.39016,-9.36924 -0.55035,-0.10743 -1.09933,-0.15737 -1.64008,-0.15435 z m -46.87358,19.78429 c 4.04312,5.38259 10.10959,9.36471 17.31152,10.79817 7.27005,1.40236 14.40983,0 20.27688,-3.44039 2.15127,-1.27346 1.49852,-4.49123 -0.9461,-4.96906 l -33.80591,-6.62669 c -2.47593,-0.48533 -3.76097,2.90758 -2.83639,4.23797 z"
                     style="fill:url(#radialGradient18374);fill-opacity:1;stroke-width:1.6314"
                     id="path18305" />
                </g>
              </g>
            </g>
          </g>
        </g>
      </g>
    </g>
  </g>
</svg>
