<?xml version="1.0" encoding="UTF-8" standalone="no"?>
<!-- Created with Inkscape (http://www.inkscape.org/) -->

<svg
   width="512"
   height="513"
   viewBox="0 0 135.46665 135.73123"
   version="1.1"
   id="svg5"
   inkscape:version="1.2.1 (9c6d41e410, 2022-07-14, custom)"
   sodipodi:docname="signal.svg"
   xmlns:inkscape="http://www.inkscape.org/namespaces/inkscape"
   xmlns:sodipodi="http://sodipodi.sourceforge.net/DTD/sodipodi-0.dtd"
   xmlns:xlink="http://www.w3.org/1999/xlink"
   xmlns="http://www.w3.org/2000/svg"
   xmlns:svg="http://www.w3.org/2000/svg">
  <sodipodi:namedview
     id="namedview7"
     pagecolor="#24283b"
     bordercolor="#1a1b26"
     borderopacity="0.24705882"
     inkscape:showpageshadow="true"
     inkscape:pageopacity="0"
     inkscape:pagecheckerboard="false"
     inkscape:deskcolor="#1f2335"
     inkscape:document-units="px"
     showgrid="false"
     shape-rendering="auto"
     borderlayer="true"
     inkscape:zoom="5.1999999"
     inkscape:cx="320.48078"
     inkscape:cy="174.13462"
     inkscape:window-width="1667"
     inkscape:window-height="885"
     inkscape:window-x="0"
     inkscape:window-y="0"
     inkscape:window-maximized="1"
     inkscape:current-layer="layer1" />
  <defs
     id="defs2">
    <rect
       x="390.68075"
       y="-477.64554"
       width="485.06931"
       height="430.67223"
       id="rect4178" />
    <linearGradient
       inkscape:collect="always"
       id="linearGradient4043">
      <stop
         style="stop-color:#5784d5;stop-opacity:1;"
         offset="0"
         id="stop4035" />
      <stop
         style="stop-color:#7aa2f7;stop-opacity:1;"
         offset="0.69961894"
         id="stop4037" />
      <stop
         style="stop-color:#a0e4ff;stop-opacity:1;"
         offset="0.9180153"
         id="stop4039" />
      <stop
         style="stop-color:#bdeaff;stop-opacity:1;"
         offset="1"
         id="stop4041" />
    </linearGradient>
    <linearGradient
       inkscape:collect="always"
       id="10-l">
      <stop
         style="stop-color:#e0617a;stop-opacity:1;"
         offset="0"
         id="stop2115" />
      <stop
         style="stop-color:#fadeb8;stop-opacity:1;"
         offset="1"
         id="stop2117" />
    </linearGradient>
    <radialGradient
       inkscape:collect="always"
       xlink:href="#10-l"
       id="radialGradient2867"
       gradientUnits="userSpaceOnUse"
       gradientTransform="matrix(0.01998079,-0.1804624,0.24519978,0.02714849,-122.75092,122.52999)"
       cx="361.54211"
       cy="570.38422"
       fx="361.54211"
       fy="570.38422"
       r="147.56943" />
    <radialGradient
       inkscape:collect="always"
       xlink:href="#10-l"
       id="radialGradient2882"
       gradientUnits="userSpaceOnUse"
       gradientTransform="matrix(-0.10940492,0.11122476,-0.13143548,-0.12928493,86.06856,140.08914)"
       cx="385.91254"
       cy="484.77002"
       fx="385.91254"
       fy="484.77002"
       r="147.56943" />
    <radialGradient
       inkscape:collect="always"
       xlink:href="#10-l"
       id="radialGradient2897"
       cx="60.412704"
       cy="137.86165"
       fx="60.412704"
       fy="137.86165"
       r="14.298279"
       gradientTransform="matrix(-1.9389523,0.56809177,-4.3283845,-14.773204,777.51078,2127.069)"
       gradientUnits="userSpaceOnUse" />
    <inkscape:path-effect
       effect="fillet_chamfer"
       id="path-effect6883"
       is_visible="true"
       lpeversion="1"
       nodesatellites_param="F,1,0,1,0,0.04,0,1 @ F,1,0,1,0,0.04,0,1 @ F,1,0,1,0,0.49130285,0,1 @ F,1,0,1,0,0.04,0,1 @ F,1,0,1,0,0.04,0,1 @ F,1,0,1,0,0.53835871,0,1"
       unit="px"
       method="auto"
       mode="F"
       radius="4"
       chamfer_steps="1"
       flexible="true"
       use_knot_distance="true"
       apply_no_radius="true"
       apply_with_radius="true"
       only_selected="false"
       hide_knots="false" />
    <inkscape:path-effect
       effect="fillet_chamfer"
       id="path-effect6881"
       is_visible="true"
       lpeversion="1"
       nodesatellites_param="F,1,0,1,0,0.04,0,1 @ F,1,0,1,0,0.04,0,1 @ F,1,0,1,0,0.5590245,0,1 @ F,1,0,1,0,0.04,0,1 @ F,1,0,1,0,0.04,0,1 @ F,1,0,1,0,0.56080781,0,1"
       unit="px"
       method="auto"
       mode="F"
       radius="4"
       chamfer_steps="1"
       flexible="true"
       use_knot_distance="true"
       apply_no_radius="true"
       apply_with_radius="true"
       only_selected="false"
       hide_knots="false" />
    <inkscape:path-effect
       effect="fillet_chamfer"
       id="path-effect6879"
       is_visible="true"
       lpeversion="1"
       nodesatellites_param="F,1,0,1,0,0.04,0,1 @ F,1,0,1,0,0.04,0,1 @ F,1,0,1,0,0.51030623,0,1 @ F,1,0,1,0,0.04,0,1 @ F,1,0,1,0,0.04,0,1 @ F,1,0,1,0,0.55205391,0,1"
       unit="px"
       method="auto"
       mode="F"
       radius="4"
       chamfer_steps="1"
       flexible="true"
       use_knot_distance="true"
       apply_no_radius="true"
       apply_with_radius="true"
       only_selected="false"
       hide_knots="false" />
    <linearGradient
       inkscape:collect="always"
       xlink:href="#linearGradient4043"
       id="linearGradient3909"
       x1="34.546085"
       y1="91.809166"
       x2="126.82883"
       y2="20.480501"
       gradientUnits="userSpaceOnUse" />
    <radialGradient
       inkscape:collect="always"
       xlink:href="#10-l"
       id="radialGradient4129"
       gradientUnits="userSpaceOnUse"
       gradientTransform="matrix(-0.13188452,0.13407829,-0.15844174,-0.15584931,333.48332,119.61016)"
       cx="385.91254"
       cy="484.77002"
       fx="385.91254"
       fy="484.77002"
       r="147.56943" />
    <radialGradient
       inkscape:collect="always"
       xlink:href="#10-l"
       id="radialGradient4192"
       gradientUnits="userSpaceOnUse"
       gradientTransform="matrix(-0.13188452,0.13407829,-0.15844174,-0.15584931,141.36272,140.48658)"
       cx="385.91254"
       cy="484.77002"
       fx="385.91254"
       fy="484.77002"
       r="147.56943" />
    <radialGradient
       inkscape:collect="always"
       xlink:href="#10-l"
       id="radialGradient4249"
       gradientUnits="userSpaceOnUse"
       gradientTransform="matrix(-0.13188452,0.13407829,-0.15844174,-0.15584931,151.29735,97.298153)"
       cx="385.91254"
       cy="484.77002"
       fx="385.91254"
       fy="484.77002"
       r="147.56943" />
  </defs>
  <g
     inkscape:label="Layer 1"
     inkscape:groupmode="layer"
     id="layer1">
    <path
       id="path844"
       style="fill:url(#linearGradient3909);stroke-width:0.165198;fill-opacity:1"
       d="M 84.195366 21.809002 C 83.010144 21.759196 81.847097 22.199656 80.987294 23.040451 C 80.005432 24.00078 79.535979 25.370509 79.722255 26.732732 C 79.908031 28.094294 80.727694 29.287872 81.931422 29.949072 C 81.551614 32.014697 81.382594 34.112486 81.294252 36.207604 C 81.270568 36.769379 81.254986 37.332815 81.260662 37.895873 C 80.609597 37.591922 78.28796 36.481605 76.836126 35.463464 L 76.861448 35.443827 C 77.586691 34.295828 77.732127 32.87265 77.253155 31.600651 C 76.77443 30.327652 75.727942 29.353737 74.425421 28.967737 C 73.122953 28.581737 71.716174 28.828914 70.624103 29.635913 C 69.532865 30.442912 68.882966 31.715464 68.869689 33.074462 C 68.856179 34.433461 69.479633 35.72077 70.554857 36.551769 C 71.574021 37.340768 73.226047 37.608533 74.511204 37.330533 C 75.8285 38.328716 79.188352 39.771946 81.549016 40.886388 C 81.816175 42.336298 82.221073 43.77787 82.456455 45.158995 C 83.179526 49.794201 85.565493 53.017953 84.262546 57.524646 C 83.720135 59.400749 81.148754 61.416448 80.079856 62.463879 C 79.69145 62.843879 79.329365 63.199421 78.989483 63.535131 L 78.989483 63.534615 C 78.18332 63.121365 77.266262 62.977809 76.372589 63.125337 C 75.47894 63.27225 74.656134 63.703272 74.024412 64.353169 C 73.046287 65.357971 72.050386 66.321307 71.047333 67.26772 C 68.963895 66.827123 66.7923 67.336735 65.120564 68.657815 L 61.437069 71.604922 C 59.988513 72.75096 59.070572 74.439622 58.896139 76.280088 C 58.871009 76.570463 58.862991 76.862108 58.874951 77.15342 C 57.741976 77.944691 56.609997 78.706545 55.47826 79.439068 C 55.363281 79.399208 55.251513 79.353614 55.133578 79.319695 C 53.372977 78.808951 51.479874 79.052725 49.905474 79.992006 L 45.847841 82.372739 L 45.847325 82.372739 C 44.221881 83.343469 43.04072 84.91347 42.557603 86.746631 C 40.879932 87.571759 39.239526 88.339285 37.657128 89.039514 C 36.064551 88.346472 34.263954 88.309571 32.643998 88.935645 L 28.43857 90.550533 C 26.823405 91.174745 25.509884 92.395616 24.766444 93.961694 C 20.053829 95.478049 17.110266 96.106281 17.015497 96.125903 C 16.232566 96.27951 15.722281 97.039379 15.875515 97.823473 C 16.029087 98.607661 16.788132 99.118169 17.570501 98.964489 C 17.658451 98.946729 20.098751 98.425367 24.085348 97.197155 C 24.109098 97.921814 24.248561 98.638006 24.497209 99.319506 C 24.591429 99.571478 24.700682 99.817243 24.823804 100.05693 C 20.736187 101.29205 18.233828 101.80245 18.142559 101.82013 C 17.765272 101.89273 17.431964 102.1121 17.216518 102.43043 C 17.000977 102.74946 16.921494 103.1407 16.994826 103.51873 C 17.069086 103.89633 17.289253 104.22919 17.608742 104.44322 C 17.928279 104.6572 18.319338 104.73525 18.696531 104.65975 C 18.79923 104.63955 21.890201 104.00836 26.850554 102.44955 C 27.694591 103.06421 28.669448 103.47434 29.698442 103.64689 C 30.864734 103.83913 32.060799 103.71548 33.162829 103.28877 L 37.368257 101.67388 C 39.469301 100.85863 41.031721 99.057505 41.544229 96.860741 C 42.91779 96.246866 44.325994 95.587267 45.769293 94.884118 C 46.78603 95.474366 47.942541 95.781176 49.118442 95.773469 C 50.294313 95.765569 51.446579 95.442018 52.455189 94.837609 L 56.512305 92.45636 L 56.513339 92.456876 L 56.513855 92.457393 C 58.523889 91.248023 59.833988 89.148306 60.037671 86.808643 C 61.530693 85.836254 63.026167 84.814109 64.524218 83.743714 C 64.620928 83.763604 64.717301 83.788532 64.81464 83.804692 L 64.815673 83.804692 C 66.817943 84.147316 68.871276 83.622314 70.463906 82.359303 L 74.147402 79.412713 L 74.147402 79.412196 C 75.596483 78.2669 76.514548 76.57761 76.688332 74.73703 C 76.719492 74.38678 76.723157 74.034716 76.700217 73.683348 C 77.853692 72.586532 78.999544 71.466329 80.123264 70.295958 C 80.706318 69.691652 81.097059 68.928194 81.245676 68.10126 C 81.394972 67.274442 81.294696 66.422655 80.959388 65.652831 C 81.311979 65.303534 81.692115 64.93036 82.099887 64.53197 C 83.251311 63.404047 84.616811 62.06144 86.105327 60.523946 C 88.061712 59.938675 90.199187 60.186665 92.648079 60.483638 L 92.649113 60.483122 C 95.658699 60.971342 98.724297 61.014239 101.74623 60.609729 C 101.91796 60.638819 102.09306 60.636781 102.26403 60.603011 C 104.20072 60.204302 105.64895 60.431389 106.57384 61.279972 C 106.70246 61.399515 106.82026 61.529157 106.92731 61.668062 C 105.73328 62.315007 104.91096 63.485224 104.70677 64.829109 C 104.50223 66.173047 104.93848 67.535025 105.88603 68.508471 C 106.83353 69.4819 108.18154 69.95426 109.5287 69.784361 C 110.87531 69.613739 112.06466 68.821174 112.74091 67.641857 C 113.41704 66.463237 113.50249 65.035349 112.97087 63.784729 C 112.44004 62.533488 111.353 61.605067 110.03616 61.275321 C 109.68203 60.4769 109.17263 59.756568 108.53703 59.157621 C 108.3514 58.988021 108.1549 58.830554 107.94947 58.685816 C 111.05998 57.198277 113.95474 55.293703 116.55256 53.024663 C 117.16208 52.509153 117.23838 51.59643 116.72361 50.986028 C 116.20817 50.376201 115.29759 50.29953 114.68807 50.814979 L 114.68756 50.814979 C 108.34409 56.185811 103.4386 57.729991 99.240441 57.966997 C 101.27177 54.978095 104.19792 52.71145 107.59704 51.492974 C 110.03329 50.800761 112.13076 49.239016 113.49435 47.101511 C 114.86453 47.096511 116.15229 46.443342 116.96649 45.339345 C 117.78059 44.235308 118.02626 42.810138 117.62795 41.497203 C 117.22959 40.184158 116.23483 39.13711 114.94491 38.673086 C 113.65497 38.209015 112.22245 38.382026 111.08106 39.141792 C 109.93903 39.900786 109.22273 41.155894 109.14888 42.526081 C 109.07548 43.896365 109.65329 45.22139 110.70692 46.098472 C 109.67459 47.375757 108.27144 48.300553 106.69115 48.745338 C 100.25135 50.871778 96.809299 56.20905 95.848917 57.913253 C 94.869943 57.837213 93.921833 57.722832 92.995861 57.610429 C 91.680989 57.451189 90.400148 57.302313 89.135632 57.277116 C 92.527393 53.528285 95.617552 49.516634 98.378478 45.279401 C 100.14484 45.139794 106.08046 43.978919 110.93378 35.005611 C 110.98768 35.01641 111.03883 35.03187 111.09295 35.04075 C 112.44342 35.269345 113.82317 34.847349 114.81572 33.901285 C 115.8082 32.955811 116.29743 31.596899 116.13656 30.234843 C 115.97507 28.872712 115.18228 27.666238 113.99664 26.978711 C 112.81161 26.291816 111.37188 26.204056 110.11213 26.74255 C 108.85235 27.281042 107.91901 28.382366 107.59445 29.715495 C 107.27002 31.048039 107.59169 32.4563 108.46262 33.515262 C 105.69319 38.708587 102.64618 40.871306 100.54734 41.767471 L 100.54682 41.767471 C 102.08301 39.128413 103.46827 36.403995 104.69644 33.607763 C 105.01775 32.876301 104.68551 32.022864 103.95488 31.701937 C 103.22442 31.38042 102.37227 31.712999 102.05112 32.444527 C 100.23791 36.556133 98.078847 40.505614 95.596736 44.25104 C 94.574147 41.243755 95.031172 37.929031 96.829735 35.312052 C 97.423604 34.488297 97.922219 33.59898 98.315949 32.661568 C 99.662508 32.420237 100.81663 31.555814 101.4279 30.330444 C 102.03995 29.104527 102.03858 27.66172 101.42325 26.438176 C 100.80814 25.214188 99.65191 24.353366 98.304064 24.115837 C 96.956371 23.878412 95.575753 24.292104 94.580261 25.232565 C 93.584817 26.172333 93.09152 27.527771 93.248559 28.889189 C 93.405713 30.249923 94.195481 31.456573 95.379178 32.14377 C 95.116725 32.663161 94.814379 33.161464 94.475358 33.634118 C 90.500358 39.231669 92.706854 45.201202 93.614945 47.142853 C 91.665602 49.845573 89.576581 52.444152 87.35693 54.928423 C 87.35423 54.032516 87.20344 53.143467 86.911479 52.297059 C 86.140501 50.190313 85.537537 48.025902 85.108489 45.82407 C 85.912628 45.660942 86.652862 45.270498 87.241691 44.698558 C 89.78119 42.261319 89.646172 36.915623 89.622941 36.313541 C 89.592341 35.515123 88.920679 34.893147 88.123291 34.924479 C 87.326648 34.955228 86.70559 35.627911 86.736296 36.425679 C 86.802026 38.200588 86.454671 41.449138 85.241297 42.611347 L 85.24078 42.611864 C 85.06361 42.786042 84.8439 42.910182 84.603093 42.971015 C 84.48941 42.196955 84.390006 41.41929 84.321457 40.640925 L 84.321457 40.640408 C 84.00762 37.225375 84.168348 33.782592 84.799464 30.411576 C 86.149179 30.162912 87.301551 29.287657 87.905217 28.052547 C 88.509532 26.818156 88.493644 25.37019 87.862325 24.149427 C 87.231101 22.928008 86.0594 22.079039 84.703862 21.860678 C 84.534447 21.833301 84.364684 21.816117 84.195366 21.809002 z M 83.96799 24.702882 C 84.247597 24.693872 84.529763 24.766062 84.77776 24.920439 C 85.273665 25.229795 85.534744 25.808287 85.439218 26.385466 C 85.308245 27.172784 84.564954 27.705383 83.777821 27.576091 C 83.201455 27.480461 82.739721 27.04615 82.607866 26.476417 C 82.475369 25.906568 82.698999 25.313458 83.173723 24.972633 C 83.411407 24.802284 83.688383 24.711891 83.96799 24.702882 z M 97.651391 26.95184 C 98.074004 26.981259 98.471106 27.195825 98.72626 27.552836 C 99.066448 28.028858 99.086807 28.662719 98.777937 29.159457 C 98.468987 29.656102 97.891342 29.917582 97.314977 29.821948 C 96.528908 29.690226 95.997364 28.946114 96.126419 28.158484 L 96.126936 28.158484 C 96.222376 27.581276 96.655505 27.11866 97.224543 26.985946 C 97.366789 26.952959 97.510519 26.942033 97.651391 26.95184 z M 111.74614 29.313969 C 111.84197 29.31023 111.93928 29.315909 112.03759 29.332056 C 112.61397 29.427686 113.07661 29.861876 113.2091 30.43173 C 113.3408 31.001509 113.11759 31.594795 112.6422 31.935514 C 112.16686 32.276239 111.53406 32.296181 111.03817 31.986674 C 110.54222 31.677902 110.28117 31.099848 110.37671 30.522681 C 110.49211 29.833908 111.07528 29.340144 111.74614 29.313969 z M 73.213609 31.675582 C 73.231769 31.675582 73.249629 31.675615 73.267869 31.676615 C 73.851735 31.706615 74.361939 32.079563 74.560813 32.630562 C 74.797153 33.287561 74.530333 34.004488 73.95775 34.354488 C 73.87599 34.404487 73.787361 34.444612 73.693683 34.481612 L 73.693166 34.481612 C 73.143716 34.679611 72.529161 34.531555 72.135122 34.094555 C 71.741583 33.662556 71.645389 33.035538 71.893793 32.506539 C 72.134196 31.993539 72.650771 31.669582 73.213609 31.675582 z M 113.4189 41.320986 C 113.51473 41.317308 113.61258 41.323363 113.71087 41.33959 C 114.28725 41.43523 114.74937 41.86942 114.88186 42.439264 C 115.01356 43.009045 114.79086 43.602325 114.31549 43.943048 C 113.8402 44.283127 113.20737 44.303724 112.71145 43.994208 C 112.21548 43.685446 111.95398 43.107398 112.04948 42.530215 C 112.16485 41.840875 112.74809 41.346738 113.4189 41.320986 z M 108.9277 64.036909 C 109.02354 64.033231 109.12137 64.039285 109.21968 64.055513 L 109.22019 64.055513 C 109.79636 64.151331 110.25826 64.584988 110.39066 65.154671 C 110.52243 65.724456 110.29965 66.31841 109.82429 66.658455 C 109.34887 66.999102 108.71563 67.019497 108.21974 66.710131 C 107.72381 66.400772 107.46275 65.823313 107.55828 65.246138 C 107.67373 64.5568 108.25688 64.062657 108.9277 64.036909 z M 77.108461 65.963923 C 77.489589 65.975413 77.848473 66.14691 78.098065 66.435729 C 78.563003 66.975618 78.538727 67.781333 78.041737 68.291946 C 77.285313 69.078914 76.519235 69.842058 75.748855 70.594648 C 75.279773 69.791566 74.65072 69.09418 73.900906 68.546194 C 74.637473 67.83578 75.370314 67.116509 76.092503 66.374234 C 76.359299 66.101036 76.727449 65.951753 77.108461 65.963923 z M 69.59936 70.000886 C 69.737231 70.00124 69.875475 70.007851 70.013805 70.021556 C 71.120662 70.130573 72.142867 70.663545 72.867894 71.50777 C 73.572411 72.321792 73.913445 73.389053 73.813056 74.461595 C 73.710639 75.522036 73.179865 76.49467 72.343895 77.153937 L 72.343895 77.15342 L 68.660916 80.10001 L 68.660916 80.099493 C 67.784503 80.786035 66.677954 81.108419 65.570666 80.998663 C 64.463921 80.88896 63.441487 80.356806 62.716577 79.511932 C 62.012782 78.697395 61.670909 77.630787 61.771415 76.557591 C 61.873832 75.497155 62.404598 74.524792 63.241093 73.866282 L 66.924588 70.919693 C 67.691361 70.319532 68.634261 69.998403 69.59936 70.000886 z M 59.655782 80.106727 C 60.10721 80.973007 60.73706 81.733779 61.503731 82.338115 C 60.879082 82.771208 60.254687 83.195845 59.630977 83.611423 C 59.528299 83.319482 59.406096 83.034648 59.266142 82.758762 C 58.960729 82.167412 58.572996 81.622842 58.114274 81.140256 C 58.627696 80.802581 59.141514 80.457357 59.655782 80.106727 z M 53.187961 81.95416 C 53.570064 81.943325 53.955261 81.991051 54.33001 82.09937 C 55.360462 82.405273 56.218478 83.12505 56.700407 84.087362 C 57.215452 85.094444 57.331689 86.259231 57.025969 87.348145 C 56.72087 88.437799 56.015661 89.370354 55.052446 89.961422 L 50.995847 92.342671 C 50.103501 92.876658 49.031004 93.017764 48.031687 92.732828 C 47.000547 92.427009 46.142613 91.706472 45.661289 90.74432 C 45.146246 89.737232 45.028988 88.572959 45.334694 87.484054 C 45.639796 86.394406 46.345013 85.46081 47.308217 84.869744 L 51.365333 82.488494 L 51.36585 82.489011 C 51.922638 82.153466 52.551122 81.972218 53.187961 81.95416 z M 42.403091 90.00638 C 42.569236 90.99682 42.94719 91.939345 43.511033 92.770035 C 42.847282 93.087985 42.190972 93.396344 41.542162 93.694527 C 41.31804 92.714792 40.874491 91.798303 40.244566 91.015621 C 40.955183 90.691031 41.674942 90.354253 42.403091 90.00638 z M 35.140486 91.386658 C 35.635019 91.401131 36.126783 91.513877 36.585876 91.723588 C 37.523164 92.150098 38.249244 92.936719 38.599189 93.905883 C 38.95837 94.879236 38.92288 95.95514 38.499454 96.902082 C 38.075933 97.849631 37.29854 98.593142 36.334211 98.973274 L 32.129817 100.58868 C 31.188864 100.95429 30.140164 100.92296 29.221985 100.50341 C 28.283942 100.07741 27.558152 99.289746 27.208155 98.3206 C 26.848961 97.347238 26.885038 96.271306 27.308407 95.324401 C 27.731929 94.376794 28.508708 93.633961 29.473132 93.25321 L 33.677526 91.638322 L 33.67856 91.638322 C 34.148972 91.455856 34.645953 91.372184 35.140486 91.386658 z " />
    <text
       xml:space="preserve"
       transform="scale(0.2645833)"
       id="text4176"
       style="font-weight:bold;font-size:85.3333px;font-family:'Albert Sans';-inkscape-font-specification:'Albert Sans Bold';white-space:pre;shape-inside:url(#rect4178);display:inline;fill:#3f4e74;stroke-width:4.202;paint-order:stroke fill markers" />
  </g>
</svg>
