<?xml version="1.0" encoding="UTF-8" standalone="no"?>
<!-- Created with Inkscape (http://www.inkscape.org/) -->

<svg
   width="512"
   height="513"
   viewBox="0 0 135.46665 135.73123"
   version="1.1"
   id="svg5"
   inkscape:version="1.2.1 (9c6d41e410, 2022-07-14, custom)"
   sodipodi:docname="inactive-hover.svg"
   xmlns:inkscape="http://www.inkscape.org/namespaces/inkscape"
   xmlns:sodipodi="http://sodipodi.sourceforge.net/DTD/sodipodi-0.dtd"
   xmlns:xlink="http://www.w3.org/1999/xlink"
   xmlns="http://www.w3.org/2000/svg"
   xmlns:svg="http://www.w3.org/2000/svg">
  <sodipodi:namedview
     id="namedview7"
     pagecolor="#24283b"
     bordercolor="#1a1b26"
     borderopacity="0.24705882"
     inkscape:showpageshadow="true"
     inkscape:pageopacity="0"
     inkscape:pagecheckerboard="false"
     inkscape:deskcolor="#1f2335"
     inkscape:document-units="px"
     showgrid="false"
     shape-rendering="auto"
     borderlayer="true"
     inkscape:zoom="1.2230981"
     inkscape:cx="211.75734"
     inkscape:cy="365.87417"
     inkscape:window-width="1667"
     inkscape:window-height="885"
     inkscape:window-x="0"
     inkscape:window-y="0"
     inkscape:window-maximized="1"
     inkscape:current-layer="g10881"
     showguides="true" />
  <defs
     id="defs2">
    <linearGradient
       inkscape:collect="always"
       id="linearGradient12614">
      <stop
         style="stop-color:#5784d5;stop-opacity:0.79588723;"
         offset="0"
         id="stop12610" />
      <stop
         style="stop-color:#3f4e74;stop-opacity:0.5172863;"
         offset="1"
         id="stop12612" />
    </linearGradient>
    <linearGradient
       inkscape:collect="always"
       id="linearGradient10895">
      <stop
         style="stop-color:#5784d5;stop-opacity:0.79588723;"
         offset="0"
         id="stop10891" />
      <stop
         style="stop-color:#3f4e74;stop-opacity:0.41704831;"
         offset="1"
         id="stop10893" />
    </linearGradient>
    <inkscape:path-effect
       effect="fillet_chamfer"
       id="path-effect6883"
       is_visible="true"
       lpeversion="1"
       nodesatellites_param="F,1,0,1,0,0.04,0,1 @ F,1,0,1,0,0.04,0,1 @ F,1,0,1,0,0.49130285,0,1 @ F,1,0,1,0,0.04,0,1 @ F,1,0,1,0,0.04,0,1 @ F,1,0,1,0,0.53835871,0,1"
       unit="px"
       method="auto"
       mode="F"
       radius="4"
       chamfer_steps="1"
       flexible="true"
       use_knot_distance="true"
       apply_no_radius="true"
       apply_with_radius="true"
       only_selected="false"
       hide_knots="false" />
    <inkscape:path-effect
       effect="fillet_chamfer"
       id="path-effect6881"
       is_visible="true"
       lpeversion="1"
       nodesatellites_param="F,1,0,1,0,0.04,0,1 @ F,1,0,1,0,0.04,0,1 @ F,1,0,1,0,0.5590245,0,1 @ F,1,0,1,0,0.04,0,1 @ F,1,0,1,0,0.04,0,1 @ F,1,0,1,0,0.56080781,0,1"
       unit="px"
       method="auto"
       mode="F"
       radius="4"
       chamfer_steps="1"
       flexible="true"
       use_knot_distance="true"
       apply_no_radius="true"
       apply_with_radius="true"
       only_selected="false"
       hide_knots="false" />
    <inkscape:path-effect
       effect="fillet_chamfer"
       id="path-effect6879"
       is_visible="true"
       lpeversion="1"
       nodesatellites_param="F,1,0,1,0,0.04,0,1 @ F,1,0,1,0,0.04,0,1 @ F,1,0,1,0,0.51030623,0,1 @ F,1,0,1,0,0.04,0,1 @ F,1,0,1,0,0.04,0,1 @ F,1,0,1,0,0.55205391,0,1"
       unit="px"
       method="auto"
       mode="F"
       radius="4"
       chamfer_steps="1"
       flexible="true"
       use_knot_distance="true"
       apply_no_radius="true"
       apply_with_radius="true"
       only_selected="false"
       hide_knots="false" />
    <inkscape:path-effect
       effect="fillet_chamfer"
       id="path-effect6877"
       is_visible="true"
       lpeversion="1"
       nodesatellites_param="F,0,1,1,0,0,0,1 @ F,0,0,1,0,0,0,1 @ F,0,1,1,0,0,0,1 @ F,0,1,1,0,0,0,1 @ F,0,0,1,0,0,0,1 @ F,0,1,1,0,0,0,1"
       unit="px"
       method="auto"
       mode="F"
       radius="0"
       chamfer_steps="1"
       flexible="false"
       use_knot_distance="true"
       apply_no_radius="true"
       apply_with_radius="true"
       only_selected="true"
       hide_knots="false" />
    <inkscape:path-effect
       effect="fillet_chamfer"
       id="path-effect6870"
       is_visible="true"
       lpeversion="1"
       nodesatellites_param="F,1,0,1,0,0,0,1 @ F,1,0,1,0,0,0,1 @ F,1,0,1,0,0,0,1 @ F,1,0,1,0,0,0,1 @ F,1,0,1,0,0,0,1 @ F,1,0,1,0,0,0,1"
       unit="px"
       method="auto"
       mode="F"
       radius="0"
       chamfer_steps="2"
       flexible="true"
       use_knot_distance="true"
       apply_no_radius="true"
       apply_with_radius="true"
       only_selected="false"
       hide_knots="false" />
    <linearGradient
       inkscape:collect="always"
       id="10-J">
      <stop
         style="stop-color:#5784d5;stop-opacity:1;"
         offset="0"
         id="stop3147" />
      <stop
         style="stop-color:#7aa2f7;stop-opacity:1;"
         offset="0.59122026"
         id="stop3157" />
      <stop
         style="stop-color:#a0e4ff;stop-opacity:1;"
         offset="0.9180153"
         id="stop3155" />
      <stop
         style="stop-color:#bdeaff;stop-opacity:1;"
         offset="1"
         id="stop3149" />
    </linearGradient>
    <linearGradient
       inkscape:collect="always"
       id="10-l">
      <stop
         style="stop-color:#e0617a;stop-opacity:1;"
         offset="0"
         id="stop2115" />
      <stop
         style="stop-color:#fadeb8;stop-opacity:1;"
         offset="1"
         id="stop2117" />
    </linearGradient>
    <radialGradient
       inkscape:collect="always"
       xlink:href="#10-l"
       id="radialGradient4097"
       gradientUnits="userSpaceOnUse"
       gradientTransform="matrix(0.02529431,-0.20214938,0.23057614,0.02885127,305.66393,375.94325)"
       cx="379.54126"
       cy="423.31168"
       fx="379.54126"
       fy="423.31168"
       r="147.56943" />
    <radialGradient
       inkscape:collect="always"
       xlink:href="#10-J"
       id="radialGradient4218"
       gradientUnits="userSpaceOnUse"
       gradientTransform="matrix(0.1038894,-0.72057624,1.4403731,0.20766652,-52.311701,108.55512)"
       cx="65.869606"
       cy="86.338814"
       fx="65.869606"
       fy="86.338814"
       r="44.36002" />
    <radialGradient
       inkscape:collect="always"
       xlink:href="#10-l"
       id="radialGradient6029"
       gradientUnits="userSpaceOnUse"
       gradientTransform="matrix(0.06073817,-0.15603597,0.22989519,0.0894884,-128.75693,78.141101)"
       cx="369.16339"
       cy="544.83936"
       fx="369.16339"
       fy="544.83936"
       r="147.56943" />
    <radialGradient
       inkscape:collect="always"
       xlink:href="#linearGradient10895"
       id="radialGradient10899"
       cx="73.470428"
       cy="66.066658"
       fx="73.470428"
       fy="66.066658"
       r="37.371304"
       gradientTransform="matrix(-0.95536901,0.61309556,-1.7618648,-2.7454639,263.26,200.62252)"
       gradientUnits="userSpaceOnUse" />
    <radialGradient
       inkscape:collect="always"
       xlink:href="#linearGradient10895"
       id="radialGradient11808"
       gradientUnits="userSpaceOnUse"
       gradientTransform="matrix(-2.7012826,1.1476362,-1.0936139,-2.5741278,346.371,144.86865)"
       cx="72.098747"
       cy="66.822151"
       fx="72.098747"
       fy="66.822151"
       r="37.371304" />
    <radialGradient
       inkscape:collect="always"
       xlink:href="#linearGradient10895"
       id="radialGradient11810"
       gradientUnits="userSpaceOnUse"
       gradientTransform="matrix(-2.7012827,1.1476362,-1.093614,-2.5741279,346.37091,144.86866)"
       cx="72.098717"
       cy="66.822136"
       fx="72.098717"
       fy="66.822136"
       r="37.371304" />
    <radialGradient
       inkscape:collect="always"
       xlink:href="#linearGradient10895"
       id="radialGradient11812"
       gradientUnits="userSpaceOnUse"
       gradientTransform="matrix(-2.7012828,1.1476362,-1.093614,-2.5741279,346.37103,144.86863)"
       cx="72.098763"
       cy="66.822144"
       fx="72.098763"
       fy="66.822144"
       r="37.371304" />
    <radialGradient
       inkscape:collect="always"
       xlink:href="#linearGradient10895"
       id="radialGradient11814"
       gradientUnits="userSpaceOnUse"
       gradientTransform="matrix(-2.7012826,1.1476361,-1.0936139,-2.574128,346.37106,144.86857)"
       cx="72.098785"
       cy="66.822136"
       fx="72.098785"
       fy="66.822136"
       r="37.371304" />
    <radialGradient
       inkscape:collect="always"
       xlink:href="#linearGradient10895"
       id="radialGradient11816"
       gradientUnits="userSpaceOnUse"
       gradientTransform="matrix(-2.7012826,1.1476362,-1.0936137,-2.574128,346.37106,144.8686)"
       cx="72.098778"
       cy="66.822151"
       fx="72.098778"
       fy="66.822151"
       r="37.371304" />
    <radialGradient
       inkscape:collect="always"
       xlink:href="#linearGradient10895"
       id="radialGradient11818"
       gradientUnits="userSpaceOnUse"
       gradientTransform="matrix(-2.7012826,1.1476362,-1.0936142,-2.574128,346.37104,144.86861)"
       cx="72.098763"
       cy="66.822144"
       fx="72.098763"
       fy="66.822144"
       r="37.371304" />
    <radialGradient
       inkscape:collect="always"
       xlink:href="#linearGradient10895"
       id="radialGradient11820"
       gradientUnits="userSpaceOnUse"
       gradientTransform="matrix(-2.7012826,1.1476362,-1.0936135,-2.574128,346.37102,144.86862)"
       cx="72.09877"
       cy="66.822144"
       fx="72.09877"
       fy="66.822144"
       r="37.371304" />
    <radialGradient
       inkscape:collect="always"
       xlink:href="#linearGradient12614"
       id="radialGradient11822"
       gradientUnits="userSpaceOnUse"
       gradientTransform="matrix(-2.7012828,1.1476361,-1.0936133,-2.5741284,346.37091,144.86871)"
       cx="72.098732"
       cy="66.822151"
       fx="72.098732"
       fy="66.822151"
       r="37.371304" />
    <radialGradient
       inkscape:collect="always"
       xlink:href="#linearGradient10895"
       id="radialGradient12138"
       gradientUnits="userSpaceOnUse"
       gradientTransform="matrix(-1.2201235,0.14135887,-0.20429562,-1.7633565,170.7023,162.86303)"
       cx="64.591049"
       cy="66.844765"
       fx="64.591049"
       fy="66.844765"
       r="37.371304" />
    <radialGradient
       inkscape:collect="always"
       xlink:href="#linearGradient10895"
       id="radialGradient12140"
       gradientUnits="userSpaceOnUse"
       gradientTransform="matrix(-1.220125,0.14135888,-0.20429553,-1.763357,170.70237,162.86301)"
       cx="64.591042"
       cy="66.844734"
       fx="64.591042"
       fy="66.844734"
       r="37.371304" />
    <radialGradient
       inkscape:collect="always"
       xlink:href="#linearGradient10895"
       id="radialGradient12142"
       gradientUnits="userSpaceOnUse"
       gradientTransform="matrix(-1.2201246,0.14135888,-0.20429541,-1.7633564,170.70244,162.863)"
       cx="64.591118"
       cy="66.844757"
       fx="64.591118"
       fy="66.844757"
       r="37.371304" />
    <radialGradient
       inkscape:collect="always"
       xlink:href="#linearGradient10895"
       id="radialGradient12144"
       gradientUnits="userSpaceOnUse"
       gradientTransform="matrix(-1.2201251,0.14135874,-0.20429527,-1.7633568,170.70247,162.86303)"
       cx="64.591125"
       cy="66.844757"
       fx="64.591125"
       fy="66.844757"
       r="37.371304" />
    <radialGradient
       inkscape:collect="always"
       xlink:href="#linearGradient10895"
       id="radialGradient12146"
       gradientUnits="userSpaceOnUse"
       gradientTransform="matrix(-1.2201251,0.14135881,-0.20429526,-1.7633563,170.70248,162.86306)"
       cx="64.591125"
       cy="66.844795"
       fx="64.591125"
       fy="66.844795"
       r="37.371304" />
    <radialGradient
       inkscape:collect="always"
       xlink:href="#linearGradient10895"
       id="radialGradient12148"
       gradientUnits="userSpaceOnUse"
       gradientTransform="matrix(-1.2201254,0.14135882,-0.20429534,-1.7633559,170.70241,162.86299)"
       cx="64.591057"
       cy="66.844765"
       fx="64.591057"
       fy="66.844765"
       r="37.371304" />
    <radialGradient
       inkscape:collect="always"
       xlink:href="#linearGradient10895"
       id="radialGradient12150"
       gradientUnits="userSpaceOnUse"
       gradientTransform="matrix(-1.220125,0.14135875,-0.20429529,-1.7633565,170.70241,162.863)"
       cx="64.59108"
       cy="66.844749"
       fx="64.59108"
       fy="66.844749"
       r="37.371304" />
    <radialGradient
       inkscape:collect="always"
       xlink:href="#linearGradient10895"
       id="radialGradient12152"
       gradientUnits="userSpaceOnUse"
       gradientTransform="matrix(-1.2201243,0.14135867,-0.20429527,-1.7633566,170.70234,162.86302)"
       cx="64.591064"
       cy="66.844749"
       fx="64.591064"
       fy="66.844749"
       r="37.371304" />
    <radialGradient
       inkscape:collect="always"
       xlink:href="#linearGradient10895"
       id="radialGradient12154"
       gradientUnits="userSpaceOnUse"
       gradientTransform="matrix(-1.2201262,0.1413577,-0.20429357,-1.7633564,170.70241,162.86308)"
       cx="64.59111"
       cy="66.844757"
       fx="64.59111"
       fy="66.844757"
       r="37.371304" />
    <radialGradient
       inkscape:collect="always"
       xlink:href="#linearGradient10895"
       id="radialGradient12156"
       gradientUnits="userSpaceOnUse"
       gradientTransform="matrix(-1.2201236,0.14135857,-0.20429517,-1.7633565,170.70223,162.86303)"
       cx="64.591011"
       cy="66.844749"
       fx="64.591011"
       fy="66.844749"
       r="37.371304" />
    <radialGradient
       inkscape:collect="always"
       xlink:href="#linearGradient10895"
       id="radialGradient12158"
       gradientUnits="userSpaceOnUse"
       gradientTransform="matrix(-1.2201242,0.1413586,-0.2042953,-1.7633564,170.70231,162.86303)"
       cx="64.591042"
       cy="66.844757"
       fx="64.591042"
       fy="66.844757"
       r="37.371304" />
    <radialGradient
       inkscape:collect="always"
       xlink:href="#linearGradient10895"
       id="radialGradient12160"
       gradientUnits="userSpaceOnUse"
       gradientTransform="matrix(-1.2201251,0.1413589,-0.2042955,-1.7633559,170.70234,162.86292)"
       cx="64.591011"
       cy="66.844727"
       fx="64.591011"
       fy="66.844727"
       r="37.371304" />
    <radialGradient
       inkscape:collect="always"
       xlink:href="#linearGradient10895"
       id="radialGradient12162"
       gradientUnits="userSpaceOnUse"
       gradientTransform="matrix(-1.2201251,0.14135892,-0.20429546,-1.7633573,170.70248,162.86299)"
       cx="64.591125"
       cy="66.844719"
       fx="64.591125"
       fy="66.844719"
       r="37.371304" />
    <radialGradient
       inkscape:collect="always"
       xlink:href="#linearGradient10895"
       id="radialGradient12164"
       gradientUnits="userSpaceOnUse"
       gradientTransform="matrix(-1.2201255,0.14135777,-0.20429378,-1.7633566,170.70236,162.86305)"
       cx="64.591103"
       cy="66.844734"
       fx="64.591103"
       fy="66.844734"
       r="37.371304" />
    <radialGradient
       inkscape:collect="always"
       xlink:href="#linearGradient10895"
       id="radialGradient12166"
       gradientUnits="userSpaceOnUse"
       gradientTransform="matrix(-1.2201252,0.14135881,-0.20429528,-1.7633568,170.70244,162.86296)"
       cx="64.591103"
       cy="66.844719"
       fx="64.591103"
       fy="66.844719"
       r="37.371304" />
    <radialGradient
       inkscape:collect="always"
       xlink:href="#linearGradient10895"
       id="radialGradient12168"
       gradientUnits="userSpaceOnUse"
       gradientTransform="matrix(-1.2201248,0.14135875,-0.20429527,-1.7633567,170.70246,162.86303)"
       cx="64.591133"
       cy="66.844757"
       fx="64.591133"
       fy="66.844757"
       r="37.371304" />
    <radialGradient
       inkscape:collect="always"
       xlink:href="#linearGradient10895"
       id="radialGradient12170"
       gradientUnits="userSpaceOnUse"
       gradientTransform="matrix(-1.2201237,0.14135883,-0.20429557,-1.7633568,170.7023,162.86299)"
       cx="64.591049"
       cy="66.844727"
       fx="64.591049"
       fy="66.844727"
       r="37.371304" />
    <radialGradient
       inkscape:collect="always"
       xlink:href="#linearGradient10895"
       id="radialGradient12172"
       gradientUnits="userSpaceOnUse"
       gradientTransform="matrix(-1.2201255,0.14135879,-0.20429506,-1.7633565,170.7025,162.86297)"
       cx="64.591141"
       cy="66.844734"
       fx="64.591141"
       fy="66.844734"
       r="37.371304" />
    <radialGradient
       inkscape:collect="always"
       xlink:href="#linearGradient10895"
       id="radialGradient12174"
       gradientUnits="userSpaceOnUse"
       gradientTransform="matrix(-1.2201235,0.14135868,-0.20429526,-1.7633567,170.7023,162.86302)"
       cx="64.591072"
       cy="66.844749"
       fx="64.591072"
       fy="66.844749"
       r="37.371304" />
    <radialGradient
       inkscape:collect="always"
       xlink:href="#linearGradient10895"
       id="radialGradient12176"
       gradientUnits="userSpaceOnUse"
       gradientTransform="matrix(-1.2201252,0.1413589,-0.20429549,-1.7633567,170.70247,162.86296)"
       cx="64.59111"
       cy="66.844727"
       fx="64.59111"
       fy="66.844727"
       r="37.371304" />
  </defs>
  <g
     inkscape:label="Layer 1"
     inkscape:groupmode="layer"
     id="layer1">
    <g
       id="g1723"
       transform="translate(0.28686337,-11.692595)">
      <g
         id="g2392"
         transform="matrix(1.1117551,0,0,1.1117551,-2.5466535,-5.3805547)">
        <g
           id="g2816"
           transform="matrix(1.0330258,0.32947757,-0.32947757,1.0330258,22.5297,-26.357633)"
           style="fill:#5784d5;fill-opacity:1">
          <g
             id="g18194"
             transform="matrix(-1.2645189,-0.41385697,-0.41385697,1.2645189,203.85822,-50.374478)"
             style="fill:url(#radialGradient4218);fill-opacity:1" />
          <g
             id="g10529"
             style="fill:#7aa2f7;fill-opacity:1">
            <g
               id="g10881"
               style="fill:url(#radialGradient10899);fill-opacity:1">
              <path
                 id="path1868"
                 style="fill:url(#radialGradient12176);fill-opacity:1;stroke-width:0.191483"
                 d="m 65.654368,40.325685 c -0.361947,0.11077 -0.677257,0.348789 -0.881506,0.678464 -6.962055,9.584617 -10.315355,23.077115 -19.467193,27.271041 -1.517186,-1.696352 -4.075934,-2.012212 -5.921388,-0.637473 -1.842222,1.372329 -2.271675,3.914995 -1.080874,5.854477 -1.450503,1.643124 -2.959763,3.913099 -3.641466,6.732356 -0.601521,2.487567 -0.558927,5.402433 0.736194,8.690566 3.933137,8.333955 8.747013,16.496304 9.093074,24.405984 8.44e-4,-6e-4 -0.751529,2.76391 2.240823,3.00645 0,0 5.338403,1.0245 20.776861,-10.54399 l 0.378802,-0.28235 C 82.469858,93.219945 91.937023,76.546146 100.19725,62.951808 c 0.29709,-0.479528 0.31619,-1.083156 0.0468,-1.584372 C 96.7368,54.868649 93.143858,48.153271 90.145507,42.561495 l 0.0071,-0.0117 L 89.744786,41.7903 C 89.472438,41.282895 88.94916,40.958432 88.372691,40.940577 L 66.170983,40.256754 c -0.177851,-0.0055 -0.352094,0.01858 -0.516615,0.06893 z m 1.026163,1.51034 c 0.553146,-0.183837 1.146358,-0.287452 1.712209,-0.390414 2.770509,-0.32467 8.812186,-0.469111 10.464959,0.721786 0.323618,0.24563 0.647102,0.613659 0.927073,1.040241 0.413524,0.630088 0.732182,1.387597 0.8176,2.066865 0.211196,1.679562 0.213276,5.043502 0.213276,5.043502 l 1.275425,-0.01758 -0.522284,-7.531755 1.362436,0.03657 0.517196,7.422689 1.309507,-0.08424 -0.463041,-7.302274 1.363254,0.0363 0.781486,8.856553 -4.386608,3.357751 c -1.434479,-1.069278 -3.242376,-1.63148 -5.122669,-1.465466 -0.379189,0.03348 -0.757716,0.09592 -1.12511,0.186963 l -4.932701,1.21104 c -2.219235,0.545301 -4.15708,1.986086 -5.316671,3.954511 -0.905977,1.540584 -1.30274,3.296538 -1.145473,5.077754 l 0.194132,2.200023 c 0.09757,1.105027 0.417652,2.179201 0.930451,3.157117 l -4.562263,3.010163 1.02527,10.011685 c 0.15243,1.488427 0.129412,2.97975 -1.928688,1.878627 -4.405218,-2.356877 -5.727268,-11.630648 -7.997835,-16.375729 -0.521278,-1.089374 -0.321248,-1.930499 0.293774,-2.96983 2.660418,-4.495869 5.154677,-9.613544 7.934972,-14.303969 1.652146,-2.787206 2.653864,-6.204191 5.193416,-8.216351 0.350616,-0.277803 0.756683,-0.469551 1.186907,-0.612535 z m 20.888541,0.497006 c 0.422185,-0.127946 0.963349,0.01488 1.168713,0.275636 1.344028,1.706551 2.622566,4.201416 4.049864,6.77247 l 5.418521,9.760127 c 0.394137,0.709977 1.112864,2.077776 1.102055,2.909353 -0.01656,1.275222 -1.145929,2.324998 -1.833552,3.476232 l -4.697108,7.863674 c -2.619134,3.938791 -5.125396,7.863578 -7.962392,10.366581 -1.086057,0.958197 -3.214267,1.880396 -4.650092,2.070315 -3.10043,0.410101 -8.248026,1.642044 -8.553533,-1.815128 l -1.349145,0.119381 c 0.182038,1.618417 0.298237,1.32093 -1.2467,1.279996 l -0.936331,-10.6061 -1.349814,0.118694 0.922892,10.451101 -1.362585,-0.03562 -0.194262,-2.200431 -1.349553,0.119511 0.1811,2.044894 -1.363792,-0.03658 -1.083675,-12.275695 3.78502,-2.436496 c 1.349431,1.793984 3.370524,2.989488 5.605255,3.283265 l 1.505673,0.197862 c 0.912374,0.120379 1.83964,0.139927 2.758546,0.05879 2.785625,-0.245948 5.448119,-1.430286 7.496627,-3.335467 l 0.173334,-0.161925 c 1.727737,-1.605206 2.599332,-3.873897 2.391913,-6.223129 -0.04385,-0.496647 -0.136785,-0.991669 -0.277257,-1.468876 l -1.155685,-3.935251 c -0.332443,-1.131924 -0.921191,-2.13143 -1.684816,-2.956113 l 4.540498,-3.76545 c 0.02803,-0.172168 -0.387764,-5.927776 -0.576035,-8.840189 -0.126191,-0.639114 0.153801,-0.962537 0.526316,-1.075431 z m -16.891528,14.15399 c 0.170483,-0.05599 0.343202,-0.105632 0.518194,-0.148626 L 76.1287,55.128172 c 0.300644,-0.07389 0.610972,-0.125 0.920622,-0.152341 2.897527,-0.255827 5.595481,1.584688 6.414512,4.375932 l 1.154738,3.935104 c 0.115077,0.392315 0.191913,0.79753 0.227943,1.20563 0.170345,1.929331 -0.54561,3.793724 -1.964385,5.113062 l -0.174411,0.161368 c -0.449905,0.418527 -0.933114,0.797472 -1.44329,1.134816 0.02358,-0.217591 0.02974,-0.438488 0.01009,-0.661057 -0.164231,-1.860093 -1.811337,-3.240408 -3.671429,-3.076175 -1.860091,0.16423 -3.23946,1.811483 -3.075227,3.671576 0.06509,0.737294 0.369493,1.403062 0.830633,1.929971 -0.604244,0.01815 -1.209329,0.0046 -1.806357,-0.07406 l -1.505134,-0.197583 c -1.961694,-0.257811 -3.733499,-1.336848 -4.86217,-2.96097 -0.697829,-1.004084 -1.12329,-2.178965 -1.230754,-3.396106 l -0.194262,-2.200431 c -0.07442,-0.842853 -0.0013,-1.678694 0.212562,-2.479572 0.166369,-0.622906 0.418292,-1.224788 0.752279,-1.791841 0.883643,-1.500688 2.30488,-2.637207 3.952884,-3.178471 z M 41.196111,68.322877 c 0.994465,-0.311878 2.108499,-0.122601 3.013516,0.499871 -1.344162,0.728608 -2.284012,1.428658 -2.654627,1.728595 -0.387673,0.264469 -1.330485,0.966581 -2.414058,2.046932 -0.224703,-0.697228 -0.238172,-1.428114 -0.04991,-2.093485 0.188273,-0.665364 0.57857,-1.265304 1.162554,-1.700416 0.292749,-0.217963 0.611039,-0.377538 0.942527,-0.481497 z m 36.027116,0.300065 c 0.157872,-0.05595 0.325145,-0.09307 0.499505,-0.108469 1.115899,-0.09853 2.103708,0.729826 2.202233,1.845724 0.04991,0.565317 -0.145327,1.113865 -0.522918,1.533305 -0.630095,0.265068 -1.283241,0.471941 -1.952175,0.619935 -0.854032,-0.194436 -1.49471,-0.912654 -1.572734,-1.796322 -0.01847,-0.209232 -0.0045,-0.413557 0.03802,-0.608769 0.04249,-0.195211 0.113565,-0.38127 0.208511,-0.552459 0.237422,-0.427957 0.625948,-0.765091 1.099563,-0.932945 z m -36.709759,13.545094 10.41765,4.536321 0.788826,8.542391 5.985278,1.895877 -0.720136,5.334905 c 1.762331,-1.66363 3.506122,-3.185911 4.991657,-4.294955 5.874916,-4.385985 18.457929,-11.508085 19.607738,-9.964579 1.152504,1.547125 -5.649623,8.562919 -15.191109,15.670664 -9.5438,7.10947 -18.213067,11.61861 -19.365106,10.07212 l 4.09e-4,-1.3e-4 c -0.327901,-0.44016 2.37838,-3.75631 5.849317,-7.39289 l -0.04116,-6.967074 -4.705038,-1.126662 -1.517937,-9.76186 z" />
              <path
                 d="m 70.499707,63.713371 c 0.372559,-0.03289 0.701319,0.24252 0.734212,0.615079 0.03289,0.372564 -0.24252,0.701322 -0.61508,0.734216 -0.372561,0.03289 -0.701321,-0.24252 -0.734215,-0.615085 -0.03289,-0.372558 0.242519,-0.701318 0.615083,-0.73421"
                 id="path943"
                 style="fill:url(#radialGradient12174);fill-opacity:1;stroke-width:0.0774024" />
              <path
                 d="m 70.261442,61.014781 c -1.860099,0.16423 -3.23964,1.810967 -3.075409,3.671062 0.164233,1.860104 1.810969,3.239646 3.671068,3.075414 1.860101,-0.164232 3.239642,-1.810969 3.07541,-3.671072 -0.164231,-1.860095 -1.810967,-3.239637 -3.671069,-3.075404 z m 2.321774,3.194537 c 0.09853,1.115905 -0.72934,2.104118 -1.845246,2.202643 -1.115906,0.09852 -2.104117,-0.729339 -2.202642,-1.845249 -0.09852,-1.115906 0.729338,-2.104112 1.845247,-2.202637 1.115906,-0.09853 2.104115,0.729338 2.202641,1.845243 z"
                 id="path945"
                 style="fill:url(#radialGradient12172);fill-opacity:1;stroke-width:0.0774024" />
              <path
                 d="m 78.238084,58.950694 c 0.372561,-0.03289 0.701321,0.24252 0.734214,0.615078 0.03289,0.372565 -0.242522,0.701324 -0.615082,0.734218 -0.37256,0.03289 -0.70132,-0.24252 -0.734213,-0.615085 -0.03289,-0.372558 0.242519,-0.701317 0.615081,-0.734211"
                 id="path947"
                 style="fill:url(#radialGradient12170);fill-opacity:1;stroke-width:0.0774024" />
              <path
                 d="m 74.924412,59.923168 c 0.164231,1.860103 1.810968,3.239644 3.671068,3.075414 1.860101,-0.164233 3.239641,-1.81097 3.07541,-3.671073 -0.164232,-1.860096 -1.810968,-3.239637 -3.671069,-3.075405 -1.8601,0.164231 -3.239641,1.810968 -3.075409,3.671064 z m 5.397181,-0.476526 c 0.09853,1.115905 -0.729339,2.104117 -1.845245,2.202643 -1.115906,0.09853 -2.104117,-0.729339 -2.202641,-1.845249 -0.09853,-1.115906 0.729338,-2.104113 1.845246,-2.202637 1.115906,-0.09853 2.104115,0.729339 2.20264,1.845243 z"
                 id="path949"
                 style="fill:url(#radialGradient12168);fill-opacity:1;stroke-width:0.0774024" />
              <path
                 d="m 77.841842,69.86419 c 0.37256,-0.03289 0.701321,0.24252 0.734213,0.615078 0.03289,0.372564 -0.242521,0.701323 -0.61508,0.734217 -0.372561,0.03289 -0.701321,-0.24252 -0.734215,-0.615086 -0.03289,-0.372557 0.242519,-0.701317 0.615082,-0.734209"
                 id="path951"
                 style="fill:url(#radialGradient12166);fill-opacity:1;stroke-width:0.0774024" />
              <path
                 d="m 64.627292,81.909436 -0.595658,-6.746477 1.349297,-0.119132 0.595658,6.746477 z"
                 id="path955"
                 style="fill:url(#radialGradient12164);fill-opacity:1;stroke-width:0.0774024" />
              <path
                 d="m 70.143607,82.782204 -0.119132,-1.349296 1.349295,-0.119131 0.119132,1.349296 z"
                 id="path961"
                 style="fill:url(#radialGradient12162);fill-opacity:1;stroke-width:0.0774024" />
              <path
                 d="m 69.905343,80.083613 -0.119131,-1.349295 1.349295,-0.119132 0.119132,1.349296 z"
                 id="path963"
                 style="fill:url(#radialGradient12160);fill-opacity:1;stroke-width:0.0774024"
                 sodipodi:nodetypes="ccccc" />
              <path
                 d="m 62.904827,65.727002 c -0.09853,-1.115906 -1.086735,-1.943768 -2.202642,-1.845243 -1.115904,0.09853 -1.94377,1.086731 -1.845245,2.202637 0.09853,1.115907 1.086736,1.943775 2.202641,1.84525 1.115905,-0.09853 1.943771,-1.086739 1.845246,-2.202644 z m -2.698592,0.238263 c -0.03287,-0.372257 0.243424,-0.701396 0.615082,-0.73421 0.371659,-0.03281 0.701347,0.242822 0.734215,0.615078 0.03287,0.372256 -0.243427,0.701402 -0.615083,0.734217 -0.371658,0.03281 -0.701346,-0.242832 -0.734214,-0.615085 z"
                 id="path971"
                 style="fill:url(#radialGradient12158);fill-opacity:1;stroke-width:0.0774024" />
              <path
                 d="m 64.135191,57.655406 c -0.09853,-1.115905 -1.086736,-1.943767 -2.202641,-1.845242 -1.115906,0.09853 -1.943771,1.086731 -1.845245,2.202637 0.09852,1.115905 1.086734,1.943775 2.20264,1.845249 1.115906,-0.09853 1.943772,-1.086738 1.845246,-2.202644 z M 61.4366,57.893669 c -0.03287,-0.372256 0.243424,-0.701395 0.615082,-0.73421 0.371658,-0.03281 0.701346,0.242822 0.734213,0.615079 0.03287,0.372256 -0.243427,0.701401 -0.615081,0.734216 -0.371658,0.03281 -0.701346,-0.242832 -0.734214,-0.615085 z"
                 id="path973"
                 style="fill:url(#radialGradient12156);fill-opacity:1;stroke-width:0.0774024" />
              <path
                 d="m 73.338451,44.352977 c -0.805993,-0.152619 -1.623831,0.01778 -2.301615,0.480279 l -5.484621,3.737673 c -0.677627,0.4616 -1.135018,1.159358 -1.28775,1.965959 -0.315193,1.664531 0.781898,3.274838 2.446122,3.589972 0.805992,0.15262 1.623832,-0.01778 2.301616,-0.480278 l 5.48462,-3.737673 c 0.677627,-0.461601 1.135017,-1.159359 1.287759,-1.965954 0.315192,-1.664532 -0.781898,-3.274839 -2.446123,-3.589972 z m 1.115228,3.337953 c -0.07071,0.37343 -0.263767,0.700599 -0.540556,0.950041 l -1.908997,-2.800845 c 0.334097,-0.166918 0.708911,-0.227034 1.082314,-0.156333 0.929568,0.176024 1.543423,1.076653 1.367243,2.007059 z m -7.211294,1.366825 1.255378,-0.855643 1.934526,2.838291 -1.255387,0.855638 z m 2.374359,-1.618323 1.255388,-0.855638 1.934517,2.838286 -1.255378,0.855651 z m -4.021389,3.349473 c 0.07071,-0.37343 0.263767,-0.700599 0.540556,-0.950041 l 1.908996,2.800845 c -0.334095,0.166918 -0.708909,0.227034 -1.082305,0.156333 -0.929576,-0.176024 -1.543425,-1.076653 -1.367243,-2.00706 z"
                 id="path975"
                 style="fill:url(#radialGradient12154);fill-opacity:1;stroke-width:0.0774024" />
              <path
                 d="m 75.781192,77.344751 c -0.776269,0.265254 -1.402909,0.818233 -1.763638,1.55489 -0.744903,1.521209 -0.112999,3.364464 1.408418,4.109475 0.737216,0.360994 1.570484,0.413186 2.346328,0.147405 l 6.278761,-2.151378 c 0.775459,-0.265657 1.40208,-0.818649 1.762805,-1.555297 0.744908,-1.521217 0.112998,-3.364464 -1.408418,-4.109477 -0.737215,-0.360994 -1.570483,-0.413185 -2.346327,-0.147404 z m 6.768929,2.742975 -1.43725,0.492353 -1.113176,-3.249477 1.437254,-0.49236 z m -5.268767,-1.825906 1.437252,-0.492353 1.113176,3.249475 -1.437254,0.492361 z m -2.047283,1.233543 c 0.166739,-0.340513 0.439724,-0.605111 0.773538,-0.772551 l 1.098485,3.206605 c -0.365989,0.07161 -0.74333,0.03023 -1.084365,-0.136768 -0.850454,-0.416452 -1.20368,-1.447556 -0.787602,-2.297241 z m 9.36337,-0.641249 c -0.166739,0.340514 -0.439729,0.6051 -0.773537,0.772552 l -1.098486,-3.206613 c 0.365987,-0.0716 0.743327,-0.03023 1.084363,0.136777 0.850455,0.41644 1.203679,1.447549 0.787603,2.297239 z"
                 id="path981"
                 style="fill:url(#radialGradient12152);fill-opacity:1;stroke-width:0.0774024" />
              <path
                 d="m 87.90327,65.134718 c 0.131392,1.488155 1.448694,2.59172 2.936854,2.460327 1.488157,-0.131391 2.59172,-1.448699 2.460328,-2.936853 -0.131392,-1.488162 -1.448698,-2.59172 -2.936854,-2.460328 -1.48816,0.131392 -2.591721,1.448691 -2.460328,2.936854 z m 4.047886,-0.357395 c 0.06571,0.744218 -0.485946,1.40272 -1.230164,1.468426 -0.744218,0.06571 -1.402718,-0.485945 -1.468426,-1.230162 -0.06571,-0.744218 0.485945,-1.402719 1.230164,-1.468428 0.744215,-0.06571 1.402718,0.485945 1.468426,1.230164 z"
                 id="path983"
                 style="fill:url(#radialGradient12150);fill-opacity:1;stroke-width:0.0774024" />
              <path
                 d="m 85.72952,57.800768 c 0.09853,1.115907 1.086735,1.943775 2.202641,1.84525 1.115905,-0.09853 1.94377,-1.086739 1.845246,-2.202645 -0.09853,-1.115906 -1.086737,-1.943774 -2.202642,-1.845249 -1.115906,0.09853 -1.94377,1.086738 -1.845245,2.202644 z m 2.698591,-0.238263 c 0.03287,0.372256 -0.243426,0.701401 -0.615082,0.734216 -0.371657,0.03281 -0.701344,-0.242831 -0.734213,-0.615084 -0.03287,-0.372257 0.243425,-0.701396 0.615081,-0.734211 0.37166,-0.03281 0.701347,0.242822 0.734214,0.615079 z"
                 id="path985"
                 style="fill:url(#radialGradient12148);fill-opacity:1;stroke-width:0.0774024" />
              <path
                 d="m 30.408414,57.481278 -0.168412,0.07625 -0.365254,-3.249848 1.31735,-0.419112 0.885774,7.87832 -1.193848,0.379819 -0.16184,-0.651188 q -0.19649,0.379851 -0.580568,0.740048 -0.387353,0.349906 -0.922526,0.52017 -0.668967,0.21283 -1.226584,0.02756 -0.547325,-0.188542 -0.908921,-0.719512 -0.364871,-0.541261 -0.465889,-1.393136 -0.09073,-0.855149 0.120743,-1.57977 0.221762,-0.727897 0.696599,-1.230304 0.481854,-0.515974 1.150821,-0.728803 0.607215,-0.193184 1.066596,-0.06733 0.469671,0.122579 0.755959,0.416837 z m -2.370451,2.737516 q 0.07249,0.69095 0.457481,1.010471 0.381719,0.309231 0.916892,0.138967 0.329338,-0.104778 0.585703,-0.367675 0.25309,-0.27319 0.378006,-0.66427 0.124916,-0.391081 0.0702,-0.883681 -0.05472,-0.492599 -0.259139,-0.778901 -0.194128,-0.289578 -0.493521,-0.375663 -0.292374,-0.09965 -0.621713,0.0051 -0.360212,0.114601 -0.610028,0.398082 -0.242799,0.269916 -0.364441,0.671288 -0.114624,0.387806 -0.05944,0.846256 z"
                 id="path10531"
                 style="font-style:italic;font-weight:bold;font-size:10.8001px;font-family:'Albert Sans';-inkscape-font-specification:'Albert Sans Bold Italic';fill:url(#radialGradient12146);fill-opacity:1;stroke-width:0.134663;paint-order:stroke fill markers" />
              <path
                 d="m 37.861858,59.926726 -1.20414,0.383093 -0.14968,-0.541721 q -0.206782,0.383125 -0.545481,0.672218 -0.341974,0.2788 -0.743354,0.406498 -0.596925,0.18991 -1.059578,0.05376 -0.462655,-0.136146 -0.760632,-0.574021 -0.290961,-0.45144 -0.386368,-1.214432 l -0.359175,-3.195114 1.327642,-0.422386 0.337661,3.020623 q 0.07343,0.62265 0.346615,0.875741 0.280207,0.239525 0.75363,0.08891 0.483715,-0.153893 0.694239,-0.560877 0.220817,-0.410257 0.157683,-1.036181 l -0.344678,-3.007057 1.31735,-0.419111 z"
                 id="path10533"
                 style="font-style:italic;font-weight:bold;font-size:10.8001px;font-family:'Albert Sans';-inkscape-font-specification:'Albert Sans Bold Italic';fill:url(#radialGradient12144);fill-opacity:1;stroke-width:0.134663;paint-order:stroke fill markers" />
              <path
                 d="m 38.509486,54.05393 1.193848,-0.379819 0.16699,0.524881 q 0.220348,-0.376107 0.552029,-0.651633 0.328407,-0.285819 0.740079,-0.416791 0.607216,-0.193184 1.059579,-0.05376 0.462654,0.136145 0.743322,0.59086 0.287686,0.441148 0.383094,1.20414 l 0.359174,3.195114 -1.327642,0.422386 -0.334386,-3.01033 q -0.0767,-0.632942 -0.346615,-0.875741 -0.269916,-0.242799 -0.75363,-0.08891 -0.473422,0.150618 -0.69424,0.560876 -0.213799,0.396691 -0.137098,1.029633 l 0.331111,3.000039 -1.31735,0.419111 z"
                 id="path10535"
                 style="font-style:italic;font-weight:bold;font-size:10.8001px;font-family:'Albert Sans';-inkscape-font-specification:'Albert Sans Bold Italic';fill:url(#radialGradient12142);fill-opacity:1;stroke-width:0.134663;paint-order:stroke fill markers" />
              <path
                 d="m 45.623344,55.610068 q 0.09215,0.25402 0.258217,0.348523 0.166067,0.0945 0.370966,0.09732 0.201624,-0.0075 0.386876,-0.06642 0.360213,-0.114601 0.544066,-0.320428 0.190872,-0.219394 0.17357,-0.451894 -0.02806,-0.195075 -0.184306,-0.258701 -0.149227,-0.07719 -0.381726,-0.05989 -0.225482,0.0037 -0.481839,0.01729 -0.290507,0.01309 -0.604872,0.02243 -0.317638,-9.45e-4 -0.627323,-0.08376 -0.309683,-0.08281 -0.525335,-0.29754 -0.208633,-0.228295 -0.253996,-0.65587 -0.05799,-0.50289 0.167036,-0.971156 0.225028,-0.468266 0.66384,-0.834543 0.438812,-0.366277 1.05632,-0.562735 0.730717,-0.232476 1.271494,-0.06452 0.540776,0.167958 0.827056,0.711556 l -1.109655,0.715706 q -0.07672,-0.134262 -0.209102,-0.194145 -0.132386,-0.05988 -0.310153,-0.04866 -0.177765,0.01122 -0.342434,0.06361 -0.308754,0.09823 -0.48559,0.290492 -0.18011,0.18197 -0.155792,0.400903 0.01871,0.13005 0.09636,0.196013 0.07438,0.05567 0.214251,0.06784 0.139874,0.01217 0.307347,0.0042 0.177767,-0.01122 0.389682,-0.02198 0.324657,-0.01262 0.659136,0.0056 0.341497,0.0047 0.630597,0.09405 0.2891,0.08936 0.490716,0.331221 0.211908,0.238587 0.26382,0.686745 0.06174,0.479034 -0.149727,0.954316 -0.214738,0.464992 -0.670859,0.848109 -0.456121,0.383117 -1.145672,0.602496 -0.802759,0.255396 -1.404817,0.07293 -0.591767,-0.185737 -0.862136,-0.893066 z"
                 id="path10537"
                 style="font-style:italic;font-weight:bold;font-size:10.8001px;font-family:'Albert Sans';-inkscape-font-specification:'Albert Sans Bold Italic';fill:url(#radialGradient12140);fill-opacity:1;stroke-width:0.134663;paint-order:stroke fill markers" />
              <path
                 d="m 49.686393,50.498028 -0.170233,-1.532533 1.337934,-0.42566 0.170233,1.532533 1.132098,-0.360174 0.143577,1.235008 -1.14239,0.363448 0.253013,2.220207 q 0.04536,0.427574 0.231545,0.549677 0.196474,0.118829 0.457044,0.04726 0.27086,-0.07484 0.535642,-0.204414 l 0.133754,1.204133 q -0.471555,0.263359 -0.9272,0.362986 -0.445353,0.09635 -0.816318,-9.61e-4 -0.37424,-0.107606 -0.628714,-0.479987 Q 50.152196,54.6339 50.07269,53.956517 l -0.253012,-2.220207 -0.720425,0.229202 -0.143577,-1.235009 z"
                 id="path10539"
                 style="font-style:italic;font-weight:bold;font-size:10.8001px;font-family:'Albert Sans';-inkscape-font-specification:'Albert Sans Bold Italic';fill:url(#radialGradient12138);fill-opacity:1;stroke-width:0.134663;paint-order:stroke fill markers" />
              <path
                 d="m 72.867859,115.71781 q 0.240975,0.20699 0.465587,0.20801 0.22463,0.001 0.436106,-0.11442 0.202238,-0.12397 0.357969,-0.29123 0.302805,-0.32524 0.372337,-0.64218 0.06888,-0.33485 -0.08299,-0.56299 -0.141325,-0.18361 -0.338052,-0.15869 -0.19734,0.007 -0.425534,0.15893 -0.228746,0.13404 -0.483539,0.29578 -0.289953,0.18109 -0.606579,0.37203 -0.325858,0.18234 -0.690854,0.27623 -0.364978,0.0939 -0.709751,-0.002 -0.345441,-0.11338 -0.638642,-0.5252 -0.349602,-0.48161 -0.389344,-1.09107 -0.03971,-0.60947 0.198398,-1.23784 0.238081,-0.6284 0.757185,-1.18596 0.614268,-0.65978 1.265062,-0.79982 0.650804,-0.14 1.25773,0.25147 l -0.723531,1.37339 q -0.156053,-0.0933 -0.326194,-0.0782 -0.170148,0.0145 -0.34575,0.12915 -0.175633,0.11401 -0.314061,0.26271 -0.259551,0.27879 -0.329726,0.57773 -0.07946,0.29033 0.07178,0.50054 0.09421,0.12243 0.211819,0.14509 0.108355,0.0135 0.258592,-0.0541 0.150351,-0.0683 0.317205,-0.17304 0.175636,-0.11405 0.386422,-0.24741 0.325212,-0.20031 0.678362,-0.37457 0.352466,-0.19229 0.700145,-0.26758 0.347678,-0.0754 0.693721,0.0561 0.354716,0.12208 0.666506,0.55117 0.339662,0.455 0.397348,1.06382 0.04835,0.60018 -0.197687,1.2558 -0.246099,0.65561 -0.825758,1.27822 -0.674829,0.72483 -1.396769,0.88538 -0.713282,0.15121 -1.398387,-0.41719 z"
                 id="path10542"
                 style="font-style:italic;font-weight:bold;font-size:9.19132px;font-family:'Albert Sans';-inkscape-font-specification:'Albert Sans Bold Italic';fill:url(#radialGradient11808);fill-opacity:1;stroke-width:0.158311;paint-order:stroke fill markers" />
              <path
                 d="m 73.906315,108.32309 1.107414,-1.18946 3.789849,5.24581 -1.107415,1.18947 z m 0.0801,-1.27853 q -0.311459,0.33453 -0.680284,0.32076 -0.369439,-0.0319 -0.624206,-0.373 -0.246105,-0.35054 -0.216952,-0.79176 0.02857,-0.45918 0.339974,-0.79372 0.30281,-0.32526 0.672271,-0.29355 0.368858,0.0128 0.61493,0.36431 0.254741,0.34129 0.226232,0.80047 -0.03785,0.45055 -0.331965,0.76649 z"
                 id="path10544"
                 style="font-style:italic;font-weight:bold;font-size:9.19132px;font-family:'Albert Sans';-inkscape-font-specification:'Albert Sans Bold Italic';fill:url(#radialGradient11810);fill-opacity:1;stroke-width:0.158311;paint-order:stroke fill markers" />
              <path
                 d="m 74.561233,103.5204 1.107414,-1.18947 5.453574,7.55806 -1.107413,1.18947 z"
                 id="path10546"
                 style="font-style:italic;font-weight:bold;font-size:9.19132px;font-family:'Albert Sans';-inkscape-font-specification:'Albert Sans Bold Italic';fill:url(#radialGradient11812);fill-opacity:1;stroke-width:0.158311;paint-order:stroke fill markers" />
              <path
                 d="m 84.2067,106.70639 q -0.648878,0.69695 -1.396769,0.8854 -0.739238,0.17912 -1.460543,-0.14552 -0.721311,-0.32458 -1.307074,-1.13017 -0.557893,-0.7796 -0.724202,-1.66303 -0.157662,-0.89276 0.08138,-1.74573 0.229754,-0.86164 0.844017,-1.52143 0.622918,-0.66908 1.334924,-0.85621 0.712007,-0.18715 1.396812,0.12039 0.67548,0.29926 1.242023,1.0696 0.07629,0.12304 0.171754,0.28132 0.09486,0.14037 0.182333,0.32592 l -2.976173,3.19669 q 0.288706,0.28613 0.597614,0.38289 0.308258,0.0788 0.619398,-0.0133 0.301858,-0.10056 0.578711,-0.39799 0.320111,-0.34383 0.457571,-0.77095 0.128172,-0.4358 0.05158,-0.81938 l 1.241689,-0.70016 q 0.222705,0.95331 -0.02308,1.86943 -0.24576,0.91612 -0.911945,1.63166 z m -1.511856,-4.09643 q -0.216941,-0.28871 -0.507904,-0.3861 -0.291588,-0.11539 -0.576136,-0.0334 -0.293849,0.0734 -0.544739,0.34286 -0.216292,0.23233 -0.311775,0.57711 -0.08684,0.33551 -0.0554,0.71167 0.0308,0.35827 0.205091,0.71138 z"
                 id="path10548"
                 style="font-style:italic;font-weight:bold;font-size:9.19132px;font-family:'Albert Sans';-inkscape-font-specification:'Albert Sans Bold Italic';fill:url(#radialGradient11814);fill-opacity:1;stroke-width:0.158311;paint-order:stroke fill markers" />
              <path
                 d="m 83.24145,98.29626 1.003593,-1.077957 0.473934,0.441238 q 0.0086,-0.512374 0.189365,-0.985977 0.171432,-0.482255 0.517495,-0.853966 0.510448,-0.548271 1.054224,-0.666522 0.552427,-0.127538 1.102293,0.176229 0.549238,0.285831 1.087255,1.012248 l 2.211675,3.065258 -1.116066,1.198759 -2.079656,-2.8903 q -0.443801,-0.604009 -0.860374,-0.696932 -0.416571,-0.09292 -0.823196,0.343835 -0.397976,0.427465 -0.387397,0.975091 0.0099,0.529681 0.453744,1.133693 l 2.070364,2.881663 -1.10741,1.18944 z"
                 id="path10550"
                 style="font-style:italic;font-weight:bold;font-size:9.19132px;font-family:'Albert Sans';-inkscape-font-specification:'Albert Sans Bold Italic';fill:url(#radialGradient11816);fill-opacity:1;stroke-width:0.158311;paint-order:stroke fill markers" />
              <path
                 d="m 93.844655,96.354301 q -0.631575,0.678369 -1.352868,0.856862 -0.721297,0.178492 -1.424021,-0.128798 -0.703354,-0.325227 -1.27983,-1.122141 -0.585765,-0.805566 -0.752721,-1.706954 -0.166962,-0.901387 0.06279,-1.763038 0.238399,-0.870943 0.86997,-1.549311 0.683481,-0.734126 1.504434,-0.889228 0.829606,-0.164395 1.546745,0.295112 l -0.774161,1.465037 q -0.321402,-0.195141 -0.687018,-0.11917 -0.356964,0.06667 -0.66842,0.401195 -0.30281,0.325248 -0.395095,0.759756 -0.09231,0.434508 0.02336,0.906514 0.115679,0.472 0.437403,0.927659 0.500202,0.673866 1.060966,0.779603 0.569416,0.09645 1.036607,-0.405362 0.294156,-0.315952 0.413674,-0.742453 0.110237,-0.435148 0.01375,-0.871907 l 1.26764,-0.728037 q 0.266608,0.924769 0.0234,1.912672 -0.243195,0.987907 -0.926684,1.72203 z"
                 id="path10552"
                 style="font-style:italic;font-weight:bold;font-size:9.19132px;font-family:'Albert Sans';-inkscape-font-specification:'Albert Sans Bold Italic';fill:url(#radialGradient11818);fill-opacity:1;stroke-width:0.158311;paint-order:stroke fill markers" />
              <path
                 d="m 98.654988,91.187544 q -0.648882,0.696954 -1.396775,0.885381 -0.739241,0.179138 -1.460548,-0.145463 -0.721305,-0.324595 -1.307069,-1.130159 -0.557895,-0.779616 -0.724202,-1.663051 -0.157671,-0.892739 0.08138,-1.745737 0.229751,-0.86165 0.844013,-1.521435 0.622922,-0.669075 1.334928,-0.85622 0.712004,-0.187141 1.396774,0.120797 0.675479,0.299279 1.242024,1.0696 0.07629,0.123052 0.171742,0.281338 0.09485,0.140351 0.182351,0.325883 l -2.976176,3.196696 q 0.288703,0.28615 0.597609,0.382916 0.308263,0.0788 0.61941,-0.01315 0.301847,-0.100619 0.5787,-0.397985 0.320118,-0.34383 0.457582,-0.770971 0.128138,-0.435798 0.05161,-0.819361 l 1.24169,-0.700158 q 0.222706,0.953288 -0.02275,1.869427 -0.245767,0.916122 -0.91194,1.631663 z m -1.511864,-4.096428 q -0.216937,-0.288719 -0.5079,-0.386121 -0.291598,-0.115351 -0.576136,-0.03334 -0.293841,0.07339 -0.544739,0.342868 -0.216293,0.232319 -0.311776,0.577112 -0.08684,0.33549 -0.05549,0.711679 0.0308,0.358248 0.205091,0.71137 z"
                 id="path10554"
                 style="font-style:italic;font-weight:bold;font-size:9.19132px;font-family:'Albert Sans';-inkscape-font-specification:'Albert Sans Bold Italic';fill:url(#radialGradient11820);fill-opacity:1;stroke-width:0.158311;paint-order:stroke fill markers" />
              <path
                 d="m 101.40611,80.183113 -0.12848,0.175297 -2.24949,-3.117821 1.10742,-1.189469 5.45358,7.558061 -1.00361,1.077954 -0.54151,-0.573576 q 0.0181,0.502454 -0.16766,1.093006 -0.19482,0.581912 -0.64473,1.065128 -0.56235,0.604028 -1.2404,0.736057 -0.66937,0.122733 -1.34615,-0.212442 -0.686052,-0.343813 -1.281104,-1.158043 -0.586407,-0.823512 -0.787965,-1.687718 -0.192923,-0.873508 0.0035,-1.662102 0.195784,-0.806538 0.758141,-1.410565 0.510437,-0.54827 1.053578,-0.684464 0.55179,-0.145485 1.01482,-0.0093 z m -0.84813,4.171762 q 0.47296,0.66587 1.05167,0.770966 0.56942,0.09645 1.0193,-0.38678 0.27685,-0.297366 0.38773,-0.714573 0.10156,-0.425858 0.004,-0.898504 -0.0978,-0.472648 -0.43807,-0.945611 -0.34029,-0.472945 -0.71489,-0.648223 -0.36594,-0.184566 -0.72225,-0.100023 -0.357,0.06667 -0.63383,0.364021 -0.3028,0.325246 -0.39509,0.759755 -0.0929,0.416583 0.0141,0.897868 0.10639,0.463343 0.42744,0.901051 z"
                 id="path10556"
                 style="font-style:italic;font-weight:bold;font-size:9.19132px;font-family:'Albert Sans';-inkscape-font-specification:'Albert Sans Bold Italic';fill:url(#radialGradient11822);fill-opacity:1;stroke-width:0.158311;paint-order:stroke fill markers" />
            </g>
          </g>
          <text
             xml:space="preserve"
             style="font-style:normal;font-variant:normal;font-weight:bold;font-stretch:normal;font-size:18.7294px;font-family:'Albert Sans';-inkscape-font-specification:'Albert Sans Bold';fill:#e0617a;fill-opacity:1;stroke-width:0.233532;paint-order:stroke fill markers"
             x="83.885674"
             y="96.479866"
             id="text6213"
             transform="rotate(-17.68978)"><tspan
               sodipodi:role="line"
               id="tspan6211"
               style="stroke-width:0.233532" /></text>
        </g>
      </g>
    </g>
  </g>
</svg>
