<?xml version="1.0" encoding="UTF-8"?>
<svg width="700pt" height="700pt" version="1.1" viewBox="0 0 700 700" xmlns="http://www.w3.org/2000/svg" xmlns:xlink="http://www.w3.org/1999/xlink">
 <defs>
  <symbol id="i" overflow="visible">
   <path d="m18.766-1.125c-0.96875 0.5-1.9805 0.875-3.0312 1.125-1.043 0.25781-2.1367 0.39062-3.2812 0.39062-3.3984 0-6.0898-0.94531-8.0781-2.8438-1.9922-1.9062-2.9844-4.4844-2.9844-7.7344 0-3.2578 0.99219-5.8359 2.9844-7.7344 1.9883-1.9062 4.6797-2.8594 8.0781-2.8594 1.1445 0 2.2383 0.13281 3.2812 0.39062 1.0508 0.25 2.0625 0.625 3.0312 1.125v4.2188c-0.98047-0.65625-1.9453-1.1406-2.8906-1.4531-0.94922-0.3125-1.9492-0.46875-3-0.46875-1.875 0-3.3516 0.60547-4.4219 1.8125-1.0742 1.1992-1.6094 2.8555-1.6094 4.9688 0 2.1055 0.53516 3.7617 1.6094 4.9688 1.0703 1.1992 2.5469 1.7969 4.4219 1.7969 1.0508 0 2.0508-0.14844 3-0.45312 0.94531-0.3125 1.9102-0.80078 2.8906-1.4688z"/>
  </symbol>
  <symbol id="a" overflow="visible">
   <path d="m13.734-11.141c-0.4375-0.19531-0.87109-0.34375-1.2969-0.4375-0.41797-0.10156-0.83984-0.15625-1.2656-0.15625-1.2617 0-2.2305 0.40625-2.9062 1.2188-0.67969 0.80469-1.0156 1.9531-1.0156 3.4531v7.0625h-4.8906v-15.312h4.8906v2.5156c0.625-1 1.3438-1.7266 2.1562-2.1875 0.82031-0.46875 1.8008-0.70312 2.9375-0.70312 0.16406 0 0.34375 0.011719 0.53125 0.03125 0.19531 0.011719 0.47656 0.039062 0.84375 0.078125z"/>
  </symbol>
  <symbol id="d" overflow="visible">
   <path d="m17.641-7.7031v1.4062h-11.453c0.125 1.1484 0.53906 2.0078 1.25 2.5781 0.70703 0.57422 1.7031 0.85938 2.9844 0.85938 1.0312 0 2.082-0.14844 3.1562-0.45312 1.082-0.3125 2.1914-0.77344 3.3281-1.3906v3.7656c-1.1562 0.4375-2.3125 0.76562-3.4688 0.98438-1.1562 0.22656-2.3125 0.34375-3.4688 0.34375-2.7734 0-4.9297-0.70312-6.4688-2.1094-1.5312-1.4062-2.2969-3.3789-2.2969-5.9219 0-2.5 0.75391-4.4609 2.2656-5.8906 1.5078-1.4375 3.582-2.1562 6.2188-2.1562 2.4062 0 4.332 0.73047 5.7812 2.1875 1.4453 1.4492 2.1719 3.3828 2.1719 5.7969zm-5.0312-1.625c0-0.92578-0.27344-1.6719-0.8125-2.2344-0.54297-0.57031-1.25-0.85938-2.125-0.85938-0.94922 0-1.7188 0.26562-2.3125 0.79688s-0.96484 1.2969-1.1094 2.2969z"/>
  </symbol>
  <symbol id="g" overflow="visible">
   <path d="m9.2188-6.8906c-1.0234 0-1.793 0.17188-2.3125 0.51562-0.51172 0.34375-0.76562 0.85547-0.76562 1.5312 0 0.625 0.20703 1.1172 0.625 1.4688 0.41406 0.34375 0.98828 0.51562 1.7188 0.51562 0.92578 0 1.7031-0.32812 2.3281-0.98438 0.63281-0.66406 0.95312-1.4922 0.95312-2.4844v-0.5625zm7.4688-1.8438v8.7344h-4.9219v-2.2656c-0.65625 0.92969-1.3984 1.6055-2.2188 2.0312-0.82422 0.41406-1.8242 0.625-3 0.625-1.5859 0-2.8711-0.45703-3.8594-1.375-0.99219-0.92578-1.4844-2.1289-1.4844-3.6094 0-1.7891 0.61328-3.1016 1.8438-3.9375 1.2383-0.84375 3.1797-1.2656 5.8281-1.2656h2.8906v-0.39062c0-0.76953-0.30859-1.332-0.92188-1.6875-0.61719-0.36328-1.5703-0.54688-2.8594-0.54688-1.0547 0-2.0312 0.10547-2.9375 0.3125-0.89844 0.21094-1.7305 0.52344-2.5 0.9375v-3.7344c1.0391-0.25 2.0859-0.44141 3.1406-0.57812 1.0625-0.13281 2.125-0.20312 3.1875-0.20312 2.7578 0 4.75 0.54688 5.9688 1.6406 1.2266 1.0859 1.8438 2.8555 1.8438 5.3125z"/>
  </symbol>
  <symbol id="c" overflow="visible">
   <path d="m7.7031-19.656v4.3438h5.0469v3.5h-5.0469v6.5c0 0.71094 0.14062 1.1875 0.42188 1.4375s0.83594 0.375 1.6719 0.375h2.5156v3.5h-4.1875c-1.9375 0-3.3125-0.39844-4.125-1.2031-0.80469-0.8125-1.2031-2.1797-1.2031-4.1094v-6.5h-2.4219v-3.5h2.4219v-4.3438z"/>
  </symbol>
  <symbol id="f" overflow="visible">
   <path d="m12.766-13.078v-8.2031h4.9219v21.281h-4.9219v-2.2188c-0.66797 0.90625-1.4062 1.5703-2.2188 1.9844s-1.7578 0.625-2.8281 0.625c-1.8867 0-3.4336-0.75-4.6406-2.25-1.2109-1.5-1.8125-3.4258-1.8125-5.7812 0-2.3633 0.60156-4.2969 1.8125-5.7969 1.207-1.5 2.7539-2.25 4.6406-2.25 1.0625 0 2 0.21484 2.8125 0.64062 0.82031 0.42969 1.5664 1.0859 2.2344 1.9688zm-3.2188 9.9219c1.0391 0 1.8359-0.37891 2.3906-1.1406 0.55078-0.76953 0.82812-1.8828 0.82812-3.3438 0-1.457-0.27734-2.5664-0.82812-3.3281-0.55469-0.76953-1.3516-1.1562-2.3906-1.1562-1.043 0-1.8398 0.38672-2.3906 1.1562-0.55469 0.76172-0.82812 1.8711-0.82812 3.3281 0 1.4609 0.27344 2.5742 0.82812 3.3438 0.55078 0.76172 1.3477 1.1406 2.3906 1.1406z"/>
  </symbol>
  <symbol id="k" overflow="visible">
   <path d="m10.5-3.1562c1.0508 0 1.8516-0.37891 2.4062-1.1406 0.55078-0.76953 0.82812-1.8828 0.82812-3.3438 0-1.457-0.27734-2.5664-0.82812-3.3281-0.55469-0.76953-1.3555-1.1562-2.4062-1.1562-1.0547 0-1.8594 0.38672-2.4219 1.1562-0.55469 0.77344-0.82812 1.8828-0.82812 3.3281 0 1.4492 0.27344 2.5586 0.82812 3.3281 0.5625 0.77344 1.3672 1.1562 2.4219 1.1562zm-3.25-9.9219c0.67578-0.88281 1.4219-1.5391 2.2344-1.9688 0.82031-0.42578 1.7656-0.64062 2.8281-0.64062 1.8945 0 3.4453 0.75 4.6562 2.25 1.207 1.5 1.8125 3.4336 1.8125 5.7969 0 2.3555-0.60547 4.2812-1.8125 5.7812-1.2109 1.5-2.7617 2.25-4.6562 2.25-1.0625 0-2.0078-0.21094-2.8281-0.625-0.8125-0.42578-1.5586-1.0859-2.2344-1.9844v2.2188h-4.8906v-21.281h4.8906z"/>
  </symbol>
  <symbol id="e" overflow="visible">
   <path d="m0.34375-15.312h4.8906l4.125 10.391 3.5-10.391h4.8906l-6.4375 16.766c-0.64844 1.6953-1.4023 2.8828-2.2656 3.5625-0.86719 0.6875-2 1.0312-3.4062 1.0312h-2.8438v-3.2188h1.5312c0.83203 0 1.4375-0.13672 1.8125-0.40625 0.38281-0.26172 0.67969-0.73047 0.89062-1.4062l0.14062-0.42188z"/>
  </symbol>
  <symbol id="j" overflow="visible">
   <path d="m14.312-14.828v3.7188c-1.043-0.4375-2.0547-0.76562-3.0312-0.98438-0.98047-0.21875-1.9023-0.32812-2.7656-0.32812-0.92969 0-1.6211 0.11719-2.0781 0.34375-0.44922 0.23047-0.67188 0.58984-0.67188 1.0781 0 0.38672 0.17188 0.68359 0.51562 0.89062 0.34375 0.21094 0.95703 0.36719 1.8438 0.46875l0.85938 0.125c2.5078 0.32422 4.1953 0.85156 5.0625 1.5781 0.86328 0.73047 1.2969 1.8711 1.2969 3.4219 0 1.6367-0.60547 2.8672-1.8125 3.6875-1.1992 0.8125-2.9922 1.2188-5.375 1.2188-1.0234 0-2.0742-0.078125-3.1562-0.23438-1.0742-0.15625-2.1797-0.39453-3.3125-0.71875v-3.7188c0.96875 0.48047 1.9609 0.83984 2.9844 1.0781 1.0312 0.23047 2.0781 0.34375 3.1406 0.34375 0.95703 0 1.6758-0.12891 2.1562-0.39062 0.47656-0.26953 0.71875-0.66406 0.71875-1.1875 0-0.4375-0.16797-0.75781-0.5-0.96875-0.33594-0.21875-0.99609-0.38281-1.9844-0.5l-0.85938-0.10938c-2.1797-0.26953-3.7031-0.77344-4.5781-1.5156-0.875-0.73828-1.3125-1.8594-1.3125-3.3594 0-1.625 0.55078-2.8281 1.6562-3.6094 1.1133-0.78906 2.8203-1.1875 5.125-1.1875 0.89453 0 1.8359 0.074219 2.8281 0.21875 1 0.13672 2.082 0.35156 3.25 0.64062z"/>
  </symbol>
  <symbol id="u" overflow="visible">
   <path d="m2.3594-21.281h4.8906v21.281h-4.8906z"/>
  </symbol>
  <symbol id="t" overflow="visible">
   <path d="m20.922-1.5156c-1.3125 0.63672-2.6797 1.1172-4.0938 1.4375-1.4062 0.3125-2.8672 0.46875-4.375 0.46875-3.3984 0-6.0898-0.94531-8.0781-2.8438-1.9922-1.9062-2.9844-4.4844-2.9844-7.7344 0-3.2891 1.0078-5.8789 3.0312-7.7656 2.0312-1.8828 4.8047-2.8281 8.3281-2.8281 1.3516 0 2.6484 0.13281 3.8906 0.39062 1.25 0.25 2.4258 0.625 3.5312 1.125v4.2188c-1.1484-0.64453-2.2812-1.125-3.4062-1.4375-1.125-0.32031-2.25-0.48438-3.375-0.48438-2.1055 0-3.7266 0.58984-4.8594 1.7656-1.125 1.168-1.6875 2.8398-1.6875 5.0156 0 2.1562 0.54688 3.8242 1.6406 5 1.0938 1.1797 2.6445 1.7656 4.6562 1.7656 0.53906 0 1.0469-0.03125 1.5156-0.09375 0.47656-0.070313 0.89844-0.17969 1.2656-0.32812v-3.9688h-3.2031v-3.5156h8.2031z"/>
  </symbol>
  <symbol id="b" overflow="visible">
   <path d="m9.6406-12.188c-1.0859 0-1.9141 0.39062-2.4844 1.1719-0.57422 0.78125-0.85938 1.9062-0.85938 3.375s0.28516 2.5938 0.85938 3.375c0.57031 0.77344 1.3984 1.1562 2.4844 1.1562 1.0625 0 1.875-0.38281 2.4375-1.1562 0.57031-0.78125 0.85938-1.9062 0.85938-3.375s-0.28906-2.5938-0.85938-3.375c-0.5625-0.78125-1.375-1.1719-2.4375-1.1719zm0-3.5c2.6328 0 4.6914 0.71484 6.1719 2.1406 1.4766 1.418 2.2188 3.3867 2.2188 5.9062 0 2.5117-0.74219 4.4805-2.2188 5.9062-1.4805 1.418-3.5391 2.125-6.1719 2.125-2.6484 0-4.7148-0.70703-6.2031-2.125-1.4922-1.4258-2.2344-3.3945-2.2344-5.9062 0-2.5195 0.74219-4.4883 2.2344-5.9062 1.4883-1.4258 3.5547-2.1406 6.2031-2.1406z"/>
  </symbol>
  <symbol id="h" overflow="visible">
   <path d="m17.75-9.3281v9.3281h-4.9219v-7.1406c0-1.3203-0.03125-2.2344-0.09375-2.7344s-0.16797-0.86719-0.3125-1.1094c-0.1875-0.3125-0.44922-0.55469-0.78125-0.73438-0.32422-0.17578-0.69531-0.26562-1.1094-0.26562-1.0234 0-1.8242 0.39844-2.4062 1.1875-0.58594 0.78125-0.875 1.8711-0.875 3.2656v7.5312h-4.8906v-15.312h4.8906v2.2344c0.73828-0.88281 1.5195-1.5391 2.3438-1.9688 0.83203-0.42578 1.75-0.64062 2.75-0.64062 1.7695 0 3.1133 0.54688 4.0312 1.6406 0.91406 1.0859 1.375 2.6562 1.375 4.7188z"/>
  </symbol>
  <symbol id="s" overflow="visible">
   <path d="m12.422-21.281v3.2188h-2.7031c-0.6875 0-1.1719 0.125-1.4531 0.375-0.27344 0.25-0.40625 0.6875-0.40625 1.3125v1.0625h4.1875v3.5h-4.1875v11.812h-4.8906v-11.812h-2.4375v-3.5h2.4375v-1.0625c0-1.6641 0.46094-2.8984 1.3906-3.7031 0.92578-0.80078 2.3672-1.2031 4.3281-1.2031z"/>
  </symbol>
  <symbol id="r" overflow="visible">
   <path d="m16.547-12.766c0.61328-0.94531 1.3477-1.6719 2.2031-2.1719 0.85156-0.5 1.7891-0.75 2.8125-0.75 1.7578 0 3.0977 0.54688 4.0156 1.6406 0.92578 1.0859 1.3906 2.6562 1.3906 4.7188v9.3281h-4.9219v-7.9844-0.35938c0.007813-0.13281 0.015625-0.32031 0.015625-0.5625 0-1.082-0.16406-1.8633-0.48438-2.3438-0.3125-0.48828-0.82422-0.73438-1.5312-0.73438-0.92969 0-1.6484 0.38672-2.1562 1.1562-0.51172 0.76172-0.77344 1.8672-0.78125 3.3125v7.5156h-4.9219v-7.9844c0-1.6953-0.14844-2.7852-0.4375-3.2656-0.29297-0.48828-0.8125-0.73438-1.5625-0.73438-0.9375 0-1.6641 0.38672-2.1719 1.1562-0.51172 0.76172-0.76562 1.8594-0.76562 3.2969v7.5312h-4.9219v-15.312h4.9219v2.2344c0.60156-0.86328 1.2891-1.5156 2.0625-1.9531 0.78125-0.4375 1.6406-0.65625 2.5781-0.65625 1.0625 0 2 0.25781 2.8125 0.76562 0.8125 0.51172 1.4258 1.2305 1.8438 2.1562z"/>
  </symbol>
  <symbol id="q" overflow="visible">
   <path d="m17.75-9.3281v9.3281h-4.9219v-7.1094c0-1.3438-0.03125-2.2656-0.09375-2.7656s-0.16797-0.86719-0.3125-1.1094c-0.1875-0.3125-0.44922-0.55469-0.78125-0.73438-0.32422-0.17578-0.69531-0.26562-1.1094-0.26562-1.0234 0-1.8242 0.39844-2.4062 1.1875-0.58594 0.78125-0.875 1.8711-0.875 3.2656v7.5312h-4.8906v-21.281h4.8906v8.2031c0.73828-0.88281 1.5195-1.5391 2.3438-1.9688 0.83203-0.42578 1.75-0.64062 2.75-0.64062 1.7695 0 3.1133 0.54688 4.0312 1.6406 0.91406 1.0859 1.375 2.6562 1.375 4.7188z"/>
  </symbol>
  <symbol id="p" overflow="visible">
   <path d="m2.5781-20.406h5.875l7.4219 14v-14h4.9844v20.406h-5.875l-7.4219-14v14h-4.9844z"/>
  </symbol>
  <symbol id="o" overflow="visible">
   <path d="m2.1875-5.9688v-9.3438h4.9219v1.5312c0 0.83594-0.007813 1.875-0.015625 3.125-0.011719 1.25-0.015625 2.0859-0.015625 2.5 0 1.2422 0.03125 2.1328 0.09375 2.6719 0.070313 0.54297 0.17969 0.93359 0.32812 1.1719 0.20703 0.32422 0.47266 0.57422 0.79688 0.75 0.32031 0.16797 0.69141 0.25 1.1094 0.25 1.0195 0 1.8203-0.39062 2.4062-1.1719 0.58203-0.78125 0.875-1.8672 0.875-3.2656v-7.5625h4.8906v15.312h-4.8906v-2.2188c-0.74219 0.89844-1.5234 1.5586-2.3438 1.9844-0.82422 0.41406-1.7344 0.625-2.7344 0.625-1.7617 0-3.1055-0.53906-4.0312-1.625-0.92969-1.082-1.3906-2.6602-1.3906-4.7344z"/>
  </symbol>
  <symbol id="n" overflow="visible">
   <path d="m2.5781-20.406h8.7344c2.5938 0 4.582 0.57812 5.9688 1.7344 1.3945 1.1484 2.0938 2.7891 2.0938 4.9219 0 2.1367-0.69922 3.7812-2.0938 4.9375-1.3867 1.1562-3.375 1.7344-5.9688 1.7344h-3.4844v7.0781h-5.25zm5.25 3.8125v5.7031h2.9219c1.0195 0 1.8047-0.25 2.3594-0.75 0.5625-0.5 0.84375-1.2031 0.84375-2.1094 0-0.91406-0.28125-1.6172-0.84375-2.1094-0.55469-0.48828-1.3398-0.73438-2.3594-0.73438z"/>
  </symbol>
  <symbol id="m" overflow="visible">
   <path d="m2.3594-15.312h4.8906v15.031c0 2.0508-0.49609 3.6172-1.4844 4.7031-0.98047 1.082-2.4062 1.625-4.2812 1.625h-2.4219v-3.2188h0.85938c0.92578 0 1.5625-0.21094 1.9062-0.625 0.35156-0.41797 0.53125-1.2461 0.53125-2.4844zm0-5.9688h4.8906v4h-4.8906z"/>
  </symbol>
  <symbol id="l" overflow="visible">
   <path d="m14.719-14.828v3.9844c-0.65625-0.45703-1.3242-0.79688-2-1.0156-0.66797-0.21875-1.3594-0.32812-2.0781-0.32812-1.3672 0-2.4336 0.40234-3.2031 1.2031-0.76172 0.79297-1.1406 1.9062-1.1406 3.3438 0 1.4297 0.37891 2.543 1.1406 3.3438 0.76953 0.79297 1.8359 1.1875 3.2031 1.1875 0.75781 0 1.4844-0.10938 2.1719-0.32812 0.6875-0.22656 1.3203-0.56641 1.9062-1.0156v4c-0.76172 0.28125-1.5391 0.48828-2.3281 0.625-0.78125 0.14453-1.5742 0.21875-2.375 0.21875-2.7617 0-4.9219-0.70703-6.4844-2.125-1.5547-1.4141-2.3281-3.3828-2.3281-5.9062 0-2.5312 0.77344-4.5039 2.3281-5.9219 1.5625-1.4141 3.7227-2.125 6.4844-2.125 0.80078 0 1.5938 0.074219 2.375 0.21875 0.78125 0.13672 1.5547 0.35156 2.3281 0.64062z"/>
  </symbol>
 </defs>
 <g>
  <path d="m184.91 89.992c16.969 0 30.801-13.832 30.801-30.801s-13.832-30.801-30.801-30.801-30.801 13.832-30.801 30.801c0.003906 16.969 13.836 30.801 30.801 30.801zm0-39.199c4.6484 0 8.3984 3.7539 8.3984 8.3984 0 4.6484-3.7539 8.3984-8.3984 8.3984-4.6484 0-8.3984-3.7539-8.3984-8.3984 0-4.6484 3.7539-8.3984 8.3984-8.3984zm19.602 403.98c-16.969 0-30.801 13.832-30.801 30.801s13.832 30.801 30.801 30.801 30.801-13.832 30.801-30.801-13.832-30.801-30.801-30.801zm0 39.199c-4.6484 0-8.3984-3.7539-8.3984-8.3984 0-4.6484 3.7539-8.3984 8.3984-8.3984 4.6484 0 8.3984 3.7539 8.3984 8.3984s-3.75 8.3984-8.3984 8.3984zm33.602-86.074c0 7.7266-6.2734 14-14 14-7.7266 0-14-6.2734-14-14 0-7.7266 6.2734-14 14-14 7.7266 0 14 6.2734 14 14zm291.7-42c0 7.7266-6.2734 14-14 14-7.7266 0-14-6.2734-14-14 0-7.7266 6.2734-14 14-14 7.7266 0 14 6.2734 14 14zm70.055 83.609c0 7.7266-6.2734 14-14 14-7.7266 0-14-6.2734-14-14 0-7.7266 6.2734-14 14-14 7.7305 0 14 6.2734 14 14zm-56-395.86c0-7.7266 6.2734-14 14-14 7.7266 0 14 6.2734 14 14 0 7.7266-6.2734 14-14 14-7.7266 0-14-6.2734-14-14zm-448.56 25.703c0-7.7266 6.2734-14 14-14s14 6.2734 14 14c0 7.7266-6.2734 14-14 14s-14-6.2734-14-14zm81.199 286.55c0 6.1602-5.0391 11.199-11.199 11.199h-16.801v16.801c0 6.1602-5.0391 11.199-11.199 11.199s-11.199-5.0391-11.199-11.199v-16.801h-16.801c-6.1602 0-11.199-5.0391-11.199-11.199s5.0391-11.199 11.199-11.199h16.801v-16.801c0-6.1602 5.0391-11.199 11.199-11.199s11.199 5.0391 11.199 11.199v16.801h16.801c6.1602 0 11.199 5.0391 11.199 11.199zm364.5 127.74c0 6.1602-5.0391 11.199-11.199 11.199h-16.801v16.801c0 6.1602-5.0391 11.199-11.199 11.199s-11.199-5.0391-11.199-11.199v-16.801h-16.801c-6.1602 0-11.199-5.0391-11.199-11.199s5.0391-11.199 11.199-11.199h16.801v-16.801c0-6.1602 5.0391-11.199 11.199-11.199s11.199 5.0391 11.199 11.199v16.801h16.801c6.1602 0 11.199 5.0391 11.199 11.199zm70.055-195.5c0 6.1602-5.0391 11.199-11.199 11.199h-16.801v16.801c0 6.1602-5.0391 11.199-11.199 11.199s-11.199-5.0391-11.199-11.199v-16.801h-16.801c-6.1602 0-11.199-5.0391-11.199-11.199 0-6.1602 5.0391-11.199 11.199-11.199h16.801v-16.801c0-6.1602 5.0391-11.199 11.199-11.199s11.199 5.0391 11.199 11.199v16.801h16.801c6.2188 0 11.199 4.9844 11.199 11.199zm-298.64-208.38c4.0898 4.5938 3.6953 11.703-0.89453 15.793-17.977 16.016-30.016 37.016-34.719 60.703-1.0625 5.3203-5.7695 9.0156-10.977 9.0156-0.72656 0-1.457-0.054688-2.1836-0.22266-6.0469-1.2305-10.023-7.1133-8.793-13.16 5.7109-28.504 20.16-53.762 41.777-73.023 4.5859-4.1484 11.645-3.7539 15.789 0.89453zm72.965 357.5c0.11328 0.72656 0.16797 1.457 0.16797 2.1836 0 3.0234-1.1211 5.8242-3.2461 7.9531-1.0625 1.0625-2.2969 1.8477-3.6406 2.4062s-2.8008 0.83984-4.3125 0.83984c-2.9688 0-5.7695-1.1211-7.8945-3.2461-2.1289-2.1289-3.2461-4.9297-3.2461-7.9531 0-2.9688 1.1758-5.8242 3.2461-7.8945 4.1992-4.1992 11.703-4.1992 15.848 0 0.50391 0.50391 0.95312 1.0625 1.3984 1.6797 0.39062 0.61719 0.72656 1.2891 1.0078 1.9609 0.28125 0.66797 0.50391 1.3984 0.67188 2.0703zm-21.781 21.672c4.6484 4.0898 5.1523 11.145 1.0625 15.793-10.695 12.266-13.215 29.23-6.6641 44.297 2.4648 5.6562-0.11328 12.266-5.7695 14.727-1.457 0.61719-2.9688 0.95312-4.4805 0.95312-4.3125 0-8.3984-2.5195-10.246-6.7188-10.137-23.07-6.1602-49.113 10.246-67.984 4.0898-4.6523 11.203-5.1562 15.852-1.0664zm87.191-94.922c-12.938 12.32-16.633 30.855-9.4648 47.207 10.977 25.09 5.3203 53.48-14.504 72.406-2.1836 2.0703-4.9297 3.0781-7.7266 3.0781-2.9688 0-5.8789-1.1758-8.1211-3.4727-4.2578-4.4805-4.0898-11.594 0.33594-15.848 12.938-12.32 16.633-30.855 9.4648-47.207-10.977-25.09-5.3203-53.48 14.504-72.406 12.938-12.32 16.633-30.855 9.4648-47.207-8.2891-18.871-7.1133-39.648 2.4648-56.84l-35.559-7.1133c-9.9688 12.207-12.266 28.223-5.7109 43.121 10.977 25.09 5.3203 53.48-14.504 72.406-12.938 12.32-16.633 30.855-9.4648 47.207 0.33594 0.83984 0.72656 1.625 1.0078 2.5195 2.2383 5.7695-0.61719 12.266-6.3828 14.504-1.3438 0.50391-2.6875 0.78516-4.0312 0.78516-4.4805 0-8.7344-2.6875-10.414-7.168-0.22266-0.55859-0.44922-1.0625-0.67188-1.625-10.977-25.09-5.3203-53.535 14.504-72.406 12.938-12.32 16.633-30.855 9.4648-47.207-8.2891-18.871-7.1133-39.648 2.4648-56.84l-35.559-7.1133c-9.8008 12.098-12.152 28.449-5.7109 43.121 6.0469 13.832 7.168 28.617 3.3047 42.84-1.3438 4.9844-5.8789 8.2305-10.809 8.2305-1.0078 0-1.9609-0.11328-2.9688-0.39062-5.9922-1.625-9.4648-7.7852-7.8398-13.777 2.5195-9.2383 1.793-18.871-2.1836-27.945-8.2891-18.871-7.1133-39.648 2.4648-56.84l-26.938-5.375-10.078 50.512c-3.6953 18.535-14.449 34.551-30.184 45.023-11.762 7.8398-25.312 11.93-39.145 11.93-4.6484 0-9.3516-0.44922-14.055-1.3984-18.535-3.6953-34.551-14.449-45.023-30.184-10.473-15.734-14.223-34.609-10.527-53.145l9.1289-45.527c2.3516-11.762 0-23.688-6.6641-33.656-6.6641-9.9688-16.801-16.742-28.504-19.098-6.0469-1.2305-10.023-7.1133-8.793-13.16 1.2305-6.0469 7.1133-9.9688 13.16-8.793 17.641 3.5273 32.816 13.719 42.785 28.672s13.496 32.871 9.9688 50.512l-9.1289 45.527c-2.5195 12.656 0 25.594 7.168 36.344 7.168 10.754 18.09 18.09 30.801 20.609 12.656 2.5195 25.594 0 36.344-7.168 10.754-7.168 18.09-18.09 20.609-30.801l10.078-50.512-20.16-4.0312c-28.785-5.7695-47.602-33.375-42.055-61.656 0-0.054688 0.11328-0.50391 0.11328-0.55859 9.0703-45.414 35.559-84.336 74.594-109.59 38.898-25.363 85.324-33.539 130.68-23.125 66.023 15.121 116.82 67.871 129.47 134.46 1.1758 6.0469-2.8555 11.93-8.9023 13.105s-11.93-2.8555-13.105-8.9023c-10.977-57.852-55.16-103.71-112.5-116.82-39.367-9.0156-79.688-1.9023-113.57 19.992-33.879 21.895-56.895 55.777-64.793 95.312-3.2461 16.52 7.7266 32.367 24.414 35.727l86.855 17.359 59.305 11.871h0.054688l83.441 16.688c8.1211 1.625 16.406 0 23.297-4.6484 6.9453-4.6484 11.648-11.816 13.273-20.047 1.5117-7.8398 2.4062-15.902 2.6328-23.969 0.16797-6.1602 5.2656-11.199 11.535-10.863 6.1602 0.16797 11.031 5.375 10.863 11.535-0.28125 9.2383-1.2891 18.48-3.0234 27.496-2.7422 14.168-10.809 26.375-22.734 34.441-8.9102 5.9375-19.156 9.0742-29.629 9.0742-3.5273 0-7.0547-0.33594-10.586-1.0625l-18.09-3.6406c-9.8008 12.098-12.152 28.449-5.7109 43.121 10.98 25.086 5.2656 53.48-14.5 72.406zm-121.52-20.832c-10.695 12.266-13.273 29.289-6.6641 44.352 10.977 25.09 5.3203 53.48-14.504 72.406-12.938 12.32-16.633 30.855-9.4648 47.207 2.4648 5.6562-0.11328 12.266-5.7695 14.727-1.457 0.61719-2.9688 0.95313-4.4805 0.95313-4.3125 0-8.3984-2.5195-10.246-6.7188-10.977-25.09-5.3203-53.48 14.504-72.406 12.938-12.32 16.633-30.855 9.4648-47.207-10.137-23.07-6.1602-49.168 10.305-68.039 4.0898-4.6484 11.145-5.1523 15.793-1.0625 4.7031 4.0312 5.1484 11.086 1.0625 15.789zm45.414-246.62c-7.5586-1.5117-12.488-8.9023-10.977-16.465 1.5117-7.5586 8.9023-12.488 16.465-10.977 7.5586 1.5117 12.488 8.9023 10.977 16.465-1.5117 7.5625-8.9023 12.488-16.465 10.977zm71.402 0c1.5117-7.5586 8.9023-12.488 16.465-10.977 7.5586 1.5117 12.488 8.9023 10.977 16.465-1.5117 7.5586-8.9023 12.488-16.465 10.977s-12.488-8.9023-10.977-16.465zm-66.867 23.523c-2.5742-3.4727 0.67188-8.2891 4.8711-7.4492l58.07 11.648c4.1992 0.83984 5.3203 6.4961 1.625 8.7344-10.078 6.0469-22.344 8.5117-34.832 6.0469-12.371-2.5195-22.789-9.5195-29.734-18.98z"/>
  <use x="70" y="644" xlink:href="#i"/>
  <use x="90.550781" y="644" xlink:href="#a"/>
  <use x="104.359375" y="644" xlink:href="#d"/>
  <use x="123.347656" y="644" xlink:href="#g"/>
  <use x="142.242188" y="644" xlink:href="#c"/>
  <use x="155.628906" y="644" xlink:href="#d"/>
  <use x="174.617188" y="644" xlink:href="#f"/>
  <use x="204.410156" y="644" xlink:href="#k"/>
  <use x="224.453125" y="644" xlink:href="#e"/>
  <use x="252.453125" y="644" xlink:href="#i"/>
  <use x="273" y="644" xlink:href="#a"/>
  <use x="286.808594" y="644" xlink:href="#e"/>
  <use x="305.0625" y="644" xlink:href="#j"/>
  <use x="321.726562" y="644" xlink:href="#c"/>
  <use x="335.109375" y="644" xlink:href="#g"/>
  <use x="354.007812" y="644" xlink:href="#u"/>
  <use x="373.351562" y="644" xlink:href="#t"/>
  <use x="396.335938" y="644" xlink:href="#b"/>
  <use x="415.570312" y="644" xlink:href="#a"/>
  <use x="429.378906" y="644" xlink:href="#f"/>
  <use x="449.421875" y="644" xlink:href="#b"/>
  <use x="468.65625" y="644" xlink:href="#h"/>
  <use x="70" y="672" xlink:href="#s"/>
  <use x="82.183594" y="672" xlink:href="#a"/>
  <use x="95.992188" y="672" xlink:href="#b"/>
  <use x="115.226562" y="672" xlink:href="#r"/>
  <use x="154.152344" y="672" xlink:href="#c"/>
  <use x="167.535156" y="672" xlink:href="#q"/>
  <use x="187.46875" y="672" xlink:href="#d"/>
  <use x="216.207031" y="672" xlink:href="#p"/>
  <use x="239.640625" y="672" xlink:href="#b"/>
  <use x="258.878906" y="672" xlink:href="#o"/>
  <use x="278.8125" y="672" xlink:href="#h"/>
  <use x="308.492188" y="672" xlink:href="#n"/>
  <use x="329.015625" y="672" xlink:href="#a"/>
  <use x="342.820312" y="672" xlink:href="#b"/>
  <use x="362.058594" y="672" xlink:href="#m"/>
  <use x="371.65625" y="672" xlink:href="#d"/>
  <use x="390.648438" y="672" xlink:href="#l"/>
  <use x="407.242188" y="672" xlink:href="#c"/>
 </g>
</svg>
