<?xml version="1.0" encoding="UTF-8"?>
<svg width="700pt" height="700pt" version="1.1" viewBox="0 0 700 700" xmlns="http://www.w3.org/2000/svg" xmlns:xlink="http://www.w3.org/1999/xlink">
 <defs>
  <symbol id="y" overflow="visible">
   <path d="m18.766-1.125c-0.96875 0.5-1.9805 0.875-3.0312 1.125-1.043 0.25781-2.1367 0.39062-3.2812 0.39062-3.3984 0-6.0898-0.94531-8.0781-2.8438-1.9922-1.9062-2.9844-4.4844-2.9844-7.7344 0-3.2578 0.99219-5.8359 2.9844-7.7344 1.9883-1.9062 4.6797-2.8594 8.0781-2.8594 1.1445 0 2.2383 0.13281 3.2812 0.39062 1.0508 0.25 2.0625 0.625 3.0312 1.125v4.2188c-0.98047-0.65625-1.9453-1.1406-2.8906-1.4531-0.94922-0.3125-1.9492-0.46875-3-0.46875-1.875 0-3.3516 0.60547-4.4219 1.8125-1.0742 1.1992-1.6094 2.8555-1.6094 4.9688 0 2.1055 0.53516 3.7617 1.6094 4.9688 1.0703 1.1992 2.5469 1.7969 4.4219 1.7969 1.0508 0 2.0508-0.14844 3-0.45312 0.94531-0.3125 1.9102-0.80078 2.8906-1.4688z"/>
  </symbol>
  <symbol id="d" overflow="visible">
   <path d="m13.734-11.141c-0.4375-0.19531-0.87109-0.34375-1.2969-0.4375-0.41797-0.10156-0.83984-0.15625-1.2656-0.15625-1.2617 0-2.2305 0.40625-2.9062 1.2188-0.67969 0.80469-1.0156 1.9531-1.0156 3.4531v7.0625h-4.8906v-15.312h4.8906v2.5156c0.625-1 1.3438-1.7266 2.1562-2.1875 0.82031-0.46875 1.8008-0.70312 2.9375-0.70312 0.16406 0 0.34375 0.011719 0.53125 0.03125 0.19531 0.011719 0.47656 0.039062 0.84375 0.078125z"/>
  </symbol>
  <symbol id="a" overflow="visible">
   <path d="m17.641-7.7031v1.4062h-11.453c0.125 1.1484 0.53906 2.0078 1.25 2.5781 0.70703 0.57422 1.7031 0.85938 2.9844 0.85938 1.0312 0 2.082-0.14844 3.1562-0.45312 1.082-0.3125 2.1914-0.77344 3.3281-1.3906v3.7656c-1.1562 0.4375-2.3125 0.76562-3.4688 0.98438-1.1562 0.22656-2.3125 0.34375-3.4688 0.34375-2.7734 0-4.9297-0.70312-6.4688-2.1094-1.5312-1.4062-2.2969-3.3789-2.2969-5.9219 0-2.5 0.75391-4.4609 2.2656-5.8906 1.5078-1.4375 3.582-2.1562 6.2188-2.1562 2.4062 0 4.332 0.73047 5.7812 2.1875 1.4453 1.4492 2.1719 3.3828 2.1719 5.7969zm-5.0312-1.625c0-0.92578-0.27344-1.6719-0.8125-2.2344-0.54297-0.57031-1.25-0.85938-2.125-0.85938-0.94922 0-1.7188 0.26562-2.3125 0.79688s-0.96484 1.2969-1.1094 2.2969z"/>
  </symbol>
  <symbol id="e" overflow="visible">
   <path d="m9.2188-6.8906c-1.0234 0-1.793 0.17188-2.3125 0.51562-0.51172 0.34375-0.76562 0.85547-0.76562 1.5312 0 0.625 0.20703 1.1172 0.625 1.4688 0.41406 0.34375 0.98828 0.51562 1.7188 0.51562 0.92578 0 1.7031-0.32812 2.3281-0.98438 0.63281-0.66406 0.95312-1.4922 0.95312-2.4844v-0.5625zm7.4688-1.8438v8.7344h-4.9219v-2.2656c-0.65625 0.92969-1.3984 1.6055-2.2188 2.0312-0.82422 0.41406-1.8242 0.625-3 0.625-1.5859 0-2.8711-0.45703-3.8594-1.375-0.99219-0.92578-1.4844-2.1289-1.4844-3.6094 0-1.7891 0.61328-3.1016 1.8438-3.9375 1.2383-0.84375 3.1797-1.2656 5.8281-1.2656h2.8906v-0.39062c0-0.76953-0.30859-1.332-0.92188-1.6875-0.61719-0.36328-1.5703-0.54688-2.8594-0.54688-1.0547 0-2.0312 0.10547-2.9375 0.3125-0.89844 0.21094-1.7305 0.52344-2.5 0.9375v-3.7344c1.0391-0.25 2.0859-0.44141 3.1406-0.57812 1.0625-0.13281 2.125-0.20312 3.1875-0.20312 2.7578 0 4.75 0.54688 5.9688 1.6406 1.2266 1.0859 1.8438 2.8555 1.8438 5.3125z"/>
  </symbol>
  <symbol id="c" overflow="visible">
   <path d="m7.7031-19.656v4.3438h5.0469v3.5h-5.0469v6.5c0 0.71094 0.14062 1.1875 0.42188 1.4375s0.83594 0.375 1.6719 0.375h2.5156v3.5h-4.1875c-1.9375 0-3.3125-0.39844-4.125-1.2031-0.80469-0.8125-1.2031-2.1797-1.2031-4.1094v-6.5h-2.4219v-3.5h2.4219v-4.3438z"/>
  </symbol>
  <symbol id="l" overflow="visible">
   <path d="m12.766-13.078v-8.2031h4.9219v21.281h-4.9219v-2.2188c-0.66797 0.90625-1.4062 1.5703-2.2188 1.9844s-1.7578 0.625-2.8281 0.625c-1.8867 0-3.4336-0.75-4.6406-2.25-1.2109-1.5-1.8125-3.4258-1.8125-5.7812 0-2.3633 0.60156-4.2969 1.8125-5.7969 1.207-1.5 2.7539-2.25 4.6406-2.25 1.0625 0 2 0.21484 2.8125 0.64062 0.82031 0.42969 1.5664 1.0859 2.2344 1.9688zm-3.2188 9.9219c1.0391 0 1.8359-0.37891 2.3906-1.1406 0.55078-0.76953 0.82812-1.8828 0.82812-3.3438 0-1.457-0.27734-2.5664-0.82812-3.3281-0.55469-0.76953-1.3516-1.1562-2.3906-1.1562-1.043 0-1.8398 0.38672-2.3906 1.1562-0.55469 0.76172-0.82812 1.8711-0.82812 3.3281 0 1.4609 0.27344 2.5742 0.82812 3.3438 0.55078 0.76172 1.3477 1.1406 2.3906 1.1406z"/>
  </symbol>
  <symbol id="k" overflow="visible">
   <path d="m10.5-3.1562c1.0508 0 1.8516-0.37891 2.4062-1.1406 0.55078-0.76953 0.82812-1.8828 0.82812-3.3438 0-1.457-0.27734-2.5664-0.82812-3.3281-0.55469-0.76953-1.3555-1.1562-2.4062-1.1562-1.0547 0-1.8594 0.38672-2.4219 1.1562-0.55469 0.77344-0.82812 1.8828-0.82812 3.3281 0 1.4492 0.27344 2.5586 0.82812 3.3281 0.5625 0.77344 1.3672 1.1562 2.4219 1.1562zm-3.25-9.9219c0.67578-0.88281 1.4219-1.5391 2.2344-1.9688 0.82031-0.42578 1.7656-0.64062 2.8281-0.64062 1.8945 0 3.4453 0.75 4.6562 2.25 1.207 1.5 1.8125 3.4336 1.8125 5.7969 0 2.3555-0.60547 4.2812-1.8125 5.7812-1.2109 1.5-2.7617 2.25-4.6562 2.25-1.0625 0-2.0078-0.21094-2.8281-0.625-0.8125-0.42578-1.5586-1.0859-2.2344-1.9844v2.2188h-4.8906v-21.281h4.8906z"/>
  </symbol>
  <symbol id="j" overflow="visible">
   <path d="m0.34375-15.312h4.8906l4.125 10.391 3.5-10.391h4.8906l-6.4375 16.766c-0.64844 1.6953-1.4023 2.8828-2.2656 3.5625-0.86719 0.6875-2 1.0312-3.4062 1.0312h-2.8438v-3.2188h1.5312c0.83203 0 1.4375-0.13672 1.8125-0.40625 0.38281-0.26172 0.67969-0.73047 0.89062-1.4062l0.14062-0.42188z"/>
  </symbol>
  <symbol id="i" overflow="visible">
   <path d="m2.5781-20.406h6.6875l4.6562 10.922 4.6719-10.922h6.6875v20.406h-4.9844v-14.938l-4.7031 11.016h-3.3281l-4.7031-11.016v14.938h-4.9844z"/>
  </symbol>
  <symbol id="x" overflow="visible">
   <path d="m6.2188-7.8281-5.5156-7.4844h5.1719l3.1406 4.5312 3.1719-4.5312h5.1719l-5.5156 7.4531 5.7969 7.8594h-5.1875l-3.4375-4.8438-3.4062 4.8438h-5.1875z"/>
  </symbol>
  <symbol id="h" overflow="visible">
   <path d="m2.3594-15.312h4.8906v15.312h-4.8906zm0-5.9688h4.8906v4h-4.8906z"/>
  </symbol>
  <symbol id="g" overflow="visible">
   <path d="m16.547-12.766c0.61328-0.94531 1.3477-1.6719 2.2031-2.1719 0.85156-0.5 1.7891-0.75 2.8125-0.75 1.7578 0 3.0977 0.54688 4.0156 1.6406 0.92578 1.0859 1.3906 2.6562 1.3906 4.7188v9.3281h-4.9219v-7.9844-0.35938c0.007813-0.13281 0.015625-0.32031 0.015625-0.5625 0-1.082-0.16406-1.8633-0.48438-2.3438-0.3125-0.48828-0.82422-0.73438-1.5312-0.73438-0.92969 0-1.6484 0.38672-2.1562 1.1562-0.51172 0.76172-0.77344 1.8672-0.78125 3.3125v7.5156h-4.9219v-7.9844c0-1.6953-0.14844-2.7852-0.4375-3.2656-0.29297-0.48828-0.8125-0.73438-1.5625-0.73438-0.9375 0-1.6641 0.38672-2.1719 1.1562-0.51172 0.76172-0.76562 1.8594-0.76562 3.2969v7.5312h-4.9219v-15.312h4.9219v2.2344c0.60156-0.86328 1.2891-1.5156 2.0625-1.9531 0.78125-0.4375 1.6406-0.65625 2.5781-0.65625 1.0625 0 2 0.25781 2.8125 0.76562 0.8125 0.51172 1.4258 1.2305 1.8438 2.1562z"/>
  </symbol>
  <symbol id="w" overflow="visible">
   <path d="m2.5781-20.406h5.25v7.4375l7.5938-7.4375h6.1094l-9.8281 9.6562 10.844 10.75h-6.5938l-8.125-8.0469v8.0469h-5.25z"/>
  </symbol>
  <symbol id="f" overflow="visible">
   <path d="m2.1875-5.9688v-9.3438h4.9219v1.5312c0 0.83594-0.007813 1.875-0.015625 3.125-0.011719 1.25-0.015625 2.0859-0.015625 2.5 0 1.2422 0.03125 2.1328 0.09375 2.6719 0.070313 0.54297 0.17969 0.93359 0.32812 1.1719 0.20703 0.32422 0.47266 0.57422 0.79688 0.75 0.32031 0.16797 0.69141 0.25 1.1094 0.25 1.0195 0 1.8203-0.39062 2.4062-1.1719 0.58203-0.78125 0.875-1.8672 0.875-3.2656v-7.5625h4.8906v15.312h-4.8906v-2.2188c-0.74219 0.89844-1.5234 1.5586-2.3438 1.9844-0.82422 0.41406-1.7344 0.625-2.7344 0.625-1.7617 0-3.1055-0.53906-4.0312-1.625-0.92969-1.082-1.3906-2.6602-1.3906-4.7344z"/>
  </symbol>
  <symbol id="v" overflow="visible">
   <path d="m2.3594-21.281h4.8906v21.281h-4.8906z"/>
  </symbol>
  <symbol id="u" overflow="visible">
   <path d="m2.3594-21.281h4.8906v11.594l5.625-5.625h5.6875l-7.4688 7.0312 8.0625 8.2812h-5.9375l-5.9688-6.3906v6.3906h-4.8906z"/>
  </symbol>
  <symbol id="b" overflow="visible">
   <path d="m9.6406-12.188c-1.0859 0-1.9141 0.39062-2.4844 1.1719-0.57422 0.78125-0.85938 1.9062-0.85938 3.375s0.28516 2.5938 0.85938 3.375c0.57031 0.77344 1.3984 1.1562 2.4844 1.1562 1.0625 0 1.875-0.38281 2.4375-1.1562 0.57031-0.78125 0.85938-1.9062 0.85938-3.375s-0.28906-2.5938-0.85938-3.375c-0.5625-0.78125-1.375-1.1719-2.4375-1.1719zm0-3.5c2.6328 0 4.6914 0.71484 6.1719 2.1406 1.4766 1.418 2.2188 3.3867 2.2188 5.9062 0 2.5117-0.74219 4.4805-2.2188 5.9062-1.4805 1.418-3.5391 2.125-6.1719 2.125-2.6484 0-4.7148-0.70703-6.2031-2.125-1.4922-1.4258-2.2344-3.3945-2.2344-5.9062 0-2.5195 0.74219-4.4883 2.2344-5.9062 1.4883-1.4258 3.5547-2.1406 6.2031-2.1406z"/>
  </symbol>
  <symbol id="t" overflow="visible">
   <path d="m0.42188-15.312h4.8906l3.8281 10.578 3.7969-10.578h4.9062l-6.0312 15.312h-5.375z"/>
  </symbol>
  <symbol id="s" overflow="visible">
   <path d="m12.422-21.281v3.2188h-2.7031c-0.6875 0-1.1719 0.125-1.4531 0.375-0.27344 0.25-0.40625 0.6875-0.40625 1.3125v1.0625h4.1875v3.5h-4.1875v11.812h-4.8906v-11.812h-2.4375v-3.5h2.4375v-1.0625c0-1.6641 0.46094-2.8984 1.3906-3.7031 0.92578-0.80078 2.3672-1.2031 4.3281-1.2031z"/>
  </symbol>
  <symbol id="r" overflow="visible">
   <path d="m17.75-9.3281v9.3281h-4.9219v-7.1094c0-1.3438-0.03125-2.2656-0.09375-2.7656s-0.16797-0.86719-0.3125-1.1094c-0.1875-0.3125-0.44922-0.55469-0.78125-0.73438-0.32422-0.17578-0.69531-0.26562-1.1094-0.26562-1.0234 0-1.8242 0.39844-2.4062 1.1875-0.58594 0.78125-0.875 1.8711-0.875 3.2656v7.5312h-4.8906v-21.281h4.8906v8.2031c0.73828-0.88281 1.5195-1.5391 2.3438-1.9688 0.83203-0.42578 1.75-0.64062 2.75-0.64062 1.7695 0 3.1133 0.54688 4.0312 1.6406 0.91406 1.0859 1.375 2.6562 1.375 4.7188z"/>
  </symbol>
  <symbol id="q" overflow="visible">
   <path d="m2.5781-20.406h5.875l7.4219 14v-14h4.9844v20.406h-5.875l-7.4219-14v14h-4.9844z"/>
  </symbol>
  <symbol id="p" overflow="visible">
   <path d="m17.75-9.3281v9.3281h-4.9219v-7.1406c0-1.3203-0.03125-2.2344-0.09375-2.7344s-0.16797-0.86719-0.3125-1.1094c-0.1875-0.3125-0.44922-0.55469-0.78125-0.73438-0.32422-0.17578-0.69531-0.26562-1.1094-0.26562-1.0234 0-1.8242 0.39844-2.4062 1.1875-0.58594 0.78125-0.875 1.8711-0.875 3.2656v7.5312h-4.8906v-15.312h4.8906v2.2344c0.73828-0.88281 1.5195-1.5391 2.3438-1.9688 0.83203-0.42578 1.75-0.64062 2.75-0.64062 1.7695 0 3.1133 0.54688 4.0312 1.6406 0.91406 1.0859 1.375 2.6562 1.375 4.7188z"/>
  </symbol>
  <symbol id="o" overflow="visible">
   <path d="m2.5781-20.406h8.7344c2.5938 0 4.582 0.57812 5.9688 1.7344 1.3945 1.1484 2.0938 2.7891 2.0938 4.9219 0 2.1367-0.69922 3.7812-2.0938 4.9375-1.3867 1.1562-3.375 1.7344-5.9688 1.7344h-3.4844v7.0781h-5.25zm5.25 3.8125v5.7031h2.9219c1.0195 0 1.8047-0.25 2.3594-0.75 0.5625-0.5 0.84375-1.2031 0.84375-2.1094 0-0.91406-0.28125-1.6172-0.84375-2.1094-0.55469-0.48828-1.3398-0.73438-2.3594-0.73438z"/>
  </symbol>
  <symbol id="n" overflow="visible">
   <path d="m2.3594-15.312h4.8906v15.031c0 2.0508-0.49609 3.6172-1.4844 4.7031-0.98047 1.082-2.4062 1.625-4.2812 1.625h-2.4219v-3.2188h0.85938c0.92578 0 1.5625-0.21094 1.9062-0.625 0.35156-0.41797 0.53125-1.2461 0.53125-2.4844zm0-5.9688h4.8906v4h-4.8906z"/>
  </symbol>
  <symbol id="m" overflow="visible">
   <path d="m14.719-14.828v3.9844c-0.65625-0.45703-1.3242-0.79688-2-1.0156-0.66797-0.21875-1.3594-0.32812-2.0781-0.32812-1.3672 0-2.4336 0.40234-3.2031 1.2031-0.76172 0.79297-1.1406 1.9062-1.1406 3.3438 0 1.4297 0.37891 2.543 1.1406 3.3438 0.76953 0.79297 1.8359 1.1875 3.2031 1.1875 0.75781 0 1.4844-0.10938 2.1719-0.32812 0.6875-0.22656 1.3203-0.56641 1.9062-1.0156v4c-0.76172 0.28125-1.5391 0.48828-2.3281 0.625-0.78125 0.14453-1.5742 0.21875-2.375 0.21875-2.7617 0-4.9219-0.70703-6.4844-2.125-1.5547-1.4141-2.3281-3.3828-2.3281-5.9062 0-2.5312 0.77344-4.5039 2.3281-5.9219 1.5625-1.4141 3.7227-2.125 6.4844-2.125 0.80078 0 1.5938 0.074219 2.375 0.21875 0.78125 0.13672 1.5547 0.35156 2.3281 0.64062z"/>
  </symbol>
 </defs>
 <g>
  <path d="m205.22 251.88c-3.1016 43.734 13.324 86.027 45.062 116.04 24.012 22.707 37.234 52.32 37.234 83.391v7.0352c0 26.137 16.773 48.371 40.09 56.676 2.8008 9.7773 11.711 16.984 22.391 16.984s19.59-7.207 22.379-16.992c23.324-8.3047 40.09-30.543 40.09-56.676v-5.0195c0-32.555 12.98-63.133 35.621-83.898 29.902-27.422 47.059-66.41 47.059-106.96 0-83.137-70.184-150.12-154.51-144.86-72.086 4.5352-130.3 62.262-135.42 134.28zm107.98 232.65c-3.5781-4.7109-6.2148-10.152-7.6367-16.082l90.352-23.066c-0.15234 2.6367-0.24609 5.2812-0.24609 7.9414v5.0195c0 1.7734-0.14062 3.5117-0.34766 5.2305zm83.762-49.816-92.637 23.648v-0.023438-7.0352c0-6.8203-0.55859-13.578-1.6406-20.227h94.82c-0.20312 1.2031-0.38281 2.4219-0.54297 3.6367zm-44.699 67.031h-4.5352c-9.8711 0-18.949-3.3477-26.254-8.9219l70.965-18.117c-6.4766 15.84-22.035 27.039-40.176 27.039zm-2.2695-367.64c70.773 0 128.35 57.578 128.35 128.35 0 35.852-15.164 70.332-41.613 94.586-17.383 15.949-29.793 36.855-36.164 60.039l-101.01-0.003907c-6.4414-22.824-19.281-43.922-37.734-61.363-28.066-26.539-42.59-63.945-39.844-102.64 4.5195-63.668 55.984-114.7 119.71-118.7 2.7891-0.17188 5.5547-0.26172 8.3047-0.26172z"/>
  <path d="m167.88 262.45c0-3.8633-3.1367-7-7-7h-38.332c-3.8633 0-7 3.1367-7 7s3.1367 7 7 7h38.336c3.8672 0 6.9961-3.1289 6.9961-7z"/>
  <path d="m577.45 255.45h-38.336c-3.8633 0-7 3.1367-7 7s3.1367 7 7 7h38.336c3.8633 0 7-3.1367 7-7s-3.1289-7-7-7z"/>
  <path d="m184.22 428.23c1.3672 1.3672 3.1602 2.0508 4.9492 2.0508 1.793 0 3.5859-0.68359 4.9492-2.0508l27.109-27.105c2.7344-2.7344 2.7344-7.1641 0-9.9023-2.7344-2.7383-7.1641-2.7344-9.9023 0l-27.109 27.105c-2.7305 2.7344-2.7305 7.1641 0.003906 9.9023z"/>
  <path d="m515.78 96.672c-2.7344-2.7344-7.1641-2.7344-9.9023 0l-27.109 27.109c-2.7344 2.7344-2.7344 7.1641 0 9.9023 1.3672 1.3672 3.1602 2.0508 4.9492 2.0508 1.793 0 3.5859-0.68359 4.9492-2.0508l27.109-27.109c2.7383-2.7383 2.7383-7.168 0.003906-9.9023z"/>
  <path d="m357 73.336v-38.336c0-3.8633-3.1367-7-7-7s-7 3.1367-7 7v38.336c0 3.8633 3.1367 7 7 7s7-3.1328 7-7z"/>
  <path d="m515.78 418.33-27.109-27.105c-2.7344-2.7344-7.1641-2.7344-9.9023 0-2.7383 2.7344-2.7344 7.1641 0 9.9023l27.109 27.105c1.3672 1.3672 3.1602 2.0508 4.9492 2.0508 1.793 0 3.5859-0.68359 4.9492-2.0508 2.7383-2.7422 2.7383-7.1719 0.003906-9.9023z"/>
  <path d="m194.12 96.672c-2.7344-2.7344-7.1641-2.7344-9.9023 0-2.7383 2.7344-2.7344 7.1641 0 9.9023l27.109 27.109c1.3672 1.3672 3.1602 2.0508 4.9492 2.0508 1.793 0 3.5859-0.68359 4.9492-2.0508 2.7344-2.7344 2.7344-7.1641 0-9.9023z"/>
  <path d="m289.17 283.19-0.96875 35.211c-0.16406 5.8359 1.9805 11.344 6.0352 15.512 5.75 5.918 14.758 8.0547 22.562 5.2695l33.199-11.797 33.195 11.801c2.3359 0.82812 4.7539 1.2539 7.2031 1.2539 5.7305 0 11.328-2.3789 15.359-6.5234 4.0547-4.168 6.1992-9.6758 6.0352-15.512l-0.96875-35.211 21.48-27.922c4.3125-5.6055 5.582-12.957 3.3984-19.684-2.1836-6.7266-7.5391-11.938-14.324-13.945l-33.785-9.9609-19.914-29.059c-4-5.8281-10.605-9.3125-17.68-9.3125s-13.68 3.4844-17.68 9.3125l-19.914 29.059-33.797 9.957c-6.7812 2.0039-12.137 7.2188-14.32 13.945-2.1836 6.7188-0.91406 14.078 3.3984 19.684zm-11.562-43.285c0.76562-2.3672 2.5742-4.1289 4.9688-4.832l38.566-11.367 22.73-33.164c2.8125-4.1094 9.4453-4.1094 12.254 0l22.73 33.164 38.566 11.367c2.3906 0.70703 4.1992 2.4648 4.9688 4.832 0.76562 2.3633 0.33984 4.8477-1.1758 6.8281l-24.516 31.863 1.1016 40.191c0.054687 2.0273-0.68359 3.9297-2.0781 5.3633-2.0117 2.0703-5.0898 2.8242-7.8359 1.8438l-37.891-13.473-37.883 13.473c-2.7656 0.98047-5.8281 0.23047-7.8398-1.8438-1.3984-1.4336-2.1328-3.3359-2.0781-5.3633l1.1016-40.191-24.516-31.871c-1.5195-1.9688-1.9453-4.457-1.1758-6.8203z"/>
  <path d="m394.4 166.58c3.1133 1.3711 6.1875 2.9805 9.1406 4.7812 0.91406 0.55469 1.9141 0.81641 2.9062 0.81641 1.8867 0 3.7344-0.95703 4.7891-2.6875 1.6055-2.6445 0.76562-6.0859-1.8711-7.6953-3.3711-2.0508-6.8828-3.8789-10.438-5.4609-2.8398-1.25-6.1367 0.027344-7.3867 2.8633-1.25 2.8359 0.03125 6.1289 2.8594 7.3828z"/>
  <path d="m435.38 202.73c1.0547 1.7539 2.9062 2.7148 4.8047 2.7148 0.98047 0 1.9766-0.25781 2.8789-0.80078 2.6562-1.5898 3.5117-5.0273 1.9219-7.6836-5.0781-8.4688-15.031-19.02-22.121-25.246-2.3242-2.0312-5.8633-1.8047-7.9023 0.51953-2.0391 2.3242-1.8086 5.8633 0.51562 7.9023 6.6602 5.8555 15.637 15.492 19.902 22.594z"/>
  <use x="70" y="644" xlink:href="#y"/>
  <use x="90.550781" y="644" xlink:href="#d"/>
  <use x="104.359375" y="644" xlink:href="#a"/>
  <use x="123.347656" y="644" xlink:href="#e"/>
  <use x="142.242188" y="644" xlink:href="#c"/>
  <use x="155.628906" y="644" xlink:href="#a"/>
  <use x="174.617188" y="644" xlink:href="#l"/>
  <use x="204.410156" y="644" xlink:href="#k"/>
  <use x="224.453125" y="644" xlink:href="#j"/>
  <use x="252.453125" y="644" xlink:href="#i"/>
  <use x="280.3125" y="644" xlink:href="#e"/>
  <use x="299.210938" y="644" xlink:href="#x"/>
  <use x="317.269531" y="644" xlink:href="#h"/>
  <use x="326.867188" y="644" xlink:href="#g"/>
  <use x="365.789062" y="644" xlink:href="#w"/>
  <use x="387.488281" y="644" xlink:href="#f"/>
  <use x="407.421875" y="644" xlink:href="#v"/>
  <use x="417.019531" y="644" xlink:href="#h"/>
  <use x="426.617188" y="644" xlink:href="#u"/>
  <use x="445.238281" y="644" xlink:href="#b"/>
  <use x="464.476562" y="644" xlink:href="#t"/>
  <use x="70" y="672" xlink:href="#s"/>
  <use x="82.183594" y="672" xlink:href="#d"/>
  <use x="95.992188" y="672" xlink:href="#b"/>
  <use x="115.226562" y="672" xlink:href="#g"/>
  <use x="154.152344" y="672" xlink:href="#c"/>
  <use x="167.535156" y="672" xlink:href="#r"/>
  <use x="187.46875" y="672" xlink:href="#a"/>
  <use x="216.207031" y="672" xlink:href="#q"/>
  <use x="239.640625" y="672" xlink:href="#b"/>
  <use x="258.878906" y="672" xlink:href="#f"/>
  <use x="278.8125" y="672" xlink:href="#p"/>
  <use x="308.492188" y="672" xlink:href="#o"/>
  <use x="329.015625" y="672" xlink:href="#d"/>
  <use x="342.820312" y="672" xlink:href="#b"/>
  <use x="362.058594" y="672" xlink:href="#n"/>
  <use x="371.65625" y="672" xlink:href="#a"/>
  <use x="390.648438" y="672" xlink:href="#m"/>
  <use x="407.242188" y="672" xlink:href="#c"/>
 </g>
</svg>
