<?xml version="1.0" encoding="UTF-8"?>
<svg width="700pt" height="700pt" version="1.1" viewBox="0 0 700 700" xmlns="http://www.w3.org/2000/svg" xmlns:xlink="http://www.w3.org/1999/xlink">
 <defs>
  <symbol id="t" overflow="visible">
   <path d="m3.6562-0.21875c-0.1875 0.09375-0.38672 0.16797-0.59375 0.21875-0.19922 0.050781-0.40625 0.078125-0.625 0.078125-0.66797 0-1.1992-0.17969-1.5938-0.54688-0.38672-0.375-0.57812-0.87891-0.57812-1.5156 0-0.64453 0.19141-1.1484 0.57812-1.5156 0.39453-0.375 0.92578-0.5625 1.5938-0.5625 0.21875 0 0.42578 0.027344 0.625 0.078125 0.20703 0.054687 0.40625 0.125 0.59375 0.21875v0.82812c-0.1875-0.125-0.375-0.21875-0.5625-0.28125-0.17969-0.0625-0.37109-0.09375-0.57812-0.09375-0.36719 0-0.65625 0.12109-0.875 0.35938-0.21094 0.23047-0.3125 0.55469-0.3125 0.96875 0 0.40625 0.10156 0.73047 0.3125 0.96875 0.21875 0.23047 0.50781 0.34375 0.875 0.34375 0.20703 0 0.39844-0.023437 0.57812-0.078125 0.1875-0.0625 0.375-0.16016 0.5625-0.29688z"/>
  </symbol>
  <symbol id="c" overflow="visible">
   <path d="m2.6875-2.1719c-0.085938-0.039063-0.16797-0.070313-0.25-0.09375-0.085938-0.019531-0.16797-0.03125-0.25-0.03125-0.25 0-0.44531 0.085937-0.57812 0.25-0.125 0.15625-0.1875 0.38281-0.1875 0.67188v1.375h-0.96875v-2.9844h0.96875v0.48438c0.11328-0.19531 0.25-0.33594 0.40625-0.42188 0.16406-0.09375 0.35938-0.14062 0.57812-0.14062h0.10938c0.039063 0 0.09375 0.007812 0.15625 0.015625z"/>
  </symbol>
  <symbol id="b" overflow="visible">
   <path d="m3.4375-1.5v0.26562h-2.2344c0.03125 0.23047 0.11328 0.40234 0.25 0.51562 0.13281 0.10547 0.32812 0.15625 0.57812 0.15625 0.20703 0 0.41406-0.023438 0.625-0.078125 0.20703-0.0625 0.42188-0.15625 0.64062-0.28125v0.73438c-0.21875 0.09375-0.44531 0.16406-0.67188 0.20312-0.23047 0.039062-0.45312 0.0625-0.67188 0.0625-0.54297 0-0.96484-0.13281-1.2656-0.40625-0.30469-0.28125-0.45312-0.67188-0.45312-1.1719 0-0.47656 0.14453-0.85938 0.4375-1.1406 0.30078-0.28125 0.70703-0.42188 1.2188-0.42188 0.46875 0 0.84375 0.14062 1.125 0.42188s0.42188 0.66406 0.42188 1.1406zm-0.96875-0.32812c0-0.17578-0.058594-0.31641-0.17188-0.42188-0.10547-0.11328-0.24219-0.17188-0.40625-0.17188-0.1875 0-0.33984 0.054687-0.45312 0.15625-0.11719 0.10547-0.1875 0.25-0.21875 0.4375z"/>
  </symbol>
  <symbol id="d" overflow="visible">
   <path d="m1.7969-1.3438c-0.19922 0-0.35156 0.039062-0.45312 0.10938-0.09375 0.0625-0.14062 0.16406-0.14062 0.29688 0 0.11719 0.035156 0.21094 0.10938 0.28125 0.082031 0.0625 0.19531 0.09375 0.34375 0.09375 0.17578 0 0.32812-0.0625 0.45312-0.1875s0.1875-0.28516 0.1875-0.48438v-0.10938zm1.4688-0.35938v1.7031h-0.96875v-0.4375c-0.125 0.17969-0.27344 0.30859-0.4375 0.39062-0.15625 0.082031-0.35156 0.125-0.57812 0.125-0.3125 0-0.57031-0.085938-0.76562-0.26562-0.1875-0.1875-0.28125-0.42188-0.28125-0.70312 0-0.35156 0.11719-0.61328 0.35938-0.78125 0.23828-0.16406 0.61719-0.25 1.1406-0.25h0.5625v-0.0625c0-0.15625-0.0625-0.26562-0.1875-0.32812-0.11719-0.070312-0.29688-0.10938-0.54688-0.10938-0.21094 0-0.40234 0.023437-0.57812 0.0625-0.17969 0.042969-0.33984 0.10156-0.48438 0.17188v-0.71875c0.19531-0.050781 0.39844-0.085938 0.60938-0.10938 0.20703-0.03125 0.41406-0.046875 0.625-0.046875 0.53906 0 0.92969 0.10938 1.1719 0.32812 0.23828 0.21094 0.35938 0.55469 0.35938 1.0312z"/>
  </symbol>
  <symbol id="a" overflow="visible">
   <path d="m1.5-3.8438v0.85938h0.98438v0.67188h-0.98438v1.2812c0 0.13672 0.023438 0.23047 0.078125 0.28125 0.0625 0.042969 0.17578 0.0625 0.34375 0.0625h0.48438v0.6875h-0.8125c-0.38672 0-0.65625-0.078125-0.8125-0.23438s-0.23438-0.42188-0.23438-0.79688v-1.2812h-0.46875v-0.67188h0.46875v-0.85938z"/>
  </symbol>
  <symbol id="i" overflow="visible">
   <path d="m2.5-2.5469v-1.6094h0.95312v4.1562h-0.95312v-0.4375c-0.13672 0.17969-0.28125 0.30859-0.4375 0.39062-0.15625 0.082031-0.33984 0.125-0.54688 0.125-0.375 0-0.68359-0.14453-0.92188-0.4375-0.23047-0.28906-0.34375-0.67188-0.34375-1.1406 0-0.45703 0.11328-0.83203 0.34375-1.125 0.23828-0.28906 0.54688-0.4375 0.92188-0.4375 0.19531 0 0.375 0.042969 0.53125 0.125 0.16406 0.085938 0.31641 0.21484 0.45312 0.39062zm-0.64062 1.9375c0.20703 0 0.36328-0.070313 0.46875-0.21875 0.11328-0.15625 0.17188-0.37891 0.17188-0.67188 0-0.28125-0.058594-0.49219-0.17188-0.64062-0.10547-0.15625-0.26172-0.23438-0.46875-0.23438-0.19922 0-0.35547 0.078125-0.46875 0.23438-0.10547 0.14844-0.15625 0.35938-0.15625 0.64062 0 0.29297 0.050781 0.51562 0.15625 0.67188 0.11328 0.14844 0.26953 0.21875 0.46875 0.21875z"/>
  </symbol>
  <symbol id="h" overflow="visible">
   <path d="m2.0469-0.60938c0.20703 0 0.36328-0.070313 0.46875-0.21875 0.11328-0.15625 0.17188-0.37891 0.17188-0.67188 0-0.28125-0.058594-0.49219-0.17188-0.64062-0.10547-0.15625-0.26172-0.23438-0.46875-0.23438-0.19922 0-0.35547 0.078125-0.46875 0.23438-0.10547 0.14844-0.15625 0.35938-0.15625 0.64062 0 0.29297 0.050781 0.51562 0.15625 0.67188 0.11328 0.14844 0.26953 0.21875 0.46875 0.21875zm-0.625-1.9375c0.125-0.17578 0.26562-0.30469 0.42188-0.39062 0.16406-0.082031 0.35156-0.125 0.5625-0.125 0.36328 0 0.66406 0.14844 0.90625 0.4375 0.23828 0.29297 0.35938 0.66797 0.35938 1.125 0 0.46875-0.12109 0.85156-0.35938 1.1406-0.24219 0.29297-0.54297 0.4375-0.90625 0.4375-0.21094 0-0.39844-0.042969-0.5625-0.125-0.15625-0.082031-0.29688-0.21094-0.42188-0.39062v0.4375h-0.96875v-4.1562h0.96875z"/>
  </symbol>
  <symbol id="g" overflow="visible">
   <path d="m0.0625-2.9844h0.95312l0.8125 2.0156 0.6875-2.0156h0.95312l-1.2656 3.2656c-0.125 0.33203-0.27344 0.56641-0.4375 0.70312-0.16797 0.13281-0.39062 0.20312-0.67188 0.20312h-0.54688v-0.64062h0.29688c0.16406 0 0.28516-0.027344 0.35938-0.078125 0.070313-0.054688 0.12891-0.14062 0.17188-0.26562l0.03125-0.09375z"/>
  </symbol>
  <symbol id="f" overflow="visible">
   <path d="m0.5-3.9844h2.7812v0.78125h-1.75v0.73438h1.6406v0.78125h-1.6406v1.6875h-1.0312z"/>
  </symbol>
  <symbol id="s" overflow="visible">
   <path d="m0.45312-4.1562h0.96875v4.1562h-0.96875z"/>
  </symbol>
  <symbol id="r" overflow="visible">
   <path d="m2.4219-4.1562v0.625h-0.51562c-0.13672 0-0.23438 0.027344-0.29688 0.078125-0.054687 0.054687-0.078125 0.13672-0.078125 0.25v0.21875h0.82812v0.67188h-0.82812v2.3125h-0.95312v-2.3125h-0.46875v-0.67188h0.46875v-0.21875c0-0.32031 0.085937-0.5625 0.26562-0.71875 0.1875-0.15625 0.47266-0.23438 0.85938-0.23438z"/>
  </symbol>
  <symbol id="e" overflow="visible">
   <path d="m1.875-2.375c-0.21094 0-0.37109 0.078125-0.48438 0.23438-0.10547 0.14844-0.15625 0.35938-0.15625 0.64062 0 0.29297 0.050781 0.51562 0.15625 0.67188 0.11328 0.14844 0.27344 0.21875 0.48438 0.21875 0.20703 0 0.36719-0.070313 0.48438-0.21875 0.11328-0.15625 0.17188-0.37891 0.17188-0.67188 0-0.28125-0.058594-0.49219-0.17188-0.64062-0.11719-0.15625-0.27734-0.23438-0.48438-0.23438zm0-0.6875c0.51953 0 0.92188 0.14062 1.2031 0.42188 0.28906 0.27344 0.4375 0.65234 0.4375 1.1406 0 0.5-0.14844 0.89062-0.4375 1.1719-0.28125 0.27344-0.68359 0.40625-1.2031 0.40625-0.51172 0-0.91406-0.13281-1.2031-0.40625-0.29297-0.28125-0.4375-0.67188-0.4375-1.1719 0-0.48828 0.14453-0.86719 0.4375-1.1406 0.28906-0.28125 0.69141-0.42188 1.2031-0.42188z"/>
  </symbol>
  <symbol id="q" overflow="visible">
   <path d="m3.2344-2.5c0.11328-0.17578 0.25391-0.3125 0.42188-0.40625 0.16406-0.10156 0.35156-0.15625 0.5625-0.15625 0.33203 0 0.58594 0.10938 0.76562 0.32812 0.1875 0.21094 0.28125 0.51172 0.28125 0.90625v1.8281h-0.96875v-1.5625c0.007813-0.019531 0.015625-0.039062 0.015625-0.0625v-0.10938c0-0.21875-0.03125-0.375-0.09375-0.46875s-0.16406-0.14062-0.29688-0.14062c-0.1875 0-0.33594 0.078125-0.4375 0.23438-0.09375 0.14844-0.14062 0.35938-0.14062 0.64062v1.4688h-0.96875v-1.5625c0-0.33203-0.03125-0.54688-0.09375-0.64062-0.054688-0.09375-0.15234-0.14062-0.29688-0.14062-0.17969 0-0.32031 0.078125-0.42188 0.23438-0.09375 0.14844-0.14062 0.35938-0.14062 0.64062v1.4688h-0.96875v-2.9844h0.96875v0.4375c0.11328-0.17578 0.24219-0.30469 0.39062-0.39062 0.15625-0.082031 0.32812-0.125 0.51562-0.125 0.20703 0 0.39062 0.054688 0.54688 0.15625 0.15625 0.09375 0.27344 0.23047 0.35938 0.40625z"/>
  </symbol>
  <symbol id="p" overflow="visible">
   <path d="m3.4688-1.8281v1.8281h-0.96875v-1.3906c0-0.25781-0.007812-0.4375-0.015625-0.53125-0.011719-0.10156-0.03125-0.17578-0.0625-0.21875-0.03125-0.0625-0.085937-0.10938-0.15625-0.14062-0.0625-0.039062-0.13281-0.0625-0.20312-0.0625-0.21094 0-0.37109 0.078125-0.48438 0.23438-0.10547 0.15625-0.15625 0.37109-0.15625 0.64062v1.4688h-0.96875v-4.1562h0.96875v1.6094c0.13281-0.17578 0.28516-0.30469 0.45312-0.39062 0.16406-0.082031 0.34375-0.125 0.53125-0.125 0.34375 0 0.60156 0.10938 0.78125 0.32812 0.1875 0.21094 0.28125 0.51172 0.28125 0.90625z"/>
  </symbol>
  <symbol id="o" overflow="visible">
   <path d="m0.5-3.9844h1.1562l1.4375 2.7344v-2.7344h0.98438v3.9844h-1.1562l-1.4375-2.7344v2.7344h-0.98438z"/>
  </symbol>
  <symbol id="n" overflow="visible">
   <path d="m0.42188-1.1719v-1.8125h0.96875v0.29688 0.60938 0.48438c0 0.24219 0.003906 0.41797 0.015625 0.53125 0.007812 0.10547 0.03125 0.17969 0.0625 0.21875 0.039062 0.0625 0.09375 0.11719 0.15625 0.15625 0.0625 0.03125 0.13281 0.046875 0.21875 0.046875 0.19531 0 0.35156-0.078125 0.46875-0.23438 0.11328-0.15625 0.17188-0.36719 0.17188-0.64062v-1.4688h0.95312v2.9844h-0.95312v-0.4375c-0.14844 0.17969-0.30469 0.30859-0.46875 0.39062-0.15625 0.082031-0.33594 0.125-0.53125 0.125-0.34375 0-0.60938-0.10156-0.79688-0.3125-0.17969-0.21875-0.26562-0.53125-0.26562-0.9375z"/>
  </symbol>
  <symbol id="m" overflow="visible">
   <path d="m3.4688-1.8281v1.8281h-0.96875v-1.3906c0-0.25781-0.007812-0.4375-0.015625-0.53125-0.011719-0.10156-0.03125-0.17578-0.0625-0.21875-0.03125-0.0625-0.085937-0.10938-0.15625-0.14062-0.0625-0.039062-0.13281-0.0625-0.20312-0.0625-0.21094 0-0.37109 0.078125-0.48438 0.23438-0.10547 0.15625-0.15625 0.37109-0.15625 0.64062v1.4688h-0.96875v-2.9844h0.96875v0.4375c0.13281-0.17578 0.28516-0.30469 0.45312-0.39062 0.16406-0.082031 0.34375-0.125 0.53125-0.125 0.34375 0 0.60156 0.10938 0.78125 0.32812 0.1875 0.21094 0.28125 0.51172 0.28125 0.90625z"/>
  </symbol>
  <symbol id="l" overflow="visible">
   <path d="m0.5-3.9844h1.7031c0.50781 0 0.89844 0.11719 1.1719 0.34375 0.26953 0.21875 0.40625 0.53906 0.40625 0.95312 0 0.41797-0.13672 0.74219-0.40625 0.96875-0.27344 0.21875-0.66406 0.32812-1.1719 0.32812h-0.67188v1.3906h-1.0312zm1.0312 0.75v1.1094h0.5625c0.19531 0 0.34766-0.046875 0.45312-0.14062 0.11328-0.10156 0.17188-0.24219 0.17188-0.42188 0-0.17578-0.058594-0.3125-0.17188-0.40625-0.10547-0.09375-0.25781-0.14062-0.45312-0.14062z"/>
  </symbol>
  <symbol id="k" overflow="visible">
   <path d="m0.45312-2.9844h0.96875v2.9375c0 0.39453-0.10156 0.69531-0.29688 0.90625-0.1875 0.21875-0.46484 0.32812-0.82812 0.32812h-0.48438v-0.64062h0.17188c0.17578 0 0.29688-0.042969 0.35938-0.125 0.070312-0.074219 0.10938-0.23047 0.10938-0.46875zm0-1.1719h0.96875v0.78125h-0.96875z"/>
  </symbol>
  <symbol id="j" overflow="visible">
   <path d="m2.875-2.8906v0.76562c-0.125-0.082031-0.25781-0.14453-0.39062-0.1875-0.13672-0.039062-0.27344-0.0625-0.40625-0.0625-0.27344 0-0.48047 0.078125-0.625 0.23438-0.14844 0.15625-0.21875 0.37109-0.21875 0.64062 0 0.28125 0.070313 0.5 0.21875 0.65625 0.14453 0.15625 0.35156 0.23438 0.625 0.23438 0.14453 0 0.28516-0.019531 0.42188-0.0625 0.13281-0.039063 0.25781-0.10938 0.375-0.20312v0.78125c-0.14844 0.0625-0.29688 0.10156-0.45312 0.125-0.15625 0.03125-0.3125 0.046875-0.46875 0.046875-0.54297 0-0.96484-0.13281-1.2656-0.40625-0.30469-0.28125-0.45312-0.67188-0.45312-1.1719 0-0.48828 0.14844-0.86719 0.45312-1.1406 0.30078-0.28125 0.72266-0.42188 1.2656-0.42188 0.15625 0 0.3125 0.015625 0.46875 0.046875 0.15625 0.023437 0.30469 0.0625 0.45312 0.125z"/>
  </symbol>
 </defs>
 <g>
  <path d="m350 184.12c-3.0195 0-5.4688-2.4492-5.4688-5.4688v-116.85c0-3.0195 2.4492-5.4688 5.4688-5.4688s5.4688 2.4492 5.4688 5.4688v116.85c0 3.0195-2.4492 5.4688-5.4688 5.4688z"/>
  <path d="m433.63 218.78c-1.3984 0-2.8008-0.53516-3.8672-1.6016-2.1367-2.1367-2.1367-5.5977 0-7.7344l82.664-82.664c2.1328-2.1367 5.5977-2.1367 7.7344 0 2.1367 2.1367 2.1367 5.5977 0 7.7344l-82.664 82.664c-1.0664 1.0664-2.4648 1.6016-3.8672 1.6016z"/>
  <path d="m585.15 302.42h-116.85c-3.0195 0-5.4688-2.4492-5.4688-5.4688s2.4492-5.4688 5.4688-5.4688h116.85c3.0195 0 5.4688 2.4492 5.4688 5.4688s-2.4492 5.4688-5.4688 5.4688z"/>
  <path d="m231.7 302.42h-116.85c-3.0195 0-5.4688-2.4492-5.4688-5.4688s2.4492-5.4688 5.4688-5.4688h116.85c3.0195 0 5.4688 2.4492 5.4688 5.4688s-2.4492 5.4688-5.4688 5.4688z"/>
  <path d="m266.37 218.78c-1.3984 0-2.8008-0.53516-3.8672-1.6016l-82.664-82.664c-2.1367-2.1367-2.1367-5.5977 0-7.7344 2.1367-2.1367 5.5977-2.1367 7.7344 0l82.664 82.664c2.1367 2.1367 2.1367 5.5977 0 7.7344-1.0703 1.0664-2.4688 1.6016-3.8672 1.6016z"/>
  <path d="m393.75 192.48c-0.67188 0-1.3555-0.125-2.0195-0.38672-2.8047-1.1172-4.1758-4.2969-3.0625-7.1016l21.578-54.301c1.1133-2.8047 4.2891-4.1758 7.1016-3.0625 2.8047 1.1172 4.1758 4.293 3.0625 7.1016l-21.578 54.301c-0.84766 2.1445-2.9062 3.4492-5.082 3.4492z"/>
  <path d="m458.61 255.63c-2.1172 0-4.1328-1.2383-5.0234-3.3047-1.1953-2.7734 0.082031-5.9922 2.8555-7.1875l53.695-23.152c2.7695-1.1914 5.9922 0.082031 7.1875 2.8555 1.1953 2.7734-0.082031 5.9922-2.8555 7.1875l-53.695 23.152c-0.70703 0.30469-1.4414 0.44922-2.1641 0.44922z"/>
  <path d="m187.7 372.48c-2.1172 0-4.1328-1.2383-5.0234-3.3047-1.1953-2.7734 0.082031-5.9922 2.8555-7.1875l53.695-23.152c2.7734-1.1953 5.9922 0.082031 7.1875 2.8555 1.1953 2.7734-0.082031 5.9922-2.8555 7.1875l-53.695 23.152c-0.70703 0.30469-1.4414 0.44922-2.1641 0.44922z"/>
  <path d="m240.06 258.79c-0.67188 0-1.3555-0.125-2.0195-0.38672l-54.301-21.578c-2.8047-1.1172-4.1797-4.293-3.0625-7.1016 1.1172-2.8047 4.2969-4.1758 7.1016-3.0625l54.301 21.578c2.8047 1.1172 4.1797 4.293 3.0625 7.1016-0.85156 2.1406-2.9102 3.4492-5.082 3.4492z"/>
  <path d="m303.21 193.82c-2.1172 0-4.1328-1.2383-5.0234-3.3047l-23.152-53.695c-1.1953-2.7734 0.082032-5.9922 2.8555-7.1875 2.7734-1.1953 5.9922 0.082032 7.1875 2.8555l23.152 53.695c1.1953 2.7734-0.082031 5.9922-2.8555 7.1875-0.70703 0.30469-1.4414 0.44922-2.1641 0.44922z"/>
  <path d="m314.87 363.36c-2.2812 0-4.4062-1.4375-5.1797-3.7148-0.96875-2.8594 0.5625-5.9648 3.4258-6.9336 4.4805-1.5156 9.0352-2.9883 13.535-4.375 30.938-9.5312 62.477-16.02 91.434-18.82 4.8789-10.137 7.4492-21.336 7.4492-32.57 0-41.574-33.887-75.398-75.539-75.398-41.574 0-75.398 33.824-75.398 75.398 0 10.918 2.2969 21.461 6.832 31.344 1.2578 2.7461 0.054688 5.9922-2.6914 7.25-2.7422 1.2578-5.9922 0.054688-7.25-2.6914-5.1914-11.32-7.8242-23.402-7.8242-35.902 0-47.605 38.73-86.336 86.336-86.336 47.684 0 86.477 38.73 86.477 86.336 0 13.988-3.4727 27.922-10.039 40.301-0.86719 1.6367-2.5039 2.7188-4.3516 2.8828-29.023 2.5625-60.91 9.0117-92.207 18.656-4.4062 1.3555-8.8633 2.8008-13.246 4.2812-0.58984 0.19922-1.1797 0.29297-1.7617 0.29297z"/>
  <path d="m179.37 442.46c-1.2773 0-2.5586-0.44531-3.5938-1.3477-2.2773-1.9844-2.5117-5.4414-0.52344-7.7148 24.609-28.203 70.246-55.984 125.21-76.223 8.6172-3.1719 17.43-6.1484 26.184-8.8477 32.023-9.8672 64.688-16.473 94.469-19.098 19.586-1.7305 38.047-1.7539 54.141-0.070313 3.0039 0.3125 5.1836 3.0039 4.8711 6.0078s-3.0039 5.1836-6.0078 4.8711c-15.395-1.6094-33.156-1.582-52.043 0.085937-29.023 2.5625-60.91 9.0117-92.207 18.656-8.5664 2.6406-17.188 5.5508-25.625 8.6562-53.297 19.625-97.309 46.289-120.75 73.152-1.0859 1.2344-2.6016 1.8711-4.1289 1.8711z"/>
  <path d="m179.37 503.67c-1.0586 0-2.125-0.30469-3.0664-0.94531-2.5-1.6953-3.1484-5.0977-1.4531-7.5977 19.219-28.316 54.879-56.223 97.836-76.559 6.7305-3.1875 13.621-6.1797 20.473-8.8945 25.066-9.9297 50.652-16.578 73.992-19.227 15.422-1.75 29.957-1.7695 42.641-0.0625 2.9922 0.40234 5.0938 3.1562 4.6914 6.1484s-3.1445 5.0898-6.1484 4.6914c-11.785-1.5859-25.426-1.5547-39.945 0.089844-22.398 2.543-47.016 8.9531-71.199 18.527-6.6328 2.6289-13.301 5.5273-19.82 8.6094-41.242 19.527-75.309 46.066-93.465 72.816-1.0625 1.5625-2.7852 2.4023-4.5352 2.4023z"/>
  <path d="m252.11 497.91c-1.0586 0-2.125-0.30469-3.0664-0.94531-2.5-1.6953-3.1484-5.0977-1.4531-7.5977 7.3828-10.879 20.965-21.543 37.258-29.254 2.543-1.2031 5.1367-2.3281 7.7109-3.3516 9.4727-3.75 19.16-6.2656 28.016-7.2695 5.9297-0.67188 11.547-0.67969 16.488-0.011719 2.9922 0.40234 5.0938 3.1562 4.6875 6.1484-0.40234 2.9922-3.1523 5.0938-6.1484 4.6875-4.043-0.54297-8.7617-0.53125-13.793 0.042969-7.9141 0.89844-16.637 3.1719-25.223 6.5742-2.3555 0.93359-4.7344 1.9648-7.0625 3.0703-14.363 6.8008-26.66 16.34-32.883 25.512-1.0586 1.5547-2.7812 2.3945-4.5312 2.3945z"/>
  <use x="70" y="576.40625" xlink:href="#t"/>
  <use x="74.011719" y="576.40625" xlink:href="#c"/>
  <use x="76.710938" y="576.40625" xlink:href="#b"/>
  <use x="80.417969" y="576.40625" xlink:href="#d"/>
  <use x="84.109375" y="576.40625" xlink:href="#a"/>
  <use x="86.722656" y="576.40625" xlink:href="#b"/>
  <use x="90.433594" y="576.40625" xlink:href="#i"/>
  <use x="96.25" y="576.40625" xlink:href="#h"/>
  <use x="100.167969" y="576.40625" xlink:href="#g"/>
  <use x="105.636719" y="576.40625" xlink:href="#f"/>
  <use x="109.371094" y="576.40625" xlink:href="#s"/>
  <use x="111.246094" y="576.40625" xlink:href="#d"/>
  <use x="114.9375" y="576.40625" xlink:href="#a"/>
  <use x="117.550781" y="576.40625" xlink:href="#d"/>
  <use x="121.238281" y="576.40625" xlink:href="#c"/>
  <use x="123.9375" y="576.40625" xlink:href="#a"/>
  <use x="70" y="581.875" xlink:href="#r"/>
  <use x="72.378906" y="581.875" xlink:href="#c"/>
  <use x="75.078125" y="581.875" xlink:href="#e"/>
  <use x="78.832031" y="581.875" xlink:href="#q"/>
  <use x="86.4375" y="581.875" xlink:href="#a"/>
  <use x="89.050781" y="581.875" xlink:href="#p"/>
  <use x="92.941406" y="581.875" xlink:href="#b"/>
  <use x="98.554688" y="581.875" xlink:href="#o"/>
  <use x="103.132812" y="581.875" xlink:href="#e"/>
  <use x="106.890625" y="581.875" xlink:href="#n"/>
  <use x="110.785156" y="581.875" xlink:href="#m"/>
  <use x="116.582031" y="581.875" xlink:href="#l"/>
  <use x="120.589844" y="581.875" xlink:href="#c"/>
  <use x="123.285156" y="581.875" xlink:href="#e"/>
  <use x="127.042969" y="581.875" xlink:href="#k"/>
  <use x="128.917969" y="581.875" xlink:href="#b"/>
  <use x="132.625" y="581.875" xlink:href="#j"/>
  <use x="135.867188" y="581.875" xlink:href="#a"/>
 </g>
</svg>
