<?xml version="1.0" encoding="UTF-8" standalone="no"?>
<!-- Generator: Adobe Illustrator 19.1.0, SVG Export Plug-In . SVG Version: 6.00 Build 0)  -->

<svg
   version="1.1"
   id="Capa_1"
   x="0px"
   y="0px"
   viewBox="0 0 486.493 486.493"
   style="enable-background:new 0 0 486.493 486.493;"
   xml:space="preserve"
   sodipodi:docname="dotfiles.svg"
   inkscape:version="1.2.1 (9c6d41e410, 2022-07-14, custom)"
   xmlns:inkscape="http://www.inkscape.org/namespaces/inkscape"
   xmlns:sodipodi="http://sodipodi.sourceforge.net/DTD/sodipodi-0.dtd"
   xmlns="http://www.w3.org/2000/svg"
   xmlns:svg="http://www.w3.org/2000/svg"><defs
   id="defs409" /><sodipodi:namedview
   id="namedview407"
   pagecolor="#ffffff"
   bordercolor="#000000"
   borderopacity="0.25"
   inkscape:showpageshadow="2"
   inkscape:pageopacity="0.0"
   inkscape:pagecheckerboard="0"
   inkscape:deskcolor="#d1d1d1"
   showgrid="false"
   inkscape:zoom="1.1264293"
   inkscape:cx="279.20082"
   inkscape:cy="235.70054"
   inkscape:window-width="1715"
   inkscape:window-height="1001"
   inkscape:window-x="0"
   inkscape:window-y="0"
   inkscape:window-maximized="1"
   inkscape:current-layer="Capa_1" />
<g
   id="g374"
   transform="matrix(-0.97614453,0,0,0.97614453,477.86534,6.0166524)">
	<g
   id="XMLID_1812_">
		<path
   fill="#3f4e74"
   d="m 20.086,142.379 22.4,10.5 c -5.4,21 -6.6,43.2 -3,65.5 l -23.2,8.4 c -8.7,3.2 -13.2,12.8 -10.1,21.6 l 8.9,24.4 c 3.2,8.7 12.8,13.2 21.6,10.1 l 23.2,-8.4 c 11.5,19.4 26.7,35.7 44.3,48.3 l -10.5,22.4 c -3.9,8.4 -0.3,18.4 8.1,22.4 l 23.6,11 c 8.4,3.9 18.4,0.3 22.4,-8.1 l 10.5,-22.5 c 15.5,3.9 31.7,5.6 48.1,4.6 l 0.3,-6.5 c 0.4,-9.2 4.4,-17.7 11.2,-23.9 6.1,-5.6 13.9,-8.8 22.2,-9 1.4,-3.5 3,-6.9 4.8,-10.3 -2.2,-2.8 -3.9,-5.9 -5.1,-9.2 -9.1,3.7 -18.8,6.3 -29,7.5 -59.9,7 -114.1,-35.8 -121.1,-95.7 -7,-59.9 35.8,-114.1 95.7,-121.1 59.9,-7 114.1,35.8 121.1,95.7 2.4,20.8 -1.1,40.9 -9.4,58.6 3.9,1.6 7.4,3.9 10.5,6.8 3.5,-1.4 7,-2.7 10.7,-3.9 2.1,-17.7 17.6,-31.1 35.7,-30.3 l 2.4,0.1 c 1.7,-14.5 1.4,-29.3 -1,-44.1 l 24.2,-8.8 c 8.7,-3.2 13.2,-12.8 10.1,-21.6 l -8.9,-24.4 c -3.2,-8.7 -12.8,-13.2 -21.6,-10.1 l -24.2,8.8 c -11.3,-19.1 -26.3,-35.3 -43.7,-47.8 l 10.9,-23.2 c 3.9,-8.4 0.3,-18.4 -8.1,-22.4 l -23.6,-11 c -8.4,-3.9 -18.4,-0.3 -22.4,8.1 l -10.8,23.1 c -20.8,-5.4 -42.9,-6.6 -64.9,-3.1 l -8.6,-23.8 c -3.2,-8.7 -12.8,-13.2 -21.6,-10.1 l -24.4,8.9 c -8.7,3.2 -13.2,12.8 -10.1,21.6 l 8.6,23.6 c -19.3,11.4 -35.7,26.4 -48.3,43.9 l -22.5,-10.5 c -8.4,-3.9 -18.4,-0.3 -22.4,8.1 l -11,23.6 c -4.1,8.2 -0.5,18.2 8,22.2 z"
   id="path367" />
		<path
   fill="#3f4e74"
   d="m 379.286,246.779 c 0,-0.2 0,-0.3 0,-0.5 0,-5.6 -4.4,-10.3 -10.1,-10.6 l -16.4,-0.7 c -5.9,-0.3 -10.8,4.3 -11.1,10.1 l -0.7,15.6 c -13.5,1.9 -26.8,6.6 -38.8,14 l -10.5,-11.5 c -4,-4.3 -10.7,-4.6 -15,-0.7 l -12.1,11.1 c -2.3,2.1 -3.4,5 -3.4,7.8 0,2.6 0.9,5.1 2.8,7.2 l 10.5,11.5 c -8.5,11.3 -14.3,24.1 -17.4,37.4 l -15.6,-0.7 c -5.9,-0.3 -10.8,4.3 -11.1,10.1 l -0.7,16.4 c 0,0.2 0,0.3 0,0.5 0,5.6 4.4,10.3 10.1,10.6 l 15.7,0.7 c 2,13.5 6.7,26.7 14.2,38.6 l -11.7,10.7 c -2.3,2.1 -3.4,5 -3.4,7.8 0,2.6 0.9,5.1 2.8,7.2 l 11.1,12.1 c 4,4.3 10.7,4.6 15,0.7 l 11.8,-10.8 c 11.3,8.4 24,14.1 37.2,17.2 l -0.7,16.1 c 0,0.2 0,0.3 0,0.5 0,5.6 4.4,10.3 10.1,10.6 l 16.4,0.7 c 5.9,0.3 10.8,-4.3 11.1,-10.1 l 0.7,-16.1 c 13.4,-1.9 26.4,-6.6 38.3,-14 l 10.9,12 c 4,4.3 10.7,4.6 15,0.7 l 12.1,-11.1 c 2.3,-2.1 3.4,-5 3.4,-7.8 0,-2.6 -0.9,-5.1 -2.8,-7.2 l -10.9,-12 c 8.4,-11.2 14.2,-23.8 17.3,-37 l 16.1,0.7 c 5.9,0.3 10.8,-4.3 11.1,-10.1 l 0.7,-16.4 c 0,-0.2 0,-0.3 0,-0.5 0,-5.6 -4.4,-10.3 -10.1,-10.6 l -16.1,-0.7 c -1.9,-13.4 -6.5,-26.6 -13.9,-38.5 l 11.8,-10.8 c 2.3,-2.1 3.4,-5 3.4,-7.8 0,-2.6 -0.9,-5.1 -2.8,-7.2 l -11.1,-12.1 c -4,-4.3 -10.7,-4.6 -15,-0.7 l -11.7,10.7 c -11.3,-8.5 -24,-14.4 -37.2,-17.5 z m 16.5,77.1 c 9.6,10.5 14.3,23.7 14.3,36.9 0,14.8 -6,29.6 -17.8,40.3 -22.3,20.4 -56.8,18.8 -77.2,-3.4 -9.6,-10.5 -14.3,-23.7 -14.3,-36.9 0,-14.8 6,-29.6 17.8,-40.3 22.2,-20.4 56.8,-18.9 77.2,3.4 z"
   id="path369" />
		<path
   fill="#3f4e74"
   d="m 197.886,111.679 c -44.7,0 -81,36.3 -81,81 0,44.7 36.3,81 81,81 44.7,0 81,-36.3 81,-81 0,-44.7 -36.3,-81 -81,-81 z m 0,54.6 c -14.6,0 -26.4,11.8 -26.4,26.4 0,6.7 -5.4,12.1 -12.1,12.1 -6.7,0 -12.1,-5.4 -12.1,-12.1 0,-27.9 22.7,-50.6 50.6,-50.6 6.7,0 12.1,5.4 12.1,12.1 0,6.7 -5.5,12.1 -12.1,12.1 z"
   id="path371" />
	</g>
</g>
<g
   id="g376">
</g>
<g
   id="g378">
</g>
<g
   id="g380">
</g>
<g
   id="g382">
</g>
<g
   id="g384">
</g>
<g
   id="g386">
</g>
<g
   id="g388">
</g>
<g
   id="g390">
</g>
<g
   id="g392">
</g>
<g
   id="g394">
</g>
<g
   id="g396">
</g>
<g
   id="g398">
</g>
<g
   id="g400">
</g>
<g
   id="g402">
</g>
<g
   id="g404">
</g>
</svg>
