<?xml version="1.0" encoding="UTF-8" standalone="no"?>
<!-- Generator: Adobe Illustrator 19.0.0, SVG Export Plug-In . SVG Version: 6.00 Build 0)  -->

<svg
   version="1.1"
   id="Capa_1"
   x="0px"
   y="0px"
   viewBox="0 0 59 59"
   xml:space="preserve"
   sodipodi:docname="learn.svg"
   inkscape:version="1.2.1 (9c6d41e410, 2022-07-14, custom)"
   width="59"
   height="59"
   xmlns:inkscape="http://www.inkscape.org/namespaces/inkscape"
   xmlns:sodipodi="http://sodipodi.sourceforge.net/DTD/sodipodi-0.dtd"
   xmlns="http://www.w3.org/2000/svg"
   xmlns:svg="http://www.w3.org/2000/svg"><defs
   id="defs1051" /><sodipodi:namedview
   id="namedview1049"
   pagecolor="#ffffff"
   bordercolor="#000000"
   borderopacity="0.25"
   inkscape:showpageshadow="2"
   inkscape:pageopacity="0.0"
   inkscape:pagecheckerboard="0"
   inkscape:deskcolor="#d1d1d1"
   showgrid="false"
   inkscape:zoom="9.2881356"
   inkscape:cx="40.912409"
   inkscape:cy="38.382299"
   inkscape:window-width="1715"
   inkscape:window-height="1001"
   inkscape:window-x="0"
   inkscape:window-y="0"
   inkscape:window-maximized="1"
   inkscape:current-layer="Capa_1" />

<g
   id="g1018">
</g>
<g
   id="g1020">
</g>
<g
   id="g1022">
</g>
<g
   id="g1024">
</g>
<g
   id="g1026">
</g>
<g
   id="g1028">
</g>
<g
   id="g1030">
</g>
<g
   id="g1032">
</g>
<g
   id="g1034">
</g>
<g
   id="g1036">
</g>
<g
   id="g1038">
</g>
<g
   id="g1040">
</g>
<g
   id="g1042">
</g>
<g
   id="g1044">
</g>
<g
   id="g1046">
</g>
<path
   style="fill:#ff9e64;fill-opacity:1;stroke-width:0.238497"
   d="M 56.654321,18.097422 C 56.301905,9.4695351 55.297807,9.4421243 49.041145,4.8393266 45.772226,3.4008265 43.708566,3.929995 40.490252,4.092771 c -3.067715,1.6913516 -4.615509,3.8864297 -7.418702,6.200082 -1.949712,3.401793 -1.731875,8.111665 1.451523,10.025014 1.383032,2.354156 3.941079,2.814289 6.628103,3.606626 1.845914,1.017526 6.615421,-1.59449 8.256557,-3.93399 1.694192,-4.815371 -1.386156,-6.118147 -3.713954,-8.493669 -10.003164,-5.1805227 -7.45187,6.754777 -4.871692,7.641091 -6.042925,-0.451217 -5.523763,-5.697865 -2.310072,-9.9192915 1.40489,-2.6092768 7.661986,-0.6151917 10.15837,0.7327338 6.104056,4.4104837 4.472219,11.0213457 -0.33939,14.4314797 -1.855197,1.573117 -4.840735,2.124587 -9.717021,1.291355 -4.436622,-1.899649 -6.387823,-3.366192 -8.594797,-6.712925 -1.29049,-1.725246 -0.161072,-8.117912 0.527431,-9.6865206 1.796904,-3.5472686 3.913976,-5.2524767 10.993601,-7.7203327 2.217874,-0.77311816 5.809223,0.215808 9.271682,1.1020285 2.882429,0.7689269 6.44666,5.9853705 7.700823,8.1825978 1.777315,10.245113 -2.711695,11.746081 -5.807304,16.506655 2.393182,-6.150392 2.054239,-4.473226 3.948919,-9.248283 z M 11.818682,42.252218 c 3.455337,4.811685 8.153141,7.572787 13.410649,10.120837 2.060416,0.759748 11.36061,0.574675 13.325788,-1.600922 5.637235,-4.278012 7.832011,-15.241862 0.197585,-18.503768 -2.797943,-1.399469 -5.669768,-1.472609 -10.336994,-0.08898 -3.774773,3.41234 -4.613945,8.896948 -4.055618,9.310243 0.416612,6.097056 9.581796,5.799578 9.567629,4.39549 4.704442,-3.448358 5.188613,-8.168774 -2.189587,-10.117059 -0.429636,0.261662 1.303687,-0.453799 2.208195,-0.323814 7.282901,2.095897 3.946598,9.416091 2.573057,11.13367 -3.5281,1.891038 -5.463754,2.816308 -8.174874,1.762927 -9.133738,-4.991522 -8.043197,-11.755815 -1.861423,-18.01155 3.212371,-2.95015 8.590571,-3.682571 12.939224,-1.71212 5.887777,1.737914 7.478067,11.364177 7.051297,12.705956 0.62969,3.851432 -2.547622,9.50346 -6.49229,12.330521 C 35.306615,56.967703 28.997893,55.804345 24.671059,54.5512 17.67901,52.594615 14.00434,48.213781 11.818685,42.252231 Z M 0.21144847,18.348199 C -0.20178517,18.040932 3.934315,8.0262886 4.5951776,8.0985282 8.1718975,4.0896387 7.3195854,4.6640174 13.715274,0.80449247 18.070907,-1.1792971 24.550389,1.4316669 28.600976,3.3745316 20.936406,0.82176681 17.380775,1.9465817 14.131851,3.2597986 7.6879786,5.616231 6.3933564,9.1769072 5.2769968,10.945349 c -0.8880456,1.944373 -2.6416449,4.819499 -3.1251784,7.65626 1.8326684,4.951495 4.2881032,8.685536 9.3901916,10.840107 8.535037,-1.276867 9.48141,-0.656114 12.174675,-7.100305 1.520649,-5.837661 0.313085,-6.757719 -5.065434,-8.637176 -6.459052,-1.186022 -8.554429,1.064274 -9.7836001,2.295256 -1.3729459,2.33574 -2.3062578,5.164091 1.9474181,7.239166 4.222569,2.337436 4.98921,1.226456 5.785606,0.08092 1.055834,-2.046337 1.719697,-1.721595 -0.04537,-3.617054 -1.214762,-0.999096 -2.225082,-1.550024 -2.88947,-2.144551 -0.508881,-0.45538 1.964356,0.157273 3.452219,1.076252 2.961074,0.787238 3.225362,3.128131 1.240871,5.921863 -1.144801,0.803365 -2.224215,4.43428 -8.6661714,-0.482453 -3.5254374,-1.704418 -3.6412021,-4.560777 -2.3845332,-8.78852 0.4988774,-2.902076 7.8025826,-5.155983 12.8796166,-4.168105 5.60446,1.845164 6.696064,4.915302 5.329048,11.720921 -3.162551,7.437945 -6.651558,9.200158 -13.786782,9.370284 C 5.8922993,32.13821 2.0866525,23.26855 0.2114536,18.348178 Z"
   id="path2818"
   sodipodi:nodetypes="cccccccccccccccscccccccccccccccccccccccccccccccccccscccccccc" /></svg>
