<?xml version="1.0" encoding="UTF-8" standalone="no"?>
<!-- Generator: Adobe Illustrator 18.1.1, SVG Export Plug-In . SVG Version: 6.00 Build 0)  -->

<svg
   version="1.1"
   id="Capa_1"
   x="0px"
   y="0px"
   viewBox="0 0 612 612"
   style="enable-background:new 0 0 612 612;"
   xml:space="preserve"
   sodipodi:docname="music.svg"
   inkscape:version="1.2.1 (9c6d41e410, 2022-07-14, custom)"
   xmlns:inkscape="http://www.inkscape.org/namespaces/inkscape"
   xmlns:sodipodi="http://sodipodi.sourceforge.net/DTD/sodipodi-0.dtd"
   xmlns="http://www.w3.org/2000/svg"
   xmlns:svg="http://www.w3.org/2000/svg"><defs
   id="defs1852" /><sodipodi:namedview
   id="namedview1850"
   pagecolor="#ffffff"
   bordercolor="#000000"
   borderopacity="0.25"
   inkscape:showpageshadow="2"
   inkscape:pageopacity="0.0"
   inkscape:pagecheckerboard="0"
   inkscape:deskcolor="#d1d1d1"
   showgrid="false"
   inkscape:zoom="0.89542484"
   inkscape:cx="280.31387"
   inkscape:cy="391.43431"
   inkscape:window-width="1715"
   inkscape:window-height="1001"
   inkscape:window-x="0"
   inkscape:window-y="0"
   inkscape:window-maximized="1"
   inkscape:current-layer="Capa_1" />
<g
   id="g1817"
   transform="matrix(0.96358923,0,0,0.96358923,0.91611561,1.3654485)">
	<g
   id="CD">
		<path
   fill="#c0caf5"
   d="M 306,0 C 137.001,0 0,137.001 0,306 0,474.999 137.001,612 306,612 474.999,612 612,474.999 612,306 612,137.001 474.999,0 306,0 Z m 21.39,25.795 c -4.626,60.608 -9.252,121.215 -13.88,181.823 -5.76,-0.44 -11.449,-0.377 -17.198,0.19 -5.968,-60.491 -11.936,-120.98 -17.904,-181.47 16.372,-1.616 32.577,-1.796 48.982,-0.543 z m -73.251,4.012 c 11.217,59.74 22.435,119.479 33.653,179.219 -19.534,3.668 -37.506,13.151 -51.56,27.205 C 193.25,193.25 150.27,150.27 107.289,107.289 147.317,67.26 198.502,40.253 254.139,29.807 Z M 232.31,306 c 0,-40.698 32.992,-73.69 73.69,-73.69 40.698,0 73.69,32.992 73.69,73.69 0,40.698 -32.992,73.69 -73.69,73.69 -40.698,0 -73.69,-32.992 -73.69,-73.69 z m 52.3,280.205 c 4.626,-60.608 9.252,-121.215 13.88,-181.823 5.76,0.44 11.449,0.377 17.198,-0.19 5.968,60.491 11.936,120.98 17.904,181.47 -16.372,1.616 -32.577,1.796 -48.982,0.543 z m 73.251,-4.012 c -11.217,-59.74 -22.435,-119.479 -33.652,-179.219 19.534,-3.668 37.506,-13.15 51.56,-27.205 42.981,42.981 85.961,85.961 128.942,128.942 -40.028,40.029 -91.213,67.036 -146.85,77.482 z"
   id="path1812" />
		<circle
   fill="#c0caf5"
   cx="306"
   cy="306"
   r="48.709999"
   id="circle1814" />
	</g>
</g>
<g
   id="g1819">
</g>
<g
   id="g1821">
</g>
<g
   id="g1823">
</g>
<g
   id="g1825">
</g>
<g
   id="g1827">
</g>
<g
   id="g1829">
</g>
<g
   id="g1831">
</g>
<g
   id="g1833">
</g>
<g
   id="g1835">
</g>
<g
   id="g1837">
</g>
<g
   id="g1839">
</g>
<g
   id="g1841">
</g>
<g
   id="g1843">
</g>
<g
   id="g1845">
</g>
<g
   id="g1847">
</g>
</svg>
