<?xml version="1.0" encoding="UTF-8" standalone="no"?>
<!-- Generator: Adobe Illustrator 19.0.0, SVG Export Plug-In . SVG Version: 6.00 Build 0)  -->

<svg
   version="1.1"
   id="Layer_1"
   x="0px"
   y="0px"
   viewBox="0 0 512 512"
   style="enable-background:new 0 0 512 512;"
   xml:space="preserve"
   sodipodi:docname="dna.svg"
   inkscape:version="1.2.1 (9c6d41e410, 2022-07-14, custom)"
   xmlns:inkscape="http://www.inkscape.org/namespaces/inkscape"
   xmlns:sodipodi="http://sodipodi.sourceforge.net/DTD/sodipodi-0.dtd"
   xmlns="http://www.w3.org/2000/svg"
   xmlns:svg="http://www.w3.org/2000/svg"><defs
   id="defs110" /><sodipodi:namedview
   id="namedview108"
   pagecolor="#ffffff"
   bordercolor="#000000"
   borderopacity="0.25"
   inkscape:showpageshadow="2"
   inkscape:pageopacity="0.0"
   inkscape:pagecheckerboard="0"
   inkscape:deskcolor="#d1d1d1"
   showgrid="false"
   inkscape:zoom="1.0703125"
   inkscape:cx="220.49635"
   inkscape:cy="242.45255"
   inkscape:window-width="1715"
   inkscape:window-height="1001"
   inkscape:window-x="0"
   inkscape:window-y="0"
   inkscape:window-maximized="1"
   inkscape:current-layer="Layer_1" />
<g
   id="g69"
   transform="matrix(0.95549959,0,0,0.95549959,10.815464,0)">
	<g
   id="g67">
		<path
   fill="#7aa2f7"
   d="M 413.876,34.73 C 413.876,15.579 398.297,0 379.147,0 c -19.15,0 -34.73,15.579 -34.73,34.73 0,10.532 -1.455,21.047 -4.131,31.564 H 171.685 c -1.797,-7.109 -3.038,-14.23 -3.651,-21.365 h 111.425 c 5.633,0 10.199,-4.566 10.199,-10.199 0,-5.633 -4.566,-10.199 -10.199,-10.199 H 166.055 C 161.686,10.342 148.457,0 132.854,0 c -19.15,0 -34.73,15.579 -34.73,34.73 0,80.895 52.403,151.003 112.129,221.269 C 152.28,324.16 98.124,395.274 98.124,477.27 c 0,19.15 15.579,34.73 34.73,34.73 14.823,0 27.501,-9.338 32.476,-22.438 h 181.339 c 4.975,13.1 17.653,22.438 32.476,22.438 19.15,0 34.73,-15.579 34.73,-34.73 0,-81.081 -52.47,-151.094 -112.129,-221.269 57.975,-68.161 112.13,-139.275 112.13,-221.271 z m -80.25,51.963 c -2.959,7.47 -6.47,14.947 -10.444,22.438 h -134.46 c -3.958,-7.475 -7.455,-14.952 -10.408,-22.438 z m -117.75,65.275 c -5.418,-7.484 -10.532,-14.962 -15.263,-22.438 H 311.29 c -4.718,7.458 -9.827,14.935 -15.249,22.438 z m 64.762,20.399 c -7.843,9.999 -16.116,20.054 -24.64,30.179 -8.501,-10.087 -16.796,-20.142 -24.688,-30.179 z M 118.523,34.73 c 0,-7.902 6.43,-14.332 14.332,-14.332 7.903,0 14.332,6.43 14.332,14.332 0,45.56 22.593,88.815 53.954,131.649 0.593,1.304 1.451,2.458 2.508,3.399 12.033,16.193 25.266,32.335 38.956,48.524 -4.276,4.994 -8.591,10.005 -12.924,15.039 -1.996,2.318 -3.994,4.64 -5.992,6.963 C 167.41,173.897 118.523,107.878 118.523,34.73 Z m 28.663,442.54 c 0.001,7.902 -6.429,14.332 -14.332,14.332 -7.902,0 -14.332,-6.43 -14.332,-14.332 0,-83.55 64.368,-158.316 126.617,-230.62 61.544,-71.485 119.674,-139.007 119.674,-211.919 0,-7.902 6.43,-14.332 14.332,-14.332 7.902,0 14.332,6.43 14.332,14.332 0,83.55 -64.368,158.316 -126.617,230.62 C 205.317,336.836 147.186,404.358 147.186,477.27 Z M 199.4,384.563 c 4.647,-7.459 9.691,-14.936 15.057,-22.438 h 83.181 c 5.362,7.483 10.41,14.961 15.069,22.438 z m 124.976,20.398 c 3.871,7.474 7.275,14.952 10.126,22.438 H 177.567 c 2.857,-7.471 6.268,-14.948 10.155,-22.438 z m -94.651,-63.235 c 8.326,-10.689 17.158,-21.44 26.278,-32.271 9.092,10.788 17.949,21.54 26.328,32.271 z m -61.849,127.437 c 0.494,-7.125 1.624,-14.245 3.325,-21.365 h 169.63 c 1.686,7.109 2.813,14.229 3.304,21.365 z m 225.602,8.107 c 0,7.902 -6.43,14.332 -14.332,14.332 -7.903,0 -14.332,-6.43 -14.332,-14.332 0,-64.023 -44.589,-123.461 -95.418,-183.571 4.276,-4.994 8.592,-10.005 12.924,-15.039 1.996,-2.318 3.994,-4.64 5.993,-6.964 56.216,66.317 105.165,132.254 105.165,205.574 z"
   id="path65" />
	</g>
</g>
<g
   id="g75"
   transform="matrix(0.95549959,0,0,0.95549959,10.815464,0)">
	<g
   id="g73">
		<path
   fill="#7aa2f7"
   d="m 319.236,24.531 h -5.1 c -5.633,0 -10.199,4.566 -10.199,10.199 0,5.633 4.566,10.199 10.199,10.199 h 5.1 c 5.633,0 10.199,-4.566 10.199,-10.199 0,-5.633 -4.566,-10.199 -10.199,-10.199 z"
   id="path71" />
	</g>
</g>
<g
   id="g77">
</g>
<g
   id="g79">
</g>
<g
   id="g81">
</g>
<g
   id="g83">
</g>
<g
   id="g85">
</g>
<g
   id="g87">
</g>
<g
   id="g89">
</g>
<g
   id="g91">
</g>
<g
   id="g93">
</g>
<g
   id="g95">
</g>
<g
   id="g97">
</g>
<g
   id="g99">
</g>
<g
   id="g101">
</g>
<g
   id="g103">
</g>
<g
   id="g105">
</g>
</svg>
