<?xml version="1.0" encoding="UTF-8" standalone="no"?>
<!-- Generator: Adobe Illustrator 19.0.0, SVG Export Plug-In . SVG Version: 6.00 Build 0)  -->

<svg
   version="1.1"
   id="Capa_1"
   x="0px"
   y="0px"
   viewBox="0 0 55 55"
   style="enable-background:new 0 0 55 55;"
   xml:space="preserve"
   sodipodi:docname="network.svg"
   inkscape:version="1.2.1 (9c6d41e410, 2022-07-14, custom)"
   xmlns:inkscape="http://www.inkscape.org/namespaces/inkscape"
   xmlns:sodipodi="http://sodipodi.sourceforge.net/DTD/sodipodi-0.dtd"
   xmlns="http://www.w3.org/2000/svg"
   xmlns:svg="http://www.w3.org/2000/svg"><defs
   id="defs137" /><sodipodi:namedview
   id="namedview135"
   pagecolor="#ffffff"
   bordercolor="#000000"
   borderopacity="0.25"
   inkscape:showpageshadow="2"
   inkscape:pageopacity="0.0"
   inkscape:pagecheckerboard="0"
   inkscape:deskcolor="#d1d1d1"
   showgrid="false"
   inkscape:zoom="7.0453548"
   inkscape:cx="34.561779"
   inkscape:cy="35.129529"
   inkscape:window-width="1715"
   inkscape:window-height="1001"
   inkscape:window-x="0"
   inkscape:window-y="0"
   inkscape:window-maximized="1"
   inkscape:current-layer="Capa_1" />

<path
   fill="#7aa2f7"
   d="m 49,55 c -3.309,0 -6,-2.691 -6,-6 0,-1.035 0.263,-2.009 0.726,-2.86 L 33.897,36.311 C 32.542,37.366 30.846,38 29,38 27.154,38 25.458,37.366 24.102,36.312 l -7.669,7.669 C 16.785,44.576 17,45.26 17,46 c 0,2.206 -1.794,4 -4,4 -2.206,0 -4,-1.794 -4,-4 0,-2.206 1.794,-4 4,-4 0.74,0 1.424,0.215 2.019,0.567 l 7.669,-7.669 C 21.634,33.542 21,31.846 21,30 c 0,-1.846 0.634,-3.542 1.688,-4.897 L 10.024,12.438 C 8.958,13.405 7.549,14 6,14 2.691,14 0,11.309 0,8 0,4.691 2.691,2 6,2 c 3.309,0 6,2.691 6,6 0,1.035 -0.263,2.009 -0.726,2.86 l 12.829,12.829 c 1.106,-0.86 2.44,-1.436 3.898,-1.619 V 11.91 c -2.833,-0.478 -5,-2.942 -5,-5.91 0,-3.309 2.691,-6 6,-6 3.309,0 6,2.691 6,6 0,2.967 -2.167,5.431 -5,5.91 v 10.16 c 1.458,0.183 2.792,0.759 3.898,1.619 L 41.568,16.02 C 41.215,15.424 41,14.74 41,14 c 0,-2.206 1.794,-4 4,-4 2.206,0 4,1.794 4,4 0,2.206 -1.794,4 -4,4 -0.74,0 -1.424,-0.215 -2.019,-0.567 l -7.669,7.669 C 36.366,26.458 37,28.154 37,30 c 0,1.846 -0.634,3.542 -1.688,4.897 l 9.665,9.665 C 46.042,43.595 47.451,43 49,43 c 3.309,0 6,2.691 6,6 0,3.309 -2.691,6 -6,6 z"
   id="path102" />
<g
   id="g104">
</g>
<g
   id="g106">
</g>
<g
   id="g108">
</g>
<g
   id="g110">
</g>
<g
   id="g112">
</g>
<g
   id="g114">
</g>
<g
   id="g116">
</g>
<g
   id="g118">
</g>
<g
   id="g120">
</g>
<g
   id="g122">
</g>
<g
   id="g124">
</g>
<g
   id="g126">
</g>
<g
   id="g128">
</g>
<g
   id="g130">
</g>
<g
   id="g132">
</g>
</svg>
