<?xml version="1.0" encoding="UTF-8"?>
<svg width="700pt" height="700pt" version="1.1" viewBox="0 0 700 700" xmlns="http://www.w3.org/2000/svg" xmlns:xlink="http://www.w3.org/1999/xlink">
 <defs>
  <symbol id="w" overflow="visible">
   <path d="m4.6875-0.28125c-0.24219 0.125-0.49219 0.21875-0.75 0.28125-0.26172 0.0625-0.53906 0.09375-0.82812 0.09375-0.84375 0-1.5156-0.23438-2.0156-0.70312-0.5-0.47656-0.75-1.125-0.75-1.9375s0.25-1.457 0.75-1.9375c0.5-0.47656 1.1719-0.71875 2.0156-0.71875 0.28906 0 0.56641 0.039063 0.82812 0.10938 0.25781 0.0625 0.50781 0.15625 0.75 0.28125v1.0469c-0.24219-0.16406-0.48047-0.28516-0.71875-0.35938-0.24219-0.070312-0.49219-0.10938-0.75-0.10938-0.46875 0-0.83984 0.15234-1.1094 0.45312-0.27344 0.29297-0.40625 0.70312-0.40625 1.2344s0.13281 0.94922 0.40625 1.25c0.26953 0.29297 0.64062 0.4375 1.1094 0.4375 0.25781 0 0.50781-0.035156 0.75-0.10938 0.23828-0.082031 0.47656-0.20703 0.71875-0.375z"/>
  </symbol>
  <symbol id="c" overflow="visible">
   <path d="m3.4375-2.7812c-0.11719-0.050781-0.22656-0.085938-0.32812-0.10938-0.10547-0.03125-0.21094-0.046875-0.3125-0.046875-0.3125 0-0.55859 0.10547-0.73438 0.3125-0.16797 0.19922-0.25 0.48438-0.25 0.85938v1.7656h-1.2188v-3.8281h1.2188v0.625c0.15625-0.25 0.33203-0.42969 0.53125-0.54688 0.20703-0.11328 0.45703-0.17188 0.75-0.17188 0.03125 0 0.070312 0.007813 0.125 0.015625 0.050781 0 0.11719 0.007812 0.20312 0.015625z"/>
  </symbol>
  <symbol id="a" overflow="visible">
   <path d="m4.4062-1.9219v0.34375h-2.8594c0.03125 0.29297 0.13281 0.51172 0.3125 0.65625 0.17578 0.13672 0.42578 0.20312 0.75 0.20312 0.25 0 0.50781-0.035156 0.78125-0.10938 0.26953-0.070313 0.55078-0.1875 0.84375-0.34375v0.9375c-0.29297 0.11719-0.58594 0.19922-0.875 0.25-0.29297 0.050781-0.58594 0.078125-0.875 0.078125-0.6875 0-1.2266-0.17188-1.6094-0.51562-0.38672-0.35156-0.57812-0.84766-0.57812-1.4844 0-0.625 0.1875-1.1133 0.5625-1.4688 0.38281-0.36328 0.90625-0.54688 1.5625-0.54688 0.60156 0 1.082 0.18359 1.4375 0.54688 0.36328 0.36719 0.54688 0.85156 0.54688 1.4531zm-1.25-0.40625c0-0.23828-0.070312-0.42578-0.20312-0.5625-0.13672-0.14453-0.3125-0.21875-0.53125-0.21875-0.24219 0-0.4375 0.070313-0.59375 0.20312-0.14844 0.13672-0.23438 0.32812-0.26562 0.57812z"/>
  </symbol>
  <symbol id="f" overflow="visible">
   <path d="m2.2969-1.7188c-0.25 0-0.44531 0.042969-0.57812 0.125-0.125 0.085938-0.1875 0.21484-0.1875 0.39062 0 0.14844 0.050781 0.26562 0.15625 0.35938 0.10156 0.085938 0.25 0.125 0.4375 0.125 0.22656 0 0.42188-0.078125 0.57812-0.23438 0.15625-0.16406 0.23438-0.375 0.23438-0.625v-0.14062zm1.875-0.46875v2.1875h-1.2344v-0.5625c-0.16797 0.23047-0.35547 0.39844-0.5625 0.5-0.19922 0.10156-0.44531 0.15625-0.73438 0.15625-0.39844 0-0.71875-0.11328-0.96875-0.34375-0.25-0.22656-0.375-0.53125-0.375-0.90625 0-0.44531 0.15625-0.77344 0.46875-0.98438 0.3125-0.20703 0.79688-0.3125 1.4531-0.3125h0.71875v-0.09375c0-0.19531-0.078125-0.33594-0.23438-0.42188-0.14844-0.09375-0.38281-0.14062-0.70312-0.14062-0.26172 0-0.50781 0.027344-0.73438 0.078125-0.23047 0.054688-0.4375 0.13281-0.625 0.23438v-0.92188c0.25781-0.070312 0.51953-0.125 0.78125-0.15625 0.26953-0.03125 0.53516-0.046875 0.79688-0.046875 0.6875 0 1.1797 0.13672 1.4844 0.40625 0.3125 0.27344 0.46875 0.71484 0.46875 1.3281z"/>
  </symbol>
  <symbol id="b" overflow="visible">
   <path d="m1.9219-4.9219v1.0938h1.2656v0.875h-1.2656v1.625c0 0.17969 0.035156 0.29688 0.10938 0.35938 0.070312 0.0625 0.21094 0.09375 0.42188 0.09375h0.625v0.875h-1.0469c-0.48047 0-0.82422-0.097656-1.0312-0.29688-0.19922-0.20703-0.29688-0.55078-0.29688-1.0312v-1.625h-0.60938v-0.875h0.60938v-1.0938z"/>
  </symbol>
  <symbol id="i" overflow="visible">
   <path d="m3.1875-3.2656v-2.0469h1.2344v5.3125h-1.2344v-0.54688c-0.16797 0.21875-0.35547 0.38281-0.5625 0.48438-0.19922 0.10156-0.42969 0.15625-0.6875 0.15625-0.48047 0-0.87109-0.1875-1.1719-0.5625-0.30469-0.375-0.45312-0.85156-0.45312-1.4375 0-0.59375 0.14844-1.0781 0.45312-1.4531 0.30078-0.375 0.69141-0.5625 1.1719-0.5625 0.25781 0 0.48828 0.054687 0.6875 0.15625 0.20703 0.10547 0.39453 0.27344 0.5625 0.5zm-0.79688 2.4688c0.25781 0 0.45703-0.09375 0.59375-0.28125 0.13281-0.1875 0.20312-0.46094 0.20312-0.82812 0-0.36328-0.070312-0.64062-0.20312-0.82812-0.13672-0.19531-0.33594-0.29688-0.59375-0.29688-0.26172 0-0.46484 0.10156-0.60938 0.29688-0.13672 0.1875-0.20312 0.46484-0.20312 0.82812 0 0.36719 0.066406 0.64062 0.20312 0.82812 0.14453 0.1875 0.34766 0.28125 0.60938 0.28125z"/>
  </symbol>
  <symbol id="h" overflow="visible">
   <path d="m2.625-0.79688c0.25781 0 0.45703-0.09375 0.59375-0.28125 0.14453-0.1875 0.21875-0.46094 0.21875-0.82812 0-0.36328-0.074219-0.64062-0.21875-0.82812-0.13672-0.19531-0.33594-0.29688-0.59375-0.29688-0.26172 0-0.46484 0.10156-0.60938 0.29688-0.13672 0.1875-0.20312 0.46484-0.20312 0.82812 0 0.35547 0.066406 0.63281 0.20312 0.82812 0.14453 0.1875 0.34766 0.28125 0.60938 0.28125zm-0.8125-2.4688c0.16406-0.22656 0.35156-0.39453 0.5625-0.5 0.20703-0.10156 0.44141-0.15625 0.70312-0.15625 0.46875 0 0.85156 0.1875 1.1562 0.5625 0.3125 0.375 0.46875 0.85938 0.46875 1.4531 0 0.58594-0.15625 1.0625-0.46875 1.4375-0.30469 0.375-0.6875 0.5625-1.1562 0.5625-0.26172 0-0.49609-0.054688-0.70312-0.15625-0.21094-0.10156-0.39844-0.26562-0.5625-0.48438v0.54688h-1.2188v-5.3125h1.2188z"/>
  </symbol>
  <symbol id="g" overflow="visible">
   <path d="m0.078125-3.8281h1.2344l1.0312 2.5938 0.875-2.5938h1.2188l-1.6094 4.1875c-0.16797 0.42578-0.35938 0.72266-0.57812 0.89062-0.21094 0.17578-0.49219 0.26562-0.84375 0.26562h-0.70312v-0.8125h0.375c0.20703 0 0.35938-0.03125 0.45312-0.09375s0.16406-0.18359 0.21875-0.35938l0.046875-0.10938z"/>
  </symbol>
  <symbol id="e" overflow="visible">
   <path d="m0.64062-5.1094h2.1875c0.64453 0 1.1406 0.14844 1.4844 0.4375 0.35156 0.29297 0.53125 0.70312 0.53125 1.2344s-0.17969 0.94531-0.53125 1.2344c-0.34375 0.29297-0.83984 0.4375-1.4844 0.4375h-0.875v1.7656h-1.3125zm1.3125 0.95312v1.4375h0.73438c0.25 0 0.44141-0.0625 0.57812-0.1875 0.14453-0.125 0.21875-0.30078 0.21875-0.53125 0-0.22656-0.074219-0.40625-0.21875-0.53125-0.13672-0.125-0.32812-0.1875-0.57812-0.1875z"/>
  </symbol>
  <symbol id="v" overflow="visible">
   <path d="m0.25-3.8281h1.1875l0.64062 2.6406 0.64062-2.6406h1.0312l0.64062 2.6094 0.64062-2.6094h1.1875l-1 3.8281h-1.3438l-0.64062-2.625-0.64062 2.625h-1.3438z"/>
  </symbol>
  <symbol id="u" overflow="visible">
   <path d="m0.6875-5.3125h1.2188v1.7031l0.45312-0.29688 0.375 0.53125-0.82812 0.5625v2.8125h-1.2188v-2.1875l-0.4375 0.29688-0.375-0.53125 0.8125-0.5625z"/>
  </symbol>
  <symbol id="t" overflow="visible">
   <path d="m5.2344-0.375c-0.33594 0.15625-0.67969 0.27734-1.0312 0.35938-0.35547 0.070312-0.71875 0.10938-1.0938 0.10938-0.84375 0-1.5156-0.23438-2.0156-0.70312-0.5-0.47656-0.75-1.125-0.75-1.9375 0-0.82031 0.25-1.4688 0.75-1.9375 0.50781-0.47656 1.207-0.71875 2.0938-0.71875 0.33203 0 0.65625 0.039063 0.96875 0.10938 0.3125 0.0625 0.60938 0.15625 0.89062 0.28125v1.0469c-0.29297-0.15625-0.57812-0.26953-0.85938-0.34375-0.28125-0.082031-0.5625-0.125-0.84375-0.125-0.52344 0-0.92969 0.14844-1.2188 0.4375-0.28125 0.29297-0.42188 0.71094-0.42188 1.25 0 0.54297 0.13281 0.96094 0.40625 1.25 0.28125 0.29297 0.67188 0.4375 1.1719 0.4375 0.13281 0 0.25781-0.003906 0.375-0.015625 0.125-0.019531 0.23438-0.046875 0.32812-0.078125v-1h-0.8125v-0.875h2.0625z"/>
  </symbol>
  <symbol id="s" overflow="visible">
   <path d="m0.59375-5.3125h1.2188v5.3125h-1.2188z"/>
  </symbol>
  <symbol id="r" overflow="visible">
   <path d="m2.2188-5.5938h0.95312l-1.25 1.2812h-0.67188zm2.2188 3.2656v2.3281h-1.2344v-1.7812c0-0.33203-0.011719-0.5625-0.03125-0.6875-0.011719-0.125-0.03125-0.21875-0.0625-0.28125-0.054687-0.070312-0.12109-0.12891-0.20312-0.17188-0.074219-0.050781-0.16797-0.078125-0.28125-0.078125-0.25 0-0.44922 0.10156-0.59375 0.29688-0.14844 0.19922-0.21875 0.46875-0.21875 0.8125v1.8906h-1.2188v-3.8281h1.2188v0.5625c0.1875-0.22656 0.37891-0.39453 0.57812-0.5 0.20703-0.10156 0.44141-0.15625 0.70312-0.15625 0.4375 0 0.76953 0.13672 1 0.40625 0.22656 0.27344 0.34375 0.66797 0.34375 1.1875z"/>
  </symbol>
  <symbol id="q" overflow="visible">
   <path d="m3.1094-5.3125v0.79688h-0.67188c-0.17969 0-0.30469 0.03125-0.375 0.09375-0.0625 0.0625-0.09375 0.17188-0.09375 0.32812v0.26562h1.0469v0.875h-1.0469v2.9531h-1.2344v-2.9531h-0.59375v-0.875h0.59375v-0.26562c0-0.41406 0.11328-0.72266 0.34375-0.92188 0.23828-0.19531 0.60156-0.29688 1.0938-0.29688z"/>
  </symbol>
  <symbol id="d" overflow="visible">
   <path d="m2.4062-3.0469c-0.27344 0-0.48047 0.10156-0.625 0.29688-0.13672 0.1875-0.20312 0.46875-0.20312 0.84375 0 0.36719 0.066406 0.64844 0.20312 0.84375 0.14453 0.1875 0.35156 0.28125 0.625 0.28125 0.26953 0 0.47266-0.09375 0.60938-0.28125 0.14453-0.19531 0.21875-0.47656 0.21875-0.84375 0-0.375-0.074219-0.65625-0.21875-0.84375-0.13672-0.19531-0.33984-0.29688-0.60938-0.29688zm0-0.875c0.65625 0 1.1719 0.17969 1.5469 0.53125 0.375 0.35547 0.5625 0.85156 0.5625 1.4844 0 0.625-0.1875 1.1172-0.5625 1.4688-0.375 0.35547-0.89062 0.53125-1.5469 0.53125s-1.1719-0.17578-1.5469-0.53125c-0.375-0.35156-0.5625-0.84375-0.5625-1.4688 0-0.63281 0.1875-1.1289 0.5625-1.4844 0.375-0.35156 0.89062-0.53125 1.5469-0.53125z"/>
  </symbol>
  <symbol id="p" overflow="visible">
   <path d="m4.1406-3.1875c0.15625-0.23828 0.33594-0.42188 0.54688-0.54688 0.20703-0.125 0.44141-0.1875 0.70312-0.1875 0.4375 0 0.76953 0.13672 1 0.40625 0.22656 0.27344 0.34375 0.66797 0.34375 1.1875v2.3281h-1.2188v-2-0.09375-0.125c0-0.26953-0.042969-0.46875-0.125-0.59375-0.074219-0.125-0.19922-0.1875-0.375-0.1875-0.24219 0-0.42188 0.10156-0.54688 0.29688-0.125 0.1875-0.1875 0.46484-0.1875 0.82812v1.875h-1.2344v-2c0-0.41406-0.039063-0.6875-0.10938-0.8125-0.074219-0.125-0.20312-0.1875-0.39062-0.1875-0.24219 0-0.42188 0.10156-0.54688 0.29688-0.125 0.1875-0.1875 0.46094-0.1875 0.8125v1.8906h-1.2344v-3.8281h1.2344v0.5625c0.14453-0.21875 0.31641-0.37891 0.51562-0.48438 0.19531-0.11328 0.41016-0.17188 0.64062-0.17188 0.26953 0 0.50391 0.070313 0.70312 0.20312 0.20703 0.125 0.36328 0.30469 0.46875 0.53125z"/>
  </symbol>
  <symbol id="o" overflow="visible">
   <path d="m4.4375-2.3281v2.3281h-1.2344v-1.7812c0-0.33203-0.011719-0.5625-0.03125-0.6875-0.011719-0.125-0.03125-0.21875-0.0625-0.28125-0.054687-0.070312-0.12109-0.12891-0.20312-0.17188-0.074219-0.050781-0.16797-0.078125-0.28125-0.078125-0.25 0-0.44922 0.10156-0.59375 0.29688-0.14844 0.19922-0.21875 0.46875-0.21875 0.8125v1.8906h-1.2188v-5.3125h1.2188v2.0469c0.1875-0.22656 0.37891-0.39453 0.57812-0.5 0.20703-0.10156 0.44141-0.15625 0.70312-0.15625 0.4375 0 0.76953 0.13672 1 0.40625 0.22656 0.27344 0.34375 0.66797 0.34375 1.1875z"/>
  </symbol>
  <symbol id="n" overflow="visible">
   <path d="m0.64062-5.1094h1.4688l1.8594 3.5v-3.5h1.25v5.1094h-1.4688l-1.8594-3.5v3.5h-1.25z"/>
  </symbol>
  <symbol id="m" overflow="visible">
   <path d="m0.54688-1.4844v-2.3438h1.2344v0.375c0 0.21094-0.007812 0.47656-0.015625 0.79688v0.625c0 0.30469 0.003906 0.52344 0.015625 0.65625 0.019531 0.13672 0.050781 0.23438 0.09375 0.29688 0.050781 0.085937 0.11328 0.14844 0.1875 0.1875 0.082031 0.042969 0.17969 0.0625 0.29688 0.0625 0.25 0 0.44531-0.097656 0.59375-0.29688 0.14453-0.19531 0.21875-0.46875 0.21875-0.8125v-1.8906h1.2188v3.8281h-1.2188v-0.54688c-0.1875 0.21875-0.38672 0.38281-0.59375 0.48438-0.19922 0.10156-0.42188 0.15625-0.67188 0.15625-0.44922 0-0.78906-0.13281-1.0156-0.40625-0.23047-0.26953-0.34375-0.66016-0.34375-1.1719z"/>
  </symbol>
  <symbol id="l" overflow="visible">
   <path d="m4.4375-2.3281v2.3281h-1.2344v-1.7812c0-0.33203-0.011719-0.5625-0.03125-0.6875-0.011719-0.125-0.03125-0.21875-0.0625-0.28125-0.054687-0.070312-0.12109-0.12891-0.20312-0.17188-0.074219-0.050781-0.16797-0.078125-0.28125-0.078125-0.25 0-0.44922 0.10156-0.59375 0.29688-0.14844 0.19922-0.21875 0.46875-0.21875 0.8125v1.8906h-1.2188v-3.8281h1.2188v0.5625c0.1875-0.22656 0.37891-0.39453 0.57812-0.5 0.20703-0.10156 0.44141-0.15625 0.70312-0.15625 0.4375 0 0.76953 0.13672 1 0.40625 0.22656 0.27344 0.34375 0.66797 0.34375 1.1875z"/>
  </symbol>
  <symbol id="k" overflow="visible">
   <path d="m0.59375-3.8281h1.2188v3.7656c0 0.50781-0.125 0.89844-0.375 1.1719-0.24219 0.26953-0.59375 0.40625-1.0625 0.40625h-0.60938v-0.8125h0.21875c0.22656 0 0.38281-0.054687 0.46875-0.15625 0.09375-0.10547 0.14062-0.30859 0.14062-0.60938zm0-1.4844h1.2188v0.98438h-1.2188z"/>
  </symbol>
  <symbol id="j" overflow="visible">
   <path d="m3.6875-3.7031v1c-0.16797-0.11328-0.33984-0.19531-0.51562-0.25-0.16797-0.0625-0.33984-0.09375-0.51562-0.09375-0.34375 0-0.60938 0.10156-0.79688 0.29688-0.1875 0.19922-0.28125 0.48047-0.28125 0.84375 0 0.35547 0.09375 0.63281 0.28125 0.82812 0.1875 0.19922 0.45312 0.29688 0.79688 0.29688 0.19531 0 0.37891-0.023438 0.54688-0.078125 0.17578-0.0625 0.33594-0.14453 0.48438-0.25v1c-0.19922 0.074219-0.39844 0.125-0.59375 0.15625-0.19922 0.03125-0.39844 0.046875-0.59375 0.046875-0.6875 0-1.2305-0.17578-1.625-0.53125-0.38672-0.35156-0.57812-0.84375-0.57812-1.4688 0-0.63281 0.19141-1.1289 0.57812-1.4844 0.39453-0.35156 0.9375-0.53125 1.625-0.53125 0.20703 0 0.40625 0.023437 0.59375 0.0625 0.19531 0.03125 0.39453 0.085937 0.59375 0.15625z"/>
  </symbol>
 </defs>
 <g>
  <path d="m558.25 270.32c-2.6602-10.285-10.102-18.668-20.004-22.531-9.8984-3.8633-21.051-2.7344-29.977 3.0312l-74.508-90.371c2.0586-2.2891 2.8438-5.457 2.0977-8.4453-0.75-2.9883-2.9336-5.4102-5.8281-6.4609s-6.125-0.59375-8.6172 1.2188c-2.4883 1.8125-3.918 4.7422-3.8086 7.8242l-142.04 26.461v-0.003906c-1.6797-6.418-6.4492-11.578-12.719-13.754-6.2695-2.1719-13.211-1.0781-18.504 2.9258-5.293 4-8.2422 10.379-7.8594 17.004 0.38281 6.625 4.0469 12.621 9.7656 15.988l0.47656 0.25391-34.383 74.199v-0.003906c-2.7656-0.82812-5.7539-0.41406-8.1875 1.1367-2.4297 1.5508-4.0664 4.0859-4.4805 6.9414-0.41016 2.8555 0.44141 5.75 2.3359 7.9258 1.8945 2.1758 4.6445 3.418 7.5312 3.4023 2.0664-0.003906 4.082-0.64844 5.7656-1.8477l127.66 134.12h0.003906c-2.9805 3.3984-4.2852 7.9531-3.5625 12.414 0.72266 4.4609 3.3984 8.3711 7.3008 10.656 2.3242 1.375 4.9727 2.0977 7.6719 2.1016 1.2969-0.003907 2.5898-0.16797 3.8477-0.49219 4.9375-1.2891 8.8984-4.9688 10.543-9.7969 1.6484-4.832 0.75781-10.164-2.3672-14.199l136.68-127.82c1.9297 1.9023 4.082 3.5625 6.4141 4.9414 5.0664 2.9961 10.844 4.5781 16.727 4.5781 2.8359 0 5.6602-0.36328 8.4023-1.0781 8.5-2.207 15.773-7.7031 20.223-15.273 4.4492-7.5703 5.7109-16.602 3.5078-25.102zm-27.242 26.84c-4.9062 1.2891-10.125 0.5625-14.492-2.0156-1.1758-0.69531-2.2734-1.5117-3.2773-2.4375-2.707-2.4805-4.6523-5.6875-5.5977-9.2383-0.24219-0.95312-0.41016-1.9219-0.50391-2.8984-0.33594-2.957 0.058593-5.9531 1.1484-8.7227 0.38672-0.99609 0.85156-1.9609 1.3984-2.8828 0.085937-0.14062 0.18359-0.26562 0.26562-0.40625 0.51172-0.82031 1.082-1.6016 1.707-2.3398 1.5664-1.832 3.4688-3.3477 5.6016-4.4648 2.7539-1.4648 5.8281-2.2305 8.9453-2.2266 6.2539 0.015625 12.102 3.082 15.668 8.2148 3.5664 5.1367 4.3984 11.688 2.2266 17.551s-7.0703 10.293-13.121 11.867zm-170.12 140.52c0.46094 1.7383 0.20312 3.5859-0.71094 5.1367-0.85938 1.6523-2.3594 2.8789-4.1484 3.3945-1.793 0.51562-3.7148 0.27344-5.3203-0.67188-1.6055-0.94531-2.7539-2.5078-3.1719-4.3203-0.42187-1.8164-0.078124-3.7227 0.94922-5.2773 0.085938-0.14062 0.18359-0.25391 0.28125-0.37891 0.47656-0.70312 1.0859-1.3125 1.7891-1.7891l0.23828-0.14062c0.57031-0.35938 1.1875-0.63672 1.8359-0.8125 0.22266 0 0.43359-0.097657 0.65625-0.125 0.34766-0.0625 0.69922-0.09375 1.0508-0.097657 1.207 0.011719 2.3867 0.33203 3.4297 0.9375 0.15234 0.097657 0.28125 0.21094 0.43359 0.30859 0.77734 0.53516 1.4297 1.2344 1.918 2.043 0.34375 0.55469 0.60156 1.1602 0.76953 1.793zm-10.387-12.992-0.23828 0.070313-52.598-138.6 47.949-1.3008 6.5938 139.43c-0.57422 0.10547-1.1445 0.24609-1.707 0.41797zm-139.23-133.49c-1.1875 0.54297-2.5547 0.52344-3.7227-0.0625-1.168-0.58203-2.0078-1.6641-2.2852-2.9414-0.27734-1.2734 0.035156-2.6055 0.85547-3.6211 0.82031-1.0156 2.0547-1.6094 3.3594-1.6055h0.42188 0.39062c0.49219 0.078125 0.96875 0.24609 1.4023 0.48828 1.7188 0.97266 2.5312 3.0117 1.9453 4.9023v0.11328-0.003906c-0.078125 0.23828-0.17578 0.46875-0.29297 0.6875 0 0 0 0.14062-0.097656 0.21094h-0.003906c-0.44141 0.80469-1.1328 1.4492-1.9727 1.832zm37.547-109.46c1.6797-2.9219 4.9062-4.6016 8.2617-4.3008 3.3555 0.30078 6.2305 2.5273 7.3633 5.6992 0.097657 0.25391 0.21094 0.48828 0.28125 0.75781 0.16406 0.64844 0.25391 1.3164 0.26563 1.9883v0.25391-0.003906c-0.003907 1.0156-0.19141 2.0195-0.54688 2.9688-0.17578 0.48438-0.39844 0.95312-0.65625 1.3984-1.9961 3.3906-6.0156 5.0156-9.8008 3.9648h-0.19531c-0.65625-0.19531-1.2852-0.46875-1.8789-0.8125l-0.46094-0.30859c-3.8438-2.5742-5-7.7031-2.6328-11.676zm24.641 14.477c0.77734-1.3242 1.3945-2.7344 1.8477-4.1992l60.367 15.652-55.254 33.137-14.238-37.492c3.0117-1.7109 5.5234-4.1836 7.2773-7.168zm150.23-43.707c0.49219-0.84375 1.2969-1.4531 2.2422-1.6953 0.30078-0.078125 0.60938-0.11328 0.92188-0.11328 1.2891 0 2.4805 0.67578 3.1406 1.7812 0.66016 1.1055 0.69141 2.4766 0.078125 3.6094v0.14062c-0.41016 0.69141-1.0391 1.2305-1.7891 1.5273l-0.40625 0.15234c-0.61719 0.16406-1.2617 0.16406-1.875 0-0.33203-0.09375-0.65234-0.21875-0.95312-0.37891l-0.26563-0.19531c-0.37109-0.26562-0.69141-0.59766-0.9375-0.98047l-0.15234-0.25391-0.003907 0.003906c-0.14453-0.25781-0.25781-0.53125-0.33594-0.8125-0.003906-0.12891-0.003906-0.25391 0-0.37891-0.12109-0.82422 0.039063-1.668 0.44922-2.3945zm-72.477 108.74v-0.003907c-1.1484 1.9492-3.2461 3.1406-5.5078 3.125-2.2617-0.015625-4.3438-1.2344-5.4648-3.1992-1.1211-1.9609-1.1133-4.375 0.023437-6.3281 1.1367-1.957 3.2266-3.1602 5.4883-3.1562 2.1445 0.003906 4.1328 1.1172 5.2656 2.9375 0.54297 0.77734 0.87109 1.6875 0.94922 2.6328 0.18359 1.3555-0.082031 2.7305-0.75391 3.9219zm4.4531-9.8008 24.289-32.312 29.766 7.7148h-0.003906c-0.30859 2.1875-0.17969 4.4141 0.37891 6.5508v0.097657l-53.703 19.266c-0.23438-0.49609-0.5-0.97266-0.79688-1.4297zm66.805-89.043c0.90625 0.48828 1.8867 0.82031 2.8984 0.98047l-0.39062 49c-5.4492 0.41406-10.348 3.4688-13.117 8.1758-0.085938 0.14062-0.14063 0.28125-0.22266 0.42187l-28.168-6.707zm11.887 68.277v0.003907c-0.17578 0.89844-0.50391 1.7656-0.96484 2.5586-0.26953 0.45312-0.57813 0.88281-0.92578 1.2773-1.7656 2.0195-4.4062 3.0547-7.0742 2.7773-2.6719-0.27734-5.0391-1.8359-6.3516-4.1797-0.73438-1.3047-1.1055-2.7852-1.0781-4.2852 0.15234-3.6719 2.6758-6.8203 6.2305-7.7695 0.25391 0 0.50391-0.097656 0.74219-0.14062v0.003906c0.46094-0.082031 0.92969-0.125 1.4023-0.12891 1.4727 0.023437 2.918 0.41797 4.1992 1.1484 3 1.8242 4.5312 5.3398 3.8203 8.7773zm-14.363-70.164-42.645 52.359-30.477-7.2539 72.953-45.305zm-46.312 56.867-23.883 29.398c-3.8438-1.3984-8.1406-0.72656-11.371 1.7812-3.2344 2.5039-4.957 6.4961-4.5625 10.566l-43.008 9.2383-8.5664-22.566 59.109-36.723zm-89.488 52.344-62.02 13.312 53.871-33.461zm1.0625 2.6328 4.5391 11.285-65.297 1.7656zm6.5508-1.3984 42.633-9.1562c1.5273 4.5547 5.6641 7.7305 10.457 8.0352l0.58984 12.293-48.875 1.3164zm55.832-1.2305 0.003907-0.003906c3.2539-0.52344 6.1445-2.3789 7.9766-5.1172 1.8359-2.7422 2.4492-6.1211 1.6953-9.3281l53.719-19.266c1.6445 3.6133 4.5273 6.5195 8.1289 8.1953 3.5977 1.6758 7.6797 2.0078 11.504 0.9375 3.8242-1.0664 7.1367-3.4688 9.3477-6.7656l0.82422 0.42188 15.973 8.0078 18.355 9.0703 18.426 8.9609 2.0312 0.98047v-0.003906c-1.6562 3.9062-2.5352 8.0938-2.5898 12.336l-144.79 3.9062zm155.38-14.703c-2.082 2.0391-3.8906 4.3398-5.375 6.8477l-0.14062 0.25391-2.0039-1.0234-18.285-9.2383-18.34-9.1289-16.043-7.8672-0.79688-0.39063v-0.003906c1.6602-4.8359 1.0039-10.168-1.7773-14.457-2.7812-4.293-7.3828-7.0664-12.473-7.5234l0.39062-49c1.1133-0.16016 2.1914-0.51953 3.1797-1.0625zm-84.895-97.68c0 0.15234 0.11328 0.30859 0.18359 0.46094l-77.172 46.457-65.113-15.512v-0.003906c0.20703-1.6406 0.20703-3.3008 0-4.9414zm-168.93 47.309c2.9141 1.1367 6.0625 1.543 9.1719 1.1914l15.664 38.781-58.211 35v-0.003906c-0.32031-0.26953-0.65625-0.51562-1.0078-0.74219zm-31.988 88.719c0.28125-0.35547 0.53906-0.73047 0.76953-1.1211 0.69922-1.1914 1.1367-2.5195 1.2891-3.8906l71.664-1.9336 56.379 139.5c-0.86719 0.44141-1.6875 0.96875-2.4492 1.5664zm147.14 134.68c-0.74219-0.65625-1.543-1.2344-2.3945-1.7383-2.1289-1.2578-4.5312-1.9727-7-2.0859l-6.5938-139.36 144.75-3.9062c0.17578 2.043 0.54297 4.0625 1.0898 6.0352 1.2852 4.8945 3.6836 9.4258 7 13.242z"/>
  <use x="70" y="581" xlink:href="#w"/>
  <use x="75.136719" y="581" xlink:href="#c"/>
  <use x="78.589844" y="581" xlink:href="#a"/>
  <use x="83.335938" y="581" xlink:href="#f"/>
  <use x="88.0625" y="581" xlink:href="#b"/>
  <use x="91.40625" y="581" xlink:href="#a"/>
  <use x="96.15625" y="581" xlink:href="#i"/>
  <use x="103.601562" y="581" xlink:href="#h"/>
  <use x="108.613281" y="581" xlink:href="#g"/>
  <use x="115.613281" y="581" xlink:href="#e"/>
  <use x="120.742187" y="581" xlink:href="#f"/>
  <use x="125.46875" y="581" xlink:href="#v"/>
  <use x="131.933594" y="581" xlink:href="#a"/>
  <use x="136.679688" y="581" xlink:href="#u"/>
  <use x="141.714844" y="581" xlink:href="#t"/>
  <use x="147.460938" y="581" xlink:href="#s"/>
  <use x="149.859375" y="581" xlink:href="#a"/>
  <use x="154.609375" y="581" xlink:href="#r"/>
  <use x="70" y="588" xlink:href="#q"/>
  <use x="73.046875" y="588" xlink:href="#c"/>
  <use x="76.496094" y="588" xlink:href="#d"/>
  <use x="81.308594" y="588" xlink:href="#p"/>
  <use x="91.039062" y="588" xlink:href="#b"/>
  <use x="94.382812" y="588" xlink:href="#o"/>
  <use x="99.367187" y="588" xlink:href="#a"/>
  <use x="106.550781" y="588" xlink:href="#n"/>
  <use x="112.410156" y="588" xlink:href="#d"/>
  <use x="117.21875" y="588" xlink:href="#m"/>
  <use x="122.203125" y="588" xlink:href="#l"/>
  <use x="129.625" y="588" xlink:href="#e"/>
  <use x="134.753906" y="588" xlink:href="#c"/>
  <use x="138.207031" y="588" xlink:href="#d"/>
  <use x="143.015625" y="588" xlink:href="#k"/>
  <use x="145.414062" y="588" xlink:href="#a"/>
  <use x="150.160156" y="588" xlink:href="#j"/>
  <use x="154.3125" y="588" xlink:href="#b"/>
 </g>
</svg>
