<?xml version="1.0" encoding="UTF-8"?>
<svg width="700pt" height="700pt" version="1.1" viewBox="0 0 700 700" xmlns="http://www.w3.org/2000/svg" xmlns:xlink="http://www.w3.org/1999/xlink">
 <defs>
  <symbol id="w" overflow="visible">
   <path d="m0.03125 0h-0.015625-0.015625v-0.015625-0.015625h0.015625 0.015625-0.015625v0.015625 0.015625h0.015625v-0.015625z"/>
  </symbol>
  <symbol id="e" overflow="visible">
   <path d="m0.015625-0.015625v0.015625h-0.015625v-0.03125h0.015625v0.015625-0.015625z"/>
  </symbol>
  <symbol id="b" overflow="visible">
   <path d="m0.03125-0.015625h-0.015625v0.015625c0.0078125 0 0.015625-0.0039062 0.015625-0.015625v0.015625h-0.015625-0.015625v-0.015625l0.015625-0.015625v0.015625h0.015625z"/>
  </symbol>
  <symbol id="a" overflow="visible">
   <path d="m0.015625-0.015625v0.015625-0.015625zm0.015625 0v0.015625h-0.015625-0.015625v-0.015625h0.015625-0.015625v-0.015625h0.015625v0.015625h0.015625z"/>
  </symbol>
  <symbol id="d" overflow="visible">
   <path d="m0.015625-0.03125v0.015625 0.015625h-0.015625v-0.015625-0.015625z"/>
  </symbol>
  <symbol id="l" overflow="visible">
   <path d="m0.015625-0.015625v-0.015625h0.015625v0.03125h-0.015625-0.015625v-0.015625l0.015625-0.015625v0.015625zm0 0.015625v-0.015625 0.015625z"/>
  </symbol>
  <symbol id="k" overflow="visible">
   <path d="m0.015625 0v-0.015625 0.015625zm0-0.015625v-0.015625c0.0078125 0 0.015625 0.0078125 0.015625 0.015625v0.015625h-0.015625-0.015625v-0.03125h0.015625z"/>
  </symbol>
  <symbol id="j" overflow="visible">
   <path d="m0-0.03125h0.015625v0.015625-0.015625h0.015625l-0.015625 0.03125v0.015625h-0.015625v-0.015625h0.015625z"/>
  </symbol>
  <symbol id="i" overflow="visible">
   <path d="m0.015625-0.03125v0.015625 0.015625h0.015625v-0.015625c0-0.0078125-0.0078125-0.015625-0.015625-0.015625zm0 0h0.015625v0.015625 0.015625h-0.015625-0.015625v-0.015625-0.015625h0.015625z"/>
  </symbol>
  <symbol id="v" overflow="visible">
   <path d="m0-0.03125h0.015625v0.03125h-0.015625z"/>
  </symbol>
  <symbol id="f" overflow="visible">
   <path d="m0.03125-0.015625v0.015625h-0.015625v-0.015625 0.015625h-0.015625v-0.03125h0.015625v0.015625-0.015625c0.0078125 0 0.015625 0.0078125 0.015625 0.015625z"/>
  </symbol>
  <symbol id="h" overflow="visible">
   <path d="m0-0.03125h0.015625 0.015625v0.015625h-0.015625v0.015625h-0.015625zm0.015625 0v0.015625-0.015625z"/>
  </symbol>
  <symbol id="g" overflow="visible">
   <path d="m0.03125-0.03125v0.015625h-0.015625c0.0078125 0 0.015625 0.0078125 0.015625 0.015625h-0.015625-0.015625 0.015625v-0.015625h-0.015625l0.015625-0.015625h0.015625z"/>
  </symbol>
  <symbol id="c" overflow="visible">
   <path d="m0.015625-0.015625v0.015625-0.015625zm0-0.015625v0.015625h0.015625c0 0.011719-0.0078125 0.015625-0.015625 0.015625h-0.015625v-0.015625l0.015625-0.015625z"/>
  </symbol>
  <symbol id="u" overflow="visible">
   <path d="m0-0.03125h0.015625v0.015625-0.015625h0.015625l-0.015625 0.03125z"/>
  </symbol>
  <symbol id="t" overflow="visible">
   <path d="m0-0.03125h0.015625v0.015625-0.015625h0.015625l-0.015625 0.015625 0.015625 0.015625h-0.015625v-0.015625 0.015625h-0.015625z"/>
  </symbol>
  <symbol id="s" overflow="visible">
   <path d="m0.015625-0.03125v0.03125h-0.015625v-0.03125h0.015625z"/>
  </symbol>
  <symbol id="r" overflow="visible">
   <path d="m0.03125-0.015625v-0.015625c0.0078125 0 0.015625 0.0078125 0.015625 0.015625v0.015625h-0.015625v-0.015625 0.015625h-0.015625v-0.015625 0.015625h-0.015625v-0.03125h0.015625v0.015625-0.015625 0.015625h0.015625z"/>
  </symbol>
  <symbol id="q" overflow="visible">
   <path d="m0.03125-0.015625v0.015625h-0.015625v-0.015625 0.015625h-0.015625v-0.03125h0.015625v0.015625-0.015625c0.0078125 0 0.015625 0.0078125 0.015625 0.015625z"/>
  </symbol>
  <symbol id="p" overflow="visible">
   <path d="m0-0.03125h0.015625l0.015625 0.015625v-0.015625 0.03125l-0.015625-0.015625v0.015625h-0.015625z"/>
  </symbol>
  <symbol id="o" overflow="visible">
   <path d="m0-0.015625v-0.015625h0.015625v0.015625 0.015625-0.015625-0.015625h0.015625v0.03125h-0.015625-0.015625v-0.015625z"/>
  </symbol>
  <symbol id="n" overflow="visible">
   <path d="m0-0.03125h0.015625v0.03125h-0.015625v0.015625zm0 0h0.015625z"/>
  </symbol>
  <symbol id="m" overflow="visible">
   <path d="m0.03125-0.03125v0.015625h-0.015625v0.015625h0.015625-0.015625-0.015625v-0.015625l0.015625-0.015625h0.015625z"/>
  </symbol>
 </defs>
 <g>
  <path d="m268.14 150c0.12109 0.50391 0.24219 1 0.36328 1.4922 2.0352 3.3867 3.4922 7.457 4.1328 12.488 2.0898 4.9102 4.6758 9.4531 7.9141 13.684 5.5156 7.1953 12.992 13.551 23.238 19.348 0.054688 0.027344 0.11328 0.066406 0.16797 0.09375 1.1367 0.64453 2.3164 1.2773 3.5195 1.9023 1.5117-2.2031 2.5664-4.3398 3.2109-6.3672 0.8125-2.5469 0.98828-4.9297 0.67969-7.0469-0.28906-1.9961-1.0273-3.7539-2.0625-5.1719-1.2031-1.6523-2.8086-2.8359-4.5547-3.3984-1.9609-0.61719-3.043-2.707-2.418-4.668 0.61719-1.9609 2.707-3.043 4.668-2.418 3.2656 1.0469 6.1875 3.1641 8.3242 6.0742 1.7266 2.3711 2.957 5.2656 3.4336 8.5195 0.41016 2.8008 0.26172 5.8789-0.61719 9.1367 0.24219-0.12109 0.48438-0.24219 0.72656-0.36328 4.0312-2.3789 7.793-4.1328 11.348-5.3945 9.3789-4.5938 17.668-9.9766 20.113-21.27 0.4375-2.0156 2.418-3.293 4.4336-2.8555 2.0156 0.4375 3.293 2.418 2.8555 4.4336-1.6133 7.4648-4.9766 12.785-9.3516 16.91 5.3398 0.19531 10.332 1.1836 15.324 2.1758 5.9258 1.168 11.852 2.3438 18.18 1.9688 2.0547-0.12109 3.8164 1.4453 3.9375 3.5 0.12109 2.0547-1.4453 3.8164-3.5 3.9375-7.3164 0.4375-13.684-0.82031-20.047-2.082-9.0234-1.7812-18.051-3.5664-29.391 0.34375-1.4648 0.71094-2.9492 1.3984-4.4336 2.0898-3.668 1.707-7.375 3.4336-10.844 5.4336 1.9414 0.085938 3.9492 0.054688 5.9648 0.027344 10.004-0.14844 20.336-0.29688 28.59 10.406 1.2617 1.625 0.95312 3.9648-0.67188 5.2188-1.625 1.2617-3.9648 0.95312-5.2188-0.67188-5.9844-7.7656-14.43-7.6445-22.605-7.5234-5.0117 0.074219-9.9414 0.14062-14.531-1.1758-2.1016 2.1758-4.5742 4.3398-7.4648 6.4766-5.375 6.1328-9.6406 12.543-12.523 19.348-3.8555 9.0898-5.2344 18.957-3.4453 29.84 3.7617-1.8398 8.0156-2.8555 12.34-2.7344 1.2617 0.027343 2.3516 0.67969 3.0039 1.6523l11.32 16.883c0.69141-0.24219 1.4297-0.4375 2.2383-0.52344 1.3633-0.14062 2.8008 0.027344 4.332 0.72656 1.3828 0.63281 2.1914 2.0078 2.1758 3.4336 0.019531 2.7891-1.0625 4.5625-2.2852 5.9922l11.648 17.371c0.67188 1 0.79297 2.2031 0.42969 3.2656h0.007813c-0.88672 2.5938-2.3438 5.0039-4.1914 7.1406 2.7734-1.4844 5.7969-2.3984 8.8945-2.5859h0.007812c1.0742-0.066406 2.1562 0.33594 2.9492 1.1836l36.047 38.648c0.79297 0.85937 1.1758 2.0703 0.91406 3.293-0.34375 1.6328-0.90625 3.2656-1.6445 4.8711 1.2422-0.72656 2.5586-1.3516 3.9219-1.875 1.1758-0.4375 2.4258-0.25391 3.3984 0.40234l16.855 11.359c0.54297-0.48438 1.1484-0.93359 1.8672-1.3164 1.2148-0.64453 2.6133-1.0352 4.2852-0.96875 1.4844 0.054688 2.7266 0.96875 3.2773 2.25h0.007812c1.1289 2.6133 0.79297 4.7148 0.1875 6.5156l17.352 11.684c1.0625 0.71875 1.6328 1.8867 1.6445 3.0703 0.085938 1.6445-0.054687 3.293-0.375 4.9297 1.1094-1.0469 2.3164-1.9688 3.6289-2.7539 0.95313-0.61719 2.1758-0.80078 3.3242-0.375l49.531 18.199c1.1289 0.39062 2.0625 1.3164 2.3906 2.5664 0.74609 2.7891 0.91406 5.8906 0.57031 8.9961 13.227-2.1094 22.055-14.672 30.594-26.832 13.824-19.684 26.992-38.426 55.879-20.535 0.55078-0.74609 1.1367-1.3906 1.7344-1.9219 2.1172-1.8867 4.5742-2.5742 6.8594-1.625 2.2852 0.95312 3.5273 3.1836 3.6875 6.0117 0.09375 1.707-0.21484 3.7344-0.96094 5.7773v0.046875l-0.57813 1.3984-0.039062 0.039063c-0.92578 1.9688-2.1484 3.6289-3.4141 4.7695-2.1172 1.8867-4.5742 2.5742-6.8594 1.625-2.2852-0.95312-3.5273-3.1836-3.6875-6.0117-0.054687-0.96875 0.027344-2.0547 0.24219-3.1836-23.641-15.016-34.914 1.0469-46.77 17.91-9.5469 13.59-19.414 27.637-35.746 29.961 0.29688 0.67188 0.61719 1.3164 0.94141 1.9141 1.5117 2.7266 3.5273 4.9922 6.2266 6.0859 2.0898 0.84766 4.6953 1.0352 7.9336 0.25391l0.019531-0.007813c8.0469-2.5469 12.312-6.1133 15.781-9.0156 2.5117-2.1016 4.668-3.9023 7.5781-5.0859 14.633-5.9375 24.602-1.7188 34.812 2.6055 5.8164 2.4648 11.715 4.9648 18.547 5.125 0.85938-1.25 1.7812-2.3711 2.6992-3.3047 1.3164-1.3359 2.6875-2.3438 3.9648-2.9219 2.0898-0.95312 4.1055-0.93359 5.7969 0.21484 0.24219 0.16797 0.47656 0.35547 0.69922 0.57813 1.707 1.6797 2.0625 4.4141 1.2695 7.4648-0.55859 2.1641-1.7266 4.7031-3.3516 7.0742-0.86719 1.2695-1.793 2.3906-2.7266 3.3398-1.3164 1.3359-2.6875 2.3438-3.9648 2.9219-2.0898 0.95312-4.1055 0.93359-5.7969-0.21484-0.24219-0.16797-0.47656-0.35547-0.69922-0.57812-1.6797-1.6523-2.0547-4.332-1.3086-7.3281-6.7031-0.71875-12.395-3.1367-18.023-5.5156-8.7656-3.7148-17.324-7.3359-29.121-2.5469-1.2695 0.51172-2.4844 1.3633-3.7812 2.3984 3.3789 1.9336 5.7227 5.4141 8.1758 9.0625 3.0508 4.5352 6.3555 9.4453 12.375 9.6328 0.29688-0.85938 0.625-1.6602 0.98047-2.3906 0.8125-1.6875 1.7812-3.0898 2.8086-4.0586 1.6602-1.5781 3.5664-2.2109 5.5352-1.6719h0.019531c0.26953 0.074219 0.55078 0.17578 0.83984 0.31641 2.1641 1.0352 3.3984 3.5078 3.6406 6.6562 0.16797 2.2031-0.11328 4.9648-0.88672 7.7656-0.41016 1.4922-0.92578 2.8555-1.4922 4.0508-0.8125 1.6875-1.7812 3.0898-2.8086 4.0586-1.6602 1.5781-3.5664 2.2109-5.5352 1.6719h-0.019531c-0.26953-0.074218-0.55078-0.17578-0.83984-0.31641-2.1641-1.0352-3.3984-3.5078-3.6406-6.6562-0.046874-0.60547-0.054687-1.2617-0.039062-1.9414-8.7734-0.55078-13.113-7-17.125-12.973-2.4531-3.6406-4.7305-7.0391-7.4961-7.3086-1.5195-0.14844-2.4531 0.42188-3.707 1.1836-0.40234 0.24219-0.82031 0.50391-1.6602 0.96875-1.9961 1.1016-3.8633 1.9883-5.6094 2.6602-1.2422 0.48438-2.4375 0.87891-3.5938 1.1758l-0.054688 0.019531c-0.16016 0.046876-0.30859 0.085938-0.46484 0.11328-4.918 1.2031-9.0547 0.84766-12.535-0.57031-2.5469-1.0352-4.6758-2.6133-6.4688-4.5469 2.0898 16.25 13.59 22.645 24.977 28.953 8.6875 4.8164 17.312 9.6055 22.773 18.219 0.39062-0.14062 0.78516-0.26172 1.168-0.35547h0.019531c2.7422-0.67187 5.2266-0.12891 6.8125 1.7812 1.5781 1.9141 1.6328 4.4609 0.44922 7.0273-0.79297 1.7266-2.25 3.5938-4.1719 5.1797-1.9141 1.5781-4.0117 2.6523-5.8633 3.0977h-0.019531c-2.7422 0.67188-5.2266 0.12891-6.8125-1.7812-1.5781-1.9141-1.6328-4.4609-0.44922-7.0273 0.57812-1.25 1.4922-2.5664 2.6797-3.7969-4.5-7.1406-12.32-11.469-20.199-15.848-13.504-7.4961-27.168-15.074-28.969-35.738-0.64453 0.55078-1.3086 1.0625-2.0078 1.5195-0.98047 0.74609-2.3047 0.98828-3.5469 0.53125l-19.637-7.2148c-1.1094 1.5391-2.6133 3.0352-5.4023 3.6602-1.3438 0.29687-2.8086-0.16797-3.7148-1.3242-1.0469-1.3242-1.5586-2.6992-1.7461-4.0508-0.11328-0.80078-0.10156-1.5586-0.027344-2.2773l-18.91-6.9453c-1.1758-0.36328-2.1484-1.3086-2.4922-2.5859-1.0625-3.9219-1.1562-8.0273-0.41016-11.898-2.668 2.8203-5.8516 5.0586-9.1641 6.3281-1.1953 0.45703-2.4844 0.25391-3.4609-0.42969l-43.781-29.492c-1.0352-0.69922-1.6055-1.8203-1.6445-2.9766-0.31641-3.6484 0.38281-7.3359 1.875-10.762-2.875 1.7656-6.0391 2.957-9.2773 3.3125-1.168 0.16797-2.3984-0.21484-3.2656-1.1484l-14.254-15.289c-1.6875 0.87891-3.6953 1.5391-6.4688 0.83984v-0.007813c-1.3516-0.33594-2.4531-1.4297-2.7422-2.875-0.33594-1.6445-0.16797-3.0781 0.28125-4.3789 0.26953-0.77344 0.61719-1.457 1.0078-2.0625l-13.871-14.867c-0.79297-0.84766-1.168-2.0547-0.92578-3.2773 0.90625-4.4336 2.9961-8.5117 5.832-11.844-4.1797 2.3711-8.9023 3.7148-13.273 3.6133-1.2617-0.027344-2.3633-0.67188-3.0156-1.6523l-29.43-43.895c-0.64453-0.95312-0.77344-2.1016-0.47656-3.1172 0.88672-2.9766 2.4648-5.7109 4.5352-8.082-11.461-4.7422-22.047-6.0742-31.816-4.4062-5.2656 0.90625-10.312 2.6875-15.168 5.2812-19.945 14.086-21.449 20.422-17.629 25.844 1.4102 1.9961 3.4727 4.0703 5.6914 6.2891 4.8086 4.8164 10.23 10.258 13 18.312 0.67188 1.9492-0.375 4.0703-2.3164 4.7422-1.9492 0.67188-4.0703-0.375-4.7422-2.3164-2.2227-6.457-6.9922-11.246-11.219-15.484-2.4531-2.4648-4.75-4.7617-6.5039-7.2539-0.17578-0.25391-0.34375-0.49609-0.51172-0.74609-1.4453 7.7852 0.87891 15.645 3.2031 23.5 1.9609 6.6172 3.9102 13.242 4.0117 20.207 0.027344 2.0547-1.625 3.7422-3.6758 3.7617-2.0547 0.027344-3.7422-1.625-3.7617-3.6758-0.085937-5.8906-1.9023-12.039-3.7148-18.191-3.0703-10.406-6.1406-20.805-2.2695-31.613-1.3711 0.51172-2.7812 1-4.1914 1.4844-7.5508 2.6211-15.324 5.3203-17.586 13.242-0.55859 1.9805-2.6211 3.125-4.6094 2.5664-1.9805-0.55859-3.125-2.6211-2.5664-4.6094 3.3047-11.621 12.965-14.969 22.336-18.227 8.3359-2.8945 16.371-5.6836 16.203-15.969-0.67969-9.8555-4.6953-19.012-10.695-26.48-5.832-7.2539-13.516-12.898-21.82-16.043-0.054687-0.019531-0.11328-0.039062-0.16797-0.066406-2.0703-0.77344-4.1914-1.3984-6.3281-1.8477-1.6992 1.5859-3.5547 2.9961-5.5156 4.2734-2.7812 3.4922-4.8711 7.2344-6.6836 11.07-0.95312 4.2109 1.168 5.832 3.4531 7.5703 4.6562 3.5469 9.6992 7.3906 7.5703 18.414-0.38281 2.0234-2.3438 3.3516-4.3594 2.957-2.0234-0.38281-3.3516-2.3438-2.957-4.3594 1.25-6.4961-1.875-8.8867-4.7695-11.09-1.2148-0.92578-2.3984-1.8281-3.4531-2.8203-4.6094 11.258-9.6797 22.223-23.438 30.184-1.7812 1.0273-4.0586 0.42188-5.0859-1.3516-1.0273-1.7812-0.42188-4.0586 1.3516-5.0859 12.395-7.1758 16.734-17.855 21.113-28.652 0.98828-2.4375 1.9805-4.8828 3.0625-7.2969 0.28125-0.98047 0.65234-2.0352 1.1211-3.1719-3.7812 1.4297-7.6641 2.668-11.469 3.8906-13.871 4.4336-26.602 8.5117-26.367 20.367 0.027343 2.0547-1.6055 3.7422-3.6602 3.7812-2.0547 0.027344-3.7422-1.6055-3.7812-3.6602-0.33594-17.371 14.926-22.25 31.566-27.57 4.5938-1.4648 9.3047-2.9766 13.73-4.8086-12.637 3.4453-24.93 6.0742-33.227-9.1172-0.98047-1.8008-0.31641-4.0586 1.4844-5.0508 1.8008-0.98047 4.0586-0.31641 5.0508 1.4844 5.8516 10.707 16.07 7.8867 26.449 5.0312 5.0391-1.3906 10.109-2.7812 15.035-3.043 3.0508-2.4258 6.6367-4.6758 10.891-6.7031 6.0391-5.4414 10.844-11.977 13.73-19.402 3.4727-8.9609 4.1523-19.32 0.8125-30.754-21.402 4.957-29.27-4.6758-37.305-14.512-5.4805-6.7109-11.051-13.543-22.52-13.793-2.0547-0.039063-3.6875-1.7344-3.6484-3.7891 0.039063-2.0547 1.7344-3.6875 3.7891-3.6484 14.926 0.32812 21.598 8.5039 28.148 16.539 4.9375 6.0469 9.7891 11.992 19.293 12.824-9.332-7.4766-14.168-16.566-19.145-25.918-7.2891-13.719-14.926-28.086-39.488-37.734-1.9141-0.74609-2.8672-2.9102-2.1172-4.8242 0.74609-1.9141 2.9102-2.8672 4.8242-2.1172 22.336 8.7734 31.91 20.887 39.012 33.207 0.09375-4.6094 0.64453-9.1172 1.1758-13.535 1.2031-9.8359 2.3438-19.172-2.7422-27.477-1.0742-1.7539-0.51172-4.0508 1.2422-5.1133 1.7539-1.0742 4.0508-0.51172 5.1133 1.2422 6.4492 10.527 5.1602 21.102 3.7969 32.258-1.4766 12.098-3.0508 24.957 6.8711 38.191 3.1914 3.7227 7.0469 7.1289 12.066 10.07-1.168-3.5859-3.4727-7.6719-5.7383-11.695-2.8945-5.1445-5.7305-10.184-6.6719-14.906-1.5117-7.5977 1.2148-13.543 13.562-15.996 2.0234-0.39062 3.9766 0.92578 4.3789 2.9492 0.39062 2.0234-0.92578 3.9766-2.9492 4.3789-6.7188 1.3359-8.3164 3.9844-7.6719 7.2539 0.69922 3.5391 3.2578 8.0742 5.8516 12.684 2.9688 5.2734 5.9922 10.641 7.0664 15.82 10.145 1.5508 19.891 2.8008 29.754 1.9688 8.9805-0.76562 18.164-3.293 28.02-8.9961-0.14062-0.20703-0.28125-0.42188-0.42188-0.625-3.5742-2.8086-7.7734-4.9766-11.945-7.1289-8.6445-4.4531-17.211-8.8672-21.758-18.332-0.88672-1.8477-0.10156-4.0703 1.7539-4.957 1.8477-0.88672 4.0703-0.10156 4.957 1.7539 3.4531 7.1875 10.93 11.031 18.461 14.914 0.77344 0.40234 1.5508 0.79297 2.3164 1.1953-4.3008-13.094-1.1289-24.352 2.7891-35.375 0.027344-0.085938 0.054688-0.16797 0.085938-0.24219 0.007812-0.027343 0.019531-0.046875 0.027344-0.074219l0.21484-0.60547c3.3047-9.8672-7.2891-15-17.453-19.918-5.8984-2.8555-11.684-5.6562-15.605-9.4531-1.4766-1.4375-1.5039-3.7891-0.074219-5.2656 1.4375-1.4766 3.7891-1.5039 5.2656-0.074219 3.0508 2.957 8.2969 5.4961 13.645 8.0938 7.2969 3.5391 14.773 7.1484 19.02 12.402 2.3633-8.7656 2.9414-17.828-2.2773-27.973-0.94141-1.8281-0.22266-4.0781 1.6055-5.0195 1.8281-0.94141 4.0781-0.22266 5.0195 1.6055 8.9961 17.48 3.9492 31.379-1.1289 45.34-0.25391 0.67969-0.49609 1.3633-0.73828 2.043-0.16797 0.52344-0.36328 1.0625-0.57812 1.6055v0.007813c-4.332 12.234-7.5234 24.789 1.9023 40.172 0.46484 0.375 0.92578 0.76562 1.3633 1.1562 2.1289-2.8477 3.3867-6 4.6367-9.1094 2.2773-5.6758 4.5156-11.246 10.527-15.613 1.6719-1.2031 3.9961-0.83984 5.207 0.83203 1.2031 1.6719 0.83984 3.9961-0.83203 5.207-4.2852 3.1094-6.1211 7.6797-7.9883 12.348-1.6133 4.0234-3.2461 8.0938-6.1328 11.75zm183.11 280.03c0.19531 0.054688 0.38281 0.12109 0.57031 0.20703l20.207 7.4219c2.1836-1.875 3.8828-4.582 4.9766-7.5586 1.168-3.1719 1.6133-6.5703 1.2227-9.5742l-45.875-16.855c-2.3164 1.7812-4.0977 4.3867-5.1875 7.3555-1.1289 3.0625-1.5039 6.4883-0.95312 9.8086l25.031 9.1914zm-50.055-45.883c-0.12891-0.074219-0.26172-0.16016-0.38281-0.25391l-22.195-14.941c-3.0039 1.5039-5.5547 3.8086-7.3828 6.5234-1.7656 2.6211-2.8281 5.5898-2.9219 8.5117l40.535 27.301c2.668-1.4375 5.1602-3.7969 7.0469-6.5977 1.7734-2.6328 2.9688-5.5898 3.2031-8.4648l-17.91-12.066zm-61.891-29.309c0.12109 0.12109 0.24219 0.24219 0.35547 0.38281l14.711 15.773c2.8008-0.69141 5.543-2.332 7.8672-4.5 2.4727-2.3047 4.4062-5.1328 5.4141-8l-33.328-35.738c-2.875 0.55078-5.6484 2.0625-7.9609 4.2266-2.3906 2.2305-4.2656 5.1055-5.2734 8.3164l18.227 19.543zm-28.195-62.926c-0.14062-0.17578-0.26953-0.36328-0.375-0.55859l-14.84-22.129c-3.3594 0.25391-6.5977 1.4297-9.3047 3.2461-2.6328 1.7656-4.7305 4.1172-5.9258 6.7852l27.215 40.59c3.0156-0.32812 6.2148-1.5664 9.0234-3.4531 2.6328-1.7656 4.8633-4.0586 6.168-6.6445l-11.965-17.844zm-132.52-68.73c0.48438 0.25391 0.96875 0.52344 1.4453 0.82031 9.4453 3.6406 18.133 10.043 24.715 18.227 6.6562 8.2695 11.18 18.367 12.227 29.289 8.4766-6.6445 17.602-10.965 27.449-12.648 10.414-1.7812 21.531-0.60547 33.422 3.8906-1.3516-11.211 0.29688-21.477 4.3477-31.023 3.2305-7.625 7.9805-14.746 13.914-21.496 0.11328-0.14063 0.22266-0.28125 0.35547-0.40234 1.5391-1.7266 3.1562-3.4336 4.8438-5.125-0.52344-0.44922-1.0469-0.92578-1.5586-1.4453-10.965-6.2539-19.051-13.188-25.098-21.086-3.7148-4.8438-6.6445-10.035-8.9883-15.625-0.066406-0.12891-0.11328-0.25391-0.16016-0.39062-1.3516-3.2852-2.5117-6.7031-3.5078-10.277-0.09375-0.027344-0.1875-0.066406-0.26953-0.10156-2.8828 1.8555-6.5039 3.4531-11.145 4.6836-7.457 3.1094-14.625 4.6836-21.699 5.293-9.707 0.82031-19.133-0.22266-28.84-1.6523 3.1445 12.273 2.2031 23.5-1.6133 33.355-3.3711 8.6875-8.9688 16.258-15.969 22.504-0.11328 0.11328-0.22266 0.20703-0.34375 0.30859-1.1367 1-2.3164 1.9688-3.5273 2.9023zm60.883-21.16c1.793 0 3.4062 0.72656 4.582 1.8945 1.1758 1.1758 1.8945 2.7891 1.8945 4.582s-0.72656 3.4062-1.8945 4.582c-1.1758 1.1758-2.7891 1.8945-4.582 1.8945-1.793 0-3.4062-0.72656-4.582-1.8945-1.1758-1.1758-1.8945-2.7891-1.8945-4.582s0.72656-3.4062 1.8945-4.582c1.1758-1.1758 2.7891-1.8945 4.582-1.8945zm0.66406 7.1406-0.66406-0.66406v0.92578c0.12891-0.085937 0.51172-0.24219 0.66406-0.26953zm5.0781-11.441-0.019531-0.007812c-5.832-3.4922-11.883-5.2266-16.957-5.2266-4.4141 0-7.9336 1.3242-9.5195 3.9648-1.5859 2.6406-1.082 6.375 1 10.266 2.3984 4.4688 6.793 8.9883 12.629 12.48 5.832 3.4922 11.898 5.2344 16.977 5.2344 4.4141 0 7.9336-1.3242 9.5195-3.9648 1.5859-2.6406 1.082-6.375-1-10.266-2.3984-4.4688-6.793-8.9883-12.629-12.48zm4.2656-6.1133c6.793 4.1641 11.984 9.6133 14.926 15.102 3.3125 6.1875 3.8438 12.543 0.82031 17.594-3.0234 5.0508-8.875 7.5781-15.902 7.5898-6.3555 0-13.793-2.0898-20.793-6.2891-7.0078-4.1914-12.367-9.7617-15.371-15.371-3.3125-6.1875-3.8438-12.543-0.82031-17.594 3.0234-5.0508 8.8867-7.5781 15.902-7.5898 6.3555 0 13.793 2.0898 20.793 6.2891l0.4375 0.26172z"/>
  <use x="70" y="560.140625" xlink:href="#w"/>
  <use x="70.035156" y="560.140625" xlink:href="#e"/>
  <use x="70.058594" y="560.140625" xlink:href="#b"/>
  <use x="70.089844" y="560.140625" xlink:href="#a"/>
  <use x="70.121094" y="560.140625" xlink:href="#d"/>
  <use x="70.144531" y="560.140625" xlink:href="#b"/>
  <use x="70.175781" y="560.140625" xlink:href="#l"/>
  <use x="70.222656" y="560.140625" xlink:href="#k"/>
  <use x="70.257812" y="560.140625" xlink:href="#j"/>
  <use x="70.304688" y="560.140625" xlink:href="#i"/>
  <use x="70.34375" y="560.140625" xlink:href="#v"/>
  <use x="70.359375" y="560.140625" xlink:href="#b"/>
  <use x="70.390625" y="560.140625" xlink:href="#f"/>
  <use x="70.425781" y="560.140625" xlink:href="#a"/>
  <use x="70.472656" y="560.140625" xlink:href="#h"/>
  <use x="70.507812" y="560.140625" xlink:href="#a"/>
  <use x="70.539062" y="560.140625" xlink:href="#f"/>
  <use x="70.570312" y="560.140625" xlink:href="#a"/>
  <use x="70.601562" y="560.140625" xlink:href="#g"/>
  <use x="70.628906" y="560.140625" xlink:href="#c"/>
  <use x="70.664062" y="560.140625" xlink:href="#u"/>
  <use x="70.691406" y="560.140625" xlink:href="#g"/>
  <use x="70.722656" y="560.140625" xlink:href="#t"/>
  <use x="70.75" y="560.140625" xlink:href="#a"/>
  <use x="70" y="560.1875" xlink:href="#s"/>
  <use x="70.019531" y="560.1875" xlink:href="#e"/>
  <use x="70.042969" y="560.1875" xlink:href="#c"/>
  <use x="70.074219" y="560.1875" xlink:href="#r"/>
  <use x="70.140625" y="560.1875" xlink:href="#d"/>
  <use x="70.164062" y="560.1875" xlink:href="#q"/>
  <use x="70.195312" y="560.1875" xlink:href="#b"/>
  <use x="70.242188" y="560.1875" xlink:href="#p"/>
  <use x="70.28125" y="560.1875" xlink:href="#c"/>
  <use x="70.316406" y="560.1875" xlink:href="#o"/>
  <use x="70.347656" y="560.1875" xlink:href="#f"/>
  <use x="70.398438" y="560.1875" xlink:href="#h"/>
  <use x="70.433594" y="560.1875" xlink:href="#e"/>
  <use x="70.453125" y="560.1875" xlink:href="#c"/>
  <use x="70.488281" y="560.1875" xlink:href="#n"/>
  <use x="70.503906" y="560.1875" xlink:href="#b"/>
  <use x="70.535156" y="560.1875" xlink:href="#m"/>
  <use x="70.5625" y="560.1875" xlink:href="#d"/>
 </g>
</svg>
