<?xml version="1.0" encoding="UTF-8" standalone="no"?>
<!-- Created with Inkscape (http://www.inkscape.org/) -->

<svg
   width="512"
   height="513"
   viewBox="0 0 135.46665 135.73123"
   version="1.1"
   id="svg5"
   inkscape:version="1.2.1 (9c6d41e410, 2022-07-14, custom)"
   sodipodi:docname="signal.svg"
   xmlns:inkscape="http://www.inkscape.org/namespaces/inkscape"
   xmlns:sodipodi="http://sodipodi.sourceforge.net/DTD/sodipodi-0.dtd"
   xmlns="http://www.w3.org/2000/svg"
   xmlns:svg="http://www.w3.org/2000/svg">
  <sodipodi:namedview
     id="namedview7"
     pagecolor="#24283b"
     bordercolor="#1a1b26"
     borderopacity="0.24705882"
     inkscape:showpageshadow="true"
     inkscape:pageopacity="0"
     inkscape:pagecheckerboard="false"
     inkscape:deskcolor="#1f2335"
     inkscape:document-units="px"
     showgrid="false"
     shape-rendering="auto"
     borderlayer="true"
     inkscape:zoom="0.9192388"
     inkscape:cx="371.50303"
     inkscape:cy="237.69667"
     inkscape:window-width="1667"
     inkscape:window-height="885"
     inkscape:window-x="0"
     inkscape:window-y="0"
     inkscape:window-maximized="1"
     inkscape:current-layer="layer1" />
  <defs
     id="defs2" />
  <g
     inkscape:label="Layer 1"
     inkscape:groupmode="layer"
     id="layer1">
    <path
       d="m 114.68779,50.814864 c -6.34347,5.370837 -11.24901,6.915331 -15.447173,7.152337 2.031333,-2.988905 4.957043,-5.255831 8.356163,-6.474308 2.43626,-0.692214 4.53406,-2.254122 5.89765,-4.391629 1.37018,-0.005 2.65802,-0.658018 3.47222,-1.762016 0.8141,-1.104038 1.05962,-2.528977 0.66131,-3.841913 -0.39836,-1.313046 -1.39304,-2.360435 -2.68296,-2.824459 -1.28994,-0.464072 -2.72269,-0.290713 -3.86408,0.469053 -1.14203,0.758995 -1.85825,2.014054 -1.9321,3.384242 -0.0734,1.370286 0.50423,2.695412 1.55786,3.572495 -1.03233,1.277286 -2.43508,2.201879 -4.01537,2.646665 -6.4398,2.126442 -9.882125,7.463498 -10.842508,9.167703 -0.978975,-0.07604 -1.926786,-0.190068 -2.852758,-0.302471 -1.314874,-0.15924 -2.596103,-0.308339 -3.86062,-0.333536 3.391764,-3.748835 6.481983,-7.760516 9.242912,-11.997754 1.766364,-0.139607 7.701894,-1.300562 12.555224,-10.273879 0.0539,0.0108 0.10542,0.02622 0.15954,0.0351 1.35048,0.228595 2.73014,-0.193106 3.72269,-1.139171 0.99249,-0.945475 1.48144,-2.304445 1.32057,-3.666502 -0.16149,-1.362132 -0.95405,-2.568441 -2.13969,-3.255968 -1.18504,-0.686896 -2.62484,-0.774541 -3.88459,-0.236046 -1.25978,0.538492 -2.19302,1.63978 -2.51758,2.97291 -0.32443,1.332545 -0.003,2.740734 0.86793,3.799697 -2.76943,5.19333 -5.81629,7.355854 -7.91513,8.25202 l -6.6e-4,-1.15e-4 c 1.53619,-2.63906 2.92165,-5.363114 4.14982,-8.159349 0.32131,-0.731463 -0.0108,-1.5852 -0.74143,-1.906128 -0.73046,-0.321517 -1.58294,0.011 -1.90409,0.742529 -1.81321,4.11161 -3.972284,8.061114 -6.454398,11.806543 -1.02259,-3.007288 -0.565499,-6.322054 1.233066,-8.939036 0.593869,-0.823756 1.092696,-1.713083 1.486427,-2.650496 1.34656,-0.241331 2.500845,-1.105644 3.112115,-2.331015 0.61205,-1.225919 0.61033,-2.668834 -0.005,-3.892379 -0.61511,-1.223989 -1.771352,-2.084703 -3.119199,-2.322232 -1.347694,-0.237426 -2.728022,0.176439 -3.723515,1.116901 -0.995445,0.939769 -1.48909,2.295312 -1.332051,3.656731 0.157154,1.360736 0.947045,2.567284 2.130743,3.254482 -0.262453,0.519391 -0.56456,1.017791 -0.903582,1.490446 -3.975003,5.597556 -1.768609,11.566655 -0.860517,13.508307 -1.949345,2.702723 -4.038461,5.301658 -6.258114,7.785931 -0.0027,-0.895908 -0.153606,-1.784969 -0.445567,-2.631378 -0.770979,-2.106748 -1.37364,-4.2712 -1.802689,-6.473034 0.80414,-0.163128 1.543976,-0.553522 2.132806,-1.125463 2.539501,-2.437241 2.404577,-7.783152 2.381346,-8.385235 -0.0306,-0.798419 -0.702222,-1.420393 -1.49961,-1.389061 -0.796644,0.03075 -1.417788,0.703432 -1.387082,1.5012 0.06573,1.774911 -0.281687,5.023587 -1.495062,6.185797 l -1.07e-4,6.48e-4 c -0.17717,0.174179 -0.397052,0.298074 -0.637859,0.358907 -0.113708,-0.77423 -0.213084,-1.551994 -0.281635,-2.330531 l -1.04e-4,6.47e-4 c -0.3139,-3.415205 -0.153173,-6.858407 0.477975,-10.229595 1.349717,-0.248665 2.502478,-1.123701 3.106144,-2.358812 0.604316,-1.234393 0.588399,-2.682357 -0.04292,-3.903121 -0.631225,-1.22142 -1.803151,-2.070376 -3.15869,-2.288737 -1.355321,-0.219014 -2.733696,0.218691 -3.716329,1.179601 -0.981863,0.96033 -1.451712,2.330356 -1.265436,3.69258 0.185776,1.361564 1.00536,2.55467 2.209089,3.215871 -0.379808,2.065627 -0.54879,4.163475 -0.637132,6.258595 -0.04718,1.119084 -0.06095,2.245955 0.05767,3.359731 0.201218,1.88936 0.797984,3.792325 1.104708,5.592058 0.723072,4.635211 3.109233,7.858614 1.806284,12.365312 -0.542411,1.876105 -3.114105,3.892025 -4.183004,4.939457 -0.388406,0.38 -0.75054,0.735572 -1.090422,1.071283 l 1.04e-4,-6.49e-4 c -0.806164,-0.41325 -1.723038,-0.556788 -2.616712,-0.40926 -0.89365,0.146913 -1.71664,0.577909 -2.348362,1.227807 -0.978126,1.004803 -1.974175,1.968002 -2.977229,2.914416 -2.08344,-0.440597 -4.254721,0.0691 -5.926459,1.390182 l -3.683414,2.947024 c -1.448557,1.146039 -2.366731,2.835058 -2.541164,4.675526 -0.02513,0.290375 -0.0329,0.58169 -0.02094,0.873002 -1.132976,0.791272 -2.265023,1.55327 -3.396761,2.285794 -0.114979,-0.03986 -0.227024,-0.0855 -0.344959,-0.119419 -1.760603,-0.510745 -3.653425,-0.267088 -5.227826,0.672194 l -4.057743,2.38106 -6.49e-4,-1.05e-4 c -1.625445,0.970731 -2.806286,2.540781 -3.289403,4.373944 -1.677822,0.825202 -3.318656,1.592445 -4.901186,2.292725 l 6.39e-4,1.12e-4 C 36.064647,88.346584 34.26408,88.309755 32.644122,88.935829 l -4.205347,1.614884 c -1.615167,0.624213 -2.929082,1.844951 -3.672523,3.41103 -4.712619,1.516357 -7.656022,2.144714 -7.750792,2.164336 -0.782931,0.153608 -1.293045,0.913341 -1.139811,1.697436 0.153573,0.784189 0.912551,1.294907 1.694921,1.141226 0.08795,-0.01776 2.527942,-0.539623 6.514543,-1.767836 0.02375,0.72466 0.163489,1.440992 0.412138,2.122492 0.09422,0.251973 0.203228,0.497798 0.326351,0.737483 -4.087622,1.23512 -6.589815,1.74549 -6.681084,1.76317 -0.377288,0.0726 -0.710439,0.29194 -0.925885,0.61027 -0.215541,0.31903 -0.295322,0.71032 -0.22199,1.08835 0.07426,0.3776 0.29482,0.71071 0.614309,0.92474 0.319537,0.21398 0.710557,0.29194 1.08775,0.21644 0.102699,-0.0202 3.1934,-0.65128 8.153758,-2.21009 0.844038,0.61466 1.818791,1.02447 2.847786,1.19702 1.166294,0.19224 2.362678,0.0688 3.464709,-0.35791 l 4.205349,-1.61489 c 2.101046,-0.81525 3.663349,-2.616644 4.175857,-4.81341 1.373563,-0.613876 2.78205,-1.273099 4.225351,-1.976249 1.016738,0.590249 2.173263,0.8967 3.349165,0.888993 1.175872,-0.0079 2.328157,-0.331155 3.336768,-0.935564 l 4.057094,-2.381164 6.48e-4,1.07e-4 5.63e-4,5.79e-4 c 2.010036,-1.209371 3.320369,-3.30914 3.524052,-5.648805 1.493024,-0.97239 2.988387,-1.994114 4.48644,-3.06451 0.09671,0.01989 0.193273,0.04458 0.290612,0.06074 l 6.44e-4,1.1e-4 c 2.002272,0.342624 4.055981,-0.182591 5.648613,-1.445603 l 3.683291,-2.946411 1.15e-4,-6.46e-4 c 1.449082,-1.145297 2.367271,-2.834297 2.541055,-4.674879 0.03116,-0.35025 0.03458,-0.702514 0.01164,-1.053883 1.153476,-1.096817 2.299112,-2.217227 3.422833,-3.387599 0.583055,-0.604307 0.974093,-1.367457 1.12271,-2.194392 0.149296,-0.826819 0.04902,-1.678624 -0.286288,-2.448448 0.352591,-0.349298 0.732745,-0.722821 1.140518,-1.121212 1.151425,-1.127924 2.516862,-2.470316 4.005379,-4.007811 1.956387,-0.585272 4.093961,-0.337304 6.542856,-0.04033 l 7.48e-4,-5.41e-4 c 3.009589,0.488221 6.075105,0.531388 9.097042,0.126878 0.17173,0.02909 0.34725,0.02687 0.51822,-0.0069 1.93669,-0.398709 3.38482,-0.171524 4.30971,0.67706 0.12862,0.119543 0.24643,0.249018 0.35348,0.387923 -1.19403,0.646946 -2.01652,1.817027 -2.22071,3.160913 -0.20454,1.343939 0.23193,2.705856 1.17948,3.679303 0.9475,0.97343 2.29534,1.445813 3.6425,1.275914 1.34661,-0.170623 2.53597,-0.963007 3.21222,-2.142325 0.67613,-1.178621 0.76148,-2.606546 0.22986,-3.857168 -0.53083,-1.251242 -1.61771,-2.179703 -2.93455,-2.509449 -0.35413,-0.798422 -0.86376,-1.51855 -1.49936,-2.117497 -0.18563,-0.169601 -0.38181,-0.327138 -0.58724,-0.471877 3.11051,-1.48754 6.00489,-3.392003 8.60271,-5.661045 0.60952,-0.515511 0.68621,-1.428298 0.17144,-2.0387 -0.51544,-0.609828 -1.42635,-0.686341 -2.03587,-0.170891 z m -0.97702,-9.475288 c 0.57638,0.09564 1.03856,0.529707 1.17105,1.099552 0.1317,0.569781 -0.0912,1.163085 -0.56657,1.503809 -0.47529,0.340079 -1.1081,0.360766 -1.60402,0.05125 -0.49597,-0.308762 -0.75715,-0.886892 -0.66165,-1.464076 0.13186,-0.787818 0.87481,-1.320443 1.66117,-1.190626 z m -1.67295,-12.007454 c 0.57638,0.09563 1.03855,0.529705 1.17104,1.09956 0.1317,0.569779 -0.0912,1.163079 -0.56659,1.503798 -0.47535,0.340725 -1.10811,0.360758 -1.604,0.05125 -0.49595,-0.308772 -0.75718,-0.886906 -0.66164,-1.464074 0.13189,-0.787169 0.87467,-1.319808 1.66115,-1.190633 z M 96.126703,28.158519 c 0.09544,-0.577209 0.529,-1.04006 1.098039,-1.172774 0.568985,-0.131948 1.161434,0.09124 1.50164,0.567256 0.340188,0.476022 0.360171,1.109679 0.0513,1.606417 -0.30895,0.496646 -0.886327,0.758218 -1.462692,0.662584 -0.78607,-0.131722 -1.317847,-0.875839 -1.188792,-1.66347 z M 83.778062,27.575966 c -0.576366,-0.09563 -1.038528,-0.529707 -1.170383,-1.099441 -0.132498,-0.569849 0.09121,-1.16309 0.565935,-1.503916 0.475367,-0.340698 1.108116,-0.360764 1.604109,-0.05201 0.495906,0.309356 0.757065,0.887525 0.661539,1.464705 -0.130973,0.787319 -0.874049,1.31992 -1.661183,1.190628 z m -47.443638,71.397445 -4.204705,1.615019 c -0.940954,0.36561 -1.989464,0.33435 -2.907644,-0.0852 -0.938044,-0.426 -1.66407,-1.21338 -2.014068,-2.182527 -0.359194,-0.973363 -0.322915,-2.04934 0.100454,-2.996246 0.423522,-0.947608 1.2001,-1.690557 2.164525,-2.071308 l 4.204708,-1.615029 6.6e-4,9.1e-5 c 0.940826,-0.364932 1.989455,-0.334283 2.907641,0.08514 0.937289,0.426511 1.663347,1.213371 2.013292,2.182536 0.359181,0.973354 0.323597,2.049434 -0.09983,2.996377 -0.423521,0.94755 -1.200854,1.691083 -2.165184,2.071215 z m 5.207221,-5.279163 6.56e-4,7e-5 c -0.224122,-0.979736 -0.667989,-1.895758 -1.297914,-2.678441 0.710617,-0.32459 1.430433,-0.661381 2.158583,-1.009254 0.166145,0.990441 0.544197,1.932903 1.108041,2.763594 -0.663752,0.31795 -1.320001,0.626023 -1.968812,0.924206 z m 13.510616,-3.732642 -4.056445,2.381297 c -0.892347,0.533987 -1.964692,0.674874 -2.96401,0.389938 -1.031141,-0.30582 -1.889114,-1.026262 -2.370438,-1.988415 -0.515044,-1.007089 -0.632165,-2.171362 -0.326458,-3.260268 0.305102,-1.089649 1.010069,-2.023237 1.973274,-2.614304 l 4.057099,-2.381175 6.45e-4,1.1e-4 c 0.890862,-0.536872 1.964573,-0.678159 2.963903,-0.389306 1.030453,0.305903 1.88858,1.025514 2.37051,1.987827 0.515045,1.007083 0.631431,2.171904 0.325711,3.260819 -0.305099,1.089655 -1.010591,2.022471 -1.973807,2.613539 z m 4.578648,-6.35033 c -0.102679,-0.291941 -0.224844,-0.576672 -0.364798,-0.852559 -0.305413,-0.59135 -0.693054,-1.136113 -1.151776,-1.6187 0.513422,-0.337675 1.027369,-0.682442 1.541638,-1.033072 0.451428,0.86628 1.081176,1.626629 1.847848,2.230966 -0.62465,0.433093 -1.249202,0.85773 -1.872912,1.273308 z m 12.713206,-6.457734 -3.683296,2.946404 7.7e-5,-4.63e-4 c -0.876414,0.686543 -1.982843,1.008971 -3.090132,0.899214 -1.106746,-0.109703 -2.129106,-0.641923 -2.854017,-1.486798 -0.703796,-0.814538 -1.045586,-1.881179 -0.94508,-2.954377 0.102417,-1.060437 0.63317,-2.032804 1.469665,-2.691314 l 3.683294,-2.946411 c 0.876313,-0.685899 1.982631,-1.007694 3.089272,-0.898048 1.106858,0.109017 2.129096,0.641928 2.854124,1.486154 0.704518,0.814023 1.045581,1.881182 0.945192,2.953725 -0.102417,1.060442 -0.633172,2.032811 -1.469143,2.692078 z m 5.697541,-8.861396 c -0.756425,0.786968 -1.522631,1.550091 -2.293012,2.302682 -0.469082,-0.803083 -1.098132,-1.500494 -1.847947,-2.04848 0.736568,-0.710415 1.469416,-1.429943 2.191605,-2.172219 0.266797,-0.273198 0.635266,-0.422181 1.016279,-0.410011 0.381128,0.01149 0.739699,0.18296 0.989291,0.471779 0.464939,0.539889 0.44071,1.34561 -0.05628,1.856224 z m 31.178384,-4.236519 -4.8e-4,-7.5e-5 c 0.5764,0.09565 1.03866,0.529054 1.1711,1.098902 0.13177,0.569786 -0.0912,1.163764 -0.56656,1.503809 -0.47542,0.340648 -1.10822,0.361376 -1.60411,0.05201 -0.49593,-0.309359 -0.75716,-0.886894 -0.66163,-1.46407 0.13195,-0.787815 0.87475,-1.320452 1.66118,-1.190626 z"
       id="path844"
       style="fill:#7aa2f7;stroke-width:0.165198"
       sodipodi:nodetypes="ccccccccccccccccccccscccccccccccccccccccccccccccccccccccccaaccccccccccccccccccccccccccccccccsccccccccccccccsscccccccccccccccccsccccccccccsccccsssccccssscscccsscccssscccccccccccccccccccccccccccccccccccccccccccccccccccccccccccccccccccsc" />
  </g>
</svg>
