<?xml version="1.0" encoding="UTF-8" standalone="no"?>
<!-- Created with Inkscape (http://www.inkscape.org/) -->

<svg
   width="512"
   height="513"
   viewBox="0 0 135.46665 135.73123"
   version="1.1"
   id="svg5"
   inkscape:version="1.2.1 (9c6d41e410, 2022-07-14, custom)"
   sodipodi:docname="active-hover.svg"
   xmlns:inkscape="http://www.inkscape.org/namespaces/inkscape"
   xmlns:sodipodi="http://sodipodi.sourceforge.net/DTD/sodipodi-0.dtd"
   xmlns:xlink="http://www.w3.org/1999/xlink"
   xmlns="http://www.w3.org/2000/svg"
   xmlns:svg="http://www.w3.org/2000/svg">
  <sodipodi:namedview
     id="namedview7"
     pagecolor="#24283b"
     bordercolor="#1a1b26"
     borderopacity="0.24705882"
     inkscape:showpageshadow="true"
     inkscape:pageopacity="0"
     inkscape:pagecheckerboard="false"
     inkscape:deskcolor="#1f2335"
     inkscape:document-units="px"
     showgrid="false"
     shape-rendering="auto"
     borderlayer="true"
     inkscape:zoom="2.4461962"
     inkscape:cx="233.42363"
     inkscape:cy="288.20256"
     inkscape:window-width="1667"
     inkscape:window-height="1800"
     inkscape:window-x="0"
     inkscape:window-y="0"
     inkscape:window-maximized="1"
     inkscape:current-layer="g2816" />
  <defs
     id="defs2">
    <inkscape:path-effect
       effect="fillet_chamfer"
       id="path-effect6883"
       is_visible="true"
       lpeversion="1"
       nodesatellites_param="F,1,0,1,0,0.04,0,1 @ F,1,0,1,0,0.04,0,1 @ F,1,0,1,0,0.49130285,0,1 @ F,1,0,1,0,0.04,0,1 @ F,1,0,1,0,0.04,0,1 @ F,1,0,1,0,0.53835871,0,1"
       unit="px"
       method="auto"
       mode="F"
       radius="4"
       chamfer_steps="1"
       flexible="true"
       use_knot_distance="true"
       apply_no_radius="true"
       apply_with_radius="true"
       only_selected="false"
       hide_knots="false" />
    <inkscape:path-effect
       effect="fillet_chamfer"
       id="path-effect6881"
       is_visible="true"
       lpeversion="1"
       nodesatellites_param="F,1,0,1,0,0.04,0,1 @ F,1,0,1,0,0.04,0,1 @ F,1,0,1,0,0.5590245,0,1 @ F,1,0,1,0,0.04,0,1 @ F,1,0,1,0,0.04,0,1 @ F,1,0,1,0,0.56080781,0,1"
       unit="px"
       method="auto"
       mode="F"
       radius="4"
       chamfer_steps="1"
       flexible="true"
       use_knot_distance="true"
       apply_no_radius="true"
       apply_with_radius="true"
       only_selected="false"
       hide_knots="false" />
    <inkscape:path-effect
       effect="fillet_chamfer"
       id="path-effect6879"
       is_visible="true"
       lpeversion="1"
       nodesatellites_param="F,1,0,1,0,0.04,0,1 @ F,1,0,1,0,0.04,0,1 @ F,1,0,1,0,0.51030623,0,1 @ F,1,0,1,0,0.04,0,1 @ F,1,0,1,0,0.04,0,1 @ F,1,0,1,0,0.55205391,0,1"
       unit="px"
       method="auto"
       mode="F"
       radius="4"
       chamfer_steps="1"
       flexible="true"
       use_knot_distance="true"
       apply_no_radius="true"
       apply_with_radius="true"
       only_selected="false"
       hide_knots="false" />
    <inkscape:path-effect
       effect="fillet_chamfer"
       id="path-effect6877"
       is_visible="true"
       lpeversion="1"
       nodesatellites_param="F,0,1,1,0,0,0,1 @ F,0,0,1,0,0,0,1 @ F,0,1,1,0,0,0,1 @ F,0,1,1,0,0,0,1 @ F,0,0,1,0,0,0,1 @ F,0,1,1,0,0,0,1"
       unit="px"
       method="auto"
       mode="F"
       radius="0"
       chamfer_steps="1"
       flexible="false"
       use_knot_distance="true"
       apply_no_radius="true"
       apply_with_radius="true"
       only_selected="true"
       hide_knots="false" />
    <inkscape:path-effect
       effect="fillet_chamfer"
       id="path-effect6870"
       is_visible="true"
       lpeversion="1"
       nodesatellites_param="F,1,0,1,0,0,0,1 @ F,1,0,1,0,0,0,1 @ F,1,0,1,0,0,0,1 @ F,1,0,1,0,0,0,1 @ F,1,0,1,0,0,0,1 @ F,1,0,1,0,0,0,1"
       unit="px"
       method="auto"
       mode="F"
       radius="0"
       chamfer_steps="2"
       flexible="true"
       use_knot_distance="true"
       apply_no_radius="true"
       apply_with_radius="true"
       only_selected="false"
       hide_knots="false" />
    <linearGradient
       inkscape:collect="always"
       id="10-J">
      <stop
         style="stop-color:#5784d5;stop-opacity:1;"
         offset="0"
         id="stop3147" />
      <stop
         style="stop-color:#7aa2f7;stop-opacity:1;"
         offset="0.59122026"
         id="stop3157" />
      <stop
         style="stop-color:#a0e4ff;stop-opacity:1;"
         offset="0.9180153"
         id="stop3155" />
      <stop
         style="stop-color:#bdeaff;stop-opacity:1;"
         offset="1"
         id="stop3149" />
    </linearGradient>
    <radialGradient
       inkscape:collect="always"
       xlink:href="#10-l"
       id="radialGradient4987"
       gradientUnits="userSpaceOnUse"
       gradientTransform="matrix(0.01998079,-0.1804624,0.24519978,0.02714849,-122.75092,122.52999)"
       cx="361.54211"
       cy="570.38422"
       fx="361.54211"
       fy="570.38422"
       r="147.56943" />
    <linearGradient
       inkscape:collect="always"
       id="10-l">
      <stop
         style="stop-color:#e0617a;stop-opacity:1;"
         offset="0"
         id="stop2115" />
      <stop
         style="stop-color:#fadeb8;stop-opacity:1;"
         offset="1"
         id="stop2117" />
    </linearGradient>
    <radialGradient
       inkscape:collect="always"
       xlink:href="#10-l"
       id="radialGradient4097"
       gradientUnits="userSpaceOnUse"
       gradientTransform="matrix(0.02529431,-0.20214938,0.23057614,0.02885127,305.66393,375.94325)"
       cx="379.54126"
       cy="423.31168"
       fx="379.54126"
       fy="423.31168"
       r="147.56943" />
    <radialGradient
       inkscape:collect="always"
       xlink:href="#10-J"
       id="radialGradient4188"
       gradientUnits="userSpaceOnUse"
       gradientTransform="matrix(-0.54458836,-0.45670971,0.91292549,-1.0885876,33.249583,190.43421)"
       cx="65.869606"
       cy="86.338814"
       fx="65.869606"
       fy="86.338814"
       r="44.36002" />
    <radialGradient
       inkscape:collect="always"
       xlink:href="#10-J"
       id="radialGradient4218"
       gradientUnits="userSpaceOnUse"
       gradientTransform="matrix(0.1038894,-0.72057624,1.4403731,0.20766652,-52.311701,108.55512)"
       cx="65.869606"
       cy="86.338814"
       fx="65.869606"
       fy="86.338814"
       r="44.36002" />
    <radialGradient
       inkscape:collect="always"
       xlink:href="#10-l"
       id="radialGradient5527"
       cx="46.312283"
       cy="60.244186"
       fx="46.312283"
       fy="60.244186"
       r="29.96759"
       gradientTransform="matrix(-1.0780924,1.3422389,-1.6173749,-1.2990828,207.05782,79.923307)"
       gradientUnits="userSpaceOnUse" />
    <radialGradient
       inkscape:collect="always"
       xlink:href="#10-l"
       id="radialGradient4987-3"
       gradientUnits="userSpaceOnUse"
       gradientTransform="matrix(-0.10940492,0.11122476,-0.13143548,-0.12928493,86.06856,140.08914)"
       cx="385.91254"
       cy="484.77002"
       fx="385.91254"
       fy="484.77002"
       r="147.56943" />
    <radialGradient
       inkscape:collect="always"
       xlink:href="#10-l"
       id="radialGradient6029"
       gradientUnits="userSpaceOnUse"
       gradientTransform="matrix(0.06073817,-0.15603597,0.22989519,0.0894884,-128.75693,78.141101)"
       cx="369.16339"
       cy="544.83936"
       fx="369.16339"
       fy="544.83936"
       r="147.56943" />
    <radialGradient
       inkscape:collect="always"
       xlink:href="#10-l"
       id="radialGradient6688"
       gradientUnits="userSpaceOnUse"
       gradientTransform="matrix(-1.0780924,1.3422389,-1.6173749,-1.2990828,207.05782,79.923307)"
       cx="46.312283"
       cy="60.244186"
       fx="46.312283"
       fy="60.244186"
       r="29.96759" />
    <radialGradient
       inkscape:collect="always"
       xlink:href="#10-l"
       id="radialGradient6690"
       gradientUnits="userSpaceOnUse"
       gradientTransform="matrix(-1.0780924,1.3422389,-1.6173749,-1.2990828,207.05782,79.923307)"
       cx="46.312283"
       cy="60.244186"
       fx="46.312283"
       fy="60.244186"
       r="29.96759" />
    <radialGradient
       inkscape:collect="always"
       xlink:href="#10-l"
       id="radialGradient6692"
       gradientUnits="userSpaceOnUse"
       gradientTransform="matrix(-1.0780924,1.3422389,-1.6173749,-1.2990828,207.05782,79.923307)"
       cx="46.312283"
       cy="60.244186"
       fx="46.312283"
       fy="60.244186"
       r="29.96759" />
    <radialGradient
       inkscape:collect="always"
       xlink:href="#10-l"
       id="radialGradient6694"
       gradientUnits="userSpaceOnUse"
       gradientTransform="matrix(-1.0780924,1.3422389,-1.6173749,-1.2990828,207.05782,79.923307)"
       cx="46.312283"
       cy="60.244186"
       fx="46.312283"
       fy="60.244186"
       r="29.96759" />
    <radialGradient
       inkscape:collect="always"
       xlink:href="#10-l"
       id="radialGradient6696"
       gradientUnits="userSpaceOnUse"
       gradientTransform="matrix(-1.0780924,1.3422389,-1.6173749,-1.2990828,207.05782,79.923307)"
       cx="46.312283"
       cy="60.244186"
       fx="46.312283"
       fy="60.244186"
       r="29.96759" />
    <radialGradient
       inkscape:collect="always"
       xlink:href="#10-l"
       id="radialGradient6698"
       gradientUnits="userSpaceOnUse"
       gradientTransform="matrix(-1.0780924,1.3422389,-1.6173749,-1.2990828,207.05782,79.923307)"
       cx="46.312283"
       cy="60.244186"
       fx="46.312283"
       fy="60.244186"
       r="29.96759" />
    <radialGradient
       inkscape:collect="always"
       xlink:href="#10-l"
       id="radialGradient6700"
       gradientUnits="userSpaceOnUse"
       gradientTransform="matrix(-1.0780924,1.3422389,-1.6173749,-1.2990828,207.05782,79.923307)"
       cx="46.312283"
       cy="60.244186"
       fx="46.312283"
       fy="60.244186"
       r="29.96759" />
    <radialGradient
       inkscape:collect="always"
       xlink:href="#10-l"
       id="radialGradient6702"
       gradientUnits="userSpaceOnUse"
       gradientTransform="matrix(-1.0780924,1.3422389,-1.6173749,-1.2990828,207.05782,79.923307)"
       cx="46.312283"
       cy="60.244186"
       fx="46.312283"
       fy="60.244186"
       r="29.96759" />
    <radialGradient
       inkscape:collect="always"
       xlink:href="#10-l"
       id="radialGradient6704"
       gradientUnits="userSpaceOnUse"
       gradientTransform="matrix(-1.0780924,1.3422389,-1.6173749,-1.2990828,207.05782,79.923307)"
       cx="46.312283"
       cy="60.244186"
       fx="46.312283"
       fy="60.244186"
       r="29.96759" />
    <radialGradient
       inkscape:collect="always"
       xlink:href="#10-l"
       id="radialGradient6706"
       gradientUnits="userSpaceOnUse"
       gradientTransform="matrix(-1.0780924,1.3422389,-1.6173749,-1.2990828,207.05782,79.923307)"
       cx="46.312283"
       cy="60.244186"
       fx="46.312283"
       fy="60.244186"
       r="29.96759" />
    <radialGradient
       inkscape:collect="always"
       xlink:href="#10-l"
       id="radialGradient6708"
       gradientUnits="userSpaceOnUse"
       gradientTransform="matrix(-1.0780924,1.3422389,-1.6173749,-1.2990828,207.05782,79.923307)"
       cx="46.312283"
       cy="60.244186"
       fx="46.312283"
       fy="60.244186"
       r="29.96759" />
    <radialGradient
       inkscape:collect="always"
       xlink:href="#10-l"
       id="radialGradient6710"
       gradientUnits="userSpaceOnUse"
       gradientTransform="matrix(-1.0780924,1.3422389,-1.6173749,-1.2990828,207.05782,79.923307)"
       cx="46.312283"
       cy="60.244186"
       fx="46.312283"
       fy="60.244186"
       r="29.96759" />
    <radialGradient
       inkscape:collect="always"
       xlink:href="#10-l"
       id="radialGradient6712"
       gradientUnits="userSpaceOnUse"
       gradientTransform="matrix(-1.0780924,1.3422389,-1.6173749,-1.2990828,207.05782,79.923307)"
       cx="46.312283"
       cy="60.244186"
       fx="46.312283"
       fy="60.244186"
       r="29.96759" />
    <radialGradient
       inkscape:collect="always"
       xlink:href="#10-l"
       id="radialGradient6714"
       gradientUnits="userSpaceOnUse"
       gradientTransform="matrix(-1.0780924,1.3422389,-1.6173749,-1.2990828,207.05782,79.923307)"
       cx="46.312283"
       cy="60.244186"
       fx="46.312283"
       fy="60.244186"
       r="29.96759" />
    <radialGradient
       inkscape:collect="always"
       xlink:href="#10-l"
       id="radialGradient6756"
       cx="60.412704"
       cy="137.86165"
       fx="60.412704"
       fy="137.86165"
       r="14.298279"
       gradientTransform="matrix(-1.9389523,0.56809177,-4.3283845,-14.773204,777.51078,2127.069)"
       gradientUnits="userSpaceOnUse" />
    <radialGradient
       inkscape:collect="always"
       xlink:href="#10-l"
       id="radialGradient6859"
       gradientUnits="userSpaceOnUse"
       gradientTransform="matrix(-1.9389523,0.56809177,-4.3283845,-14.773204,777.51078,2127.069)"
       cx="60.412704"
       cy="137.86165"
       fx="60.412704"
       fy="137.86165"
       r="14.298279" />
    <radialGradient
       inkscape:collect="always"
       xlink:href="#10-l"
       id="radialGradient6861"
       gradientUnits="userSpaceOnUse"
       gradientTransform="matrix(-1.9389523,0.56809177,-4.3283845,-14.773204,777.51078,2127.069)"
       cx="60.412704"
       cy="137.86165"
       fx="60.412704"
       fy="137.86165"
       r="14.298279" />
    <radialGradient
       inkscape:collect="always"
       xlink:href="#10-l"
       id="radialGradient6863"
       gradientUnits="userSpaceOnUse"
       gradientTransform="matrix(-1.9389523,0.56809177,-4.3283845,-14.773204,777.51078,2127.069)"
       cx="60.412704"
       cy="137.86165"
       fx="60.412704"
       fy="137.86165"
       r="14.298279" />
  </defs>
  <g
     inkscape:label="Layer 1"
     inkscape:groupmode="layer"
     id="layer1">
    <g
       id="g1723"
       transform="translate(0.28686337,-11.692595)">
      <g
         id="g2392"
         transform="matrix(1.1117551,0,0,1.1117551,-2.5466535,-5.3805547)">
        <g
           id="g2816"
           transform="matrix(1.0330258,0.32947757,-0.32947757,1.0330258,22.5297,-26.357633)"
           style="fill:#5784d5;fill-opacity:1">
          <path
             id="path1868"
             style="fill:url(#radialGradient4188);fill-opacity:1;stroke-width:0.191483"
             d="m 34.661739,80.2246 c -0.601521,2.487569 -0.558814,5.402627 0.736308,8.690763 3.933141,8.333963 8.747042,16.496047 9.093103,24.405727 8.44e-4,-6e-4 -0.751577,2.76386 2.240778,3.0064 0,0 5.338377,1.02474 20.77685,-10.54376 l 0.378974,-0.28243 C 82.46993,93.220027 91.936936,76.546043 100.19717,62.951691 c 0.29709,-0.479528 0.31632,-1.083098 0.0469,-1.584315 C 96.736845,54.868583 93.143698,48.153279 90.145344,42.561497 l 0.0072,-0.01157 -0.407831,-0.759525 C 89.472398,41.283 88.949176,40.958596 88.372707,40.940741 L 66.1708,40.256769 c -0.569122,-0.01747 -1.100804,0.267736 -1.397894,0.747263 -6.962062,9.584627 -10.315292,23.07733 -19.46714,27.27126 -1.517187,-1.696354 -4.075925,-2.012296 -5.92138,-0.637556 -1.842224,1.372331 -2.271964,3.914994 -1.081162,5.854477 -1.450504,1.643126 -2.959783,3.913131 -3.641487,6.732391 z m 4.429336,-9.71989 c 0.188273,-0.665365 0.578513,-1.265283 1.162497,-1.700396 1.170997,-0.87185 2.749266,-0.811303 3.955956,0.01866 -1.344163,0.728609 -2.284102,1.42848 -2.654717,1.728418 -0.387674,0.264469 -1.33007,0.966607 -2.413644,2.046959 -0.224703,-0.697228 -0.23835,-1.428272 -0.05009,-2.093644 z m 42.493474,17.713145 c 1.152505,1.547127 -5.649524,8.563127 -15.191019,15.670875 -9.54381,7.10948 -18.21327,11.61869 -19.36531,10.0722 l 5.08e-4,-3.1e-4 c -0.605911,-0.81336 9.142421,-11.44407 14.947867,-15.778196 5.874922,-4.38599 18.458144,-11.508076 19.607954,-9.964569 z M 52.365208,64.969091 c 2.66042,-4.495873 5.154563,-9.613753 7.93486,-14.304183 1.652148,-2.787209 2.654101,-6.20423 5.193656,-8.216392 0.801409,-0.63498 1.892971,-0.819612 2.89893,-1.002655 2.770511,-0.324671 8.812264,-0.469582 10.465038,0.721316 0.323619,0.245631 0.646947,0.613735 0.926919,1.040317 0.413524,0.630089 0.732433,1.387799 0.817851,2.067067 0.211196,1.679564 0.213194,5.043385 0.213194,5.043385 l 1.275414,-0.0174 -0.522219,-7.531939 1.362545,0.0365 0.516911,7.422714 1.309405,-0.08412 -0.462865,-7.302281 1.363046,0.03621 0.781829,8.856661 -4.386679,3.357934 c -1.434481,-1.069279 -3.24249,-1.631789 -5.122785,-1.465775 -0.379189,0.03348 -0.75784,0.09598 -1.125234,0.187021 l -4.932561,1.211038 c -2.219237,0.545302 -4.157011,1.986275 -5.316603,3.954702 -0.905978,1.540585 -1.302758,3.296396 -1.14549,5.077614 l 0.194226,2.200157 c 0.09757,1.105028 0.417737,2.178992 0.930537,3.156909 l -4.562493,3.010138 1.025302,10.011767 c 0.15243,1.488428 0.129425,2.979788 -1.928677,1.878664 C 55.664042,81.957581 54.342,72.683693 52.071431,67.938608 51.550153,66.849233 51.750189,66.008425 52.365212,64.969093 Z m 10.114448,8.022526 3.785215,-2.436652 c 1.349432,1.793986 3.370298,2.989659 5.605032,3.283437 l 1.505508,0.197526 c 0.912375,0.120379 1.839885,0.140177 2.758792,0.05904 2.785627,-0.245948 5.447891,-1.430323 7.496401,-3.335506 l 0.173624,-0.162238 c 1.727738,-1.605208 2.599128,-3.873575 2.391709,-6.222809 -0.04385,-0.496648 -0.136764,-0.991701 -0.277236,-1.468908 L 84.763258,58.97027 c -0.332443,-1.131925 -0.92147,-2.131557 -1.685096,-2.956241 l 4.540781,-3.765383 c 0.02803,-0.172168 -0.387717,-5.927621 -0.575988,-8.840037 -0.269207,-1.363445 1.308433,-1.290942 1.695,-0.800104 1.34403,1.706553 2.622587,4.2017 4.049886,6.772757 l 5.418125,9.759892 c 0.394137,0.709978 1.113023,2.077682 1.102214,2.90926 -0.01656,1.275224 -1.146031,2.325236 -1.833655,3.476471 l -4.697065,7.863843 c -2.619137,3.938795 -5.125212,7.863186 -7.962211,10.366192 -1.086058,0.958198 -3.214269,1.880712 -4.650095,2.070632 -3.100433,0.410101 -8.247917,1.641989 -8.553425,-1.815186 l -1.34939,0.119108 c 0.182039,1.618418 0.29849,1.321127 -1.246448,1.280193 l -0.936385,-10.606312 -1.349797,0.119005 0.922728,10.451001 -1.362744,-0.0357 -0.194226,-2.200157 -1.349391,0.119107 0.180975,2.044947 -1.363454,-0.03631 z m 3.492758,-11.534225 c 0.166369,-0.622907 0.418218,-1.224676 0.752206,-1.791729 0.975055,-1.655934 2.604722,-2.868596 4.471304,-3.327199 l 4.932865,-1.21053 c 0.300644,-0.07389 0.610921,-0.124753 0.920571,-0.152094 2.89753,-0.255828 5.595671,1.584721 6.414703,4.375968 l 1.154631,3.935038 c 0.115078,0.392316 0.191617,0.797664 0.227647,1.205764 0.170345,1.929333 -0.545469,3.793535 -1.964245,5.112874 l -0.174329,0.161633 c -0.449905,0.418528 -0.933151,0.797211 -1.443327,1.134555 0.02358,-0.217591 0.02982,-0.43851 0.01017,-0.661079 -0.164231,-1.860095 -1.811302,-3.240196 -3.671395,-3.075963 -1.860093,0.16423 -3.239383,1.811503 -3.07515,3.671598 0.06509,0.737294 0.369155,1.403141 0.830295,1.93005 -0.604244,0.01815 -1.209046,0.0042 -1.806074,-0.07449 L 72.046776,72.494262 C 70.08508,72.236451 68.31362,71.157414 67.184948,69.53329 66.487118,68.529205 66.061551,67.354606 65.954087,66.137464 l -0.194124,-2.200563 c -0.07442,-0.842854 -0.0014,-1.678635 0.212455,-2.479513 z m -6.913136,41.098278 c -43.585944,-40.106071 -21.792972,-20.053038 0,0 z M 75.915073,70.108237 c 0.04249,-0.195211 0.113551,-0.380994 0.208497,-0.552183 0.316563,-0.57061 0.901607,-0.979954 1.599047,-1.041532 1.1159,-0.09853 2.103965,0.729679 2.20249,1.845578 0.04991,0.565317 -0.145379,1.113977 -0.52297,1.533417 -0.630096,0.265068 -1.28345,0.472169 -1.952385,0.620163 -0.854033,-0.194436 -1.494689,-0.912997 -1.572713,-1.796666 -0.01847,-0.209232 -0.0045,-0.413566 0.03803,-0.608779 z"
             sodipodi:nodetypes="cccccccccccccccscccccccccscccassaaccsscccccccccsccccccccsssssccsccsccccccsssssscscccccccccccscscsccscccsssccccccsccsccsccssssss" />
          <g
             id="g5519"
             style="fill:url(#radialGradient5527);fill-opacity:1"
             transform="rotate(-72.495807,66.430952,74.281008)">
            <path
               d="m 77.733036,74.982872 c 0.143427,0.345414 -0.02035,0.741788 -0.365764,0.885215 -0.345419,0.14343 -0.741792,-0.02035 -0.88522,-0.365765 -0.143428,-0.345415 0.02035,-0.74179 0.36577,-0.885219 0.345413,-0.143427 0.741787,0.02035 0.885214,0.365769"
               id="path943"
               style="fill:url(#radialGradient6688);fill-opacity:1;stroke-width:0.0774024" />
            <path
               d="m 80.235004,73.94397 c -0.716098,-1.724571 -2.701515,-2.544934 -4.426082,-1.828836 -1.724574,0.716101 -2.544938,2.701518 -1.828839,4.426088 0.7161,1.724572 2.701517,2.544935 4.426091,1.828834 1.724567,-0.716098 2.544931,-2.701514 1.82883,-4.426086 z m -2.348281,3.175102 c -1.034599,0.429601 -2.226055,-0.0627 -2.655655,-1.0973 -0.4296,-1.0346 0.0627,-2.226053 1.097304,-2.655654 1.0346,-0.429599 2.226048,0.0627 2.655649,1.097303 0.4296,1.0346 -0.0627,2.226051 -1.097298,2.655651 z"
               id="path945"
               style="fill:url(#radialGradient6690);fill-opacity:1;stroke-width:0.0774024" />
            <path
               d="m 84.602692,80.930426 c 0.143427,0.345416 -0.02035,0.74179 -0.365763,0.885216 -0.34542,0.14343 -0.741794,-0.02035 -0.885222,-0.365765 -0.143428,-0.345415 0.02035,-0.74179 0.36577,-0.885218 0.345413,-0.143428 0.741787,0.02035 0.885215,0.365767"
               id="path947"
               style="fill:url(#radialGradient6692);fill-opacity:1;stroke-width:0.0774024" />
            <path
               d="m 82.678577,78.06269 c -1.724574,0.7161 -2.544937,2.701517 -1.828839,4.426088 0.716101,1.724572 2.701518,2.544934 4.426092,1.828834 1.724567,-0.716098 2.54493,-2.701514 1.82883,-4.426086 -0.716099,-1.724572 -2.701516,-2.544935 -4.426083,-1.828836 z m 2.077801,5.003937 c -1.034599,0.429601 -2.226054,-0.0627 -2.655655,-1.0973 -0.4296,-1.0346 0.0627,-2.226053 1.097304,-2.655653 1.0346,-0.429601 2.226049,0.0627 2.655649,1.097302 0.429601,1.0346 -0.0627,2.226051 -1.097298,2.655651 z"
               id="path949"
               style="fill:url(#radialGradient6694);fill-opacity:1;stroke-width:0.0774024" />
            <path
               d="m 74.075366,83.835045 c 0.143428,0.345415 -0.02035,0.74179 -0.365763,0.885216 -0.345419,0.14343 -0.741793,-0.02035 -0.88522,-0.365765 -0.143428,-0.345415 0.02035,-0.74179 0.36577,-0.885219 0.345413,-0.143426 0.741787,0.02035 0.885213,0.365768"
               id="path951"
               style="fill:url(#radialGradient6696);fill-opacity:1;stroke-width:0.0774024" />
            <path
               d="m 58.613262,74.855312 6.254922,-2.597252 0.519451,1.250985 -6.254922,2.597252 z"
               id="path955"
               style="fill:url(#radialGradient6698);fill-opacity:1;stroke-width:0.0774024" />
            <path
               d="m 59.44008,80.378701 1.250985,-0.519451 0.51945,1.250984 -1.250985,0.519451 z"
               id="path961"
               style="fill:url(#radialGradient6700);fill-opacity:1;stroke-width:0.0774024" />
            <path
               d="m 61.942049,79.339799 1.250984,-0.51945 0.519451,1.250984 -1.250985,0.519451 z"
               id="path963"
               style="fill:url(#radialGradient6702);fill-opacity:1;stroke-width:0.0774024"
               sodipodi:nodetypes="ccccc" />
            <path
               d="m 73.528292,68.345324 c 1.0346,-0.429601 1.526898,-1.621051 1.097298,-2.655652 -0.4296,-1.034598 -1.621049,-1.526902 -2.655649,-1.097302 -1.0346,0.429601 -1.526904,1.621055 -1.097304,2.655654 0.4296,1.034599 1.621056,1.5269 2.655655,1.0973 z m -1.038901,-2.50197 c 0.345134,-0.143311 0.742134,0.02119 0.885214,0.365769 0.143081,0.344579 -0.02063,0.741906 -0.365763,0.885217 -0.345133,0.14331 -0.74214,-0.02119 -0.885221,-0.365767 -0.143081,-0.344578 0.02064,-0.741908 0.36577,-0.885219 z"
               id="path971"
               style="fill:url(#radialGradient6704);fill-opacity:1;stroke-width:0.0774024" />
            <path
               d="m 81.596196,67.090977 c 1.034599,-0.4296 1.526897,-1.621052 1.097297,-2.655651 -0.4296,-1.0346 -1.621049,-1.526903 -2.655649,-1.097302 -1.034599,0.429599 -1.526905,1.621053 -1.097304,2.655653 0.429601,1.0346 1.621056,1.526901 2.655656,1.0973 z m -1.038901,-2.501969 c 0.345133,-0.143311 0.742133,0.02119 0.885214,0.365768 0.14308,0.344579 -0.02063,0.741905 -0.365764,0.885216 -0.345133,0.143311 -0.74214,-0.02119 -0.88522,-0.365765 -0.143081,-0.344578 0.02064,-0.741908 0.36577,-0.885219 z"
               id="path973"
               style="fill:url(#radialGradient6706);fill-opacity:1;stroke-width:0.0774024" />
            <path
               d="M 97.050771,71.867034 C 96.9539,71.052458 96.545404,70.323742 95.900462,69.816451 l -5.21424,-4.106454 c -0.64404,-0.507412 -1.44706,-0.733755 -2.262249,-0.636809 -1.682257,0.200053 -2.888021,1.730684 -2.688005,3.412631 0.09687,0.814575 0.505367,1.543292 1.150309,2.050583 l 5.21424,4.106454 c 0.64404,0.507411 1.44706,0.733753 2.262246,0.636818 1.682258,-0.200053 2.888022,-1.730684 2.688005,-3.412631 z m -2.847956,2.067562 c -0.377407,0.04488 -0.747492,-0.04083 -1.068635,-0.229777 l 2.096972,-2.663026 c 0.259677,0.268422 0.429744,0.607798 0.474628,0.985176 0.111718,0.939468 -0.562575,1.795786 -1.502889,1.907607 z m -3.472515,-6.466267 1.19361,0.939891 -2.125006,2.698636 -1.193607,-0.939901 z m 2.257536,1.777662 1.193607,0.939902 -2.125003,2.698626 -1.193617,-0.939889 z m -4.403911,-2.827739 c 0.377407,-0.04488 0.747492,0.04083 1.068635,0.229777 l -2.096972,2.663025 c -0.259677,-0.26842 -0.429744,-0.607796 -0.474625,-0.985168 -0.111721,-0.939475 0.562574,-1.795787 1.502889,-1.907607 z"
               id="path975"
               style="fill:url(#radialGradient6708);fill-opacity:1;stroke-width:0.0774024" />
            <path
               d="m 66.3214,84.119784 c -0.486454,-0.660542 -1.202306,-1.091843 -2.01335,-1.2143 -1.674818,-0.252868 -3.24266,0.904182 -3.495568,2.579231 -0.122542,0.811657 0.07831,1.622039 0.565139,2.282017 l 3.940256,5.340941 c 0.486595,0.659648 1.202453,1.090927 2.013488,1.213382 1.674827,0.25287 3.242659,-0.904183 3.495569,-2.579231 0.122542,-0.811656 -0.07831,-1.622038 -0.565139,-2.282016 z m -0.580033,7.280513 -0.901844,-1.22261 2.764193,-2.038994 0.901852,1.222612 z m 0.156641,-5.573984 0.901845,1.222612 -2.764192,2.038993 -0.901853,-1.222612 z m -1.792197,-1.581464 c 0.374897,0.0566 0.70935,0.23736 0.96944,0.505354 l -2.727726,2.012089 c -0.17837,-0.327505 -0.252401,-0.699819 -0.195715,-1.07529 0.141372,-0.936332 1.018489,-1.583333 1.953975,-1.442086 z m 3.427829,8.736926 c -0.374897,-0.0566 -0.70934,-0.237368 -0.96944,-0.505353 l 2.727733,-2.012092 c 0.178369,0.327503 0.2524,0.699817 0.195707,1.075291 -0.141361,0.93633 -1.018483,1.58333 -1.953974,1.442086 z"
               id="path981"
               style="fill:url(#radialGradient6710);fill-opacity:1;stroke-width:0.0774024" />
            <path
               d="m 81.612072,92.008068 c -1.379727,0.572909 -2.035979,2.161139 -1.463068,3.54087 0.572909,1.379728 2.161143,2.035976 3.540869,1.463068 1.379733,-0.572911 2.035977,-2.161142 1.463068,-3.540869 -0.57291,-1.379731 -2.161136,-2.035981 -3.540869,-1.463069 z m 1.558351,3.752953 c -0.689993,0.286509 -1.483928,-0.04154 -1.770434,-0.731534 -0.28651,-0.689993 0.04154,-1.483926 0.731533,-1.770434 0.689993,-0.286509 1.483926,0.04154 1.770435,0.731534 0.286507,0.689991 -0.04154,1.483926 -0.731534,1.770434 z"
               id="path983"
               style="fill:url(#radialGradient6712);fill-opacity:1;stroke-width:0.0774024" />
            <path
               d="m 87.952612,87.729101 c -1.034601,0.429601 -1.526905,1.621053 -1.097305,2.655653 0.4296,1.034599 1.621056,1.5269 2.655656,1.0973 1.0346,-0.429601 1.526904,-1.621055 1.097304,-2.655654 -0.429601,-1.0346 -1.621055,-1.526899 -2.655655,-1.097299 z m 1.0389,2.501969 c -0.345133,0.143311 -0.742139,-0.02119 -0.88522,-0.365767 -0.14308,-0.344577 0.02064,-0.741906 0.36577,-0.885217 0.345134,-0.143311 0.742134,0.02119 0.885214,0.365767 0.143081,0.34458 -0.02063,0.741906 -0.365764,0.885217 z"
               id="path985"
               style="fill:url(#radialGradient6714);fill-opacity:1;stroke-width:0.0774024" />
          </g>
          <g
             id="g18194"
             transform="matrix(-1.2645189,-0.41385697,-0.41385697,1.2645189,203.85822,-50.374478)"
             style="fill:url(#radialGradient4218);fill-opacity:1" />
          <text
             xml:space="preserve"
             style="font-style:italic;font-weight:bold;font-size:10.8001px;font-family:'Albert Sans';-inkscape-font-specification:'Albert Sans Bold Italic';fill:url(#radialGradient4987);fill-opacity:1;stroke-width:0.134663;paint-order:stroke fill markers"
             x="6.5823874"
             y="68.585014"
             id="text1352"
             transform="rotate(-17.648328)"><tspan
               sodipodi:role="line"
               id="tspan1350"
               style="fill:url(#radialGradient4987);fill-opacity:1;stroke-width:0.134663"
               x="6.5823874"
               y="68.585014">dunst</tspan></text>
          <text
             xml:space="preserve"
             style="font-style:italic;font-weight:bold;font-size:9.19132px;font-family:'Albert Sans';-inkscape-font-specification:'Albert Sans Bold Italic';fill:url(#radialGradient4987-3);fill-opacity:1;stroke-width:0.114603;paint-order:stroke fill markers"
             x="-30.714149"
             y="129.58101"
             id="text1352-6"
             transform="rotate(-56.656282)"><tspan
               sodipodi:role="line"
               id="tspan1350-2"
               style="fill:url(#radialGradient4987-3);fill-opacity:1;stroke-width:0.114603"
               x="-30.714149"
               y="129.58101">active</tspan></text>
          <text
             xml:space="preserve"
             style="font-style:normal;font-variant:normal;font-weight:bold;font-stretch:normal;font-size:18.7294px;font-family:'Albert Sans';-inkscape-font-specification:'Albert Sans Bold';fill:#e0617a;fill-opacity:1;stroke-width:0.233532;paint-order:stroke fill markers"
             x="83.885674"
             y="96.479866"
             id="text6213"
             transform="rotate(-17.68978)"><tspan
               sodipodi:role="line"
               id="tspan6211"
               style="stroke-width:0.233532"></tspan></text>
        </g>
        <g
           id="g6635"
           transform="rotate(-7.058991,-138.70111,170.88691)">
          <g
             id="g6740"
             style="fill-opacity:1;fill:url(#radialGradient6756)">
            <path
               id="path1868-9"
               style="fill:url(#radialGradient6756);fill-opacity:1.0;stroke-width:0.191483"
               d="m 45.501735,81.718529 -8.249381,-5.951798 c 0,0 -1.732762,10.981594 8.249381,5.951798 z"
               transform="matrix(0.72908614,-0.80257782,0.80257782,0.72908614,-30.8064,97.409985)" />
            <path
               id="path6761"
               style="fill:url(#radialGradient6859);fill-opacity:1;stroke-width:1.00002;stroke-dasharray:none;paint-order:stroke fill markers"
               d="m 78.566355,130.05031 c -0.415651,5.88531 -4.293852,10.89638 -9.719936,12.55928 -0.392545,0.1203 -1.039668,0.27932 -1.443286,0.35453 -5.588079,1.04136 -11.21723,-1.66402 -14.088376,-6.77529 -0.196015,-0.34895 -0.62728,-0.49168 -0.982948,-0.30804 -0.368266,0.19014 -0.497428,0.67749 -0.264047,1.07461 3.224686,5.48714 9.553361,8.37353 15.810828,7.21102 0.452865,-0.0841 1.179294,-0.26062 1.620283,-0.39364 6.074104,-1.83228 10.365115,-7.27192 10.736528,-13.6013 0.02892,-0.49288 -0.374131,-0.89359 -0.867932,-0.89359 -0.42344,0 -0.771031,0.34646 -0.801114,0.77242 z"
               sodipodi:nodetypes="ccccccc"
               inkscape:path-effect="#path-effect6883"
               inkscape:original-d="m 78.600777,129.27789 c -0.120585,6.47472 -4.430551,12.0436 -10.470964,13.52947 -6.049929,1.48439 -12.29091,-1.50517 -15.15401,-7.25907 l -1.310788,0.67677 c 3.205184,6.20712 10.240752,9.41591 17.029087,7.76665 6.788267,-1.64913 11.567342,-7.72811 11.567472,-14.71382 -0.553599,0 -1.107198,0 -1.660797,0 z" />
            <path
               id="path6457-8"
               style="fill:url(#radialGradient6861);fill-opacity:1;stroke-width:1.00002;stroke-dasharray:none;paint-order:stroke fill markers"
               d="m 75.146521,130.26244 c -0.309662,4.38456 -3.198923,8.11781 -7.241358,9.35667 -0.292447,0.0896 -0.774553,0.20809 -1.075249,0.26413 -4.139455,0.7714 -8.309163,-1.21686 -10.459172,-4.98283 -0.168207,-0.29463 -0.533609,-0.41577 -0.835106,-0.26011 -0.237834,0.1228 -0.304451,0.47059 -0.130582,0.76645 2.402373,4.08788 7.117174,6.23823 11.778945,5.37222 0.337458,-0.0627 0.878705,-0.19418 1.207241,-0.29328 4.516296,-1.36236 7.709417,-5.40163 7.997052,-10.10512 0.02339,-0.38252 -0.289495,-0.69358 -0.672717,-0.69358 -0.300122,0 -0.546642,0.25811 -0.569054,0.57545 z"
               inkscape:path-effect="#path-effect6881"
               inkscape:original-d="m 75.172165,129.68699 a 10.118056,10.559702 0.42623894 0 1 -7.800874,10.07946 10.118056,10.559702 0.42623894 0 1 -11.289746,-5.408 l -0.976538,0.50419 a 11.280858,11.280858 0 0 0 12.686679,5.78615 11.280858,11.280858 0 0 0 8.617774,-10.9618 z" />
            <path
               id="path6457-8-7"
               style="fill:url(#radialGradient6863);fill-opacity:1;stroke-width:1.00002;stroke-dasharray:none;paint-order:stroke fill markers"
               d="m 71.774125,131.15473 c -0.198626,2.81237 -2.051851,5.20697 -4.644751,6.00165 -0.187635,0.0575 -0.496916,0.1335 -0.689792,0.16944 -2.666102,0.49684 -5.351771,-0.79105 -6.725807,-3.22601 -0.09763,-0.17301 -0.311658,-0.24387 -0.488194,-0.15273 -0.169408,0.0875 -0.225802,0.31761 -0.114276,0.50738 1.540959,2.6221 4.565186,4.00141 7.555399,3.44592 0.216456,-0.0402 0.56363,-0.12455 0.774364,-0.18812 2.89912,-0.87453 4.94821,-3.46875 5.12999,-6.48869 0.01454,-0.24154 -0.183002,-0.43795 -0.424976,-0.43795 -0.196345,0 -0.357581,0.16556 -0.371957,0.36911 z"
               inkscape:path-effect="#path-effect6879"
               inkscape:original-d="m 71.790574,130.78562 a 6.4900508,6.7733369 0.42623894 0 1 -5.003735,6.46529 6.4900508,6.7733369 0.42623894 0 1 -7.241611,-3.46886 l -0.626383,0.3234 a 7.2359098,7.2359098 0 0 0 8.137649,3.71143 7.2359098,7.2359098 0 0 0 5.527721,-7.03126 z" />
          </g>
        </g>
      </g>
    </g>
  </g>
</svg>
