<?xml version="1.0" encoding="UTF-8" standalone="no"?>
<!-- Created with Inkscape (http://www.inkscape.org/) -->

<svg
   width="512"
   height="513"
   viewBox="0 0 135.46665 135.73123"
   version="1.1"
   id="svg5"
   inkscape:version="1.2.1 (9c6d41e410, 2022-07-14, custom)"
   sodipodi:docname="inactive.svg"
   xmlns:inkscape="http://www.inkscape.org/namespaces/inkscape"
   xmlns:sodipodi="http://sodipodi.sourceforge.net/DTD/sodipodi-0.dtd"
   xmlns:xlink="http://www.w3.org/1999/xlink"
   xmlns="http://www.w3.org/2000/svg"
   xmlns:svg="http://www.w3.org/2000/svg">
  <sodipodi:namedview
     id="namedview7"
     pagecolor="#24283b"
     bordercolor="#1a1b26"
     borderopacity="0.24705882"
     inkscape:showpageshadow="true"
     inkscape:pageopacity="0"
     inkscape:pagecheckerboard="false"
     inkscape:deskcolor="#1f2335"
     inkscape:document-units="px"
     showgrid="false"
     shape-rendering="auto"
     borderlayer="true"
     inkscape:zoom="0.91923882"
     inkscape:cx="23.388916"
     inkscape:cy="312.75877"
     inkscape:window-width="1667"
     inkscape:window-height="885"
     inkscape:window-x="0"
     inkscape:window-y="0"
     inkscape:window-maximized="1"
     inkscape:current-layer="g10881"
     showguides="true" />
  <defs
     id="defs2">
    <linearGradient
       inkscape:collect="always"
       id="linearGradient10895">
      <stop
         style="stop-color:#5784d5;stop-opacity:0.79588723;"
         offset="0"
         id="stop10891" />
      <stop
         style="stop-color:#3f4e74;stop-opacity:0.41704831;"
         offset="1"
         id="stop10893" />
    </linearGradient>
    <inkscape:path-effect
       effect="fillet_chamfer"
       id="path-effect6883"
       is_visible="true"
       lpeversion="1"
       nodesatellites_param="F,1,0,1,0,0.04,0,1 @ F,1,0,1,0,0.04,0,1 @ F,1,0,1,0,0.49130285,0,1 @ F,1,0,1,0,0.04,0,1 @ F,1,0,1,0,0.04,0,1 @ F,1,0,1,0,0.53835871,0,1"
       unit="px"
       method="auto"
       mode="F"
       radius="4"
       chamfer_steps="1"
       flexible="true"
       use_knot_distance="true"
       apply_no_radius="true"
       apply_with_radius="true"
       only_selected="false"
       hide_knots="false" />
    <inkscape:path-effect
       effect="fillet_chamfer"
       id="path-effect6881"
       is_visible="true"
       lpeversion="1"
       nodesatellites_param="F,1,0,1,0,0.04,0,1 @ F,1,0,1,0,0.04,0,1 @ F,1,0,1,0,0.5590245,0,1 @ F,1,0,1,0,0.04,0,1 @ F,1,0,1,0,0.04,0,1 @ F,1,0,1,0,0.56080781,0,1"
       unit="px"
       method="auto"
       mode="F"
       radius="4"
       chamfer_steps="1"
       flexible="true"
       use_knot_distance="true"
       apply_no_radius="true"
       apply_with_radius="true"
       only_selected="false"
       hide_knots="false" />
    <inkscape:path-effect
       effect="fillet_chamfer"
       id="path-effect6879"
       is_visible="true"
       lpeversion="1"
       nodesatellites_param="F,1,0,1,0,0.04,0,1 @ F,1,0,1,0,0.04,0,1 @ F,1,0,1,0,0.51030623,0,1 @ F,1,0,1,0,0.04,0,1 @ F,1,0,1,0,0.04,0,1 @ F,1,0,1,0,0.55205391,0,1"
       unit="px"
       method="auto"
       mode="F"
       radius="4"
       chamfer_steps="1"
       flexible="true"
       use_knot_distance="true"
       apply_no_radius="true"
       apply_with_radius="true"
       only_selected="false"
       hide_knots="false" />
    <inkscape:path-effect
       effect="fillet_chamfer"
       id="path-effect6877"
       is_visible="true"
       lpeversion="1"
       nodesatellites_param="F,0,1,1,0,0,0,1 @ F,0,0,1,0,0,0,1 @ F,0,1,1,0,0,0,1 @ F,0,1,1,0,0,0,1 @ F,0,0,1,0,0,0,1 @ F,0,1,1,0,0,0,1"
       unit="px"
       method="auto"
       mode="F"
       radius="0"
       chamfer_steps="1"
       flexible="false"
       use_knot_distance="true"
       apply_no_radius="true"
       apply_with_radius="true"
       only_selected="true"
       hide_knots="false" />
    <inkscape:path-effect
       effect="fillet_chamfer"
       id="path-effect6870"
       is_visible="true"
       lpeversion="1"
       nodesatellites_param="F,1,0,1,0,0,0,1 @ F,1,0,1,0,0,0,1 @ F,1,0,1,0,0,0,1 @ F,1,0,1,0,0,0,1 @ F,1,0,1,0,0,0,1 @ F,1,0,1,0,0,0,1"
       unit="px"
       method="auto"
       mode="F"
       radius="0"
       chamfer_steps="2"
       flexible="true"
       use_knot_distance="true"
       apply_no_radius="true"
       apply_with_radius="true"
       only_selected="false"
       hide_knots="false" />
    <linearGradient
       inkscape:collect="always"
       id="10-J">
      <stop
         style="stop-color:#5784d5;stop-opacity:1;"
         offset="0"
         id="stop3147" />
      <stop
         style="stop-color:#7aa2f7;stop-opacity:1;"
         offset="0.59122026"
         id="stop3157" />
      <stop
         style="stop-color:#a0e4ff;stop-opacity:1;"
         offset="0.9180153"
         id="stop3155" />
      <stop
         style="stop-color:#bdeaff;stop-opacity:1;"
         offset="1"
         id="stop3149" />
    </linearGradient>
    <linearGradient
       inkscape:collect="always"
       id="10-l">
      <stop
         style="stop-color:#e0617a;stop-opacity:1;"
         offset="0"
         id="stop2115" />
      <stop
         style="stop-color:#fadeb8;stop-opacity:1;"
         offset="1"
         id="stop2117" />
    </linearGradient>
    <radialGradient
       inkscape:collect="always"
       xlink:href="#10-l"
       id="radialGradient4097"
       gradientUnits="userSpaceOnUse"
       gradientTransform="matrix(0.02529431,-0.20214938,0.23057614,0.02885127,305.66393,375.94325)"
       cx="379.54126"
       cy="423.31168"
       fx="379.54126"
       fy="423.31168"
       r="147.56943" />
    <radialGradient
       inkscape:collect="always"
       xlink:href="#10-J"
       id="radialGradient4218"
       gradientUnits="userSpaceOnUse"
       gradientTransform="matrix(0.1038894,-0.72057624,1.4403731,0.20766652,-52.311701,108.55512)"
       cx="65.869606"
       cy="86.338814"
       fx="65.869606"
       fy="86.338814"
       r="44.36002" />
    <radialGradient
       inkscape:collect="always"
       xlink:href="#10-l"
       id="radialGradient6029"
       gradientUnits="userSpaceOnUse"
       gradientTransform="matrix(0.06073817,-0.15603597,0.22989519,0.0894884,-128.75693,78.141101)"
       cx="369.16339"
       cy="544.83936"
       fx="369.16339"
       fy="544.83936"
       r="147.56943" />
    <radialGradient
       inkscape:collect="always"
       xlink:href="#linearGradient10895"
       id="radialGradient10899"
       cx="73.470428"
       cy="66.066658"
       fx="73.470428"
       fy="66.066658"
       r="37.371304"
       gradientTransform="matrix(-0.95536901,0.61309556,-1.7618648,-2.7454639,263.26,200.62252)"
       gradientUnits="userSpaceOnUse" />
    <radialGradient
       inkscape:collect="always"
       xlink:href="#linearGradient10895"
       id="radialGradient12148"
       gradientUnits="userSpaceOnUse"
       gradientTransform="matrix(-1.2201254,0.14135882,-0.20429534,-1.7633559,170.70241,162.86299)"
       cx="64.591057"
       cy="66.844765"
       fx="64.591057"
       fy="66.844765"
       r="37.371304" />
    <radialGradient
       inkscape:collect="always"
       xlink:href="#linearGradient10895"
       id="radialGradient12150"
       gradientUnits="userSpaceOnUse"
       gradientTransform="matrix(-1.220125,0.14135875,-0.20429529,-1.7633565,170.70241,162.863)"
       cx="64.59108"
       cy="66.844749"
       fx="64.59108"
       fy="66.844749"
       r="37.371304" />
    <radialGradient
       inkscape:collect="always"
       xlink:href="#linearGradient10895"
       id="radialGradient12152"
       gradientUnits="userSpaceOnUse"
       gradientTransform="matrix(-1.2201243,0.14135867,-0.20429527,-1.7633566,170.70234,162.86302)"
       cx="64.591064"
       cy="66.844749"
       fx="64.591064"
       fy="66.844749"
       r="37.371304" />
    <radialGradient
       inkscape:collect="always"
       xlink:href="#linearGradient10895"
       id="radialGradient12154"
       gradientUnits="userSpaceOnUse"
       gradientTransform="matrix(-1.2201262,0.1413577,-0.20429357,-1.7633564,170.70241,162.86308)"
       cx="64.59111"
       cy="66.844757"
       fx="64.59111"
       fy="66.844757"
       r="37.371304" />
    <radialGradient
       inkscape:collect="always"
       xlink:href="#linearGradient10895"
       id="radialGradient12156"
       gradientUnits="userSpaceOnUse"
       gradientTransform="matrix(-1.2201236,0.14135857,-0.20429517,-1.7633565,170.70223,162.86303)"
       cx="64.591011"
       cy="66.844749"
       fx="64.591011"
       fy="66.844749"
       r="37.371304" />
    <radialGradient
       inkscape:collect="always"
       xlink:href="#linearGradient10895"
       id="radialGradient12158"
       gradientUnits="userSpaceOnUse"
       gradientTransform="matrix(-1.2201242,0.1413586,-0.2042953,-1.7633564,170.70231,162.86303)"
       cx="64.591042"
       cy="66.844757"
       fx="64.591042"
       fy="66.844757"
       r="37.371304" />
    <radialGradient
       inkscape:collect="always"
       xlink:href="#linearGradient10895"
       id="radialGradient12160"
       gradientUnits="userSpaceOnUse"
       gradientTransform="matrix(-1.2201251,0.1413589,-0.2042955,-1.7633559,170.70234,162.86292)"
       cx="64.591011"
       cy="66.844727"
       fx="64.591011"
       fy="66.844727"
       r="37.371304" />
    <radialGradient
       inkscape:collect="always"
       xlink:href="#linearGradient10895"
       id="radialGradient12162"
       gradientUnits="userSpaceOnUse"
       gradientTransform="matrix(-1.2201251,0.14135892,-0.20429546,-1.7633573,170.70248,162.86299)"
       cx="64.591125"
       cy="66.844719"
       fx="64.591125"
       fy="66.844719"
       r="37.371304" />
    <radialGradient
       inkscape:collect="always"
       xlink:href="#linearGradient10895"
       id="radialGradient12164"
       gradientUnits="userSpaceOnUse"
       gradientTransform="matrix(-1.2201255,0.14135777,-0.20429378,-1.7633566,170.70236,162.86305)"
       cx="64.591103"
       cy="66.844734"
       fx="64.591103"
       fy="66.844734"
       r="37.371304" />
    <radialGradient
       inkscape:collect="always"
       xlink:href="#linearGradient10895"
       id="radialGradient12166"
       gradientUnits="userSpaceOnUse"
       gradientTransform="matrix(-1.2201252,0.14135881,-0.20429528,-1.7633568,170.70244,162.86296)"
       cx="64.591103"
       cy="66.844719"
       fx="64.591103"
       fy="66.844719"
       r="37.371304" />
    <radialGradient
       inkscape:collect="always"
       xlink:href="#linearGradient10895"
       id="radialGradient12168"
       gradientUnits="userSpaceOnUse"
       gradientTransform="matrix(-1.2201248,0.14135875,-0.20429527,-1.7633567,170.70246,162.86303)"
       cx="64.591133"
       cy="66.844757"
       fx="64.591133"
       fy="66.844757"
       r="37.371304" />
    <radialGradient
       inkscape:collect="always"
       xlink:href="#linearGradient10895"
       id="radialGradient12170"
       gradientUnits="userSpaceOnUse"
       gradientTransform="matrix(-1.2201237,0.14135883,-0.20429557,-1.7633568,170.7023,162.86299)"
       cx="64.591049"
       cy="66.844727"
       fx="64.591049"
       fy="66.844727"
       r="37.371304" />
    <radialGradient
       inkscape:collect="always"
       xlink:href="#linearGradient10895"
       id="radialGradient12172"
       gradientUnits="userSpaceOnUse"
       gradientTransform="matrix(-1.2201255,0.14135879,-0.20429506,-1.7633565,170.7025,162.86297)"
       cx="64.591141"
       cy="66.844734"
       fx="64.591141"
       fy="66.844734"
       r="37.371304" />
    <radialGradient
       inkscape:collect="always"
       xlink:href="#linearGradient10895"
       id="radialGradient12174"
       gradientUnits="userSpaceOnUse"
       gradientTransform="matrix(-1.2201235,0.14135868,-0.20429526,-1.7633567,170.7023,162.86302)"
       cx="64.591072"
       cy="66.844749"
       fx="64.591072"
       fy="66.844749"
       r="37.371304" />
    <radialGradient
       inkscape:collect="always"
       xlink:href="#linearGradient10895"
       id="radialGradient12176"
       gradientUnits="userSpaceOnUse"
       gradientTransform="matrix(-1.2201252,0.1413589,-0.20429549,-1.7633567,170.70247,162.86296)"
       cx="64.59111"
       cy="66.844727"
       fx="64.59111"
       fy="66.844727"
       r="37.371304" />
    <radialGradient
       inkscape:collect="always"
       xlink:href="#linearGradient10895"
       id="radialGradient14109"
       gradientUnits="userSpaceOnUse"
       gradientTransform="matrix(-0.95536901,0.61309556,-1.7618648,-2.7454639,263.26,200.62252)"
       cx="73.470428"
       cy="66.066658"
       fx="73.470428"
       fy="66.066658"
       r="37.371304" />
  </defs>
  <g
     inkscape:label="Layer 1"
     inkscape:groupmode="layer"
     id="layer1">
    <g
       id="g1723"
       transform="translate(0.28686337,-11.692595)">
      <g
         id="g2392"
         transform="matrix(1.1117551,0,0,1.1117551,-2.5466535,-5.3805547)">
        <g
           id="g2816"
           transform="matrix(1.0330258,0.32947757,-0.32947757,1.0330258,22.5297,-26.357633)"
           style="fill:#5784d5;fill-opacity:1">
          <g
             id="g18194"
             transform="matrix(-1.2645189,-0.41385697,-0.41385697,1.2645189,203.85822,-50.374478)"
             style="fill:url(#radialGradient4218);fill-opacity:1" />
          <g
             id="g10529"
             style="fill:#7aa2f7;fill-opacity:1">
            <g
               id="g10881"
               style="fill:url(#radialGradient10899);fill-opacity:1">
              <g
                 id="g14107"
                 style="fill:url(#radialGradient14109)"
                 transform="matrix(0.3009423,0.78443579,-0.74965614,0.29211337,99.459749,9.7817204)">
                <path
                   id="path1868"
                   style="fill:url(#radialGradient12176);fill-opacity:1;stroke-width:0.191483"
                   d="m 65.654368,40.325685 c -0.361947,0.11077 -0.677257,0.348789 -0.881506,0.678464 -6.962055,9.584617 -10.315355,23.077115 -19.467193,27.271041 -1.517186,-1.696352 -4.075934,-2.012212 -5.921388,-0.637473 -1.842222,1.372329 -2.271675,3.914995 -1.080874,5.854477 -1.450503,1.643124 -2.959763,3.913099 -3.641466,6.732356 -0.601521,2.487567 -0.558927,5.402433 0.736194,8.690566 3.933137,8.333955 8.747013,16.496304 9.093074,24.405984 8.44e-4,-6e-4 -0.751529,2.76391 2.240823,3.00645 0,0 5.338403,1.0245 20.776861,-10.54399 l 0.378802,-0.28235 C 82.469858,93.219945 91.937023,76.546146 100.19725,62.951808 c 0.29709,-0.479528 0.31619,-1.083156 0.0468,-1.584372 C 96.7368,54.868649 93.143858,48.153271 90.145507,42.561495 l 0.0071,-0.0117 L 89.744786,41.7903 C 89.472438,41.282895 88.94916,40.958432 88.372691,40.940577 L 66.170983,40.256754 c -0.177851,-0.0055 -0.352094,0.01858 -0.516615,0.06893 z m 1.026163,1.51034 c 0.553146,-0.183837 1.146358,-0.287452 1.712209,-0.390414 2.770509,-0.32467 8.812186,-0.469111 10.464959,0.721786 0.323618,0.24563 0.647102,0.613659 0.927073,1.040241 0.413524,0.630088 0.732182,1.387597 0.8176,2.066865 0.211196,1.679562 0.213276,5.043502 0.213276,5.043502 l 1.275425,-0.01758 -0.522284,-7.531755 1.362436,0.03657 0.517196,7.422689 1.309507,-0.08424 -0.463041,-7.302274 1.363254,0.0363 0.781486,8.856553 -4.386608,3.357751 c -1.434479,-1.069278 -3.242376,-1.63148 -5.122669,-1.465466 -0.379189,0.03348 -0.757716,0.09592 -1.12511,0.186963 l -4.932701,1.21104 c -2.219235,0.545301 -4.15708,1.986086 -5.316671,3.954511 -0.905977,1.540584 -1.30274,3.296538 -1.145473,5.077754 l 0.194132,2.200023 c 0.09757,1.105027 0.417652,2.179201 0.930451,3.157117 l -4.562263,3.010163 1.02527,10.011685 c 0.15243,1.488427 0.129412,2.97975 -1.928688,1.878627 -4.405218,-2.356877 -5.727268,-11.630648 -7.997835,-16.375729 -0.521278,-1.089374 -0.321248,-1.930499 0.293774,-2.96983 2.660418,-4.495869 5.154677,-9.613544 7.934972,-14.303969 1.652146,-2.787206 2.653864,-6.204191 5.193416,-8.216351 0.350616,-0.277803 0.756683,-0.469551 1.186907,-0.612535 z m 20.888541,0.497006 c 0.422185,-0.127946 0.963349,0.01488 1.168713,0.275636 1.344028,1.706551 2.622566,4.201416 4.049864,6.77247 l 5.418521,9.760127 c 0.394137,0.709977 1.112864,2.077776 1.102055,2.909353 -0.01656,1.275222 -1.145929,2.324998 -1.833552,3.476232 l -4.697108,7.863674 c -2.619134,3.938791 -5.125396,7.863578 -7.962392,10.366581 -1.086057,0.958197 -3.214267,1.880396 -4.650092,2.070315 -3.10043,0.410101 -8.248026,1.642044 -8.553533,-1.815128 l -1.349145,0.119381 c 0.182038,1.618417 0.298237,1.32093 -1.2467,1.279996 l -0.936331,-10.6061 -1.349814,0.118694 0.922892,10.451101 -1.362585,-0.03562 -0.194262,-2.200431 -1.349553,0.119511 0.1811,2.044894 -1.363792,-0.03658 -1.083675,-12.275695 3.78502,-2.436496 c 1.349431,1.793984 3.370524,2.989488 5.605255,3.283265 l 1.505673,0.197862 c 0.912374,0.120379 1.83964,0.139927 2.758546,0.05879 2.785625,-0.245948 5.448119,-1.430286 7.496627,-3.335467 l 0.173334,-0.161925 c 1.727737,-1.605206 2.599332,-3.873897 2.391913,-6.223129 -0.04385,-0.496647 -0.136785,-0.991669 -0.277257,-1.468876 l -1.155685,-3.935251 c -0.332443,-1.131924 -0.921191,-2.13143 -1.684816,-2.956113 l 4.540498,-3.76545 c 0.02803,-0.172168 -0.387764,-5.927776 -0.576035,-8.840189 -0.126191,-0.639114 0.153801,-0.962537 0.526316,-1.075431 z m -16.891528,14.15399 c 0.170483,-0.05599 0.343202,-0.105632 0.518194,-0.148626 L 76.1287,55.128172 c 0.300644,-0.07389 0.610972,-0.125 0.920622,-0.152341 2.897527,-0.255827 5.595481,1.584688 6.414512,4.375932 l 1.154738,3.935104 c 0.115077,0.392315 0.191913,0.79753 0.227943,1.20563 0.170345,1.929331 -0.54561,3.793724 -1.964385,5.113062 l -0.174411,0.161368 c -0.449905,0.418527 -0.933114,0.797472 -1.44329,1.134816 0.02358,-0.217591 0.02974,-0.438488 0.01009,-0.661057 -0.164231,-1.860093 -1.811337,-3.240408 -3.671429,-3.076175 -1.860091,0.16423 -3.23946,1.811483 -3.075227,3.671576 0.06509,0.737294 0.369493,1.403062 0.830633,1.929971 -0.604244,0.01815 -1.209329,0.0046 -1.806357,-0.07406 l -1.505134,-0.197583 c -1.961694,-0.257811 -3.733499,-1.336848 -4.86217,-2.96097 -0.697829,-1.004084 -1.12329,-2.178965 -1.230754,-3.396106 l -0.194262,-2.200431 c -0.07442,-0.842853 -0.0013,-1.678694 0.212562,-2.479572 0.166369,-0.622906 0.418292,-1.224788 0.752279,-1.791841 0.883643,-1.500688 2.30488,-2.637207 3.952884,-3.178471 z M 41.196111,68.322877 c 0.994465,-0.311878 2.108499,-0.122601 3.013516,0.499871 -1.344162,0.728608 -2.284012,1.428658 -2.654627,1.728595 -0.387673,0.264469 -1.330485,0.966581 -2.414058,2.046932 -0.224703,-0.697228 -0.238172,-1.428114 -0.04991,-2.093485 0.188273,-0.665364 0.57857,-1.265304 1.162554,-1.700416 0.292749,-0.217963 0.611039,-0.377538 0.942527,-0.481497 z m 36.027116,0.300065 c 0.157872,-0.05595 0.325145,-0.09307 0.499505,-0.108469 1.115899,-0.09853 2.103708,0.729826 2.202233,1.845724 0.04991,0.565317 -0.145327,1.113865 -0.522918,1.533305 -0.630095,0.265068 -1.283241,0.471941 -1.952175,0.619935 -0.854032,-0.194436 -1.49471,-0.912654 -1.572734,-1.796322 -0.01847,-0.209232 -0.0045,-0.413557 0.03802,-0.608769 0.04249,-0.195211 0.113565,-0.38127 0.208511,-0.552459 0.237422,-0.427957 0.625948,-0.765091 1.099563,-0.932945 z m -36.709759,13.545094 10.41765,4.536321 0.788826,8.542391 5.985278,1.895877 -0.720136,5.334905 c 1.762331,-1.66363 3.506122,-3.185911 4.991657,-4.294955 5.874916,-4.385985 18.457929,-11.508085 19.607738,-9.964579 1.152504,1.547125 -5.649623,8.562919 -15.191109,15.670664 -9.5438,7.10947 -18.213067,11.61861 -19.365106,10.07212 l 4.09e-4,-1.3e-4 c -0.327901,-0.44016 2.37838,-3.75631 5.849317,-7.39289 l -0.04116,-6.967074 -4.705038,-1.126662 -1.517937,-9.76186 z" />
                <path
                   d="m 70.499707,63.713371 c 0.372559,-0.03289 0.701319,0.24252 0.734212,0.615079 0.03289,0.372564 -0.24252,0.701322 -0.61508,0.734216 -0.372561,0.03289 -0.701321,-0.24252 -0.734215,-0.615085 -0.03289,-0.372558 0.242519,-0.701318 0.615083,-0.73421"
                   id="path943"
                   style="fill:url(#radialGradient12174);fill-opacity:1;stroke-width:0.0774024" />
                <path
                   d="m 70.261442,61.014781 c -1.860099,0.16423 -3.23964,1.810967 -3.075409,3.671062 0.164233,1.860104 1.810969,3.239646 3.671068,3.075414 1.860101,-0.164232 3.239642,-1.810969 3.07541,-3.671072 -0.164231,-1.860095 -1.810967,-3.239637 -3.671069,-3.075404 z m 2.321774,3.194537 c 0.09853,1.115905 -0.72934,2.104118 -1.845246,2.202643 -1.115906,0.09852 -2.104117,-0.729339 -2.202642,-1.845249 -0.09852,-1.115906 0.729338,-2.104112 1.845247,-2.202637 1.115906,-0.09853 2.104115,0.729338 2.202641,1.845243 z"
                   id="path945"
                   style="fill:url(#radialGradient12172);fill-opacity:1;stroke-width:0.0774024" />
                <path
                   d="m 78.238084,58.950694 c 0.372561,-0.03289 0.701321,0.24252 0.734214,0.615078 0.03289,0.372565 -0.242522,0.701324 -0.615082,0.734218 -0.37256,0.03289 -0.70132,-0.24252 -0.734213,-0.615085 -0.03289,-0.372558 0.242519,-0.701317 0.615081,-0.734211"
                   id="path947"
                   style="fill:url(#radialGradient12170);fill-opacity:1;stroke-width:0.0774024" />
                <path
                   d="m 74.924412,59.923168 c 0.164231,1.860103 1.810968,3.239644 3.671068,3.075414 1.860101,-0.164233 3.239641,-1.81097 3.07541,-3.671073 -0.164232,-1.860096 -1.810968,-3.239637 -3.671069,-3.075405 -1.8601,0.164231 -3.239641,1.810968 -3.075409,3.671064 z m 5.397181,-0.476526 c 0.09853,1.115905 -0.729339,2.104117 -1.845245,2.202643 -1.115906,0.09853 -2.104117,-0.729339 -2.202641,-1.845249 -0.09853,-1.115906 0.729338,-2.104113 1.845246,-2.202637 1.115906,-0.09853 2.104115,0.729339 2.20264,1.845243 z"
                   id="path949"
                   style="fill:url(#radialGradient12168);fill-opacity:1;stroke-width:0.0774024" />
                <path
                   d="m 77.841842,69.86419 c 0.37256,-0.03289 0.701321,0.24252 0.734213,0.615078 0.03289,0.372564 -0.242521,0.701323 -0.61508,0.734217 -0.372561,0.03289 -0.701321,-0.24252 -0.734215,-0.615086 -0.03289,-0.372557 0.242519,-0.701317 0.615082,-0.734209"
                   id="path951"
                   style="fill:url(#radialGradient12166);fill-opacity:1;stroke-width:0.0774024" />
                <path
                   d="m 64.627292,81.909436 -0.595658,-6.746477 1.349297,-0.119132 0.595658,6.746477 z"
                   id="path955"
                   style="fill:url(#radialGradient12164);fill-opacity:1;stroke-width:0.0774024" />
                <path
                   d="m 70.143607,82.782204 -0.119132,-1.349296 1.349295,-0.119131 0.119132,1.349296 z"
                   id="path961"
                   style="fill:url(#radialGradient12162);fill-opacity:1;stroke-width:0.0774024" />
                <path
                   d="m 69.905343,80.083613 -0.119131,-1.349295 1.349295,-0.119132 0.119132,1.349296 z"
                   id="path963"
                   style="fill:url(#radialGradient12160);fill-opacity:1;stroke-width:0.0774024"
                   sodipodi:nodetypes="ccccc" />
                <path
                   d="m 62.904827,65.727002 c -0.09853,-1.115906 -1.086735,-1.943768 -2.202642,-1.845243 -1.115904,0.09853 -1.94377,1.086731 -1.845245,2.202637 0.09853,1.115907 1.086736,1.943775 2.202641,1.84525 1.115905,-0.09853 1.943771,-1.086739 1.845246,-2.202644 z m -2.698592,0.238263 c -0.03287,-0.372257 0.243424,-0.701396 0.615082,-0.73421 0.371659,-0.03281 0.701347,0.242822 0.734215,0.615078 0.03287,0.372256 -0.243427,0.701402 -0.615083,0.734217 -0.371658,0.03281 -0.701346,-0.242832 -0.734214,-0.615085 z"
                   id="path971"
                   style="fill:url(#radialGradient12158);fill-opacity:1;stroke-width:0.0774024" />
                <path
                   d="m 64.135191,57.655406 c -0.09853,-1.115905 -1.086736,-1.943767 -2.202641,-1.845242 -1.115906,0.09853 -1.943771,1.086731 -1.845245,2.202637 0.09852,1.115905 1.086734,1.943775 2.20264,1.845249 1.115906,-0.09853 1.943772,-1.086738 1.845246,-2.202644 z M 61.4366,57.893669 c -0.03287,-0.372256 0.243424,-0.701395 0.615082,-0.73421 0.371658,-0.03281 0.701346,0.242822 0.734213,0.615079 0.03287,0.372256 -0.243427,0.701401 -0.615081,0.734216 -0.371658,0.03281 -0.701346,-0.242832 -0.734214,-0.615085 z"
                   id="path973"
                   style="fill:url(#radialGradient12156);fill-opacity:1;stroke-width:0.0774024" />
                <path
                   d="m 73.338451,44.352977 c -0.805993,-0.152619 -1.623831,0.01778 -2.301615,0.480279 l -5.484621,3.737673 c -0.677627,0.4616 -1.135018,1.159358 -1.28775,1.965959 -0.315193,1.664531 0.781898,3.274838 2.446122,3.589972 0.805992,0.15262 1.623832,-0.01778 2.301616,-0.480278 l 5.48462,-3.737673 c 0.677627,-0.461601 1.135017,-1.159359 1.287759,-1.965954 0.315192,-1.664532 -0.781898,-3.274839 -2.446123,-3.589972 z m 1.115228,3.337953 c -0.07071,0.37343 -0.263767,0.700599 -0.540556,0.950041 l -1.908997,-2.800845 c 0.334097,-0.166918 0.708911,-0.227034 1.082314,-0.156333 0.929568,0.176024 1.543423,1.076653 1.367243,2.007059 z m -7.211294,1.366825 1.255378,-0.855643 1.934526,2.838291 -1.255387,0.855638 z m 2.374359,-1.618323 1.255388,-0.855638 1.934517,2.838286 -1.255378,0.855651 z m -4.021389,3.349473 c 0.07071,-0.37343 0.263767,-0.700599 0.540556,-0.950041 l 1.908996,2.800845 c -0.334095,0.166918 -0.708909,0.227034 -1.082305,0.156333 -0.929576,-0.176024 -1.543425,-1.076653 -1.367243,-2.00706 z"
                   id="path975"
                   style="fill:url(#radialGradient12154);fill-opacity:1;stroke-width:0.0774024" />
                <path
                   d="m 75.781192,77.344751 c -0.776269,0.265254 -1.402909,0.818233 -1.763638,1.55489 -0.744903,1.521209 -0.112999,3.364464 1.408418,4.109475 0.737216,0.360994 1.570484,0.413186 2.346328,0.147405 l 6.278761,-2.151378 c 0.775459,-0.265657 1.40208,-0.818649 1.762805,-1.555297 0.744908,-1.521217 0.112998,-3.364464 -1.408418,-4.109477 -0.737215,-0.360994 -1.570483,-0.413185 -2.346327,-0.147404 z m 6.768929,2.742975 -1.43725,0.492353 -1.113176,-3.249477 1.437254,-0.49236 z m -5.268767,-1.825906 1.437252,-0.492353 1.113176,3.249475 -1.437254,0.492361 z m -2.047283,1.233543 c 0.166739,-0.340513 0.439724,-0.605111 0.773538,-0.772551 l 1.098485,3.206605 c -0.365989,0.07161 -0.74333,0.03023 -1.084365,-0.136768 -0.850454,-0.416452 -1.20368,-1.447556 -0.787602,-2.297241 z m 9.36337,-0.641249 c -0.166739,0.340514 -0.439729,0.6051 -0.773537,0.772552 l -1.098486,-3.206613 c 0.365987,-0.0716 0.743327,-0.03023 1.084363,0.136777 0.850455,0.41644 1.203679,1.447549 0.787603,2.297239 z"
                   id="path981"
                   style="fill:url(#radialGradient12152);fill-opacity:1;stroke-width:0.0774024" />
                <path
                   d="m 87.90327,65.134718 c 0.131392,1.488155 1.448694,2.59172 2.936854,2.460327 1.488157,-0.131391 2.59172,-1.448699 2.460328,-2.936853 -0.131392,-1.488162 -1.448698,-2.59172 -2.936854,-2.460328 -1.48816,0.131392 -2.591721,1.448691 -2.460328,2.936854 z m 4.047886,-0.357395 c 0.06571,0.744218 -0.485946,1.40272 -1.230164,1.468426 -0.744218,0.06571 -1.402718,-0.485945 -1.468426,-1.230162 -0.06571,-0.744218 0.485945,-1.402719 1.230164,-1.468428 0.744215,-0.06571 1.402718,0.485945 1.468426,1.230164 z"
                   id="path983"
                   style="fill:url(#radialGradient12150);fill-opacity:1;stroke-width:0.0774024" />
                <path
                   d="m 85.72952,57.800768 c 0.09853,1.115907 1.086735,1.943775 2.202641,1.84525 1.115905,-0.09853 1.94377,-1.086739 1.845246,-2.202645 -0.09853,-1.115906 -1.086737,-1.943774 -2.202642,-1.845249 -1.115906,0.09853 -1.94377,1.086738 -1.845245,2.202644 z m 2.698591,-0.238263 c 0.03287,0.372256 -0.243426,0.701401 -0.615082,0.734216 -0.371657,0.03281 -0.701344,-0.242831 -0.734213,-0.615084 -0.03287,-0.372257 0.243425,-0.701396 0.615081,-0.734211 0.37166,-0.03281 0.701347,0.242822 0.734214,0.615079 z"
                   id="path985"
                   style="fill:url(#radialGradient12148);fill-opacity:1;stroke-width:0.0774024" />
              </g>
            </g>
          </g>
          <text
             xml:space="preserve"
             style="font-style:normal;font-variant:normal;font-weight:bold;font-stretch:normal;font-size:18.7294px;font-family:'Albert Sans';-inkscape-font-specification:'Albert Sans Bold';fill:#e0617a;fill-opacity:1;stroke-width:0.233532;paint-order:stroke fill markers"
             x="83.885674"
             y="96.479866"
             id="text6213"
             transform="rotate(-17.68978)"><tspan
               sodipodi:role="line"
               id="tspan6211"
               style="stroke-width:0.233532" /></text>
        </g>
      </g>
    </g>
  </g>
</svg>
