<?xml version="1.0" encoding="UTF-8" standalone="no"?>
<!-- Created with Inkscape (http://www.inkscape.org/) -->

<svg
   width="512"
   height="513"
   viewBox="0 0 135.46665 135.73123"
   version="1.1"
   id="svg5"
   inkscape:version="1.2.1 (9c6d41e410, 2022-07-14, custom)"
   sodipodi:docname="inactive-hover.svg"
   xmlns:inkscape="http://www.inkscape.org/namespaces/inkscape"
   xmlns:sodipodi="http://sodipodi.sourceforge.net/DTD/sodipodi-0.dtd"
   xmlns:xlink="http://www.w3.org/1999/xlink"
   xmlns="http://www.w3.org/2000/svg"
   xmlns:svg="http://www.w3.org/2000/svg">
  <sodipodi:namedview
     id="namedview7"
     pagecolor="#24283b"
     bordercolor="#1a1b26"
     borderopacity="0.24705882"
     inkscape:showpageshadow="true"
     inkscape:pageopacity="0"
     inkscape:pagecheckerboard="false"
     inkscape:deskcolor="#1f2335"
     inkscape:document-units="px"
     showgrid="false"
     shape-rendering="auto"
     borderlayer="true"
     inkscape:zoom="1.2230981"
     inkscape:cx="219.5245"
     inkscape:cy="235.87642"
     inkscape:window-width="1667"
     inkscape:window-height="885"
     inkscape:window-x="0"
     inkscape:window-y="0"
     inkscape:window-maximized="1"
     inkscape:current-layer="g18701" />
  <defs
     id="defs2">
    <linearGradient
       inkscape:collect="always"
       id="linearGradient17417">
      <stop
         style="stop-color:#5784d5;stop-opacity:1;"
         offset="0"
         id="stop17413" />
      <stop
         style="stop-color:#5784d5;stop-opacity:0.246206;"
         offset="1"
         id="stop17415" />
    </linearGradient>
    <radialGradient
       inkscape:collect="always"
       xlink:href="#linearGradient17417"
       id="radialGradient18145"
       gradientUnits="userSpaceOnUse"
       gradientTransform="matrix(0.08677319,-0.46237436,0.50694504,0.09513774,32.029882,106.55904)"
       cx="78.359245"
       cy="84.396973"
       fx="78.359245"
       fy="84.396973"
       r="42.514749" />
    <radialGradient
       inkscape:collect="always"
       xlink:href="#linearGradient17417"
       id="radialGradient18149"
       gradientUnits="userSpaceOnUse"
       gradientTransform="matrix(0.08677319,-0.46237436,0.50694504,0.09513774,32.029882,106.55904)"
       cx="78.359245"
       cy="84.396973"
       fx="78.359245"
       fy="84.396973"
       r="42.514749" />
    <radialGradient
       inkscape:collect="always"
       xlink:href="#linearGradient17417"
       id="radialGradient18151"
       gradientUnits="userSpaceOnUse"
       gradientTransform="matrix(0.08677319,-0.46237436,0.50694504,0.09513774,32.029882,106.55904)"
       cx="78.359245"
       cy="84.396973"
       fx="78.359245"
       fy="84.396973"
       r="42.514749" />
    <radialGradient
       inkscape:collect="always"
       xlink:href="#linearGradient17417"
       id="radialGradient18153"
       gradientUnits="userSpaceOnUse"
       gradientTransform="matrix(0.08677319,-0.46237436,0.50694504,0.09513774,32.029882,106.55904)"
       cx="78.359245"
       cy="84.396973"
       fx="78.359245"
       fy="84.396973"
       r="42.514749" />
    <radialGradient
       inkscape:collect="always"
       xlink:href="#linearGradient17417"
       id="radialGradient18155"
       gradientUnits="userSpaceOnUse"
       gradientTransform="matrix(0.08677319,-0.46237436,0.50694504,0.09513774,32.029882,106.55904)"
       cx="78.359245"
       cy="84.396973"
       fx="78.359245"
       fy="84.396973"
       r="42.514749" />
    <radialGradient
       inkscape:collect="always"
       xlink:href="#linearGradient17417"
       id="radialGradient18157"
       gradientUnits="userSpaceOnUse"
       gradientTransform="matrix(0.08677319,-0.46237436,0.50694504,0.09513774,32.029882,106.55904)"
       cx="78.359245"
       cy="84.396973"
       fx="78.359245"
       fy="84.396973"
       r="42.514749" />
    <radialGradient
       inkscape:collect="always"
       xlink:href="#linearGradient17417"
       id="radialGradient18159"
       gradientUnits="userSpaceOnUse"
       gradientTransform="matrix(0.08677319,-0.46237436,0.50694504,0.09513774,32.029882,106.55904)"
       cx="78.359245"
       cy="84.396973"
       fx="78.359245"
       fy="84.396973"
       r="42.514749" />
    <radialGradient
       inkscape:collect="always"
       xlink:href="#linearGradient17417"
       id="radialGradient18161"
       gradientUnits="userSpaceOnUse"
       gradientTransform="matrix(0.08677319,-0.46237436,0.50694504,0.09513774,32.029882,106.55904)"
       cx="78.359245"
       cy="84.396973"
       fx="78.359245"
       fy="84.396973"
       r="42.514749" />
    <radialGradient
       inkscape:collect="always"
       xlink:href="#linearGradient17417"
       id="radialGradient18163"
       gradientUnits="userSpaceOnUse"
       gradientTransform="matrix(0.08677319,-0.46237436,0.50694504,0.09513774,32.029882,106.55904)"
       cx="78.359245"
       cy="84.396973"
       fx="78.359245"
       fy="84.396973"
       r="42.514749" />
    <radialGradient
       inkscape:collect="always"
       xlink:href="#linearGradient17417"
       id="radialGradient18165"
       gradientUnits="userSpaceOnUse"
       gradientTransform="matrix(0.08677319,-0.46237436,0.50694504,0.09513774,32.029882,106.55904)"
       cx="78.359245"
       cy="84.396973"
       fx="78.359245"
       fy="84.396973"
       r="42.514749" />
    <radialGradient
       inkscape:collect="always"
       xlink:href="#linearGradient17417"
       id="radialGradient18167"
       gradientUnits="userSpaceOnUse"
       gradientTransform="matrix(0.08677319,-0.46237436,0.50694504,0.09513774,32.029882,106.55904)"
       cx="78.359245"
       cy="84.396973"
       fx="78.359245"
       fy="84.396973"
       r="42.514749" />
    <radialGradient
       inkscape:collect="always"
       xlink:href="#linearGradient17417"
       id="radialGradient18169"
       gradientUnits="userSpaceOnUse"
       gradientTransform="matrix(0.08677319,-0.46237436,0.50694504,0.09513774,32.029882,106.55904)"
       cx="78.359245"
       cy="84.396973"
       fx="78.359245"
       fy="84.396973"
       r="42.514749" />
    <radialGradient
       inkscape:collect="always"
       xlink:href="#linearGradient17417"
       id="radialGradient18171"
       gradientUnits="userSpaceOnUse"
       gradientTransform="matrix(0.08677319,-0.46237436,0.50694504,0.09513774,32.029882,106.55904)"
       cx="78.359245"
       cy="84.396973"
       fx="78.359245"
       fy="84.396973"
       r="42.514749" />
    <radialGradient
       inkscape:collect="always"
       xlink:href="#linearGradient17417"
       id="radialGradient18173"
       gradientUnits="userSpaceOnUse"
       gradientTransform="matrix(0.08677319,-0.46237436,0.50694504,0.09513774,32.029882,106.55904)"
       cx="78.359245"
       cy="84.396973"
       fx="78.359245"
       fy="84.396973"
       r="42.514749" />
    <radialGradient
       inkscape:collect="always"
       xlink:href="#linearGradient17417"
       id="radialGradient18175"
       gradientUnits="userSpaceOnUse"
       gradientTransform="matrix(0.08677319,-0.46237436,0.50694504,0.09513774,32.029882,106.55904)"
       cx="78.359245"
       cy="84.396973"
       fx="78.359245"
       fy="84.396973"
       r="42.514749" />
  </defs>
  <g
     inkscape:label="Layer 1"
     inkscape:groupmode="layer"
     id="layer1">
    <g
       id="g1723"
       transform="translate(0.28686337,-11.692595)">
      <g
         id="g2392"
         transform="matrix(1.1117551,0,0,1.1117551,-2.5466535,-5.3805547)">
        <g
           id="g2816"
           transform="matrix(1.0330258,0.32947757,-0.32947757,1.0330258,22.5297,-26.357633)"
           style="fill:#5784d5;fill-opacity:1">
          <g
             id="g18701"
             transform="matrix(0.65560475,-0.71933965,0.71933965,0.65560475,-33.965325,72.582598)">
            <g
               id="g19764"
               transform="matrix(1.0000515,-0.11744324,0.11744324,1.0000515,-7.1411176,6.8288578)">
              <path
                 id="path1868"
                 style="fill:url(#radialGradient18145);fill-opacity:1;stroke-width:0.196139"
                 d="m 44.414355,50.330313 c -2.490534,0.81819 -5.005762,2.427955 -7.170208,5.329513 0,0 -6.959707,14.118738 -13.48208,18.651898 0,0 -0.818768,1.056229 -2.863609,2.43194 9.83e-4,4.08e-4 -2.812061,0.836579 -1.408977,3.572995 0,0 1.987596,5.201165 20.389329,12.403286 l 0.450366,0.177628 c 17.473702,6.732932 34.95835,5.127922 53.562473,5.127847 l 0.02943,0.05136 0.887732,-1.13e-4 c 0.577815,0 1.113737,-0.308888 1.404815,-0.813873 l 0.500966,-0.867115 -0.007,-0.01216 10.433208,-18.059242 0.014,4.6e-5 0.44134,-0.764855 c 0.29491,-0.510857 0.29512,-1.141453 -3.2e-4,-1.653042 L 96.214156,56.205287 C 95.922349,55.700301 95.38718,55.391204 94.809365,55.391204 82.707816,54.499626 69.150184,58.85869 60.56123,53.152269 c 0.658616,-2.236206 -0.446634,-4.634649 -2.639241,-5.49994 -2.188766,-0.863776 -4.634602,0.133713 -5.680995,2.216882 -2.213239,-0.376604 -5.004037,-0.466206 -7.826644,0.461102 z m 10.853006,-1.386746 c 0.680928,-0.195007 1.413824,-0.178841 2.107735,0.09493 1.390872,0.549303 2.189575,1.956232 2.117858,3.454688 -1.359564,-0.77736 -2.476037,-1.218248 -2.93714,-1.379151 -0.439423,-0.194892 -1.559196,-0.636697 -3.084457,-0.997397 0.485887,-0.57179 1.115076,-0.978048 1.796004,-1.17307 z m -12.828592,11.186546 1.001297,9.446984 -5.885651,4.099088 1.091823,5.13451 -4.615834,1.854658 c 3.094843,0.904125 5.844926,1.954533 9.523064,3.406076 11.335432,4.473418 19.93783,9.594827 19.214117,11.428687 -0.725412,1.838159 -10.504014,-0.29976 -21.84036,-4.773553 C 29.588132,86.251683 20.984876,81.135384 21.709989,79.29797 l 5.39e-4,2.78e-4 c 0.381367,-0.966377 3.283389,-0.827736 7.600791,0.17383 l 5.538109,-3.186865 -1.122432,-3.886013 6.471211,-5.13267 z m 23.294541,-2.327133 28.920637,7.4e-5 c 5.587013,9.228137 9.070303,10.389866 0.535389,16.780966 l 0.831662,1.110718 6.312732,-4.726657 0.70326,1.206118 -6.184737,4.631388 0.831532,1.11031 6.057125,-4.534893 0.70379,1.206396 -7.290104,5.458646 -5.290364,-2.008176 c 0.157212,-1.825904 -0.328347,-3.703671 -1.48726,-5.251365 -0.233711,-0.312116 -0.492402,-0.608107 -0.769874,-0.878899 l -3.715455,-3.641678 c -1.672023,-1.638212 -3.972105,-2.548158 -6.31166,-2.495964 -1.830199,0.04222 -3.573109,0.64393 -5.039251,1.741777 l -1.810992,1.356033 c -0.909563,0.68108 -1.671988,1.539235 -2.246863,2.513307 l -4.923612,-2.343829 c -19.159277,16.81064 -6.395694,0.02855 0.174045,-11.234272 z m -0.01404,12.847635 4.163696,1.981456 c -0.834127,2.142804 -0.78506,4.547485 0.1647,6.651847 l 0.640176,1.417469 c 0.387378,0.859385 0.8705,1.677688 1.436865,2.434051 1.716911,2.292886 4.1844,3.972102 6.948427,4.728045 l 0.234933,0.06366 c 2.329781,0.638458 4.775032,0.173507 6.708715,-1.274436 0.408798,-0.306106 0.789737,-0.654076 1.129481,-1.033828 l 2.803262,-3.129027 c 0.806273,-0.900108 1.358935,-1.952267 1.665072,-3.06208 l 5.761063,2.186069 c 16.74438,-14.829529 1.289202,7.070416 -2.721614,13.946078 l -28.920636,-7.5e-5 c -2.258145,-5.71616 -7.961795,-8.557386 -4.683972,-11.012212 l -0.831663,-1.110718 c -1.311022,1.031592 -0.989337,0.972612 -1.787137,-0.394713 l 8.730223,-6.537106 -0.831793,-1.111126 -8.602354,6.441427 -0.704072,-1.205858 1.810993,-1.356033 -0.831663,-1.110718 -1.682993,1.260764 -0.703923,-1.206805 z m 11.927574,-3.181038 c 0.632142,-0.191173 1.291993,-0.296509 1.965925,-0.3116 1.967902,-0.0443 3.902971,0.72053 5.309255,2.098442 l 3.715177,3.642217 c 0.226528,0.221922 0.4382,0.464655 0.629053,0.719532 1.785882,2.384993 1.638795,5.727295 -0.349823,7.946246 l -2.803522,3.12821 c -0.279526,0.311844 -0.59119,0.597162 -0.927103,0.848692 -1.588057,1.189137 -3.597456,1.571523 -5.511644,1.047873 l -0.234785,-0.0646 c -0.60714,-0.165969 -1.19757,-0.382466 -1.766533,-0.644712 0.202186,-0.09685 0.397915,-0.210599 0.581114,-0.347778 1.531068,-1.146463 1.84424,-3.325157 0.697778,-4.856222 -1.146461,-1.531066 -3.324894,-1.843424 -4.855961,-0.69696 -0.606877,0.454426 -1.022628,1.078388 -1.232661,1.764172 C 72.521335,81.226741 72.207193,80.6926 71.953656,80.130278 L 71.31348,78.71281 c -0.833783,-1.847213 -0.849863,-3.971804 -0.04455,-5.830748 0.497845,-1.149302 1.291039,-2.153519 2.292883,-2.9037 l 1.811401,-1.356163 c 0.693764,-0.51949 1.460878,-0.906829 2.273632,-1.152622 z M 38.1314,83.621168 c 0,0 1.053474,11.338987 9.692103,3.824618 z m 37.346513,-2.827247 c 0.192901,-0.06831 0.393,-0.106678 0.593288,-0.116332 0.667629,-0.03218 1.339675,0.256416 1.769539,0.830486 0.687782,0.918512 0.499659,2.225651 -0.418853,2.913432 -0.465319,0.348432 -1.048415,0.474366 -1.617338,0.371854 -0.570722,-0.405656 -1.103517,-0.862835 -1.59325,-1.365468 -0.291418,-0.848535 -0.01135,-1.794022 0.716008,-2.338671 0.172222,-0.128959 0.357704,-0.226989 0.550606,-0.295301 z"
                 sodipodi:nodetypes="ccccccccccccccccccccscccccccccccccssscccccccccccccccccccscccccccccsccsccsccccccccccccccccccscccsccscccsssccccccsccsssssccssss" />
              <path
                 d="m 78.124787,72.628711 c 0.229625,0.306658 0.167165,0.7415 -0.139492,0.971125 -0.306663,0.229629 -0.741504,0.167166 -0.97113,-0.139492 -0.229626,-0.306659 -0.167166,-0.741501 0.139497,-0.97113 0.306657,-0.229625 0.741499,-0.167162 0.971125,0.139497"
                 id="path943"
                 style="fill:url(#radialGradient18149);fill-opacity:1;stroke-width:0.0792843" />
              <path
                 d="m 80.34603,70.965444 c -1.146465,-1.531072 -3.324566,-1.843937 -4.855634,-0.697474 -1.531074,1.146468 -1.843941,3.324569 -0.697475,4.85564 1.146466,1.531072 3.324567,1.843938 4.855641,0.69747 1.531068,-1.146463 1.843935,-3.324564 0.697468,-4.855636 z m -1.529101,3.745014 c -0.918516,0.687785 -2.225602,0.500035 -2.913386,-0.418481 -0.687784,-0.918516 -0.50003,-2.2256 0.418486,-2.913385 0.918516,-0.687784 2.225595,-0.50003 2.91338,0.418485 0.687784,0.918517 0.500036,2.225597 -0.41848,2.913381 z"
                 id="path945"
                 style="fill:url(#radialGradient18151);fill-opacity:1;stroke-width:0.0792843" />
              <path
                 d="m 86.446452,76.797543 c 0.229626,0.306659 0.167166,0.741501 -0.139491,0.971125 -0.306663,0.229629 -0.741505,0.167167 -0.971131,-0.139492 -0.229626,-0.306658 -0.167165,-0.741501 0.139497,-0.971129 0.306657,-0.229625 0.741499,-0.167163 0.971125,0.139496"
                 id="path947"
                 style="fill:url(#radialGradient18153);fill-opacity:1;stroke-width:0.0792843" />
              <path
                 d="m 83.812061,74.436803 c -1.531074,1.146467 -1.84394,3.324568 -0.697475,4.85564 1.146467,1.531072 3.324568,1.843937 4.855642,0.69747 1.531068,-1.146463 1.843934,-3.324564 0.697468,-4.855636 -1.146466,-1.531072 -3.324567,-1.843938 -4.855635,-0.697474 z m 3.326533,4.442488 c -0.918516,0.687785 -2.225601,0.500035 -2.913386,-0.418482 -0.687784,-0.918516 -0.50003,-2.2256 0.418486,-2.913384 0.918516,-0.687785 2.225596,-0.500031 2.91338,0.418485 0.687785,0.918516 0.500037,2.225596 -0.41848,2.913381 z"
                 id="path949"
                 style="fill:url(#radialGradient18155);fill-opacity:1;stroke-width:0.0792843" />
              <path
                 d="m 76.729843,82.339987 c 0.229626,0.306658 0.167166,0.741501 -0.139491,0.971125 -0.306663,0.229629 -0.741505,0.167167 -0.97113,-0.139492 -0.229626,-0.306659 -0.167166,-0.741501 0.139497,-0.97113 0.306657,-0.229624 0.741499,-0.167162 0.971124,0.139497"
                 id="path951"
                 style="fill:url(#radialGradient18157);fill-opacity:1;stroke-width:0.0792843" />
              <path
                 d="m 59.112718,77.331521 5.55311,-4.158166 0.831634,1.110623 -5.55311,4.158166 z"
                 id="path955"
                 style="fill:url(#radialGradient18159);fill-opacity:1;stroke-width:0.0792843" />
              <path
                 d="m 61.32863,82.605643 1.110622,-0.831634 0.831633,1.110622 -1.110622,0.831634 z"
                 id="path961"
                 style="fill:url(#radialGradient18161);fill-opacity:1;stroke-width:0.0792843" />
              <path
                 d="m 63.549874,80.942376 1.110622,-0.831633 0.831633,1.110622 -1.110622,0.831633 z"
                 id="path963"
                 style="fill:url(#radialGradient18163);fill-opacity:1;stroke-width:0.0792843" />
              <path
                 d="m 72.274246,67.10181 c 0.918516,-0.687785 1.106264,-1.994865 0.41848,-2.913382 -0.687784,-0.918515 -1.994864,-1.106269 -2.91338,-0.418485 -0.918516,0.687785 -1.10627,1.99487 -0.418486,2.913385 0.687784,0.918516 1.99487,1.106266 2.913386,0.418482 z m -1.663267,-2.221245 c 0.306409,-0.229439 0.742055,-0.166419 0.971125,0.139497 0.22907,0.305916 0.166917,0.741687 -0.139491,0.971126 -0.306409,0.229438 -0.742061,0.166423 -0.971131,-0.139493 -0.22907,-0.305916 -0.166912,-0.741691 0.139497,-0.97113 z"
                 id="path971"
                 style="fill:url(#radialGradient18165);fill-opacity:1;stroke-width:0.0792843" />
              <path
                 d="m 79.966272,63.818782 c 0.918516,-0.687784 1.106264,-1.994865 0.41848,-2.913381 -0.687785,-0.918516 -1.994864,-1.10627 -2.91338,-0.418485 -0.918516,0.687784 -1.106271,1.994869 -0.418486,2.913385 0.687785,0.918516 1.99487,1.106266 2.913386,0.418481 z m -1.663267,-2.221244 c 0.306409,-0.229439 0.742055,-0.166419 0.971125,0.139496 0.22907,0.305917 0.166917,0.741687 -0.139492,0.971126 -0.306408,0.229438 -0.74206,0.166424 -0.97113,-0.139492 -0.22907,-0.305916 -0.166912,-0.741691 0.139497,-0.97113 z"
                 id="path973"
                 style="fill:url(#radialGradient18167);fill-opacity:1;stroke-width:0.0792843" />
              <path
                 d="m 96.514122,64.656237 c -0.301914,-0.784146 -0.891486,-1.404348 -1.659844,-1.745021 l -6.213324,-2.759344 c -0.767493,-0.341021 -1.621808,-0.362874 -2.406543,-0.06073 -1.619415,0.623508 -2.429735,2.447499 -1.806342,4.066615 0.301914,0.784145 0.891486,1.404348 1.659844,1.745021 l 6.213324,2.759344 c 0.767493,0.341021 1.621808,0.362873 2.406543,0.06074 1.619415,-0.623508 2.429735,-2.447499 1.806342,-4.066615 z m -2.304871,2.771792 c -0.363308,0.139882 -0.752334,0.148278 -1.118853,0.04183 l 1.408976,-3.173208 c 0.325576,0.200866 0.580121,0.494801 0.719998,0.85808 0.348199,0.904374 -0.104863,1.924744 -1.01005,2.273259 z m -5.080407,-5.541827 1.422281,0.631521 -1.42781,3.215638 -1.42228,-0.631531 z m 2.690032,1.194425 1.42228,0.631532 -1.427809,3.215628 L 90.39106,66.29627 Z M 86.73294,61.38596 c 0.363308,-0.139882 0.752334,-0.148278 1.118853,-0.04183 l -1.408976,3.173208 c -0.325576,-0.200865 -0.580121,-0.4948 -0.719994,-0.858074 -0.348203,-0.90438 0.104862,-1.924744 1.010051,-2.273259 z"
                 id="path975"
                 style="fill:url(#radialGradient18169);fill-opacity:1;stroke-width:0.0792843" />
              <path
                 d="m 69.104545,84.581205 c -0.64974,-0.532835 -1.469295,-0.780164 -2.305334,-0.696864 -1.726433,0.172022 -2.990543,1.716624 -2.818502,3.443296 0.08337,0.836669 0.487444,1.590388 1.137414,2.122568 l 5.260481,4.306591 c 0.649653,0.531912 1.469209,0.779217 2.305239,0.695918 1.726442,-0.172023 2.990542,-1.716625 2.818503,-3.443296 -0.08337,-0.836669 -0.487444,-1.590388 -1.137414,-2.122568 z m 1.263186,7.373741 -1.204061,-0.985867 2.228937,-2.722275 1.20407,0.985867 z m -1.25243,-5.572757 1.204063,0.985869 -2.228937,2.722274 -1.20407,-0.985867 z M 66.93676,85.264987 c 0.38645,-0.03851 0.764113,0.05645 1.089992,0.256786 l -2.199533,2.686357 c -0.259788,-0.280054 -0.42732,-0.630944 -0.465888,-1.017986 -0.09617,-0.965188 0.611103,-1.829004 1.57542,-1.925084 z m 5.609591,7.807156 c -0.38645,0.03851 -0.764106,-0.05646 -1.089992,-0.256785 l 2.199539,-2.686361 c 0.259787,0.280052 0.427319,0.630942 0.465881,1.017988 0.09618,0.965184 -0.611098,1.829 -1.57542,1.925084 z"
                 id="path981"
                 style="fill:url(#radialGradient18171);fill-opacity:1;stroke-width:0.0792843" />
              <path
                 d="m 86.275804,88.549511 c -1.224919,0.917219 -1.475199,2.659588 -0.557977,3.88451 0.91722,1.224921 2.659591,1.475197 3.88451,0.557978 1.224925,-0.917223 1.475197,-2.65959 0.557977,-3.88451 -0.917221,-1.224923 -2.659585,-1.475202 -3.88451,-0.557978 z m 2.4949,3.331866 c -0.612575,0.458696 -1.483561,0.333585 -1.942255,-0.278989 -0.458697,-0.612575 -0.333587,-1.483559 0.278988,-1.942255 0.612575,-0.458696 1.483559,-0.333587 1.942256,0.278989 0.458694,0.612573 0.333586,1.483559 -0.278989,1.942255 z"
                 id="path983"
                 style="fill:url(#radialGradient18173);fill-opacity:1;stroke-width:0.0792843" />
              <path
                 d="m 91.489124,82.700311 c -0.918517,0.687785 -1.106271,1.994868 -0.418487,2.913384 0.687784,0.918516 1.99487,1.106266 2.913386,0.418482 0.918516,-0.687785 1.10627,-1.99487 0.418486,-2.913386 -0.687785,-0.918516 -1.994869,-1.106264 -2.913385,-0.41848 z m 1.663266,2.221244 c -0.306409,0.229439 -0.74206,0.166424 -0.971131,-0.139493 -0.229069,-0.305915 -0.166911,-0.74169 0.139498,-0.971129 0.306409,-0.229439 0.742055,-0.166419 0.971124,0.139496 0.229071,0.305917 0.166918,0.741687 -0.139491,0.971126 z"
                 id="path985"
                 style="fill:url(#radialGradient18175);fill-opacity:1;stroke-width:0.0792843" />
            </g>
          </g>
          <g
             id="g18194"
             transform="matrix(-1.3598002,-0.0914252,-0.0914252,1.3598002,171.66311,-83.669008)" />
        </g>
      </g>
    </g>
  </g>
</svg>
